<?xml version="1.0" encoding="UTF-8"?><svg xmlns="http://www.w3.org/2000/svg" color-interpolation="auto" height="250.95" stroke="#000" stroke-linecap="square" stroke-miterlimit="10" width="421.02"><defs><clipPath id="a"><path d="M5 5V245.95H416.02V5Z"/></clipPath><clipPath clip-path="url(#a)" id="b"><path d="M5 245.95H416.02V5H5Z"/></clipPath><clipPath clip-path="url(#b)" id="i"><path d="M5 5H416.02V245.95H5Z"/></clipPath><clipPath id="c"><path d="M5 5V245.95H416.02V5Z"/></clipPath><clipPath clip-path="url(#c)" id="d"><path d="M5 245.95H416.02V5H5Z"/></clipPath><clipPath clip-path="url(#d)" id="j"><path d="M5.01 5.07V245.95H227.36c20.44 0 37.01-16.57 37.01-37.01V5.07Z"/></clipPath><clipPath id="e"><path d="M5 5V245.95H416.02V5Z"/></clipPath><clipPath clip-path="url(#e)" id="f"><path d="M5 245.95H416.02V5H5Z"/></clipPath><clipPath clip-path="url(#f)" id="k"><path d="M5 5H416.02V245.95H5Z"/></clipPath><clipPath id="g"><path d="M5 5V245.95H416.02V5Z"/></clipPath><clipPath clip-path="url(#g)" id="h"><path d="M5 245.95H416.02V5H5Z"/></clipPath><clipPath clip-path="url(#h)" id="l"><path d="M5 5H416.02V245.95H5Z"/></clipPath></defs><g><g fill="#57207F" stroke="#57207F" stroke-linecap="butt" stroke-width=".25"><path clip-path="url(#i)" d="M416.02 245.95H5V5H416.02Z" fill="none"/><path clip-path="url(#i)" d="M5.02 5.07V245.94H227.36c20.44 0 37.01-16.57 37.01-37.01V5.07Z" fill="#611F7F" stroke="none"/><path clip-path="url(#j)" d="M181.52 300.75V280.72h28.43c9.82 0 17.81-6.26 17.81-16.08s-7.99-17.81-17.81-17.81H181.52V226.79h28.43c20.87 0 37.85 16.98 37.85 37.84s-16.98 36.12-37.85 36.12H181.52Z" fill="none" stroke="#fff" stroke-width=".3"/><path clip-path="url(#j)" d="M175.15 247.06H155.22V227.1h19.93v19.96Z" fill="none" stroke="#fff" stroke-width=".3"/><path clip-path="url(#j)" d="M102.9 332.29V303.71H62.35c-14.01 0-25.4-8.93-25.4-22.94s11.4-25.4 25.4-25.4H102.9V226.79H62.35c-29.77 0-53.98 24.21-53.98 53.98s24.22 51.52 53.98 51.52H102.9Z" fill="none" stroke="#F16D00" stroke-width=".3"/><path clip-path="url(#j)" d="M111.98 255.71h28.43V227.24H111.98v28.47Z" fill="none" stroke="#F16D00" stroke-width=".3"/><path clip-path="url(#j)" d="M37 24.05V1.37H69.19c11.12 0 20.16-7.09 20.16-18.21S80.3-37.01 69.19-37.01H37V-59.69H69.19c23.63 0 42.85 19.22 42.85 42.85S92.81 24.05 69.19 24.05H37Z" fill="none" stroke="#F16D00" stroke-width=".3"/><path clip-path="url(#j)" d="M29.91 24.16H23.2c-8.82 0-15.97-7.15-15.97-15.97V-29.87H29.91V24.16Z" fill="none" stroke="#F16D00" stroke-width=".3"/><path clip-path="url(#j)" d="M218.72 24.02V-4.56H178.17c-14.01 0-25.4-8.93-25.4-22.94s11.4-25.4 25.4-25.4h40.55V-81.48H178.17c-29.77 0-53.98 24.21-53.98 53.98s24.22 51.52 53.98 51.52h40.55Z" fill="none" stroke="#fff" stroke-width=".3"/><path clip-path="url(#j)" d="M227.65 24.16h8.46c11.11 0 20.12-9.01 20.12-20.12V-43.92H227.65V24.16Z" fill="none" stroke="#fff" stroke-width=".3"/><path clip-path="url(#k)" d="M156.4 145.03V118.55h37.57c12.98 0 23.54-8.28 23.54-21.25s-10.56-23.54-23.54-23.54H156.4V47.28h37.57c27.58 0 50.01 22.43 50.01 50.01s-22.44 47.73-50.01 47.73Z" fill="#fff" stroke="none"/><path clip-path="url(#k)" d="M146.93 144.74h-7.84c-10.29 0-18.64-8.35-18.64-18.64V81.67h26.48Z" fill="#fff" stroke="none"/><path clip-path="url(#k)" d="M146.79 73.66H120.45V47.28h26.34Z" fill="#F16D00" stroke="none"/><path clip-path="url(#k)" d="M242.73 168.48c0-.56.04-1.14.13-1.72s.22-1.16.39-1.7.41-1.04.69-1.47.62-.78 1.01-1.04.85-.39 1.36-.39c.6.01 1.1.14 1.49.41s.73.63.97 1.08.43.94.56 1.49.21 1.11.26 1.68.07 1.11.06 1.63c.01.89-.05 1.71-.16 2.47s-.29 1.42-.55 2-.59 1.02-1.01 1.34-.93.48-1.55.49c-.7-.01-1.28-.2-1.76-.56s-.85-.85-1.13-1.46-.48-1.28-.6-2.02-.18-1.47-.18-2.22m-3.16 12.6h3.16v-6.55h.07c.1.25.26.52.49.82s.5.59.86.87.79.51 1.31.69 1.12.28 1.81.29c1.27 0 2.34-.38 3.22-1.1s1.55-1.76 2-3.11.69-2.96.69-4.83c0-1.2-.1-2.31-.33-3.34s-.56-1.92-1.02-2.69-1.05-1.37-1.78-1.79-1.59-.64-2.6-.65c-.68.01-1.29.12-1.83.32s-.99.47-1.38.78-.69.63-.93.96-.41.61-.5.86h-.07v-2.53h-3.16Zm-11.71-4.27h3.17v-7.1c.01-1.28.15-2.34.42-3.19s.65-1.52 1.14-2.02 1.04-.84 1.66-1.06 1.31-.31 2.02-.3v-3.45c-.82.01-1.53.14-2.14.4s-1.11.59-1.51.98-.74.81-.99 1.23-.42.81-.53 1.15h-.07v-3.38h-3.17Zm-15.26-8.37c-.01-.54.02-1.11.07-1.69s.15-1.15.3-1.69.37-1.04.66-1.47.67-.79 1.14-1.04 1.05-.39 1.74-.39c.68.01 1.25.13 1.71.39s.84.6 1.13 1.04.5.93.65 1.47.25 1.11.3 1.69.08 1.15.08 1.69c.01.54-.02 1.1-.08 1.68s-.15 1.14-.3 1.69-.36 1.04-.65 1.48-.66.79-1.13 1.05-1.03.39-1.71.4c-.69-.01-1.27-.14-1.74-.4s-.85-.61-1.14-1.05-.5-.93-.66-1.48-.25-1.11-.3-1.69-.08-1.14-.07-1.68m3.9 8.76c1.25 0 2.35-.21 3.28-.63s1.69-1 2.3-1.78 1.06-1.69 1.36-2.76.45-2.27.45-3.59c0-1.79-.26-3.34-.8-4.65s-1.35-2.32-2.44-3.02-2.47-1.07-4.15-1.08c-1.69.01-3.07.37-4.17 1.08s-1.92 1.72-2.45 3.02-.8 2.85-.8 4.65c0 1.33.15 2.52.45 3.59s.76 1.99 1.37 2.76 1.38 1.36 2.32 1.78 2.03.62 3.29.63m-9.6-2.81c-.46.14-.91.23-1.35.28s-.89.08-1.32.07c-1.05-.01-1.96-.16-2.71-.46s-1.4-.71-1.9-1.22-.91-1.1-1.21-1.74-.51-1.32-.63-2.02-.19-1.38-.19-2.05c.01-1.04.15-1.93.42-2.69s.68-1.35 1.18-1.77 1.11-.63 1.81-.63c.57.01 1.04.12 1.38.35s.6.51.77.87.28.71.33 1.1.08.74.08 1.06h3.62c.01-.7-.08-1.38-.26-2.07s-.5-1.31-.94-1.88-1.05-1.02-1.83-1.36-1.75-.51-2.94-.53c-1.25.01-2.32.21-3.22.61s-1.64.98-2.22 1.71-1.01 1.59-1.28 2.58-.42 2.07-.42 3.25c-.01.84.08 1.69.24 2.57s.43 1.71.8 2.52.87 1.53 1.5 2.17 1.41 1.15 2.34 1.52 2.03.57 3.31.57c.98 0 1.85-.06 2.6-.17s1.43-.27 2.04-.46Zm-25.11-9.28c-.01-.19.05-.45.16-.77s.28-.65.53-.98.6-.62 1.03-.84.97-.35 1.62-.36c.6.01 1.1.11 1.5.31s.71.46.94.77.39.63.49.97.14.64.14.91Zm9.18 9.04c-.36.13-.8.26-1.32.39s-1.13.19-1.85.21c-.91-.01-1.71-.17-2.4-.48s-1.26-.74-1.75-1.27-.86-1.12-1.16-1.78-.51-1.33-.65-2.02-.2-1.35-.2-1.99h9.71v-.81c0-.99-.12-1.89-.37-2.71s-.62-1.52-1.12-2.12-1.13-1.06-1.89-1.38-1.65-.49-2.67-.5c-.44-.01-.95.04-1.54.14s-1.18.3-1.79.6-1.18.73-1.71 1.32-.95 1.35-1.28 2.31-.49 2.15-.5 3.58c.01 2.19.35 3.99 1.02 5.4s1.63 2.46 2.87 3.14 2.71 1.03 4.4 1.02c.6 0 1.13-.03 1.59-.08s.89-.12 1.3-.2.84-.18 1.29-.29Zm-14.77.35c-.23.07-.5.13-.8.18s-.6.07-.88.07c-.61-.01-1.1-.11-1.45-.3s-.63-.45-.81-.77-.29-.67-.34-1.05-.08-.77-.07-1.15v-8.93h4.64v-2.46h-4.64v-5.91l-3.16 1.97v3.94h-2.99v2.46h2.99v10.58c-.01.57.07 1.11.22 1.6s.41.93.78 1.29.88.66 1.54.87 1.49.31 2.49.32c.42 0 .84-.02 1.26-.06s.83-.1 1.24-.19Zm-27.15 2.32h3.16v-7.1c0-.84.11-1.67.33-2.48s.51-1.55.91-2.2.86-1.18 1.41-1.57 1.14-.59 1.79-.6c.57 0 1.01.1 1.32.32s.54.52.68.93.22.91.25 1.51.04 1.28.04 2.06v9.14h3.16v-11.6c.01-.42-.03-.88-.1-1.37s-.19-.98-.37-1.47-.44-.93-.77-1.33-.77-.73-1.31-.97-1.18-.37-1.95-.37c-.85.01-1.58.15-2.19.42s-1.12.62-1.53 1.04-.75.85-1 1.3-.45.85-.59 1.21h-.07v-3.59h-3.16Zm-8.23-7.49v.95c0 .5-.1 1.01-.29 1.53s-.45 1-.79 1.44-.75.8-1.21 1.07-.96.42-1.51.42c-.32 0-.62-.09-.9-.27s-.5-.42-.67-.74-.26-.71-.26-1.14c.01-.54.15-1.01.43-1.42s.66-.74 1.13-1.02 1.01-.49 1.6-.62 1.2-.21 1.83-.21Zm0 7.49H144v-11.5c.01-.31-.01-.7-.04-1.17s-.14-.95-.31-1.46-.45-1-.83-1.45-.93-.82-1.62-1.11-1.59-.43-2.68-.44c-1.17.01-2.15.14-2.95.41s-1.45.63-1.93 1.1-.84 1-1.05 1.6-.33 1.24-.32 1.92h3.34c0-.45.09-.87.27-1.26s.47-.7.87-.94.9-.36 1.53-.37c.4 0 .78.06 1.14.19s.66.36.91.67.42.74.52 1.28v2.92c-.85-.01-1.72.05-2.59.15s-1.69.27-2.47.51-1.48.57-2.09.98-1.09.94-1.45 1.57-.54 1.39-.54 2.27c0 .87.18 1.65.53 2.32s.89 1.21 1.6 1.59 1.58.58 2.62.59c.64 0 1.21-.09 1.7-.26s.91-.38 1.27-.63.64-.52.87-.8.39-.53.49-.77h.07Zm-37.17 0h3.16V156.7h.07l6.96 20.11h3.34l6.96-20.11h.07v20.11h3.17V152.55h-4.92l-6.89 19.87h-.07l-6.89-19.87h-4.96Z" fill="#F16D00" stroke="none"/><path clip-path="url(#k)" d="M105.73 199.4c-1.34 0-2.47-.41-3.11-.87l-.19-1.56c.87.68 2.04 1.15 3.35 1.15 1.41 0 2.41-.81 2.41-2.02s-.7-1.87-2.26-2.41c-2.11-.72-3.17-1.75-3.17-3.43 0-1.56 1.17-3.09 3.6-3.09 1.13 0 2.07.36 2.54.68l-.3 1.24c-.45-.32-1.36-.7-2.28-.7-1.38 0-2.15.85-2.15 1.76 0 .98.66 1.58 2.05 2.07 2.09.75 3.43 1.69 3.43 3.74 0 2.07-1.47 3.43-3.94 3.43" fill="#fff" stroke="none"/><path clip-path="url(#k)" d="M116.13 195.26l-1.83.17c-1.13.12-1.7.76-1.7 1.53 0 .73.58 1.32 1.47 1.32 1.05 0 2.05-.79 2.05-2.05Zm1.53 4.26c-.58-.13-1.25-.64-1.36-1.43-.36.99-1.32 1.43-2.35 1.43-1.66 0-2.73-1.19-2.73-2.58 0-1.66 1.34-2.55 2.79-2.68l2.13-.21v-.68c0-.9-.6-1.55-1.85-1.55-.85 0-1.71.27-2.3.66l-.3-1.21c.72-.47 1.66-.72 2.67-.72 1.87 0 3.22 1.05 3.22 2.97v3.68c0 .81.45 1.26 1 1.35Z" fill="#fff" stroke="none"/><path clip-path="url(#k)" d="M125.44 187.49c-.64.73-1.42 1.34-2.24 1.87l-.76-.34c.72-.56 1.6-1.45 2.15-2.24.11-.15.3-.24.42-.24.21 0 .64.45.64.64 0 .08-.09.21-.21.32m.43 11.82v-1.19h-.02c-.32.77-1.15 1.39-2.7 1.39-1.86 0-3.26-1.17-3.26-3.05v-5.69h1.45v5.56c0 1.04.7 1.93 2.17 1.93 1.43 0 2.24-.89 2.24-1.93v-5.56h1.45v8.54Z" fill="#fff" stroke="none"/><path clip-path="url(#k)" d="M135.7 192.81c-.34-.38-1.11-.92-2.28-.92-1.68 0-3.01 1.3-3.01 3.18 0 1.9 1.34 3.19 3.01 3.19 1.11 0 1.9-.57 2.28-1.11Zm.08 6.5v-.94h-.02c-.4.57-1.26 1.15-2.64 1.15-2.01 0-4.18-1.6-4.18-4.47 0-2.62 1.87-4.48 4.35-4.48 1.02 0 2.05.41 2.41.81v-5.49h1.45v13.42Z" fill="#fff" stroke="none"/><path clip-path="url(#k)" d="M143.24 191.77c-1.28 0-2.49 1.07-2.71 2.38h4.88c.02-.08.02-.17.02-.27 0-1-.79-2.11-2.18-2.11m3.54 2.7l-.79.81h-5.56c0 1.39 1.17 3.02 3.28 3.02 1.05 0 1.86-.3 2.48-.73l-.17 1.38c-.6.34-1.37.58-2.49.58-2.45 0-4.54-1.83-4.54-4.47 0-2.81 2.15-4.48 4.16-4.48 2.36 0 3.68 1.66 3.68 3.28 0 .24-.02.45-.06.62" fill="#fff" stroke="none"/><path clip-path="url(#k)" d="M156.73 191.89c-1.11 0-1.9.56-2.28 1.11v4.33c.34.38 1.11.93 2.28.93 1.68 0 3.01-1.3 3.01-3.19 0-1.9-1.34-3.18-3.01-3.18m.13 7.63c-1.01 0-2.05-.41-2.41-.81v4.96H153V190.77h1.38v.95h.02c.39-.57 1.26-1.15 2.64-1.15 2.02 0 4.18 1.6 4.18 4.47 0 2.62-1.87 4.49-4.35 4.49" fill="#fff" stroke="none"/><path clip-path="url(#k)" d="M166.81 191.77c-1.28 0-2.49 1.07-2.71 2.38h4.88c.02-.08.02-.17.02-.27 0-1-.79-2.11-2.18-2.11m3.54 2.7l-.79.81h-5.56c0 1.39 1.17 3.02 3.28 3.02 1.05 0 1.86-.3 2.48-.73l-.17 1.38c-.6.34-1.38.58-2.49.58-2.45 0-4.54-1.83-4.54-4.47 0-2.81 2.15-4.48 4.16-4.48 2.36 0 3.68 1.66 3.68 3.28 0 .24-.02.45-.06.62" fill="#fff" stroke="none"/><path clip-path="url(#k)" d="M176.63 192.23c-.15-.04-.39-.1-.64-.1-1.22 0-2.43.73-2.43 2.85v4.33h-1.4v-8.54h1.4v1.87h.02c.28-1.21 1.26-1.97 2.56-1.97.24 0 .62.04.83.11Z" fill="#fff" stroke="none"/><path clip-path="url(#k)" d="M180.34 199.42c-1.02 0-1.79-.26-2.35-.65l-.19-1.51c.62.54 1.56.98 2.56.98.89 0 1.54-.47 1.54-1.19 0-.7-.53-1.12-1.41-1.44-1.6-.56-2.51-1.3-2.51-2.64 0-1.38 1.13-2.31 2.69-2.31.93 0 1.79.34 2.13.55l-.3 1.19c-.38-.28-1-.57-1.85-.57-.79 0-1.32.45-1.32 1.1 0 .68.47.97 1.35 1.3 1.64.59 2.6 1.36 2.6 2.77 0 1.39-1.08 2.43-2.96 2.43" fill="#fff" stroke="none"/><path clip-path="url(#k)" d="M189.06 191.89c-1.68 0-3.05 1.3-3.05 3.2 0 1.88 1.38 3.17 3.05 3.17 1.66 0 3.04-1.28 3.04-3.17 0-1.9-1.38-3.2-3.04-3.2m0 7.63c-2.54 0-4.52-1.85-4.52-4.47 0-2.64 1.98-4.48 4.52-4.48s4.51 1.85 4.51 4.48c0 2.62-1.96 4.47-4.51 4.47" fill="#fff" stroke="none"/><path clip-path="url(#k)" d="M201.18 199.31v-5.56c0-1.04-.7-1.92-2.17-1.92-1.43 0-2.24.89-2.24 1.92v5.56h-1.45v-8.54h1.34v1.19h.02c.32-.77 1.15-1.39 2.69-1.39 1.87 0 3.26 1.17 3.26 3.06v5.69Z" fill="#fff" stroke="none"/><path clip-path="url(#k)" d="M209.3 195.26l-1.83.17c-1.13.12-1.7.76-1.7 1.53 0 .73.59 1.32 1.47 1.32 1.05 0 2.05-.79 2.05-2.05Zm1.53 4.26c-.58-.13-1.24-.64-1.36-1.43-.36.99-1.32 1.43-2.35 1.43-1.66 0-2.73-1.19-2.73-2.58 0-1.66 1.34-2.55 2.79-2.68l2.13-.21v-.68c0-.9-.6-1.55-1.85-1.55-.85 0-1.71.27-2.3.66l-.3-1.21c.72-.47 1.66-.72 2.68-.72 1.87 0 3.22 1.05 3.22 2.97v3.68c0 .81.45 1.26 1 1.35Z" fill="#fff" stroke="none"/><path clip-path="url(#k)" d="M214.69 199.63c-.62-.17-1.58-.76-1.58-2.27V185.89h1.45v11.28c0 .81.57 1.34 1.13 1.45Z" fill="#fff" stroke="none"/><path clip-path="url(#k)" d="M217.37 190.77h1.47v8.54h-1.47Zm.73-1.68c-.3 0-.92-.64-.92-.94 0-.32.62-.92.92-.92.32 0 .94.6.94.92 0 .3-.62.94-.94.94" fill="#fff" stroke="none"/><path clip-path="url(#k)" d="M220.8 199.31v-.3l2.85-4.67c.45-.73 1-1.68 1.45-2.36l-.02-.04H221.1v-1.17h6.07v.3l-2.86 4.67c-.46.75-.94 1.54-1.45 2.36l.02.04h4.64v1.17Z" fill="#fff" stroke="none"/><path clip-path="url(#k)" d="M233.78 195.26l-1.83.17c-1.13.12-1.7.76-1.7 1.53 0 .73.59 1.32 1.47 1.32 1.05 0 2.05-.79 2.05-2.05Zm1.53 4.26c-.58-.13-1.24-.64-1.36-1.43-.36.99-1.32 1.43-2.35 1.43-1.66 0-2.73-1.19-2.73-2.58 0-1.66 1.34-2.55 2.79-2.68l2.13-.21v-.68c0-.9-.6-1.55-1.85-1.55-.85 0-1.71.27-2.3.66l-.3-1.21c.72-.47 1.66-.72 2.68-.72 1.87 0 3.22 1.05 3.22 2.97v3.68c0 .81.45 1.26 1 1.35Z" fill="#fff" stroke="none"/><path clip-path="url(#k)" d="M243.74 192.81c-.34-.38-1.11-.92-2.28-.92-1.68 0-3.01 1.3-3.01 3.18 0 1.9 1.34 3.19 3.01 3.19 1.11 0 1.9-.57 2.28-1.11Zm.08 6.5v-.94h-.02c-.4.57-1.26 1.15-2.64 1.15-2.01 0-4.18-1.6-4.18-4.47 0-2.62 1.87-4.48 4.35-4.48 1.02 0 2.05.41 2.41.81v-5.49h1.45v13.42Z" fill="#fff" stroke="none"/><path clip-path="url(#k)" d="M251.96 195.26l-1.83.17c-1.13.12-1.7.76-1.7 1.53 0 .73.59 1.32 1.47 1.32 1.05 0 2.05-.79 2.05-2.05Zm1.53 4.26c-.58-.13-1.24-.64-1.36-1.43-.36.99-1.32 1.43-2.35 1.43-1.66 0-2.73-1.19-2.73-2.58 0-1.66 1.34-2.55 2.79-2.68l2.13-.21v-.68c0-.9-.6-1.55-1.85-1.55-.85 0-1.71.27-2.3.66l-.3-1.21c.72-.47 1.66-.72 2.68-.72 1.87 0 3.22 1.05 3.22 2.97v3.68c0 .81.45 1.26 1 1.35Z" fill="#fff" stroke="none"/><path clip-path="url(#l)" d="M20.99 139.23h.97v.97h-.97Z" fill="#fff" stroke="none"/><path clip-path="url(#l)" d="M21.97 139.23h.97v.97h-.97Z" fill="#fff" stroke="none"/><path clip-path="url(#l)" d="M22.94 139.23h.97v.97h-.97Z" fill="#fff" stroke="none"/><path clip-path="url(#l)" d="M23.92 139.23h.97v.97h-.97Z" fill="#fff" stroke="none"/><path clip-path="url(#l)" d="M24.89 139.23h.97v.97h-.97Z" fill="#fff" stroke="none"/><path clip-path="url(#l)" d="M25.86 139.23h.97v.97h-.97Z" fill="#fff" stroke="none"/><path clip-path="url(#l)" d="M26.84 139.23h.97v.97h-.97Z" fill="#fff" stroke="none"/><path clip-path="url(#l)" d="M28.78 139.23h.97v.97h-.97Z" fill="#fff" stroke="none"/><path clip-path="url(#l)" d="M29.76 139.23h.97v.97h-.97Z" fill="#fff" stroke="none"/><path clip-path="url(#l)" d="M30.73 139.23h.97v.97h-.97Z" fill="#fff" stroke="none"/><path clip-path="url(#l)" d="M31.7 139.23h.97v.97H31.7Z" fill="#fff" stroke="none"/><path clip-path="url(#l)" d="M33.65 139.23h.97v.97h-.97Z" fill="#fff" stroke="none"/><path clip-path="url(#l)" d="M34.63 139.23h.97v.97h-.97Z" fill="#fff" stroke="none"/><path clip-path="url(#l)" d="M38.52 139.23h.97v.97h-.97Z" fill="#fff" stroke="none"/><path clip-path="url(#l)" d="M39.49 139.23h.97v.97h-.97Z" fill="#fff" stroke="none"/><path clip-path="url(#l)" d="M40.47 139.23h.97v.97h-.97Z" fill="#fff" stroke="none"/><path clip-path="url(#l)" d="M41.44 139.23h.97v.97h-.97Z" fill="#fff" stroke="none"/><path clip-path="url(#l)" d="M42.42 139.23h.97v.97h-.97Z" fill="#fff" stroke="none"/><path clip-path="url(#l)" d="M43.39 139.23h.97v.97h-.97Z" fill="#fff" stroke="none"/><path clip-path="url(#l)" d="M44.36 139.23h.97v.97h-.97Z" fill="#fff" stroke="none"/><path clip-path="url(#l)" d="M20.99 140.2h.97v.97h-.97Z" fill="#fff" stroke="none"/><path clip-path="url(#l)" d="M26.84 140.2h.97v.97h-.97Z" fill="#fff" stroke="none"/><path clip-path="url(#l)" d="M28.78 140.2h.97v.97h-.97Z" fill="#fff" stroke="none"/><path clip-path="url(#l)" d="M31.7 140.2h.97v.97H31.7Z" fill="#fff" stroke="none"/><path clip-path="url(#l)" d="M34.63 140.2h.97v.97h-.97Z" fill="#fff" stroke="none"/><path clip-path="url(#l)" d="M36.57 140.2h.97v.97h-.97Z" fill="#fff" stroke="none"/><path clip-path="url(#l)" d="M38.52 140.2h.97v.97h-.97Z" fill="#fff" stroke="none"/><path clip-path="url(#l)" d="M44.36 140.2h.97v.97h-.97Z" fill="#fff" stroke="none"/><path clip-path="url(#l)" d="M20.99 141.18h.97v.97h-.97Z" fill="#fff" stroke="none"/><path clip-path="url(#l)" d="M22.94 141.18h.97v.97h-.97Z" fill="#fff" stroke="none"/><path clip-path="url(#l)" d="M23.92 141.18h.97v.97h-.97Z" fill="#fff" stroke="none"/><path clip-path="url(#l)" d="M24.89 141.18h.97v.97h-.97Z" fill="#fff" stroke="none"/><path clip-path="url(#l)" d="M26.84 141.18h.97v.97h-.97Z" fill="#fff" stroke="none"/><path clip-path="url(#l)" d="M29.76 141.18h.97v.97h-.97Z" fill="#fff" stroke="none"/><path clip-path="url(#l)" d="M33.65 141.18h.97v.97h-.97Z" fill="#fff" stroke="none"/><path clip-path="url(#l)" d="M34.63 141.18h.97v.97h-.97Z" fill="#fff" stroke="none"/><path clip-path="url(#l)" d="M38.52 141.18h.97v.97h-.97Z" fill="#fff" stroke="none"/><path clip-path="url(#l)" d="M40.47 141.18h.97v.97h-.97Z" fill="#fff" stroke="none"/><path clip-path="url(#l)" d="M41.44 141.18h.97v.97h-.97Z" fill="#fff" stroke="none"/><path clip-path="url(#l)" d="M42.42 141.18h.97v.97h-.97Z" fill="#fff" stroke="none"/><path clip-path="url(#l)" d="M44.36 141.18h.97v.97h-.97Z" fill="#fff" stroke="none"/><path clip-path="url(#l)" d="M20.99 142.15h.97v.97h-.97Z" fill="#fff" stroke="none"/><path clip-path="url(#l)" d="M22.94 142.15h.97v.97h-.97Z" fill="#fff" stroke="none"/><path clip-path="url(#l)" d="M23.92 142.15h.97v.97h-.97Z" fill="#fff" stroke="none"/><path clip-path="url(#l)" d="M24.89 142.15h.97v.97h-.97Z" fill="#fff" stroke="none"/><path clip-path="url(#l)" d="M26.84 142.15h.97v.97h-.97Z" fill="#fff" stroke="none"/><path clip-path="url(#l)" d="M31.7 142.15h.97v.97H31.7Z" fill="#fff" stroke="none"/><path clip-path="url(#l)" d="M32.68 142.15h.97v.97h-.97Z" fill="#fff" stroke="none"/><path clip-path="url(#l)" d="M33.65 142.15h.97v.97h-.97Z" fill="#fff" stroke="none"/><path clip-path="url(#l)" d="M34.63 142.15h.97v.97h-.97Z" fill="#fff" stroke="none"/><path clip-path="url(#l)" d="M35.6 142.15h.97v.97H35.6Z" fill="#fff" stroke="none"/><path clip-path="url(#l)" d="M38.52 142.15h.97v.97h-.97Z" fill="#fff" stroke="none"/><path clip-path="url(#l)" d="M40.47 142.15h.97v.97h-.97Z" fill="#fff" stroke="none"/><path clip-path="url(#l)" d="M41.44 142.15h.97v.97h-.97Z" fill="#fff" stroke="none"/><path clip-path="url(#l)" d="M42.42 142.15h.97v.97h-.97Z" fill="#fff" stroke="none"/><path clip-path="url(#l)" d="M44.36 142.15h.97v.97h-.97Z" fill="#fff" stroke="none"/><path clip-path="url(#l)" d="M20.99 143.12h.97v.97h-.97Z" fill="#fff" stroke="none"/><path clip-path="url(#l)" d="M22.94 143.12h.97v.97h-.97Z" fill="#fff" stroke="none"/><path clip-path="url(#l)" d="M23.92 143.12h.97v.97h-.97Z" fill="#fff" stroke="none"/><path clip-path="url(#l)" d="M24.89 143.12h.97v.97h-.97Z" fill="#fff" stroke="none"/><path clip-path="url(#l)" d="M26.84 143.12h.97v.97h-.97Z" fill="#fff" stroke="none"/><path clip-path="url(#l)" d="M28.78 143.12h.97v.97h-.97Z" fill="#fff" stroke="none"/><path clip-path="url(#l)" d="M31.7 143.12h.97v.97H31.7Z" fill="#fff" stroke="none"/><path clip-path="url(#l)" d="M32.68 143.12h.97v.97h-.97Z" fill="#fff" stroke="none"/><path clip-path="url(#l)" d="M33.65 143.12h.97v.97h-.97Z" fill="#fff" stroke="none"/><path clip-path="url(#l)" d="M34.63 143.12h.97v.97h-.97Z" fill="#fff" stroke="none"/><path clip-path="url(#l)" d="M36.57 143.12h.97v.97h-.97Z" fill="#fff" stroke="none"/><path clip-path="url(#l)" d="M38.52 143.12h.97v.97h-.97Z" fill="#fff" stroke="none"/><path clip-path="url(#l)" d="M40.47 143.12h.97v.97h-.97Z" fill="#fff" stroke="none"/><path clip-path="url(#l)" d="M41.44 143.12h.97v.97h-.97Z" fill="#fff" stroke="none"/><path clip-path="url(#l)" d="M42.42 143.12h.97v.97h-.97Z" fill="#fff" stroke="none"/><path clip-path="url(#l)" d="M44.36 143.12h.97v.97h-.97Z" fill="#fff" stroke="none"/><path clip-path="url(#l)" d="M20.99 144.1h.97v.97h-.97Z" fill="#fff" stroke="none"/><path clip-path="url(#l)" d="M26.84 144.1h.97v.97h-.97Z" fill="#fff" stroke="none"/><path clip-path="url(#l)" d="M28.78 144.1h.97v.97h-.97Z" fill="#fff" stroke="none"/><path clip-path="url(#l)" d="M29.76 144.1h.97v.97h-.97Z" fill="#fff" stroke="none"/><path clip-path="url(#l)" d="M30.73 144.1h.97v.97h-.97Z" fill="#fff" stroke="none"/><path clip-path="url(#l)" d="M32.68 144.1h.97v.97h-.97Z" fill="#fff" stroke="none"/><path clip-path="url(#l)" d="M33.65 144.1h.97v.97h-.97Z" fill="#fff" stroke="none"/><path clip-path="url(#l)" d="M34.63 144.1h.97v.97h-.97Z" fill="#fff" stroke="none"/><path clip-path="url(#l)" d="M36.57 144.1h.97v.97h-.97Z" fill="#fff" stroke="none"/><path clip-path="url(#l)" d="M38.52 144.1h.97v.97h-.97Z" fill="#fff" stroke="none"/><path clip-path="url(#l)" d="M44.36 144.1h.97v.97h-.97Z" fill="#fff" stroke="none"/><path clip-path="url(#l)" d="M20.99 145.07h.97v.97h-.97Z" fill="#fff" stroke="none"/><path clip-path="url(#l)" d="M21.97 145.07h.97v.97h-.97Z" fill="#fff" stroke="none"/><path clip-path="url(#l)" d="M22.94 145.07h.97v.97h-.97Z" fill="#fff" stroke="none"/><path clip-path="url(#l)" d="M23.92 145.07h.97v.97h-.97Z" fill="#fff" stroke="none"/><path clip-path="url(#l)" d="M24.89 145.07h.97v.97h-.97Z" fill="#fff" stroke="none"/><path clip-path="url(#l)" d="M25.86 145.07h.97v.97h-.97Z" fill="#fff" stroke="none"/><path clip-path="url(#l)" d="M26.84 145.07h.97v.97h-.97Z" fill="#fff" stroke="none"/><path clip-path="url(#l)" d="M28.78 145.07h.97v.97h-.97Z" fill="#fff" stroke="none"/><path clip-path="url(#l)" d="M30.73 145.07h.97v.97h-.97Z" fill="#fff" stroke="none"/><path clip-path="url(#l)" d="M32.68 145.07h.97v.97h-.97Z" fill="#fff" stroke="none"/><path clip-path="url(#l)" d="M34.63 145.07h.97v.97h-.97Z" fill="#fff" stroke="none"/><path clip-path="url(#l)" d="M36.57 145.07h.97v.97h-.97Z" fill="#fff" stroke="none"/><path clip-path="url(#l)" d="M38.52 145.07h.97v.97h-.97Z" fill="#fff" stroke="none"/><path clip-path="url(#l)" d="M39.49 145.07h.97v.97h-.97Z" fill="#fff" stroke="none"/><path clip-path="url(#l)" d="M40.47 145.07h.97v.97h-.97Z" fill="#fff" stroke="none"/><path clip-path="url(#l)" d="M41.44 145.07h.97v.97h-.97Z" fill="#fff" stroke="none"/><path clip-path="url(#l)" d="M42.42 145.07h.97v.97h-.97Z" fill="#fff" stroke="none"/><path clip-path="url(#l)" d="M43.39 145.07h.97v.97h-.97Z" fill="#fff" stroke="none"/><path clip-path="url(#l)" d="M44.36 145.07h.97v.97h-.97Z" fill="#fff" stroke="none"/><path clip-path="url(#l)" d="M28.78 146.04h.97v.97h-.97Z" fill="#fff" stroke="none"/><path clip-path="url(#l)" d="M29.76 146.04h.97v.97h-.97Z" fill="#fff" stroke="none"/><path clip-path="url(#l)" d="M35.6 146.04h.97v.97H35.6Z" fill="#fff" stroke="none"/><path clip-path="url(#l)" d="M36.57 146.04h.97v.97h-.97Z" fill="#fff" stroke="none"/><path clip-path="url(#l)" d="M20.99 147.02h.97v.97h-.97Z" fill="#fff" stroke="none"/><path clip-path="url(#l)" d="M21.97 147.02h.97v.97h-.97Z" fill="#fff" stroke="none"/><path clip-path="url(#l)" d="M22.94 147.02h.97v.97h-.97Z" fill="#fff" stroke="none"/><path clip-path="url(#l)" d="M25.86 147.02h.97v.97h-.97Z" fill="#fff" stroke="none"/><path clip-path="url(#l)" d="M26.84 147.02h.97v.97h-.97Z" fill="#fff" stroke="none"/><path clip-path="url(#l)" d="M28.78 147.02h.97v.97h-.97Z" fill="#fff" stroke="none"/><path clip-path="url(#l)" d="M29.76 147.02h.97v.97h-.97Z" fill="#fff" stroke="none"/><path clip-path="url(#l)" d="M31.7 147.02h.97v.97H31.7Z" fill="#fff" stroke="none"/><path clip-path="url(#l)" d="M32.68 147.02h.97v.97h-.97Z" fill="#fff" stroke="none"/><path clip-path="url(#l)" d="M36.57 147.02h.97v.97h-.97Z" fill="#fff" stroke="none"/><path clip-path="url(#l)" d="M37.55 147.02h.97v.97h-.97Z" fill="#fff" stroke="none"/><path clip-path="url(#l)" d="M38.52 147.02h.97v.97h-.97Z" fill="#fff" stroke="none"/><path clip-path="url(#l)" d="M39.49 147.02h.97v.97h-.97Z" fill="#fff" stroke="none"/><path clip-path="url(#l)" d="M40.47 147.02h.97v.97h-.97Z" fill="#fff" stroke="none"/><path clip-path="url(#l)" d="M43.39 147.02h.97v.97h-.97Z" fill="#fff" stroke="none"/><path clip-path="url(#l)" d="M44.36 147.02h.97v.97h-.97Z" fill="#fff" stroke="none"/><path clip-path="url(#l)" d="M21.97 147.99h.97v.97h-.97Z" fill="#fff" stroke="none"/><path clip-path="url(#l)" d="M24.89 147.99h.97v.97h-.97Z" fill="#fff" stroke="none"/><path clip-path="url(#l)" d="M28.78 147.99h.97v.97h-.97Z" fill="#fff" stroke="none"/><path clip-path="url(#l)" d="M32.68 147.99h.97v.97h-.97Z" fill="#fff" stroke="none"/><path clip-path="url(#l)" d="M34.63 147.99h.97v.97h-.97Z" fill="#fff" stroke="none"/><path clip-path="url(#l)" d="M35.6 147.99h.97v.97H35.6Z" fill="#fff" stroke="none"/><path clip-path="url(#l)" d="M36.57 147.99h.97v.97h-.97Z" fill="#fff" stroke="none"/><path clip-path="url(#l)" d="M37.55 147.99h.97v.97h-.97Z" fill="#fff" stroke="none"/><path clip-path="url(#l)" d="M38.52 147.99h.97v.97h-.97Z" fill="#fff" stroke="none"/><path clip-path="url(#l)" d="M39.49 147.99h.97v.97h-.97Z" fill="#fff" stroke="none"/><path clip-path="url(#l)" d="M41.44 147.99h.97v.97h-.97Z" fill="#fff" stroke="none"/><path clip-path="url(#l)" d="M43.39 147.99h.97v.97h-.97Z" fill="#fff" stroke="none"/><path clip-path="url(#l)" d="M44.36 147.99h.97v.97h-.97Z" fill="#fff" stroke="none"/><path clip-path="url(#l)" d="M20.99 148.97h.97v.97h-.97Z" fill="#fff" stroke="none"/><path clip-path="url(#l)" d="M21.97 148.97h.97v.97h-.97Z" fill="#fff" stroke="none"/><path clip-path="url(#l)" d="M22.94 148.97h.97v.97h-.97Z" fill="#fff" stroke="none"/><path clip-path="url(#l)" d="M23.92 148.97h.97v.97h-.97Z" fill="#fff" stroke="none"/><path clip-path="url(#l)" d="M25.86 148.97h.97v.97h-.97Z" fill="#fff" stroke="none"/><path clip-path="url(#l)" d="M26.84 148.97h.97v.97h-.97Z" fill="#fff" stroke="none"/><path clip-path="url(#l)" d="M27.81 148.97h.97v.97h-.97Z" fill="#fff" stroke="none"/><path clip-path="url(#l)" d="M28.78 148.97h.97v.97h-.97Z" fill="#fff" stroke="none"/><path clip-path="url(#l)" d="M29.76 148.97h.97v.97h-.97Z" fill="#fff" stroke="none"/><path clip-path="url(#l)" d="M30.73 148.97h.97v.97h-.97Z" fill="#fff" stroke="none"/><path clip-path="url(#l)" d="M32.68 148.97h.97v.97h-.97Z" fill="#fff" stroke="none"/><path clip-path="url(#l)" d="M34.63 148.97h.97v.97h-.97Z" fill="#fff" stroke="none"/><path clip-path="url(#l)" d="M35.6 148.97h.97v.97H35.6Z" fill="#fff" stroke="none"/><path clip-path="url(#l)" d="M37.55 148.97h.97v.97h-.97Z" fill="#fff" stroke="none"/><path clip-path="url(#l)" d="M39.49 148.97h.97v.97h-.97Z" fill="#fff" stroke="none"/><path clip-path="url(#l)" d="M40.47 148.97h.97v.97h-.97Z" fill="#fff" stroke="none"/><path clip-path="url(#l)" d="M41.44 148.97h.97v.97h-.97Z" fill="#fff" stroke="none"/><path clip-path="url(#l)" d="M42.42 148.97h.97v.97h-.97Z" fill="#fff" stroke="none"/><path clip-path="url(#l)" d="M44.36 148.97h.97v.97h-.97Z" fill="#fff" stroke="none"/><path clip-path="url(#l)" d="M20.99 149.94h.97v.97h-.97Z" fill="#fff" stroke="none"/><path clip-path="url(#l)" d="M22.94 149.94h.97v.97h-.97Z" fill="#fff" stroke="none"/><path clip-path="url(#l)" d="M23.92 149.94h.97v.97h-.97Z" fill="#fff" stroke="none"/><path clip-path="url(#l)" d="M25.86 149.94h.97v.97h-.97Z" fill="#fff" stroke="none"/><path clip-path="url(#l)" d="M27.81 149.94h.97v.97h-.97Z" fill="#fff" stroke="none"/><path clip-path="url(#l)" d="M30.73 149.94h.97v.97h-.97Z" fill="#fff" stroke="none"/><path clip-path="url(#l)" d="M31.7 149.94h.97v.97H31.7Z" fill="#fff" stroke="none"/><path clip-path="url(#l)" d="M32.68 149.94h.97v.97h-.97Z" fill="#fff" stroke="none"/><path clip-path="url(#l)" d="M34.63 149.94h.97v.97h-.97Z" fill="#fff" stroke="none"/><path clip-path="url(#l)" d="M37.55 149.94h.97v.97h-.97Z" fill="#fff" stroke="none"/><path clip-path="url(#l)" d="M40.47 149.94h.97v.97h-.97Z" fill="#fff" stroke="none"/><path clip-path="url(#l)" d="M41.44 149.94h.97v.97h-.97Z" fill="#fff" stroke="none"/><path clip-path="url(#l)" d="M21.97 150.91h.97v.97h-.97Z" fill="#fff" stroke="none"/><path clip-path="url(#l)" d="M22.94 150.91h.97v.97h-.97Z" fill="#fff" stroke="none"/><path clip-path="url(#l)" d="M26.84 150.91h.97v.97h-.97Z" fill="#fff" stroke="none"/><path clip-path="url(#l)" d="M27.81 150.91h.97v.97h-.97Z" fill="#fff" stroke="none"/><path clip-path="url(#l)" d="M29.76 150.91h.97v.97h-.97Z" fill="#fff" stroke="none"/><path clip-path="url(#l)" d="M30.73 150.91h.97v.97h-.97Z" fill="#fff" stroke="none"/><path clip-path="url(#l)" d="M34.63 150.91h.97v.97h-.97Z" fill="#fff" stroke="none"/><path clip-path="url(#l)" d="M36.57 150.91h.97v.97h-.97Z" fill="#fff" stroke="none"/><path clip-path="url(#l)" d="M38.52 150.91h.97v.97h-.97Z" fill="#fff" stroke="none"/><path clip-path="url(#l)" d="M39.49 150.91h.97v.97h-.97Z" fill="#fff" stroke="none"/><path clip-path="url(#l)" d="M44.36 150.91h.97v.97h-.97Z" fill="#fff" stroke="none"/><path clip-path="url(#l)" d="M21.97 151.89h.97v.97h-.97Z" fill="#fff" stroke="none"/><path clip-path="url(#l)" d="M22.94 151.89h.97v.97h-.97Z" fill="#fff" stroke="none"/><path clip-path="url(#l)" d="M25.86 151.89h.97v.97h-.97Z" fill="#fff" stroke="none"/><path clip-path="url(#l)" d="M27.81 151.89h.97v.97h-.97Z" fill="#fff" stroke="none"/><path clip-path="url(#l)" d="M29.76 151.89h.97v.97h-.97Z" fill="#fff" stroke="none"/><path clip-path="url(#l)" d="M30.73 151.89h.97v.97h-.97Z" fill="#fff" stroke="none"/><path clip-path="url(#l)" d="M34.63 151.89h.97v.97h-.97Z" fill="#fff" stroke="none"/><path clip-path="url(#l)" d="M35.6 151.89h.97v.97H35.6Z" fill="#fff" stroke="none"/><path clip-path="url(#l)" d="M36.57 151.89h.97v.97h-.97Z" fill="#fff" stroke="none"/><path clip-path="url(#l)" d="M37.55 151.89h.97v.97h-.97Z" fill="#fff" stroke="none"/><path clip-path="url(#l)" d="M38.52 151.89h.97v.97h-.97Z" fill="#fff" stroke="none"/><path clip-path="url(#l)" d="M39.49 151.89h.97v.97h-.97Z" fill="#fff" stroke="none"/><path clip-path="url(#l)" d="M43.39 151.89h.97v.97h-.97Z" fill="#fff" stroke="none"/><path clip-path="url(#l)" d="M44.36 151.89h.97v.97h-.97Z" fill="#fff" stroke="none"/><path clip-path="url(#l)" d="M20.99 152.86h.97v.97h-.97Z" fill="#fff" stroke="none"/><path clip-path="url(#l)" d="M21.97 152.86h.97v.97h-.97Z" fill="#fff" stroke="none"/><path clip-path="url(#l)" d="M22.94 152.86h.97v.97h-.97Z" fill="#fff" stroke="none"/><path clip-path="url(#l)" d="M23.92 152.86h.97v.97h-.97Z" fill="#fff" stroke="none"/><path clip-path="url(#l)" d="M24.89 152.86h.97v.97h-.97Z" fill="#fff" stroke="none"/><path clip-path="url(#l)" d="M25.86 152.86h.97v.97h-.97Z" fill="#fff" stroke="none"/><path clip-path="url(#l)" d="M26.84 152.86h.97v.97h-.97Z" fill="#fff" stroke="none"/><path clip-path="url(#l)" d="M30.73 152.86h.97v.97h-.97Z" fill="#fff" stroke="none"/><path clip-path="url(#l)" d="M31.7 152.86h.97v.97H31.7Z" fill="#fff" stroke="none"/><path clip-path="url(#l)" d="M35.6 152.86h.97v.97H35.6Z" fill="#fff" stroke="none"/><path clip-path="url(#l)" d="M36.57 152.86h.97v.97h-.97Z" fill="#fff" stroke="none"/><path clip-path="url(#l)" d="M37.55 152.86h.97v.97h-.97Z" fill="#fff" stroke="none"/><path clip-path="url(#l)" d="M38.52 152.86h.97v.97h-.97Z" fill="#fff" stroke="none"/><path clip-path="url(#l)" d="M41.44 152.86h.97v.97h-.97Z" fill="#fff" stroke="none"/><path clip-path="url(#l)" d="M42.42 152.86h.97v.97h-.97Z" fill="#fff" stroke="none"/><path clip-path="url(#l)" d="M44.36 152.86h.97v.97h-.97Z" fill="#fff" stroke="none"/><path clip-path="url(#l)" d="M22.94 153.83h.97v.97h-.97Z" fill="#fff" stroke="none"/><path clip-path="url(#l)" d="M27.81 153.83h.97v.97h-.97Z" fill="#fff" stroke="none"/><path clip-path="url(#l)" d="M28.78 153.83h.97v.97h-.97Z" fill="#fff" stroke="none"/><path clip-path="url(#l)" d="M30.73 153.83h.97v.97h-.97Z" fill="#fff" stroke="none"/><path clip-path="url(#l)" d="M34.63 153.83h.97v.97h-.97Z" fill="#fff" stroke="none"/><path clip-path="url(#l)" d="M35.6 153.83h.97v.97H35.6Z" fill="#fff" stroke="none"/><path clip-path="url(#l)" d="M36.57 153.83h.97v.97h-.97Z" fill="#fff" stroke="none"/><path clip-path="url(#l)" d="M39.49 153.83h.97v.97h-.97Z" fill="#fff" stroke="none"/><path clip-path="url(#l)" d="M40.47 153.83h.97v.97h-.97Z" fill="#fff" stroke="none"/><path clip-path="url(#l)" d="M41.44 153.83h.97v.97h-.97Z" fill="#fff" stroke="none"/><path clip-path="url(#l)" d="M20.99 154.81h.97v.97h-.97Z" fill="#fff" stroke="none"/><path clip-path="url(#l)" d="M21.97 154.81h.97v.97h-.97Z" fill="#fff" stroke="none"/><path clip-path="url(#l)" d="M26.84 154.81h.97v.97h-.97Z" fill="#fff" stroke="none"/><path clip-path="url(#l)" d="M27.81 154.81h.97v.97h-.97Z" fill="#fff" stroke="none"/><path clip-path="url(#l)" d="M28.78 154.81h.97v.97h-.97Z" fill="#fff" stroke="none"/><path clip-path="url(#l)" d="M29.76 154.81h.97v.97h-.97Z" fill="#fff" stroke="none"/><path clip-path="url(#l)" d="M31.7 154.81h.97v.97H31.7Z" fill="#fff" stroke="none"/><path clip-path="url(#l)" d="M32.68 154.81h.97v.97h-.97Z" fill="#fff" stroke="none"/><path clip-path="url(#l)" d="M34.63 154.81h.97v.97h-.97Z" fill="#fff" stroke="none"/><path clip-path="url(#l)" d="M36.57 154.81h.97v.97h-.97Z" fill="#fff" stroke="none"/><path clip-path="url(#l)" d="M37.55 154.81h.97v.97h-.97Z" fill="#fff" stroke="none"/><path clip-path="url(#l)" d="M38.52 154.81h.97v.97h-.97Z" fill="#fff" stroke="none"/><path clip-path="url(#l)" d="M39.49 154.81h.97v.97h-.97Z" fill="#fff" stroke="none"/><path clip-path="url(#l)" d="M40.47 154.81h.97v.97h-.97Z" fill="#fff" stroke="none"/><path clip-path="url(#l)" d="M43.39 154.81h.97v.97h-.97Z" fill="#fff" stroke="none"/><path clip-path="url(#l)" d="M28.78 155.78h.97v.97h-.97Z" fill="#fff" stroke="none"/><path clip-path="url(#l)" d="M32.68 155.78h.97v.97h-.97Z" fill="#fff" stroke="none"/><path clip-path="url(#l)" d="M33.65 155.78h.97v.97h-.97Z" fill="#fff" stroke="none"/><path clip-path="url(#l)" d="M34.63 155.78h.97v.97h-.97Z" fill="#fff" stroke="none"/><path clip-path="url(#l)" d="M36.57 155.78h.97v.97h-.97Z" fill="#fff" stroke="none"/><path clip-path="url(#l)" d="M40.47 155.78h.97v.97h-.97Z" fill="#fff" stroke="none"/><path clip-path="url(#l)" d="M44.36 155.78h.97v.97h-.97Z" fill="#fff" stroke="none"/><path clip-path="url(#l)" d="M20.99 156.76h.97v.97h-.97Z" fill="#fff" stroke="none"/><path clip-path="url(#l)" d="M21.97 156.76h.97v.97h-.97Z" fill="#fff" stroke="none"/><path clip-path="url(#l)" d="M22.94 156.76h.97v.97h-.97Z" fill="#fff" stroke="none"/><path clip-path="url(#l)" d="M23.92 156.76h.97v.97h-.97Z" fill="#fff" stroke="none"/><path clip-path="url(#l)" d="M24.89 156.76h.97v.97h-.97Z" fill="#fff" stroke="none"/><path clip-path="url(#l)" d="M25.86 156.76h.97v.97h-.97Z" fill="#fff" stroke="none"/><path clip-path="url(#l)" d="M26.84 156.76h.97v.97h-.97Z" fill="#fff" stroke="none"/><path clip-path="url(#l)" d="M30.73 156.76h.97v.97h-.97Z" fill="#fff" stroke="none"/><path clip-path="url(#l)" d="M32.68 156.76h.97v.97h-.97Z" fill="#fff" stroke="none"/><path clip-path="url(#l)" d="M33.65 156.76h.97v.97h-.97Z" fill="#fff" stroke="none"/><path clip-path="url(#l)" d="M34.63 156.76h.97v.97h-.97Z" fill="#fff" stroke="none"/><path clip-path="url(#l)" d="M36.57 156.76h.97v.97h-.97Z" fill="#fff" stroke="none"/><path clip-path="url(#l)" d="M38.52 156.76h.97v.97h-.97Z" fill="#fff" stroke="none"/><path clip-path="url(#l)" d="M40.47 156.76h.97v.97h-.97Z" fill="#fff" stroke="none"/><path clip-path="url(#l)" d="M44.36 156.76h.97v.97h-.97Z" fill="#fff" stroke="none"/><path clip-path="url(#l)" d="M20.99 157.73h.97v.97h-.97Z" fill="#fff" stroke="none"/><path clip-path="url(#l)" d="M26.84 157.73h.97v.97h-.97Z" fill="#fff" stroke="none"/><path clip-path="url(#l)" d="M28.78 157.73h.97v.97h-.97Z" fill="#fff" stroke="none"/><path clip-path="url(#l)" d="M31.7 157.73h.97v.97H31.7Z" fill="#fff" stroke="none"/><path clip-path="url(#l)" d="M32.68 157.73h.97v.97h-.97Z" fill="#fff" stroke="none"/><path clip-path="url(#l)" d="M36.57 157.73h.97v.97h-.97Z" fill="#fff" stroke="none"/><path clip-path="url(#l)" d="M40.47 157.73h.97v.97h-.97Z" fill="#fff" stroke="none"/><path clip-path="url(#l)" d="M20.99 158.7h.97v.97h-.97Z" fill="#fff" stroke="none"/><path clip-path="url(#l)" d="M22.94 158.7h.97v.97h-.97Z" fill="#fff" stroke="none"/><path clip-path="url(#l)" d="M23.92 158.7h.97v.97h-.97Z" fill="#fff" stroke="none"/><path clip-path="url(#l)" d="M24.89 158.7h.97v.97h-.97Z" fill="#fff" stroke="none"/><path clip-path="url(#l)" d="M26.84 158.7h.97v.97h-.97Z" fill="#fff" stroke="none"/><path clip-path="url(#l)" d="M29.76 158.7h.97v.97h-.97Z" fill="#fff" stroke="none"/><path clip-path="url(#l)" d="M30.73 158.7h.97v.97h-.97Z" fill="#fff" stroke="none"/><path clip-path="url(#l)" d="M32.68 158.7h.97v.97h-.97Z" fill="#fff" stroke="none"/><path clip-path="url(#l)" d="M34.63 158.7h.97v.97h-.97Z" fill="#fff" stroke="none"/><path clip-path="url(#l)" d="M35.6 158.7h.97v.97H35.6Z" fill="#fff" stroke="none"/><path clip-path="url(#l)" d="M36.57 158.7h.97v.97h-.97Z" fill="#fff" stroke="none"/><path clip-path="url(#l)" d="M37.55 158.7h.97v.97h-.97Z" fill="#fff" stroke="none"/><path clip-path="url(#l)" d="M38.52 158.7h.97v.97h-.97Z" fill="#fff" stroke="none"/><path clip-path="url(#l)" d="M39.49 158.7h.97v.97h-.97Z" fill="#fff" stroke="none"/><path clip-path="url(#l)" d="M40.47 158.7h.97v.97h-.97Z" fill="#fff" stroke="none"/><path clip-path="url(#l)" d="M43.39 158.7h.97v.97h-.97Z" fill="#fff" stroke="none"/><path clip-path="url(#l)" d="M20.99 159.68h.97v.97h-.97Z" fill="#fff" stroke="none"/><path clip-path="url(#l)" d="M22.94 159.68h.97v.97h-.97Z" fill="#fff" stroke="none"/><path clip-path="url(#l)" d="M23.92 159.68h.97v.97h-.97Z" fill="#fff" stroke="none"/><path clip-path="url(#l)" d="M24.89 159.68h.97v.97h-.97Z" fill="#fff" stroke="none"/><path clip-path="url(#l)" d="M26.84 159.68h.97v.97h-.97Z" fill="#fff" stroke="none"/><path clip-path="url(#l)" d="M30.73 159.68h.97v.97h-.97Z" fill="#fff" stroke="none"/><path clip-path="url(#l)" d="M33.65 159.68h.97v.97h-.97Z" fill="#fff" stroke="none"/><path clip-path="url(#l)" d="M34.63 159.68h.97v.97h-.97Z" fill="#fff" stroke="none"/><path clip-path="url(#l)" d="M35.6 159.68h.97v.97H35.6Z" fill="#fff" stroke="none"/><path clip-path="url(#l)" d="M37.55 159.68h.97v.97h-.97Z" fill="#fff" stroke="none"/><path clip-path="url(#l)" d="M40.47 159.68h.97v.97h-.97Z" fill="#fff" stroke="none"/><path clip-path="url(#l)" d="M42.42 159.68h.97v.97h-.97Z" fill="#fff" stroke="none"/><path clip-path="url(#l)" d="M43.39 159.68h.97v.97h-.97Z" fill="#fff" stroke="none"/><path clip-path="url(#l)" d="M20.99 160.65h.97v.97h-.97Z" fill="#fff" stroke="none"/><path clip-path="url(#l)" d="M22.94 160.65h.97v.97h-.97Z" fill="#fff" stroke="none"/><path clip-path="url(#l)" d="M23.92 160.65h.97v.97h-.97Z" fill="#fff" stroke="none"/><path clip-path="url(#l)" d="M24.89 160.65h.97v.97h-.97Z" fill="#fff" stroke="none"/><path clip-path="url(#l)" d="M26.84 160.65h.97v.97h-.97Z" fill="#fff" stroke="none"/><path clip-path="url(#l)" d="M28.78 160.65h.97v.97h-.97Z" fill="#fff" stroke="none"/><path clip-path="url(#l)" d="M30.73 160.65h.97v.97h-.97Z" fill="#fff" stroke="none"/><path clip-path="url(#l)" d="M31.7 160.65h.97v.97H31.7Z" fill="#fff" stroke="none"/><path clip-path="url(#l)" d="M33.65 160.65h.97v.97h-.97Z" fill="#fff" stroke="none"/><path clip-path="url(#l)" d="M34.63 160.65h.97v.97h-.97Z" fill="#fff" stroke="none"/><path clip-path="url(#l)" d="M35.6 160.65h.97v.97H35.6Z" fill="#fff" stroke="none"/><path clip-path="url(#l)" d="M36.57 160.65h.97v.97h-.97Z" fill="#fff" stroke="none"/><path clip-path="url(#l)" d="M39.49 160.65h.97v.97h-.97Z" fill="#fff" stroke="none"/><path clip-path="url(#l)" d="M40.47 160.65h.97v.97h-.97Z" fill="#fff" stroke="none"/><path clip-path="url(#l)" d="M41.44 160.65h.97v.97h-.97Z" fill="#fff" stroke="none"/><path clip-path="url(#l)" d="M43.39 160.65h.97v.97h-.97Z" fill="#fff" stroke="none"/><path clip-path="url(#l)" d="M44.36 160.65h.97v.97h-.97Z" fill="#fff" stroke="none"/><path clip-path="url(#l)" d="M20.99 161.62h.97v.97h-.97Z" fill="#fff" stroke="none"/><path clip-path="url(#l)" d="M26.84 161.62h.97v.97h-.97Z" fill="#fff" stroke="none"/><path clip-path="url(#l)" d="M28.78 161.62h.97v.97h-.97Z" fill="#fff" stroke="none"/><path clip-path="url(#l)" d="M30.73 161.62h.97v.97h-.97Z" fill="#fff" stroke="none"/><path clip-path="url(#l)" d="M31.7 161.62h.97v.97H31.7Z" fill="#fff" stroke="none"/><path clip-path="url(#l)" d="M32.68 161.62h.97v.97h-.97Z" fill="#fff" stroke="none"/><path clip-path="url(#l)" d="M34.63 161.62h.97v.97h-.97Z" fill="#fff" stroke="none"/><path clip-path="url(#l)" d="M36.57 161.62h.97v.97h-.97Z" fill="#fff" stroke="none"/><path clip-path="url(#l)" d="M39.49 161.62h.97v.97h-.97Z" fill="#fff" stroke="none"/><path clip-path="url(#l)" d="M40.47 161.62h.97v.97h-.97Z" fill="#fff" stroke="none"/><path clip-path="url(#l)" d="M20.99 162.6h.97v.97h-.97Z" fill="#fff" stroke="none"/><path clip-path="url(#l)" d="M21.97 162.6h.97v.97h-.97Z" fill="#fff" stroke="none"/><path clip-path="url(#l)" d="M22.94 162.6h.97v.97h-.97Z" fill="#fff" stroke="none"/><path clip-path="url(#l)" d="M23.92 162.6h.97v.97h-.97Z" fill="#fff" stroke="none"/><path clip-path="url(#l)" d="M24.89 162.6h.97v.97h-.97Z" fill="#fff" stroke="none"/><path clip-path="url(#l)" d="M25.86 162.6h.97v.97h-.97Z" fill="#fff" stroke="none"/><path clip-path="url(#l)" d="M26.84 162.6h.97v.97h-.97Z" fill="#fff" stroke="none"/><path clip-path="url(#l)" d="M28.78 162.6h.97v.97h-.97Z" fill="#fff" stroke="none"/><path clip-path="url(#l)" d="M30.73 162.6h.97v.97h-.97Z" fill="#fff" stroke="none"/><path clip-path="url(#l)" d="M31.7 162.6h.97v.97H31.7Z" fill="#fff" stroke="none"/><path clip-path="url(#l)" d="M32.68 162.6h.97v.97h-.97Z" fill="#fff" stroke="none"/><path clip-path="url(#l)" d="M36.57 162.6h.97v.97h-.97Z" fill="#fff" stroke="none"/><path clip-path="url(#l)" d="M37.55 162.6h.97v.97h-.97Z" fill="#fff" stroke="none"/><path clip-path="url(#l)" d="M41.44 162.6h.97v.97h-.97Z" fill="#fff" stroke="none"/><path clip-path="url(#l)" d="M44.36 162.6h.97v.97h-.97Z" fill="#fff" stroke="none"/></g></g></svg>