<?xml version="1.0" encoding="UTF-8"?><svg xmlns="http://www.w3.org/2000/svg" color-interpolation="auto" height="265.12" stroke="#000" stroke-linecap="square" stroke-miterlimit="10" width="476.56"><defs><clipPath id="a"><path d="M5 5V260.12H476.56V5Z"/></clipPath><clipPath clip-path="url(#a)" id="b"><path d="M5 260.12H897.91V5H5Z"/></clipPath><clipPath clip-path="url(#b)" id="i"><path d="M5 5H897.91V260.12H5Z"/></clipPath><clipPath id="c"><path d="M5 5V260.12H476.56V5Z"/></clipPath><clipPath clip-path="url(#c)" id="d"><path d="M5 260.12H897.91V5H5Z"/></clipPath><clipPath clip-path="url(#d)" id="j"><path d="M5 5V260.12H422.18c27.27 0 49.39-22.11 49.39-49.39V5Z"/></clipPath><clipPath id="e"><path d="M5 5V260.12H476.56V5Z"/></clipPath><clipPath clip-path="url(#e)" id="f"><path d="M5 260.12H897.91V5H5Z"/></clipPath><clipPath clip-path="url(#f)" id="k"><path d="M5 5H897.91V260.12H5Z"/></clipPath><clipPath id="g"><path d="M5 5V260.12H476.56V5Z"/></clipPath><clipPath clip-path="url(#g)" id="h"><path d="M5 260.12H897.91V5H5Z"/></clipPath><clipPath clip-path="url(#h)" id="l"><path d="M5 5H897.91V260.12H5Z"/></clipPath></defs><g><g fill="#611F7F" stroke="#611F7F"><path clip-path="url(#i)" d="M5 5V260.12H422.18c27.27 0 49.38-22.11 49.38-49.38V5Z" stroke="none"/></g><g fill="#F16D00" stroke="#F16D00" stroke-linecap="butt" stroke-width=".3"><path clip-path="url(#i)" d="M181.76 146.79v-20.2h28.67c9.9 0 17.96-6.32 17.96-16.22s-8.06-17.96-17.96-17.96H181.76V72.21h28.67c21.04 0 38.16 17.12 38.16 38.16s-17.12 36.42-38.16 36.42H181.76Z" fill="none"/><path clip-path="url(#i)" d="M175.45 146.88h-5.98c-7.85 0-14.22-6.37-14.22-14.22V98.76h20.2v48.12Z" fill="none"/><path clip-path="url(#i)" d="M175.34 92.65h-20.1V72.53h20.1V92.65Z" fill="none"/><path clip-path="url(#j)" d="M70.72 34.29H45.81V-1.07c0-12.21-7.79-22.15-20-22.15S3.66-13.28 3.66-1.07V34.29H-21.25V-1.07c0-25.95 21.11-47.06 47.06-47.06S70.72-27.02 70.72-1.07V34.29Z" fill="none"/><path clip-path="url(#j)" d="M70.84 42.07v7.37c0 9.69-7.85 17.54-17.54 17.54H11.49V42.07H70.84Z" fill="none"/><path clip-path="url(#j)" d="M156.69 241.33h24.89V206.01c0-12.2 7.78-22.12 19.98-22.12s22.12 9.93 22.12 22.12v35.32h24.89V206.01c0-25.93-21.09-47.02-47.02-47.02s-44.87 21.09-44.87 47.02v35.32Z" fill="none" stroke="#fff"/><path clip-path="url(#j)" d="M156.57 249.11v7.37c0 9.68 7.85 17.53 17.52 17.53h41.77V249.11H156.57Z" fill="none" stroke="#fff"/><path clip-path="url(#j)" d="M223.39 274h24.8V249.23h-24.8Z" fill="none" stroke="#fff"/><path clip-path="url(#j)" d="M18.89 330.45V298.11H64.77c15.85 0 28.74-10.11 28.74-25.95s-12.89-28.74-28.74-28.74H18.89V211.09H64.77c33.68 0 61.07 27.4 61.07 61.07s-27.4 58.29-61.07 58.29H18.89Z" fill="none"/><path clip-path="url(#j)" d="M8.79 330.6H-.78c-12.57 0-22.76-10.19-22.76-22.76V253.58H8.79V330.6Z" fill="none"/><path clip-path="url(#j)" d="M8.63 243.81H-23.54V211.6H8.63v32.21Z" fill="none"/><path clip-path="url(#j)" d="M16.96 191.72V163.14H-23.59c-14.01 0-25.4-8.93-25.4-22.94s11.4-25.4 25.4-25.4H16.96V86.22H-23.59c-29.77 0-53.98 24.21-53.98 53.98s24.22 51.52 53.98 51.52H16.96Z" fill="none" stroke="#fff"/><path clip-path="url(#j)" d="M25.89 191.85h8.46c11.11 0 20.12-9.01 20.12-20.12V123.78H25.89v68.08Z" fill="none" stroke="#fff"/><path clip-path="url(#j)" d="M26.04 115.14H54.47V86.67H26.04v28.47Z" fill="none" stroke="#fff"/><path clip-path="url(#j)" d="M399.57 24.57v-36.9H347.2c-18.09 0-32.8-11.54-32.8-29.62s14.72-32.8 32.8-32.8h52.37v-36.9H347.2c-38.44 0-69.71 31.27-69.71 69.71s31.27 66.53 69.71 66.53h52.37Z" fill="none" stroke="#fff"/><path clip-path="url(#j)" d="M411.1 24.75h10.92C436.37 24.75 448 13.11 448-1.24V-63.16H411.1V24.75Z" fill="none" stroke="#fff"/><path clip-path="url(#j)" d="M414.44 277.42V266.46c0-14.41-11.68-26.08-26.08-26.08H326.19v37.05h88.26Z" fill="none" stroke="#fff"/><path clip-path="url(#j)" d="M314.99 277.23V240.37H278.08v36.86h36.91Z" fill="none" stroke="#fff"/><path clip-path="url(#j)" d="M207.39-56.76v31.39H162.84c-15.39 0-27.9 9.81-27.9 25.2s12.52 27.9 27.9 27.9h44.54V59.12H162.84c-32.7 0-59.3-26.6-59.3-59.3s26.6-56.59 59.3-56.59h44.54Z" fill="none" stroke="#fff"/><path clip-path="url(#j)" d="M217.19-56.91h9.29c12.21 0 22.1 9.89 22.1 22.1V17.87H217.19V-56.91Z" fill="none" stroke="#fff"/><path clip-path="url(#j)" d="M217.35 27.35h31.23V58.63H217.35V27.35Z" fill="none" stroke="#fff"/><path clip-path="url(#k)" d="M341.03 155.58V124.41h44.23c15.28 0 27.71-9.74 27.71-25.02s-12.43-27.71-27.71-27.71H341.03V40.5h44.23c32.47 0 58.88 26.41 58.88 58.88s-26.41 56.2-58.88 56.2Z" fill="#fff" stroke="none"/><path clip-path="url(#k)" d="M329.88 155.24h-9.23c-12.12 0-21.95-9.83-21.95-21.95V80.98h31.17Z" fill="#fff" stroke="none"/><path clip-path="url(#k)" d="M329.72 71.56H298.71V40.5h31.01Z" stroke="none"/><path clip-path="url(#k)" d="M442.68 183.19c0-.66.05-1.34.15-2.03s.26-1.36.46-2.01.48-1.22.82-1.73.73-.93 1.19-1.22 1-.46 1.6-.46c.7.01 1.29.17 1.76.48.48.32.86.74 1.15 1.27s.51 1.11.66 1.76.25 1.31.3 1.98.08 1.31.07 1.92c.01 1.04-.06 2.01-.19 2.91s-.35 1.68-.64 2.35-.7 1.2-1.19 1.58-1.1.57-1.82.57c-.82-.02-1.51-.24-2.07-.66s-1-1-1.33-1.72-.56-1.5-.7-2.37-.21-1.73-.21-2.61m-3.73 14.83h3.73v-7.71h.08c.12.29.31.61.57.96s.6.7 1.02 1.03.93.6 1.54.82 1.32.33 2.13.34c1.5-.01 2.76-.44 3.79-1.3s1.82-2.07 2.36-3.66.81-3.48.81-5.68c0-1.42-.12-2.73-.38-3.93s-.65-2.26-1.2-3.17-1.24-1.61-2.1-2.11-1.88-.76-3.06-.76c-.8.01-1.52.14-2.15.38s-1.17.55-1.62.92-.82.75-1.1 1.13-.48.72-.59 1.01h-.08V173.3h-3.73ZM425.17 193h3.73v-8.36c.01-1.5.17-2.76.49-3.76s.77-1.8 1.34-2.38 1.22-.99 1.96-1.24 1.54-.37 2.38-.36v-4.06c-.97.01-1.81.17-2.52.47-.7.3-1.3.69-1.78 1.15s-.87.95-1.16 1.45-.49.95-.63 1.36h-.08V173.3h-3.73Zm-17.97-9.85c-.01-.64.02-1.31.08-1.99s.18-1.35.35-1.99.43-1.22.77-1.73.79-.92 1.34-1.23 1.23-.46 2.05-.46c.8.01 1.47.16 2.01.46s.99.71 1.33 1.23.59 1.09.76 1.73.3 1.3.36 1.99.1 1.35.09 1.99c.01.64-.03 1.3-.09 1.98s-.18 1.35-.36 1.99-.43 1.22-.76 1.74-.78.93-1.33 1.24-1.21.46-2.01.47c-.81-.01-1.5-.17-2.05-.47s-1-.72-1.34-1.24-.59-1.1-.77-1.74-.29-1.3-.35-1.99-.09-1.35-.08-1.98m4.59 10.31c1.48-.01 2.77-.25 3.86-.74s1.99-1.18 2.71-2.09 1.25-1.99 1.6-3.25.52-2.67.52-4.23c0-2.11-.31-3.93-.94-5.47s-1.59-2.73-2.87-3.56c-1.28-.84-2.91-1.26-4.89-1.28-1.99.01-3.62.43-4.91 1.28-1.29.83-2.26 2.02-2.88 3.56s-.94 3.36-.94 5.47c0 1.56.17 2.97.52 4.23s.89 2.35 1.61 3.25 1.63 1.61 2.73 2.09 2.39.73 3.88.74m-11.3-3.31c-.54.17-1.07.28-1.59.33s-1.04.09-1.56.08c-1.23-.01-2.3-.19-3.19-.55s-1.64-.84-2.24-1.43-1.07-1.29-1.42-2.05-.6-1.55-.75-2.38-.23-1.62-.22-2.41c.01-1.22.17-2.28.5-3.17s.79-1.59 1.39-2.08 1.3-.74 2.13-.74c.67.01 1.22.14 1.63.41s.7.61.91 1.02.33.84.39 1.3.1.87.09 1.25h4.27c.01-.82-.1-1.63-.31-2.44-.22-.81-.59-1.54-1.11-2.21s-1.24-1.2-2.16-1.6-2.06-.61-3.46-.62c-1.47.01-2.73.25-3.79.72s-1.93 1.15-2.61 2.01-1.19 1.88-1.51 3.04-.49 2.43-.49 3.82c-.01.99.09 1.99.28 3.02s.5 2.01.94 2.97 1.03 1.8 1.77 2.55 1.66 1.35 2.76 1.79 2.39.67 3.9.68c1.15 0 2.17-.07 3.06-.2s1.69-.32 2.41-.54Zm-29.56-10.93c-.01-.23.05-.53.19-.91s.33-.77.63-1.15.7-.72 1.21-.99 1.14-.41 1.9-.42c.71.01 1.3.13 1.77.37s.83.54 1.1.9.46.75.57 1.14.17.75.16 1.07Zm10.8 10.64c-.43.16-.94.31-1.55.46s-1.33.23-2.17.24c-1.08-.01-2.01-.2-2.82-.57s-1.49-.87-2.06-1.49-1.01-1.32-1.36-2.09-.61-1.57-.77-2.37-.23-1.59-.23-2.34h11.43v-.95c0-1.17-.15-2.23-.44-3.19s-.74-1.79-1.33-2.5-1.33-1.25-2.22-1.63-1.94-.58-3.14-.59c-.52-.01-1.12.05-1.81.16s-1.39.35-2.11.7-1.39.86-2.01 1.55-1.12 1.59-1.5 2.72-.58 2.53-.59 4.22c.01 2.57.41 4.7 1.21 6.36s1.92 2.9 3.38 3.7 3.19 1.21 5.18 1.2c.71 0 1.33-.03 1.88-.09s1.05-.14 1.53-.24.99-.21 1.52-.34Zm-17.39.41c-.27.08-.59.15-.94.21s-.7.08-1.04.08c-.72-.01-1.29-.12-1.71-.35s-.74-.53-.95-.9-.34-.79-.4-1.24-.09-.9-.08-1.35V176.2h5.46v-2.9h-5.46v-6.96l-3.73 2.32v4.64h-3.52v2.9h3.52v12.46c-.01.67.08 1.3.25 1.88s.48 1.09.92 1.52 1.04.78 1.82 1.02 1.75.37 2.93.37c.5 0 .99-.02 1.48-.07s.98-.12 1.45-.22ZM332.39 193h3.73v-8.36c0-.99.13-1.96.39-2.92s.61-1.82 1.07-2.59 1.01-1.39 1.66-1.85 1.34-.7 2.1-.71c.67 0 1.19.12 1.56.37s.63.61.79 1.1.26 1.08.3 1.78.05 1.51.04 2.42V193h3.73V179.34c.01-.5-.04-1.04-.11-1.61s-.23-1.16-.44-1.73-.52-1.1-.91-1.57-.91-.86-1.54-1.15-1.39-.43-2.3-.44c-1 .01-1.85.18-2.58.5s-1.32.73-1.8 1.22-.88 1-1.18 1.53-.53 1-.69 1.43h-.08V173.3h-3.73Zm-9.69-8.82v1.12c0 .59-.12 1.19-.34 1.8s-.53 1.17-.93 1.7-.88.94-1.42 1.26-1.13.49-1.78.5c-.38 0-.73-.11-1.06-.32s-.59-.5-.79-.87-.3-.83-.31-1.34c.01-.64.17-1.19.5-1.67s.77-.88 1.33-1.2 1.19-.57 1.88-.73 1.41-.25 2.16-.25Zm0 8.82h3.73V179.47c.01-.37-.01-.82-.05-1.37s-.17-1.12-.37-1.72-.52-1.17-.98-1.7c-.45-.54-1.1-.97-1.91-1.31s-1.87-.5-3.15-.52c-1.37.01-2.53.17-3.47.48s-1.7.74-2.28 1.3-.98 1.18-1.24 1.88-.39 1.46-.38 2.26h3.93c0-.53.1-1.03.32-1.48s.56-.82 1.02-1.1 1.06-.43 1.81-.43c.48-.01.92.07 1.34.23.41.16.77.43 1.07.79.3.37.5.88.62 1.5v3.44c-1.01-.01-2.02.06-3.04.17s-1.99.32-2.91.6-1.74.67-2.46 1.16-1.29 1.11-1.7 1.85-.63 1.63-.64 2.68c0 1.03.21 1.94.63 2.73s1.05 1.42 1.88 1.88 1.86.68 3.09.69c.75-.01 1.42-.11 2-.31s1.07-.44 1.49-.74.76-.61 1.02-.94.46-.63.58-.9h.08Zm-43.76 0h3.73V169.32h.08l8.2 23.68h3.93l8.2-23.68h.08V193h3.73V164.44h-5.8l-8.11 23.39h-.09l-8.11-23.39h-5.84Z" stroke="none"/><path clip-path="url(#k)" d="M281.37 219.6c-1.57 0-2.9-.49-3.66-1.02l-.22-1.84c1.02.8 2.4 1.36 3.95 1.36 1.66 0 2.84-.96 2.84-2.38s-.82-2.2-2.66-2.84c-2.49-.84-3.73-2.06-3.73-4.04 0-1.84 1.38-3.64 4.24-3.64 1.33 0 2.44.42 2.99.8l-.35 1.46c-.53-.37-1.6-.82-2.69-.82-1.62 0-2.53 1-2.53 2.07 0 1.15.78 1.86 2.42 2.44 2.46.89 4.04 1.99 4.04 4.41 0 2.44-1.73 4.04-4.64 4.04" fill="#fff" stroke="none"/><path clip-path="url(#k)" d="M293.62 214.72l-2.15.2c-1.33.13-2 .89-2 1.8 0 .86.69 1.56 1.73 1.56 1.24 0 2.42-.94 2.42-2.42Zm1.8 5.02c-.69-.16-1.47-.76-1.6-1.68-.42 1.17-1.55 1.68-2.77 1.68-1.96 0-3.22-1.4-3.22-3.04 0-1.96 1.57-3 3.28-3.15l2.51-.24v-.8c0-1.06-.71-1.82-2.17-1.82-1 0-2.02.31-2.71.78l-.36-1.42c.85-.56 1.95-.84 3.15-.84 2.2 0 3.8 1.24 3.8 3.5v4.33c0 .95.53 1.48 1.17 1.59Z" fill="#fff" stroke="none"/><path clip-path="url(#k)" d="M304.58 205.58c-.76.86-1.67 1.58-2.64 2.2l-.89-.4c.84-.66 1.89-1.71 2.53-2.64.13-.18.35-.28.49-.28.24 0 .75.53.75.75 0 .09-.11.25-.24.38m.51 13.91v-1.4h-.02c-.38.91-1.36 1.64-3.18 1.64-2.19 0-3.84-1.38-3.84-3.6v-6.7h1.71v6.54c0 1.22.82 2.27 2.55 2.27 1.69 0 2.64-1.05 2.64-2.27v-6.54h1.71v10.05Z" fill="#fff" stroke="none"/><path clip-path="url(#k)" d="M316.67 211.84c-.4-.44-1.31-1.08-2.68-1.08-1.98 0-3.55 1.53-3.55 3.74 0 2.24 1.57 3.75 3.55 3.75 1.31 0 2.24-.67 2.68-1.31Zm.09 7.66v-1.11h-.02c-.47.67-1.49 1.35-3.11 1.35-2.37 0-4.92-1.88-4.92-5.26 0-3.08 2.2-5.28 5.12-5.28 1.2 0 2.42.49 2.84.96V203.7h1.71v15.8Z" fill="#fff" stroke="none"/><path clip-path="url(#k)" d="M325.54 210.62c-1.51 0-2.93 1.26-3.19 2.8h5.74c.02-.09.02-.2.02-.31 0-1.18-.93-2.48-2.57-2.48m4.17 3.17l-.93.95h-6.55c0 1.64 1.38 3.55 3.86 3.55 1.24 0 2.19-.36 2.92-.86l-.2 1.62c-.71.4-1.62.69-2.93.69-2.89 0-5.35-2.15-5.35-5.26 0-3.3 2.53-5.28 4.9-5.28 2.77 0 4.33 1.95 4.33 3.86 0 .28-.02.53-.07.74" fill="#fff" stroke="none"/><path clip-path="url(#k)" d="M341.43 210.75c-1.31 0-2.24.66-2.69 1.31v5.1c.4.44 1.31 1.09 2.69 1.09 1.97 0 3.55-1.53 3.55-3.75 0-2.24-1.58-3.75-3.55-3.75m.15 8.98c-1.2 0-2.42-.49-2.84-.96v5.84h-1.71V209.44h1.62v1.11h.02c.46-.67 1.48-1.35 3.1-1.35 2.38 0 4.93 1.88 4.93 5.26 0 3.08-2.2 5.28-5.13 5.28" fill="#fff" stroke="none"/><path clip-path="url(#k)" d="M353.29 210.62c-1.51 0-2.93 1.26-3.19 2.8h5.74c.02-.09.02-.2.02-.31 0-1.18-.93-2.48-2.57-2.48m4.17 3.17l-.93.95h-6.54c0 1.64 1.37 3.55 3.86 3.55 1.24 0 2.19-.36 2.93-.86l-.2 1.62c-.71.4-1.62.69-2.93.69-2.89 0-5.35-2.15-5.35-5.26 0-3.3 2.53-5.28 4.9-5.28 2.77 0 4.33 1.95 4.33 3.86 0 .28-.02.53-.07.74" fill="#fff" stroke="none"/><path clip-path="url(#k)" d="M364.85 211.15c-.17-.05-.46-.11-.75-.11-1.44 0-2.86.86-2.86 3.35v5.1h-1.64V209.44h1.64v2.2h.02c.33-1.42 1.49-2.33 3.02-2.33.29 0 .73.04.97.13Z" fill="#fff" stroke="none"/><path clip-path="url(#k)" d="M369.22 219.62c-1.2 0-2.11-.31-2.77-.77l-.22-1.78c.73.64 1.84 1.16 3.02 1.16 1.04 0 1.82-.56 1.82-1.4 0-.82-.62-1.31-1.66-1.69-1.89-.66-2.95-1.53-2.95-3.1 0-1.62 1.33-2.73 3.17-2.73 1.09 0 2.11.4 2.51.64l-.36 1.4c-.44-.33-1.17-.67-2.17-.67-.93 0-1.55.53-1.55 1.29 0 .8.55 1.15 1.6 1.53 1.93.69 3.06 1.6 3.06 3.26 0 1.64-1.27 2.86-3.48 2.86" fill="#fff" stroke="none"/><path clip-path="url(#k)" d="M379.49 210.75c-1.97 0-3.59 1.53-3.59 3.77 0 2.22 1.62 3.73 3.59 3.73 1.95 0 3.58-1.51 3.58-3.73 0-2.24-1.62-3.77-3.58-3.77m0 8.98c-2.99 0-5.32-2.18-5.32-5.26 0-3.1 2.33-5.28 5.32-5.28s5.3 2.18 5.3 5.28c0 3.08-2.31 5.26-5.3 5.26" fill="#fff" stroke="none"/><path clip-path="url(#k)" d="M393.76 219.49v-6.55c0-1.22-.82-2.26-2.55-2.26-1.68 0-2.64 1.04-2.64 2.26v6.55h-1.71V209.44h1.58v1.4h.02c.38-.91 1.36-1.64 3.17-1.64 2.2 0 3.84 1.38 3.84 3.59v6.7Z" fill="#fff" stroke="none"/><path clip-path="url(#k)" d="M403.32 214.72l-2.15.2c-1.33.13-2 .89-2 1.8 0 .86.69 1.56 1.73 1.56 1.24 0 2.42-.94 2.42-2.42Zm1.8 5.02c-.69-.16-1.47-.76-1.6-1.68-.42 1.17-1.55 1.68-2.77 1.68-1.96 0-3.22-1.4-3.22-3.04 0-1.96 1.57-3 3.28-3.15l2.51-.24v-.8c0-1.06-.71-1.82-2.17-1.82-1 0-2.02.31-2.71.78l-.36-1.42c.85-.56 1.95-.84 3.15-.84 2.2 0 3.8 1.24 3.8 3.5v4.33c0 .95.53 1.48 1.17 1.59Z" fill="#fff" stroke="none"/><path clip-path="url(#k)" d="M409.66 219.87c-.73-.2-1.86-.89-1.86-2.67V203.7h1.7v13.28c0 .96.67 1.58 1.33 1.71Z" fill="#fff" stroke="none"/><path clip-path="url(#k)" d="M412.81 209.44h1.73v10.05h-1.73Zm.86-1.98c-.35 0-1.09-.75-1.09-1.11 0-.38.73-1.08 1.09-1.08.38 0 1.11.71 1.11 1.08 0 .36-.73 1.11-1.11 1.11" fill="#fff" stroke="none"/><path clip-path="url(#k)" d="M416.85 219.49v-.36l3.35-5.5c.53-.86 1.18-1.98 1.71-2.77l-.02-.04H417.2v-1.38h7.15v.36l-3.37 5.5c-.54.88-1.11 1.82-1.71 2.78l.02.04h5.46v1.38Z" fill="#fff" stroke="none"/><path clip-path="url(#k)" d="M432.13 214.72l-2.15.2c-1.33.13-2 .89-2 1.8 0 .86.69 1.56 1.73 1.56 1.24 0 2.42-.94 2.42-2.42Zm1.8 5.02c-.69-.16-1.47-.76-1.6-1.68-.42 1.17-1.55 1.68-2.77 1.68-1.96 0-3.22-1.4-3.22-3.04 0-1.96 1.57-3 3.28-3.15l2.51-.24v-.8c0-1.06-.71-1.82-2.17-1.82-1 0-2.02.31-2.71.78l-.36-1.42c.85-.56 1.95-.84 3.15-.84 2.2 0 3.8 1.24 3.8 3.5v4.33c0 .95.53 1.48 1.17 1.59Z" fill="#fff" stroke="none"/><path clip-path="url(#k)" d="M443.87 211.84c-.4-.44-1.31-1.08-2.68-1.08-1.98 0-3.55 1.53-3.55 3.74 0 2.24 1.57 3.75 3.55 3.75 1.31 0 2.24-.67 2.68-1.31Zm.09 7.66v-1.11h-.02c-.47.67-1.49 1.35-3.11 1.35-2.37 0-4.92-1.88-4.92-5.26 0-3.08 2.2-5.28 5.12-5.28 1.2 0 2.42.49 2.84.96V203.7h1.71v15.8Z" fill="#fff" stroke="none"/><path clip-path="url(#k)" d="M453.54 214.72l-2.15.2c-1.33.13-2 .89-2 1.8 0 .86.69 1.56 1.73 1.56 1.24 0 2.42-.94 2.42-2.42Zm1.8 5.02c-.69-.16-1.47-.76-1.6-1.68-.42 1.17-1.55 1.68-2.77 1.68-1.96 0-3.22-1.4-3.22-3.04 0-1.96 1.57-3 3.28-3.15l2.51-.24v-.8c0-1.06-.71-1.82-2.17-1.82-1 0-2.02.31-2.71.78l-.36-1.42c.85-.56 1.95-.84 3.15-.84 2.2 0 3.8 1.24 3.8 3.5v4.33c0 .95.53 1.48 1.17 1.59Z" fill="#fff" stroke="none"/><path clip-path="url(#l)" d="M70.6 160.02h1.1v1.1H70.6Z" fill="#fff" stroke="none"/><path clip-path="url(#l)" d="M71.7 160.02h1.1v1.1H71.7Z" fill="#fff" stroke="none"/><path clip-path="url(#l)" d="M72.81 160.02h1.1v1.1h-1.1Z" fill="#fff" stroke="none"/><path clip-path="url(#l)" d="M73.91 160.02h1.1v1.1h-1.1Z" fill="#fff" stroke="none"/><path clip-path="url(#l)" d="M75.01 160.02h1.1v1.1h-1.1Z" fill="#fff" stroke="none"/><path clip-path="url(#l)" d="M76.11 160.02h1.1v1.1h-1.1Z" fill="#fff" stroke="none"/><path clip-path="url(#l)" d="M77.21 160.02h1.1v1.1h-1.1Z" fill="#fff" stroke="none"/><path clip-path="url(#l)" d="M79.42 160.02h1.1v1.1h-1.1Z" fill="#fff" stroke="none"/><path clip-path="url(#l)" d="M80.52 160.02h1.1v1.1h-1.1Z" fill="#fff" stroke="none"/><path clip-path="url(#l)" d="M81.62 160.02h1.1v1.1h-1.1Z" fill="#fff" stroke="none"/><path clip-path="url(#l)" d="M82.72 160.02h1.1v1.1h-1.1Z" fill="#fff" stroke="none"/><path clip-path="url(#l)" d="M84.93 160.02h1.1v1.1h-1.1Z" fill="#fff" stroke="none"/><path clip-path="url(#l)" d="M86.03 160.02h1.1v1.1h-1.1Z" fill="#fff" stroke="none"/><path clip-path="url(#l)" d="M90.43 160.02h1.1v1.1h-1.1Z" fill="#fff" stroke="none"/><path clip-path="url(#l)" d="M91.54 160.02h1.1v1.1h-1.1Z" fill="#fff" stroke="none"/><path clip-path="url(#l)" d="M92.64 160.02h1.1v1.1h-1.1Z" fill="#fff" stroke="none"/><path clip-path="url(#l)" d="M93.74 160.02h1.1v1.1h-1.1Z" fill="#fff" stroke="none"/><path clip-path="url(#l)" d="M94.84 160.02h1.1v1.1h-1.1Z" fill="#fff" stroke="none"/><path clip-path="url(#l)" d="M95.94 160.02h1.1v1.1h-1.1Z" fill="#fff" stroke="none"/><path clip-path="url(#l)" d="M97.05 160.02h1.1v1.1h-1.1Z" fill="#fff" stroke="none"/><path clip-path="url(#l)" d="M70.6 161.12h1.1v1.1H70.6Z" fill="#fff" stroke="none"/><path clip-path="url(#l)" d="M77.21 161.12h1.1v1.1h-1.1Z" fill="#fff" stroke="none"/><path clip-path="url(#l)" d="M79.42 161.12h1.1v1.1h-1.1Z" fill="#fff" stroke="none"/><path clip-path="url(#l)" d="M82.72 161.12h1.1v1.1h-1.1Z" fill="#fff" stroke="none"/><path clip-path="url(#l)" d="M86.03 161.12h1.1v1.1h-1.1Z" fill="#fff" stroke="none"/><path clip-path="url(#l)" d="M88.23 161.12h1.1v1.1h-1.1Z" fill="#fff" stroke="none"/><path clip-path="url(#l)" d="M90.43 161.12h1.1v1.1h-1.1Z" fill="#fff" stroke="none"/><path clip-path="url(#l)" d="M97.05 161.12h1.1v1.1h-1.1Z" fill="#fff" stroke="none"/><path clip-path="url(#l)" d="M70.6 162.22h1.1v1.1H70.6Z" fill="#fff" stroke="none"/><path clip-path="url(#l)" d="M72.81 162.22h1.1v1.1h-1.1Z" fill="#fff" stroke="none"/><path clip-path="url(#l)" d="M73.91 162.22h1.1v1.1h-1.1Z" fill="#fff" stroke="none"/><path clip-path="url(#l)" d="M75.01 162.22h1.1v1.1h-1.1Z" fill="#fff" stroke="none"/><path clip-path="url(#l)" d="M77.21 162.22h1.1v1.1h-1.1Z" fill="#fff" stroke="none"/><path clip-path="url(#l)" d="M80.52 162.22h1.1v1.1h-1.1Z" fill="#fff" stroke="none"/><path clip-path="url(#l)" d="M84.93 162.22h1.1v1.1h-1.1Z" fill="#fff" stroke="none"/><path clip-path="url(#l)" d="M86.03 162.22h1.1v1.1h-1.1Z" fill="#fff" stroke="none"/><path clip-path="url(#l)" d="M90.43 162.22h1.1v1.1h-1.1Z" fill="#fff" stroke="none"/><path clip-path="url(#l)" d="M92.64 162.22h1.1v1.1h-1.1Z" fill="#fff" stroke="none"/><path clip-path="url(#l)" d="M93.74 162.22h1.1v1.1h-1.1Z" fill="#fff" stroke="none"/><path clip-path="url(#l)" d="M94.84 162.22h1.1v1.1h-1.1Z" fill="#fff" stroke="none"/><path clip-path="url(#l)" d="M97.05 162.22h1.1v1.1h-1.1Z" fill="#fff" stroke="none"/><path clip-path="url(#l)" d="M70.6 163.32h1.1v1.1H70.6Z" fill="#fff" stroke="none"/><path clip-path="url(#l)" d="M72.81 163.32h1.1v1.1h-1.1Z" fill="#fff" stroke="none"/><path clip-path="url(#l)" d="M73.91 163.32h1.1v1.1h-1.1Z" fill="#fff" stroke="none"/><path clip-path="url(#l)" d="M75.01 163.32h1.1v1.1h-1.1Z" fill="#fff" stroke="none"/><path clip-path="url(#l)" d="M77.21 163.32h1.1v1.1h-1.1Z" fill="#fff" stroke="none"/><path clip-path="url(#l)" d="M82.72 163.32h1.1v1.1h-1.1Z" fill="#fff" stroke="none"/><path clip-path="url(#l)" d="M83.82 163.32h1.1v1.1h-1.1Z" fill="#fff" stroke="none"/><path clip-path="url(#l)" d="M84.93 163.32h1.1v1.1h-1.1Z" fill="#fff" stroke="none"/><path clip-path="url(#l)" d="M86.03 163.32h1.1v1.1h-1.1Z" fill="#fff" stroke="none"/><path clip-path="url(#l)" d="M87.13 163.32h1.1v1.1h-1.1Z" fill="#fff" stroke="none"/><path clip-path="url(#l)" d="M90.43 163.32h1.1v1.1h-1.1Z" fill="#fff" stroke="none"/><path clip-path="url(#l)" d="M92.64 163.32h1.1v1.1h-1.1Z" fill="#fff" stroke="none"/><path clip-path="url(#l)" d="M93.74 163.32h1.1v1.1h-1.1Z" fill="#fff" stroke="none"/><path clip-path="url(#l)" d="M94.84 163.32h1.1v1.1h-1.1Z" fill="#fff" stroke="none"/><path clip-path="url(#l)" d="M97.05 163.32h1.1v1.1h-1.1Z" fill="#fff" stroke="none"/><path clip-path="url(#l)" d="M70.6 164.42h1.1v1.1H70.6Z" fill="#fff" stroke="none"/><path clip-path="url(#l)" d="M72.81 164.42h1.1v1.1h-1.1Z" fill="#fff" stroke="none"/><path clip-path="url(#l)" d="M73.91 164.42h1.1v1.1h-1.1Z" fill="#fff" stroke="none"/><path clip-path="url(#l)" d="M75.01 164.42h1.1v1.1h-1.1Z" fill="#fff" stroke="none"/><path clip-path="url(#l)" d="M77.21 164.42h1.1v1.1h-1.1Z" fill="#fff" stroke="none"/><path clip-path="url(#l)" d="M79.42 164.42h1.1v1.1h-1.1Z" fill="#fff" stroke="none"/><path clip-path="url(#l)" d="M82.72 164.42h1.1v1.1h-1.1Z" fill="#fff" stroke="none"/><path clip-path="url(#l)" d="M83.82 164.42h1.1v1.1h-1.1Z" fill="#fff" stroke="none"/><path clip-path="url(#l)" d="M84.93 164.42h1.1v1.1h-1.1Z" fill="#fff" stroke="none"/><path clip-path="url(#l)" d="M86.03 164.42h1.1v1.1h-1.1Z" fill="#fff" stroke="none"/><path clip-path="url(#l)" d="M88.23 164.42h1.1v1.1h-1.1Z" fill="#fff" stroke="none"/><path clip-path="url(#l)" d="M90.43 164.42h1.1v1.1h-1.1Z" fill="#fff" stroke="none"/><path clip-path="url(#l)" d="M92.64 164.42h1.1v1.1h-1.1Z" fill="#fff" stroke="none"/><path clip-path="url(#l)" d="M93.74 164.42h1.1v1.1h-1.1Z" fill="#fff" stroke="none"/><path clip-path="url(#l)" d="M94.84 164.42h1.1v1.1h-1.1Z" fill="#fff" stroke="none"/><path clip-path="url(#l)" d="M97.05 164.42h1.1v1.1h-1.1Z" fill="#fff" stroke="none"/><path clip-path="url(#l)" d="M70.6 165.53h1.1v1.1H70.6Z" fill="#fff" stroke="none"/><path clip-path="url(#l)" d="M77.21 165.53h1.1v1.1h-1.1Z" fill="#fff" stroke="none"/><path clip-path="url(#l)" d="M79.42 165.53h1.1v1.1h-1.1Z" fill="#fff" stroke="none"/><path clip-path="url(#l)" d="M80.52 165.53h1.1v1.1h-1.1Z" fill="#fff" stroke="none"/><path clip-path="url(#l)" d="M81.62 165.53h1.1v1.1h-1.1Z" fill="#fff" stroke="none"/><path clip-path="url(#l)" d="M83.82 165.53h1.1v1.1h-1.1Z" fill="#fff" stroke="none"/><path clip-path="url(#l)" d="M84.93 165.53h1.1v1.1h-1.1Z" fill="#fff" stroke="none"/><path clip-path="url(#l)" d="M86.03 165.53h1.1v1.1h-1.1Z" fill="#fff" stroke="none"/><path clip-path="url(#l)" d="M88.23 165.53h1.1v1.1h-1.1Z" fill="#fff" stroke="none"/><path clip-path="url(#l)" d="M90.43 165.53h1.1v1.1h-1.1Z" fill="#fff" stroke="none"/><path clip-path="url(#l)" d="M97.05 165.53h1.1v1.1h-1.1Z" fill="#fff" stroke="none"/><path clip-path="url(#l)" d="M70.6 166.63h1.1v1.1H70.6Z" fill="#fff" stroke="none"/><path clip-path="url(#l)" d="M71.7 166.63h1.1v1.1H71.7Z" fill="#fff" stroke="none"/><path clip-path="url(#l)" d="M72.81 166.63h1.1v1.1h-1.1Z" fill="#fff" stroke="none"/><path clip-path="url(#l)" d="M73.91 166.63h1.1v1.1h-1.1Z" fill="#fff" stroke="none"/><path clip-path="url(#l)" d="M75.01 166.63h1.1v1.1h-1.1Z" fill="#fff" stroke="none"/><path clip-path="url(#l)" d="M76.11 166.63h1.1v1.1h-1.1Z" fill="#fff" stroke="none"/><path clip-path="url(#l)" d="M77.21 166.63h1.1v1.1h-1.1Z" fill="#fff" stroke="none"/><path clip-path="url(#l)" d="M79.42 166.63h1.1v1.1h-1.1Z" fill="#fff" stroke="none"/><path clip-path="url(#l)" d="M81.62 166.63h1.1v1.1h-1.1Z" fill="#fff" stroke="none"/><path clip-path="url(#l)" d="M83.82 166.63h1.1v1.1h-1.1Z" fill="#fff" stroke="none"/><path clip-path="url(#l)" d="M86.03 166.63h1.1v1.1h-1.1Z" fill="#fff" stroke="none"/><path clip-path="url(#l)" d="M88.23 166.63h1.1v1.1h-1.1Z" fill="#fff" stroke="none"/><path clip-path="url(#l)" d="M90.43 166.63h1.1v1.1h-1.1Z" fill="#fff" stroke="none"/><path clip-path="url(#l)" d="M91.54 166.63h1.1v1.1h-1.1Z" fill="#fff" stroke="none"/><path clip-path="url(#l)" d="M92.64 166.63h1.1v1.1h-1.1Z" fill="#fff" stroke="none"/><path clip-path="url(#l)" d="M93.74 166.63h1.1v1.1h-1.1Z" fill="#fff" stroke="none"/><path clip-path="url(#l)" d="M94.84 166.63h1.1v1.1h-1.1Z" fill="#fff" stroke="none"/><path clip-path="url(#l)" d="M95.94 166.63h1.1v1.1h-1.1Z" fill="#fff" stroke="none"/><path clip-path="url(#l)" d="M97.05 166.63h1.1v1.1h-1.1Z" fill="#fff" stroke="none"/><path clip-path="url(#l)" d="M79.42 167.73h1.1v1.1h-1.1Z" fill="#fff" stroke="none"/><path clip-path="url(#l)" d="M80.52 167.73h1.1v1.1h-1.1Z" fill="#fff" stroke="none"/><path clip-path="url(#l)" d="M87.13 167.73h1.1v1.1h-1.1Z" fill="#fff" stroke="none"/><path clip-path="url(#l)" d="M88.23 167.73h1.1v1.1h-1.1Z" fill="#fff" stroke="none"/><path clip-path="url(#l)" d="M70.6 168.83h1.1v1.1H70.6Z" fill="#fff" stroke="none"/><path clip-path="url(#l)" d="M71.7 168.83h1.1v1.1H71.7Z" fill="#fff" stroke="none"/><path clip-path="url(#l)" d="M72.81 168.83h1.1v1.1h-1.1Z" fill="#fff" stroke="none"/><path clip-path="url(#l)" d="M76.11 168.83h1.1v1.1h-1.1Z" fill="#fff" stroke="none"/><path clip-path="url(#l)" d="M77.21 168.83h1.1v1.1h-1.1Z" fill="#fff" stroke="none"/><path clip-path="url(#l)" d="M79.42 168.83h1.1v1.1h-1.1Z" fill="#fff" stroke="none"/><path clip-path="url(#l)" d="M80.52 168.83h1.1v1.1h-1.1Z" fill="#fff" stroke="none"/><path clip-path="url(#l)" d="M82.72 168.83h1.1v1.1h-1.1Z" fill="#fff" stroke="none"/><path clip-path="url(#l)" d="M83.82 168.83h1.1v1.1h-1.1Z" fill="#fff" stroke="none"/><path clip-path="url(#l)" d="M88.23 168.83h1.1v1.1h-1.1Z" fill="#fff" stroke="none"/><path clip-path="url(#l)" d="M89.33 168.83h1.1v1.1h-1.1Z" fill="#fff" stroke="none"/><path clip-path="url(#l)" d="M90.43 168.83h1.1v1.1h-1.1Z" fill="#fff" stroke="none"/><path clip-path="url(#l)" d="M91.54 168.83h1.1v1.1h-1.1Z" fill="#fff" stroke="none"/><path clip-path="url(#l)" d="M92.64 168.83h1.1v1.1h-1.1Z" fill="#fff" stroke="none"/><path clip-path="url(#l)" d="M95.94 168.83h1.1v1.1h-1.1Z" fill="#fff" stroke="none"/><path clip-path="url(#l)" d="M97.05 168.83h1.1v1.1h-1.1Z" fill="#fff" stroke="none"/><path clip-path="url(#l)" d="M71.7 169.93h1.1v1.1H71.7Z" fill="#fff" stroke="none"/><path clip-path="url(#l)" d="M75.01 169.93h1.1v1.1h-1.1Z" fill="#fff" stroke="none"/><path clip-path="url(#l)" d="M79.42 169.93h1.1v1.1h-1.1Z" fill="#fff" stroke="none"/><path clip-path="url(#l)" d="M83.82 169.93h1.1v1.1h-1.1Z" fill="#fff" stroke="none"/><path clip-path="url(#l)" d="M86.03 169.93h1.1v1.1h-1.1Z" fill="#fff" stroke="none"/><path clip-path="url(#l)" d="M87.13 169.93h1.1v1.1h-1.1Z" fill="#fff" stroke="none"/><path clip-path="url(#l)" d="M88.23 169.93h1.1v1.1h-1.1Z" fill="#fff" stroke="none"/><path clip-path="url(#l)" d="M89.33 169.93h1.1v1.1h-1.1Z" fill="#fff" stroke="none"/><path clip-path="url(#l)" d="M90.43 169.93h1.1v1.1h-1.1Z" fill="#fff" stroke="none"/><path clip-path="url(#l)" d="M91.54 169.93h1.1v1.1h-1.1Z" fill="#fff" stroke="none"/><path clip-path="url(#l)" d="M93.74 169.93h1.1v1.1h-1.1Z" fill="#fff" stroke="none"/><path clip-path="url(#l)" d="M95.94 169.93h1.1v1.1h-1.1Z" fill="#fff" stroke="none"/><path clip-path="url(#l)" d="M97.05 169.93h1.1v1.1h-1.1Z" fill="#fff" stroke="none"/><path clip-path="url(#l)" d="M70.6 171.03h1.1v1.1H70.6Z" fill="#fff" stroke="none"/><path clip-path="url(#l)" d="M71.7 171.03h1.1v1.1H71.7Z" fill="#fff" stroke="none"/><path clip-path="url(#l)" d="M72.81 171.03h1.1v1.1h-1.1Z" fill="#fff" stroke="none"/><path clip-path="url(#l)" d="M73.91 171.03h1.1v1.1h-1.1Z" fill="#fff" stroke="none"/><path clip-path="url(#l)" d="M76.11 171.03h1.1v1.1h-1.1Z" fill="#fff" stroke="none"/><path clip-path="url(#l)" d="M77.21 171.03h1.1v1.1h-1.1Z" fill="#fff" stroke="none"/><path clip-path="url(#l)" d="M78.32 171.03h1.1v1.1h-1.1Z" fill="#fff" stroke="none"/><path clip-path="url(#l)" d="M79.42 171.03h1.1v1.1h-1.1Z" fill="#fff" stroke="none"/><path clip-path="url(#l)" d="M80.52 171.03h1.1v1.1h-1.1Z" fill="#fff" stroke="none"/><path clip-path="url(#l)" d="M81.62 171.03h1.1v1.1h-1.1Z" fill="#fff" stroke="none"/><path clip-path="url(#l)" d="M83.82 171.03h1.1v1.1h-1.1Z" fill="#fff" stroke="none"/><path clip-path="url(#l)" d="M86.03 171.03h1.1v1.1h-1.1Z" fill="#fff" stroke="none"/><path clip-path="url(#l)" d="M87.13 171.03h1.1v1.1h-1.1Z" fill="#fff" stroke="none"/><path clip-path="url(#l)" d="M89.33 171.03h1.1v1.1h-1.1Z" fill="#fff" stroke="none"/><path clip-path="url(#l)" d="M91.54 171.03h1.1v1.1h-1.1Z" fill="#fff" stroke="none"/><path clip-path="url(#l)" d="M92.64 171.03h1.1v1.1h-1.1Z" fill="#fff" stroke="none"/><path clip-path="url(#l)" d="M93.74 171.03h1.1v1.1h-1.1Z" fill="#fff" stroke="none"/><path clip-path="url(#l)" d="M94.84 171.03h1.1v1.1h-1.1Z" fill="#fff" stroke="none"/><path clip-path="url(#l)" d="M97.05 171.03h1.1v1.1h-1.1Z" fill="#fff" stroke="none"/><path clip-path="url(#l)" d="M70.6 172.14h1.1v1.1H70.6Z" fill="#fff" stroke="none"/><path clip-path="url(#l)" d="M72.81 172.14h1.1v1.1h-1.1Z" fill="#fff" stroke="none"/><path clip-path="url(#l)" d="M73.91 172.14h1.1v1.1h-1.1Z" fill="#fff" stroke="none"/><path clip-path="url(#l)" d="M76.11 172.14h1.1v1.1h-1.1Z" fill="#fff" stroke="none"/><path clip-path="url(#l)" d="M78.32 172.14h1.1v1.1h-1.1Z" fill="#fff" stroke="none"/><path clip-path="url(#l)" d="M81.62 172.14h1.1v1.1h-1.1Z" fill="#fff" stroke="none"/><path clip-path="url(#l)" d="M82.72 172.14h1.1v1.1h-1.1Z" fill="#fff" stroke="none"/><path clip-path="url(#l)" d="M83.82 172.14h1.1v1.1h-1.1Z" fill="#fff" stroke="none"/><path clip-path="url(#l)" d="M86.03 172.14h1.1v1.1h-1.1Z" fill="#fff" stroke="none"/><path clip-path="url(#l)" d="M89.33 172.14h1.1v1.1h-1.1Z" fill="#fff" stroke="none"/><path clip-path="url(#l)" d="M92.64 172.14h1.1v1.1h-1.1Z" fill="#fff" stroke="none"/><path clip-path="url(#l)" d="M93.74 172.14h1.1v1.1h-1.1Z" fill="#fff" stroke="none"/><path clip-path="url(#l)" d="M71.7 173.24h1.1v1.1H71.7Z" fill="#fff" stroke="none"/><path clip-path="url(#l)" d="M72.81 173.24h1.1v1.1h-1.1Z" fill="#fff" stroke="none"/><path clip-path="url(#l)" d="M77.21 173.24h1.1v1.1h-1.1Z" fill="#fff" stroke="none"/><path clip-path="url(#l)" d="M78.32 173.24h1.1v1.1h-1.1Z" fill="#fff" stroke="none"/><path clip-path="url(#l)" d="M80.52 173.24h1.1v1.1h-1.1Z" fill="#fff" stroke="none"/><path clip-path="url(#l)" d="M81.62 173.24h1.1v1.1h-1.1Z" fill="#fff" stroke="none"/><path clip-path="url(#l)" d="M86.03 173.24h1.1v1.1h-1.1Z" fill="#fff" stroke="none"/><path clip-path="url(#l)" d="M88.23 173.24h1.1v1.1h-1.1Z" fill="#fff" stroke="none"/><path clip-path="url(#l)" d="M90.43 173.24h1.1v1.1h-1.1Z" fill="#fff" stroke="none"/><path clip-path="url(#l)" d="M91.54 173.24h1.1v1.1h-1.1Z" fill="#fff" stroke="none"/><path clip-path="url(#l)" d="M97.05 173.24h1.1v1.1h-1.1Z" fill="#fff" stroke="none"/><path clip-path="url(#l)" d="M71.7 174.34h1.1v1.1H71.7Z" fill="#fff" stroke="none"/><path clip-path="url(#l)" d="M72.81 174.34h1.1v1.1h-1.1Z" fill="#fff" stroke="none"/><path clip-path="url(#l)" d="M76.11 174.34h1.1v1.1h-1.1Z" fill="#fff" stroke="none"/><path clip-path="url(#l)" d="M78.32 174.34h1.1v1.1h-1.1Z" fill="#fff" stroke="none"/><path clip-path="url(#l)" d="M80.52 174.34h1.1v1.1h-1.1Z" fill="#fff" stroke="none"/><path clip-path="url(#l)" d="M81.62 174.34h1.1v1.1h-1.1Z" fill="#fff" stroke="none"/><path clip-path="url(#l)" d="M86.03 174.34h1.1v1.1h-1.1Z" fill="#fff" stroke="none"/><path clip-path="url(#l)" d="M87.13 174.34h1.1v1.1h-1.1Z" fill="#fff" stroke="none"/><path clip-path="url(#l)" d="M88.23 174.34h1.1v1.1h-1.1Z" fill="#fff" stroke="none"/><path clip-path="url(#l)" d="M89.33 174.34h1.1v1.1h-1.1Z" fill="#fff" stroke="none"/><path clip-path="url(#l)" d="M90.43 174.34h1.1v1.1h-1.1Z" fill="#fff" stroke="none"/><path clip-path="url(#l)" d="M91.54 174.34h1.1v1.1h-1.1Z" fill="#fff" stroke="none"/><path clip-path="url(#l)" d="M95.94 174.34h1.1v1.1h-1.1Z" fill="#fff" stroke="none"/><path clip-path="url(#l)" d="M97.05 174.34h1.1v1.1h-1.1Z" fill="#fff" stroke="none"/><path clip-path="url(#l)" d="M70.6 175.44h1.1v1.1H70.6Z" fill="#fff" stroke="none"/><path clip-path="url(#l)" d="M71.7 175.44h1.1v1.1H71.7Z" fill="#fff" stroke="none"/><path clip-path="url(#l)" d="M72.81 175.44h1.1v1.1h-1.1Z" fill="#fff" stroke="none"/><path clip-path="url(#l)" d="M73.91 175.44h1.1v1.1h-1.1Z" fill="#fff" stroke="none"/><path clip-path="url(#l)" d="M75.01 175.44h1.1v1.1h-1.1Z" fill="#fff" stroke="none"/><path clip-path="url(#l)" d="M76.11 175.44h1.1v1.1h-1.1Z" fill="#fff" stroke="none"/><path clip-path="url(#l)" d="M77.21 175.44h1.1v1.1h-1.1Z" fill="#fff" stroke="none"/><path clip-path="url(#l)" d="M81.62 175.44h1.1v1.1h-1.1Z" fill="#fff" stroke="none"/><path clip-path="url(#l)" d="M82.72 175.44h1.1v1.1h-1.1Z" fill="#fff" stroke="none"/><path clip-path="url(#l)" d="M87.13 175.44h1.1v1.1h-1.1Z" fill="#fff" stroke="none"/><path clip-path="url(#l)" d="M88.23 175.44h1.1v1.1h-1.1Z" fill="#fff" stroke="none"/><path clip-path="url(#l)" d="M89.33 175.44h1.1v1.1h-1.1Z" fill="#fff" stroke="none"/><path clip-path="url(#l)" d="M90.43 175.44h1.1v1.1h-1.1Z" fill="#fff" stroke="none"/><path clip-path="url(#l)" d="M93.74 175.44h1.1v1.1h-1.1Z" fill="#fff" stroke="none"/><path clip-path="url(#l)" d="M94.84 175.44h1.1v1.1h-1.1Z" fill="#fff" stroke="none"/><path clip-path="url(#l)" d="M97.05 175.44h1.1v1.1h-1.1Z" fill="#fff" stroke="none"/><path clip-path="url(#l)" d="M72.81 176.54h1.1v1.1h-1.1Z" fill="#fff" stroke="none"/><path clip-path="url(#l)" d="M78.32 176.54h1.1v1.1h-1.1Z" fill="#fff" stroke="none"/><path clip-path="url(#l)" d="M79.42 176.54h1.1v1.1h-1.1Z" fill="#fff" stroke="none"/><path clip-path="url(#l)" d="M81.62 176.54h1.1v1.1h-1.1Z" fill="#fff" stroke="none"/><path clip-path="url(#l)" d="M86.03 176.54h1.1v1.1h-1.1Z" fill="#fff" stroke="none"/><path clip-path="url(#l)" d="M87.13 176.54h1.1v1.1h-1.1Z" fill="#fff" stroke="none"/><path clip-path="url(#l)" d="M88.23 176.54h1.1v1.1h-1.1Z" fill="#fff" stroke="none"/><path clip-path="url(#l)" d="M91.54 176.54h1.1v1.1h-1.1Z" fill="#fff" stroke="none"/><path clip-path="url(#l)" d="M92.64 176.54h1.1v1.1h-1.1Z" fill="#fff" stroke="none"/><path clip-path="url(#l)" d="M93.74 176.54h1.1v1.1h-1.1Z" fill="#fff" stroke="none"/><path clip-path="url(#l)" d="M70.6 177.65h1.1v1.1H70.6Z" fill="#fff" stroke="none"/><path clip-path="url(#l)" d="M71.7 177.65h1.1v1.1H71.7Z" fill="#fff" stroke="none"/><path clip-path="url(#l)" d="M77.21 177.65h1.1v1.1h-1.1Z" fill="#fff" stroke="none"/><path clip-path="url(#l)" d="M78.32 177.65h1.1v1.1h-1.1Z" fill="#fff" stroke="none"/><path clip-path="url(#l)" d="M79.42 177.65h1.1v1.1h-1.1Z" fill="#fff" stroke="none"/><path clip-path="url(#l)" d="M80.52 177.65h1.1v1.1h-1.1Z" fill="#fff" stroke="none"/><path clip-path="url(#l)" d="M82.72 177.65h1.1v1.1h-1.1Z" fill="#fff" stroke="none"/><path clip-path="url(#l)" d="M83.82 177.65h1.1v1.1h-1.1Z" fill="#fff" stroke="none"/><path clip-path="url(#l)" d="M86.03 177.65h1.1v1.1h-1.1Z" fill="#fff" stroke="none"/><path clip-path="url(#l)" d="M88.23 177.65h1.1v1.1h-1.1Z" fill="#fff" stroke="none"/><path clip-path="url(#l)" d="M89.33 177.65h1.1v1.1h-1.1Z" fill="#fff" stroke="none"/><path clip-path="url(#l)" d="M90.43 177.65h1.1v1.1h-1.1Z" fill="#fff" stroke="none"/><path clip-path="url(#l)" d="M91.54 177.65h1.1v1.1h-1.1Z" fill="#fff" stroke="none"/><path clip-path="url(#l)" d="M92.64 177.65h1.1v1.1h-1.1Z" fill="#fff" stroke="none"/><path clip-path="url(#l)" d="M95.94 177.65h1.1v1.1h-1.1Z" fill="#fff" stroke="none"/><path clip-path="url(#l)" d="M79.42 178.75h1.1v1.1h-1.1Z" fill="#fff" stroke="none"/><path clip-path="url(#l)" d="M83.82 178.75h1.1v1.1h-1.1Z" fill="#fff" stroke="none"/><path clip-path="url(#l)" d="M84.93 178.75h1.1v1.1h-1.1Z" fill="#fff" stroke="none"/><path clip-path="url(#l)" d="M86.03 178.75h1.1v1.1h-1.1Z" fill="#fff" stroke="none"/><path clip-path="url(#l)" d="M88.23 178.75h1.1v1.1h-1.1Z" fill="#fff" stroke="none"/><path clip-path="url(#l)" d="M92.64 178.75h1.1v1.1h-1.1Z" fill="#fff" stroke="none"/><path clip-path="url(#l)" d="M97.05 178.75h1.1v1.1h-1.1Z" fill="#fff" stroke="none"/><path clip-path="url(#l)" d="M70.6 179.85h1.1v1.1H70.6Z" fill="#fff" stroke="none"/><path clip-path="url(#l)" d="M71.7 179.85h1.1v1.1H71.7Z" fill="#fff" stroke="none"/><path clip-path="url(#l)" d="M72.81 179.85h1.1v1.1h-1.1Z" fill="#fff" stroke="none"/><path clip-path="url(#l)" d="M73.91 179.85h1.1v1.1h-1.1Z" fill="#fff" stroke="none"/><path clip-path="url(#l)" d="M75.01 179.85h1.1v1.1h-1.1Z" fill="#fff" stroke="none"/><path clip-path="url(#l)" d="M76.11 179.85h1.1v1.1h-1.1Z" fill="#fff" stroke="none"/><path clip-path="url(#l)" d="M77.21 179.85h1.1v1.1h-1.1Z" fill="#fff" stroke="none"/><path clip-path="url(#l)" d="M81.62 179.85h1.1v1.1h-1.1Z" fill="#fff" stroke="none"/><path clip-path="url(#l)" d="M83.82 179.85h1.1v1.1h-1.1Z" fill="#fff" stroke="none"/><path clip-path="url(#l)" d="M84.93 179.85h1.1v1.1h-1.1Z" fill="#fff" stroke="none"/><path clip-path="url(#l)" d="M86.03 179.85h1.1v1.1h-1.1Z" fill="#fff" stroke="none"/><path clip-path="url(#l)" d="M88.23 179.85h1.1v1.1h-1.1Z" fill="#fff" stroke="none"/><path clip-path="url(#l)" d="M90.43 179.85h1.1v1.1h-1.1Z" fill="#fff" stroke="none"/><path clip-path="url(#l)" d="M92.64 179.85h1.1v1.1h-1.1Z" fill="#fff" stroke="none"/><path clip-path="url(#l)" d="M97.05 179.85h1.1v1.1h-1.1Z" fill="#fff" stroke="none"/><path clip-path="url(#l)" d="M70.6 180.95h1.1v1.1H70.6Z" fill="#fff" stroke="none"/><path clip-path="url(#l)" d="M77.21 180.95h1.1v1.1h-1.1Z" fill="#fff" stroke="none"/><path clip-path="url(#l)" d="M79.42 180.95h1.1v1.1h-1.1Z" fill="#fff" stroke="none"/><path clip-path="url(#l)" d="M82.72 180.95h1.1v1.1h-1.1Z" fill="#fff" stroke="none"/><path clip-path="url(#l)" d="M83.82 180.95h1.1v1.1h-1.1Z" fill="#fff" stroke="none"/><path clip-path="url(#l)" d="M88.23 180.95h1.1v1.1h-1.1Z" fill="#fff" stroke="none"/><path clip-path="url(#l)" d="M92.64 180.95h1.1v1.1h-1.1Z" fill="#fff" stroke="none"/><path clip-path="url(#l)" d="M70.6 182.05h1.1v1.1H70.6Z" fill="#fff" stroke="none"/><path clip-path="url(#l)" d="M72.81 182.05h1.1v1.1h-1.1Z" fill="#fff" stroke="none"/><path clip-path="url(#l)" d="M73.91 182.05h1.1v1.1h-1.1Z" fill="#fff" stroke="none"/><path clip-path="url(#l)" d="M75.01 182.05h1.1v1.1h-1.1Z" fill="#fff" stroke="none"/><path clip-path="url(#l)" d="M77.21 182.05h1.1v1.1h-1.1Z" fill="#fff" stroke="none"/><path clip-path="url(#l)" d="M80.52 182.05h1.1v1.1h-1.1Z" fill="#fff" stroke="none"/><path clip-path="url(#l)" d="M81.62 182.05h1.1v1.1h-1.1Z" fill="#fff" stroke="none"/><path clip-path="url(#l)" d="M83.82 182.05h1.1v1.1h-1.1Z" fill="#fff" stroke="none"/><path clip-path="url(#l)" d="M86.03 182.05h1.1v1.1h-1.1Z" fill="#fff" stroke="none"/><path clip-path="url(#l)" d="M87.13 182.05h1.1v1.1h-1.1Z" fill="#fff" stroke="none"/><path clip-path="url(#l)" d="M88.23 182.05h1.1v1.1h-1.1Z" fill="#fff" stroke="none"/><path clip-path="url(#l)" d="M89.33 182.05h1.1v1.1h-1.1Z" fill="#fff" stroke="none"/><path clip-path="url(#l)" d="M90.43 182.05h1.1v1.1h-1.1Z" fill="#fff" stroke="none"/><path clip-path="url(#l)" d="M91.54 182.05h1.1v1.1h-1.1Z" fill="#fff" stroke="none"/><path clip-path="url(#l)" d="M92.64 182.05h1.1v1.1h-1.1Z" fill="#fff" stroke="none"/><path clip-path="url(#l)" d="M95.94 182.05h1.1v1.1h-1.1Z" fill="#fff" stroke="none"/><path clip-path="url(#l)" d="M70.6 183.15h1.1v1.1H70.6Z" fill="#fff" stroke="none"/><path clip-path="url(#l)" d="M72.81 183.15h1.1v1.1h-1.1Z" fill="#fff" stroke="none"/><path clip-path="url(#l)" d="M73.91 183.15h1.1v1.1h-1.1Z" fill="#fff" stroke="none"/><path clip-path="url(#l)" d="M75.01 183.15h1.1v1.1h-1.1Z" fill="#fff" stroke="none"/><path clip-path="url(#l)" d="M77.21 183.15h1.1v1.1h-1.1Z" fill="#fff" stroke="none"/><path clip-path="url(#l)" d="M81.62 183.15h1.1v1.1h-1.1Z" fill="#fff" stroke="none"/><path clip-path="url(#l)" d="M84.93 183.15h1.1v1.1h-1.1Z" fill="#fff" stroke="none"/><path clip-path="url(#l)" d="M86.03 183.15h1.1v1.1h-1.1Z" fill="#fff" stroke="none"/><path clip-path="url(#l)" d="M87.13 183.15h1.1v1.1h-1.1Z" fill="#fff" stroke="none"/><path clip-path="url(#l)" d="M89.33 183.15h1.1v1.1h-1.1Z" fill="#fff" stroke="none"/><path clip-path="url(#l)" d="M92.64 183.15h1.1v1.1h-1.1Z" fill="#fff" stroke="none"/><path clip-path="url(#l)" d="M94.84 183.15h1.1v1.1h-1.1Z" fill="#fff" stroke="none"/><path clip-path="url(#l)" d="M95.94 183.15h1.1v1.1h-1.1Z" fill="#fff" stroke="none"/><path clip-path="url(#l)" d="M70.6 184.26h1.1v1.1H70.6Z" fill="#fff" stroke="none"/><path clip-path="url(#l)" d="M72.81 184.26h1.1v1.1h-1.1Z" fill="#fff" stroke="none"/><path clip-path="url(#l)" d="M73.91 184.26h1.1v1.1h-1.1Z" fill="#fff" stroke="none"/><path clip-path="url(#l)" d="M75.01 184.26h1.1v1.1h-1.1Z" fill="#fff" stroke="none"/><path clip-path="url(#l)" d="M77.21 184.26h1.1v1.1h-1.1Z" fill="#fff" stroke="none"/><path clip-path="url(#l)" d="M79.42 184.26h1.1v1.1h-1.1Z" fill="#fff" stroke="none"/><path clip-path="url(#l)" d="M81.62 184.26h1.1v1.1h-1.1Z" fill="#fff" stroke="none"/><path clip-path="url(#l)" d="M82.72 184.26h1.1v1.1h-1.1Z" fill="#fff" stroke="none"/><path clip-path="url(#l)" d="M84.93 184.26h1.1v1.1h-1.1Z" fill="#fff" stroke="none"/><path clip-path="url(#l)" d="M86.03 184.26h1.1v1.1h-1.1Z" fill="#fff" stroke="none"/><path clip-path="url(#l)" d="M87.13 184.26h1.1v1.1h-1.1Z" fill="#fff" stroke="none"/><path clip-path="url(#l)" d="M88.23 184.26h1.1v1.1h-1.1Z" fill="#fff" stroke="none"/><path clip-path="url(#l)" d="M91.54 184.26h1.1v1.1h-1.1Z" fill="#fff" stroke="none"/><path clip-path="url(#l)" d="M92.64 184.26h1.1v1.1h-1.1Z" fill="#fff" stroke="none"/><path clip-path="url(#l)" d="M93.74 184.26h1.1v1.1h-1.1Z" fill="#fff" stroke="none"/><path clip-path="url(#l)" d="M95.94 184.26h1.1v1.1h-1.1Z" fill="#fff" stroke="none"/><path clip-path="url(#l)" d="M97.05 184.26h1.1v1.1h-1.1Z" fill="#fff" stroke="none"/><path clip-path="url(#l)" d="M70.6 185.36h1.1v1.1H70.6Z" fill="#fff" stroke="none"/><path clip-path="url(#l)" d="M77.21 185.36h1.1v1.1h-1.1Z" fill="#fff" stroke="none"/><path clip-path="url(#l)" d="M79.42 185.36h1.1v1.1h-1.1Z" fill="#fff" stroke="none"/><path clip-path="url(#l)" d="M81.62 185.36h1.1v1.1h-1.1Z" fill="#fff" stroke="none"/><path clip-path="url(#l)" d="M82.72 185.36h1.1v1.1h-1.1Z" fill="#fff" stroke="none"/><path clip-path="url(#l)" d="M83.82 185.36h1.1v1.1h-1.1Z" fill="#fff" stroke="none"/><path clip-path="url(#l)" d="M86.03 185.36h1.1v1.1h-1.1Z" fill="#fff" stroke="none"/><path clip-path="url(#l)" d="M88.23 185.36h1.1v1.1h-1.1Z" fill="#fff" stroke="none"/><path clip-path="url(#l)" d="M91.54 185.36h1.1v1.1h-1.1Z" fill="#fff" stroke="none"/><path clip-path="url(#l)" d="M92.64 185.36h1.1v1.1h-1.1Z" fill="#fff" stroke="none"/><path clip-path="url(#l)" d="M70.6 186.46h1.1v1.1H70.6Z" fill="#fff" stroke="none"/><path clip-path="url(#l)" d="M71.7 186.46h1.1v1.1H71.7Z" fill="#fff" stroke="none"/><path clip-path="url(#l)" d="M72.81 186.46h1.1v1.1h-1.1Z" fill="#fff" stroke="none"/><path clip-path="url(#l)" d="M73.91 186.46h1.1v1.1h-1.1Z" fill="#fff" stroke="none"/><path clip-path="url(#l)" d="M75.01 186.46h1.1v1.1h-1.1Z" fill="#fff" stroke="none"/><path clip-path="url(#l)" d="M76.11 186.46h1.1v1.1h-1.1Z" fill="#fff" stroke="none"/><path clip-path="url(#l)" d="M77.21 186.46h1.1v1.1h-1.1Z" fill="#fff" stroke="none"/><path clip-path="url(#l)" d="M79.42 186.46h1.1v1.1h-1.1Z" fill="#fff" stroke="none"/><path clip-path="url(#l)" d="M81.62 186.46h1.1v1.1h-1.1Z" fill="#fff" stroke="none"/><path clip-path="url(#l)" d="M82.72 186.46h1.1v1.1h-1.1Z" fill="#fff" stroke="none"/><path clip-path="url(#l)" d="M83.82 186.46h1.1v1.1h-1.1Z" fill="#fff" stroke="none"/><path clip-path="url(#l)" d="M88.23 186.46h1.1v1.1h-1.1Z" fill="#fff" stroke="none"/><path clip-path="url(#l)" d="M89.33 186.46h1.1v1.1h-1.1Z" fill="#fff" stroke="none"/><path clip-path="url(#l)" d="M93.74 186.46h1.1v1.1h-1.1Z" fill="#fff" stroke="none"/><path clip-path="url(#l)" d="M97.05 186.46h1.1v1.1h-1.1Z" fill="#fff" stroke="none"/></g></g></svg>