<?xml version="1.0" encoding="UTF-8"?><svg xmlns="http://www.w3.org/2000/svg" color-interpolation="auto" height="350.16" stroke="#000" stroke-linecap="square" stroke-miterlimit="10" width="476.56"><defs><clipPath id="a"><path d="M5 5V345.16H476.56V5Z"/></clipPath><clipPath clip-path="url(#a)" id="b"><path d="M5 345.16H897.91V5H5Z"/></clipPath><clipPath clip-path="url(#b)" id="i"><path d="M5 5H897.91V345.16H5Z"/></clipPath><clipPath id="c"><path d="M5 5V345.16H476.56V5Z"/></clipPath><clipPath clip-path="url(#c)" id="d"><path d="M5 345.16H897.91V5H5Z"/></clipPath><clipPath clip-path="url(#d)" id="j"><path d="M5 5V345.16H422.18c27.27 0 49.39-22.11 49.39-49.39V5Z"/></clipPath><clipPath id="e"><path d="M5 5V345.16H476.56V5Z"/></clipPath><clipPath clip-path="url(#e)" id="f"><path d="M5 345.16H897.91V5H5Z"/></clipPath><clipPath clip-path="url(#f)" id="k"><path d="M5 5H897.91V345.16H5Z"/></clipPath><clipPath id="g"><path d="M5 5V345.16H476.56V5Z"/></clipPath><clipPath clip-path="url(#g)" id="h"><path d="M5 345.16H897.91V5H5Z"/></clipPath><clipPath clip-path="url(#h)" id="l"><path d="M5 5H897.91V345.16H5Z"/></clipPath></defs><g><g fill="#611F7F" stroke="#611F7F"><path clip-path="url(#i)" d="M5 5V345.16H422.18c27.27 0 49.38-22.11 49.38-49.39V5Z" stroke="none"/></g><g fill="#fff" stroke="#fff" stroke-linecap="butt" stroke-width=".3"><path clip-path="url(#j)" d="M253.94 236.01H230.3V202.46c0-11.59-7.39-21.01-18.97-21.01s-21.01 9.43-21.01 21.01v33.54H166.68V202.46c0-24.62 20.03-44.65 44.65-44.65s42.61 20.03 42.61 44.65v33.54Z" fill="none"/><path clip-path="url(#j)" d="M254.05 243.39v7c0 9.19-7.45 16.64-16.64 16.64H197.74V243.39h56.31Z" fill="none"/><path clip-path="url(#j)" d="M190.6 243.51v23.52H167.05V243.51H190.6Z" fill="none"/><path clip-path="url(#j)" d="M124.83 67.55H90.15V18.34c0-17-10.84-30.83-27.84-30.83S31.48 1.34 31.48 18.34V67.55H-3.2V18.34c0-36.12 29.39-65.51 65.51-65.51s62.52 29.39 62.52 65.51V67.55Z" fill="none" stroke="#F16D00"/><path clip-path="url(#j)" d="M124.99 78.38V88.65c0 13.48-10.93 24.42-24.42 24.42H42.38V78.38h82.61Z" fill="none" stroke="#F16D00"/><path clip-path="url(#j)" d="M31.9 78.56v34.5H-2.66V78.56H31.9Z" fill="none" stroke="#F16D00"/><path clip-path="url(#j)" d="M253.92 35.59H225.97V75.25c0 13.7-8.74 24.85-22.44 24.85s-24.85-11.15-24.85-24.85V35.59H150.73V75.25c0 29.11 23.68 52.8 52.8 52.8s50.39-23.68 50.39-52.8V35.59Z" fill="none"/><path clip-path="url(#j)" d="M254.05 26.86V18.59c0-10.87-8.81-19.68-19.68-19.68h-46.9V26.86h66.58Z" fill="none"/><path clip-path="url(#j)" d="M179.02-1.09H151.17V26.72h27.85Z" fill="none"/><path clip-path="url(#j)" d="M349.58 382.37V359.19h32.9c11.36 0 20.61-7.25 20.61-18.61s-9.24-20.61-20.61-20.61h-32.9V296.79h32.9c24.15 0 43.79 19.64 43.79 43.79s-19.64 41.79-43.79 41.79h-32.9Z" fill="none"/><path clip-path="url(#j)" d="M342.34 382.49h-6.86c-9.01 0-16.32-7.31-16.32-16.32v-38.9h23.18v55.22Z" fill="none"/><path clip-path="url(#j)" d="M342.22 320.25H319.15v-23.1h23.06v23.1Z" fill="none"/><path clip-path="url(#j)" d="M60.14 353.02V328.74H94.6c11.9 0 21.58-7.59 21.58-19.49s-9.68-21.58-21.58-21.58H60.14V263.38H94.6c25.29 0 45.87 20.57 45.87 45.87s-20.58 43.78-45.87 43.78H60.14Z" fill="none" stroke="#F16D00"/><path clip-path="url(#j)" d="M52.55 353.13H45.37c-9.44 0-17.1-7.65-17.1-17.1V295.29H52.55v57.84Z" fill="none" stroke="#F16D00"/><path clip-path="url(#j)" d="M52.43 287.95H28.27V263.76H52.43v24.19Z" fill="none" stroke="#F16D00"/><path clip-path="url(#j)" d="M25.02 242.7V214.12H-15.53c-14.01 0-25.4-8.93-25.4-22.94s11.4-25.4 25.4-25.4H25.02V137.2H-15.53c-29.77 0-53.98 24.21-53.98 53.98S-45.3 242.7-15.53 242.7H25.02Z" fill="none"/><path clip-path="url(#j)" d="M33.95 242.83H42.4c11.11 0 20.12-9.01 20.12-20.12V174.76H33.95v68.08Z" fill="none"/><path clip-path="url(#j)" d="M34.09 166.12H62.52V137.65H34.09v28.47Z" fill="none"/><path clip-path="url(#j)" d="M161.45 412.44h34.96V362.83c0-17.14 10.93-31.08 28.07-31.08s31.08 13.94 31.08 31.08v49.61h34.96V362.83c0-36.41-29.62-66.04-66.04-66.04s-63.03 29.62-63.03 66.04v49.61Z" fill="none" stroke="#F16D00"/><path clip-path="url(#j)" d="M380.06 53.74V25.16H339.51c-14.01 0-25.4-8.93-25.4-22.94s11.4-25.4 25.4-25.4h40.55V-51.76H339.51c-29.77 0-53.98 24.21-53.98 53.98s24.22 51.52 53.98 51.52h40.55Z" fill="none"/><path clip-path="url(#j)" d="M388.99 53.87h8.46c11.11 0 20.12-9.01 20.12-20.12V-14.2H388.99V53.87Z" fill="none"/><path clip-path="url(#k)" d="M339.44 198.6V166.75h45.2c15.61 0 28.31-9.96 28.31-25.57s-12.7-28.31-28.31-28.31h-45.2V81.02h45.2c33.17 0 60.16 26.99 60.16 60.16S417.8 198.6 384.63 198.6Z" stroke="none"/><path clip-path="url(#k)" d="M328.05 198.25h-9.43c-12.39 0-22.42-10.04-22.42-22.42V122.38h31.85Z" stroke="none"/><path clip-path="url(#k)" d="M327.89 112.76H296.2V81.02h31.69Z" fill="#F16D00" stroke="none"/><path clip-path="url(#k)" d="M443.29 226.81c0-.68.05-1.37.16-2.07s.26-1.39.47-2.05.49-1.25.83-1.77.74-.94 1.22-1.25 1.02-.47 1.63-.47c.72.01 1.32.17 1.8.49.49.33.88.75 1.17 1.3s.52 1.14.67 1.8.25 1.34.31 2.02.08 1.34.07 1.96c.01 1.07-.06 2.05-.2 2.97s-.35 1.71-.66 2.4-.71 1.23-1.22 1.61-1.12.58-1.86.58c-.84-.01-1.54-.24-2.11-.68s-1.02-1.02-1.36-1.76-.58-1.54-.72-2.42-.22-1.77-.21-2.67m-3.81 15.16h3.81v-7.88h.09c.13.3.32.62.58.99s.61.71 1.04 1.05.95.61 1.57.83 1.35.34 2.18.34c1.53-.01 2.82-.45 3.87-1.33s1.86-2.12 2.41-3.74.83-3.56.83-5.81c0-1.45-.13-2.78-.39-4.02s-.67-2.31-1.23-3.24-1.27-1.64-2.14-2.16-1.92-.77-3.13-.78c-.82.01-1.56.14-2.2.39s-1.19.56-1.65.94-.83.76-1.12 1.16-.49.73-.6 1.03h-.09v-3.04h-3.81Zm-14.08-5.13h3.81v-8.55c.01-1.54.18-2.82.5-3.84s.78-1.83 1.37-2.43 1.25-1.01 2-1.27 1.57-.37 2.43-.37v-4.15c-.99.01-1.85.17-2.57.48s-1.33.71-1.82 1.18-.89.97-1.19 1.48-.51.97-.64 1.39h-.09v-4.06H425.4Zm-18.36-10.07c-.01-.65.02-1.34.09-2.04s.18-1.38.36-2.04.44-1.25.79-1.77.8-.94 1.37-1.25 1.26-.47 2.09-.47c.82.01 1.5.16 2.06.47s1.01.73 1.36 1.25.6 1.11.78 1.77.3 1.33.36 2.04.1 1.38.09 2.04c.01.65-.03 1.33-.09 2.02s-.18 1.38-.36 2.03-.44 1.25-.78 1.78-.8.95-1.36 1.26-1.24.47-2.06.48c-.83-.01-1.53-.17-2.09-.48s-1.02-.73-1.37-1.26-.61-1.12-.79-1.78-.3-1.33-.36-2.03-.09-1.37-.09-2.02m4.69 10.53c1.51-.01 2.83-.25 3.94-.75s2.04-1.2 2.77-2.14 1.28-2.03 1.64-3.32.54-2.73.54-4.32c0-2.16-.32-4.02-.96-5.59s-1.62-2.78-2.93-3.64c-1.31-.86-2.97-1.29-4.99-1.31-2.03.01-3.7.44-5.02 1.31-1.32.85-2.3 2.06-2.95 3.64s-.96 3.43-.96 5.59c0 1.59.18 3.03.54 4.32s.91 2.4 1.64 3.32 1.66 1.64 2.79 2.14 2.44.75 3.96.75m-11.55-3.38c-.55.17-1.09.28-1.62.34s-1.07.09-1.59.08c-1.26-.01-2.36-.19-3.26-.56s-1.68-.85-2.29-1.47-1.09-1.32-1.45-2.09-.62-1.59-.76-2.43-.23-1.66-.23-2.46c.01-1.25.18-2.33.51-3.24s.81-1.63 1.43-2.13 1.33-.75 2.17-.76c.69.01 1.25.15 1.66.42s.72.62.93 1.04c.2.42.34.86.4 1.33s.1.89.09 1.28h4.36c.01-.84-.1-1.67-.32-2.49s-.6-1.58-1.13-2.26-1.27-1.23-2.21-1.64-2.11-.62-3.53-.63c-1.5.01-2.79.25-3.88.74s-1.97 1.18-2.67 2.06-1.21 1.92-1.54 3.11-.5 2.49-.5 3.91c-.01 1.01.09 2.04.29 3.09.19 1.05.51 2.06.96 3.03s1.05 1.84 1.8 2.61 1.7 1.38 2.82 1.83 2.45.68 3.98.69c1.18 0 2.22-.07 3.13-.2s1.73-.32 2.46-.56Zm-30.2-11.17c-.01-.23.05-.54.19-.93s.34-.78.64-1.18.72-.74 1.24-1.01 1.17-.42 1.95-.43c.73.01 1.33.13 1.81.37s.85.55 1.13.92.47.76.59 1.16.17.77.16 1.09Zm11.04 10.87c-.44.16-.96.32-1.59.47s-1.36.23-2.22.25c-1.1-.01-2.06-.21-2.88-.58s-1.52-.89-2.1-1.52-1.04-1.35-1.39-2.14-.62-1.6-.78-2.43-.24-1.63-.24-2.39H381.5v-.97c0-1.19-.15-2.28-.45-3.26s-.75-1.83-1.35-2.55-1.36-1.28-2.27-1.66-1.98-.59-3.21-.6c-.53-.01-1.14.05-1.85.16s-1.42.36-2.16.72-1.42.88-2.06 1.59-1.14 1.63-1.54 2.79-.59 2.59-.61 4.31c.01 2.63.42 4.8 1.23 6.5s1.97 2.96 3.45 3.78 3.26 1.24 5.3 1.23c.72 0 1.36-.04 1.92-.09s1.07-.14 1.57-.24 1.01-.22 1.55-.34Zm-17.77.42c-.28.08-.61.15-.96.21s-.72.08-1.07.08c-.73-.01-1.32-.13-1.75-.36-.44-.23-.76-.54-.97-.92s-.35-.81-.41-1.27-.09-.92-.09-1.38V219.67h5.58v-2.96h-5.58V209.6l-3.81 2.37v4.74h-3.59v2.96h3.59V232.4c-.01.69.09 1.33.26 1.93s.49 1.11.94 1.56 1.07.8 1.86 1.04 1.79.38 3 .38c.51 0 1.01-.02 1.52-.07s1-.12 1.49-.22Zm-32.65 2.79h3.81v-8.55c0-1.01.14-2.01.4-2.98s.62-1.86 1.09-2.65 1.04-1.42 1.69-1.89 1.37-.71 2.15-.73c.68 0 1.21.13 1.59.38s.65.63.81 1.12.27 1.1.3 1.82.05 1.54.04 2.47v11h3.81V222.88c.01-.51-.04-1.06-.11-1.65s-.23-1.18-.45-1.77-.53-1.12-.93-1.6-.93-.88-1.57-1.17c-.63-.29-1.42-.44-2.35-.45-1.02.01-1.9.18-2.64.51s-1.34.75-1.84 1.25-.9 1.02-1.21 1.57-.54 1.02-.7 1.46h-.08v-4.31h-3.81Zm-9.9-9.01v1.14c0 .6-.12 1.21-.35 1.84s-.54 1.2-.95 1.73-.9.97-1.45 1.29-1.16.5-1.82.51c-.39 0-.75-.11-1.08-.32s-.6-.51-.8-.89-.31-.85-.32-1.37c.01-.65.18-1.21.51-1.71s.79-.89 1.36-1.22 1.21-.59 1.93-.75 1.45-.25 2.21-.25Zm0 9.01h3.81V223.01c.01-.37-.01-.84-.05-1.4s-.17-1.15-.37-1.76-.54-1.2-1-1.74-1.12-.99-1.95-1.33-1.91-.51-3.22-.53c-1.4.01-2.59.17-3.55.49s-1.74.76-2.33 1.32-1.01 1.21-1.27 1.92-.4 1.5-.39 2.31h4.02c0-.54.11-1.05.32-1.52s.57-.84 1.05-1.13 1.08-.44 1.85-.44c.49-.01.94.07 1.37.23s.79.44 1.09.81.51.9.63 1.54v3.51c-1.03-.01-2.07.06-3.11.18s-2.03.32-2.97.61-1.78.68-2.52 1.18c-.73.5-1.32 1.14-1.74 1.89s-.65 1.67-.66 2.74c0 1.05.22 1.98.64 2.79s1.07 1.45 1.92 1.92 1.9.7 3.15.71c.77-.01 1.45-.11 2.04-.31s1.1-.45 1.52-.76.77-.63 1.04-.96.47-.64.59-.92h.08Zm-44.71 0h3.81V212.64h.08l8.38 24.19h4.02l8.38-24.19h.09v24.19h3.81V207.65h-5.92l-8.29 23.9h-.09l-8.29-23.9h-5.96Z" fill="#F16D00" stroke="none"/><path clip-path="url(#k)" d="M278.49 264.01c-1.61 0-2.97-.5-3.74-1.04l-.23-1.88c1.04.82 2.45 1.38 4.04 1.38 1.7 0 2.9-.98 2.9-2.43s-.84-2.24-2.72-2.9c-2.54-.86-3.81-2.11-3.81-4.13 0-1.88 1.41-3.72 4.33-3.72 1.36 0 2.49.43 3.06.82l-.36 1.49c-.54-.38-1.63-.84-2.74-.84-1.65 0-2.58 1.02-2.58 2.11 0 1.17.8 1.9 2.47 2.49 2.52.9 4.13 2.03 4.13 4.5 0 2.49-1.77 4.13-4.74 4.13" stroke="none"/><path clip-path="url(#k)" d="M291 259.02l-2.2.2c-1.36.14-2.04.91-2.04 1.84 0 .88.7 1.59 1.77 1.59 1.27 0 2.47-.95 2.47-2.47Zm1.84 5.12c-.7-.16-1.5-.77-1.63-1.72-.43 1.2-1.59 1.72-2.83 1.72-2 0-3.29-1.43-3.29-3.11 0-2 1.61-3.06 3.35-3.22l2.56-.25v-.82c0-1.09-.73-1.86-2.22-1.86-1.02 0-2.06.32-2.77.79l-.37-1.45c.86-.57 2-.86 3.22-.86 2.24 0 3.88 1.27 3.88 3.58v4.43c0 .97.54 1.52 1.2 1.63Z" stroke="none"/><path clip-path="url(#k)" d="M302.2 249.69c-.77.88-1.7 1.61-2.7 2.25l-.91-.41c.86-.68 1.93-1.74 2.58-2.7.14-.18.36-.29.5-.29.25 0 .77.54.77.77 0 .09-.11.26-.25.39m.52 14.21v-1.43h-.02c-.39.93-1.38 1.68-3.24 1.68-2.24 0-3.92-1.41-3.92-3.67v-6.85h1.75v6.68c0 1.25.84 2.32 2.61 2.32 1.73 0 2.7-1.07 2.7-2.32v-6.68h1.75V263.9Z" stroke="none"/><path clip-path="url(#k)" d="M314.55 256.08c-.41-.45-1.34-1.11-2.74-1.11-2.02 0-3.63 1.56-3.63 3.83 0 2.29 1.61 3.83 3.63 3.83 1.34 0 2.29-.69 2.74-1.34Zm.09 7.82v-1.14h-.02c-.48.69-1.52 1.39-3.17 1.39-2.42 0-5.03-1.93-5.03-5.37 0-3.15 2.24-5.39 5.23-5.39 1.22 0 2.47.49 2.9.98v-6.6h1.75V263.9Z" stroke="none"/><path clip-path="url(#k)" d="M323.61 254.83c-1.54 0-2.99 1.29-3.26 2.86h5.87c.02-.1.02-.21.02-.32 0-1.2-.95-2.54-2.63-2.54m4.26 3.24l-.95.97h-6.69c0 1.68 1.41 3.63 3.95 3.63 1.27 0 2.24-.37 2.99-.88l-.2 1.65c-.73.41-1.65.7-2.99.7-2.95 0-5.46-2.2-5.46-5.37 0-3.38 2.58-5.39 5.01-5.39 2.84 0 4.42 2 4.42 3.94 0 .29-.02.55-.07.75" stroke="none"/><path clip-path="url(#k)" d="M339.84 254.97c-1.34 0-2.29.68-2.74 1.33v5.21c.41.45 1.34 1.12 2.74 1.12 2.02 0 3.63-1.57 3.63-3.83 0-2.29-1.61-3.83-3.63-3.83m.16 9.18c-1.22 0-2.47-.5-2.9-.98v5.96h-1.75V253.63h1.65v1.14h.03c.47-.68 1.52-1.38 3.17-1.38 2.43 0 5.03 1.92 5.03 5.37 0 3.15-2.25 5.4-5.24 5.4" stroke="none"/><path clip-path="url(#k)" d="M351.97 254.83c-1.54 0-2.99 1.29-3.26 2.86h5.87c.02-.1.02-.21.02-.32 0-1.2-.95-2.54-2.63-2.54m4.26 3.24l-.95.97h-6.68c0 1.68 1.4 3.63 3.94 3.63 1.27 0 2.24-.37 2.99-.88l-.2 1.65c-.73.41-1.65.7-2.99.7-2.95 0-5.46-2.2-5.46-5.37 0-3.38 2.58-5.39 5.01-5.39 2.84 0 4.42 2 4.42 3.94 0 .29-.02.55-.07.75" stroke="none"/><path clip-path="url(#k)" d="M363.78 255.38c-.18-.05-.47-.12-.77-.12-1.47 0-2.92.88-2.92 3.43v5.21H358.4V253.63h1.68v2.25h.02c.34-1.45 1.52-2.38 3.08-2.38.29 0 .75.04.99.13Z" stroke="none"/><path clip-path="url(#k)" d="M368.24 264.03c-1.23 0-2.15-.31-2.83-.79l-.23-1.81c.75.66 1.88 1.18 3.08 1.18 1.06 0 1.86-.57 1.86-1.43 0-.84-.63-1.34-1.7-1.73-1.93-.68-3.01-1.56-3.01-3.17 0-1.65 1.36-2.78 3.24-2.78 1.11 0 2.15.41 2.56.66l-.37 1.43c-.45-.34-1.2-.69-2.22-.69-.95 0-1.58.55-1.58 1.32 0 .82.57 1.17 1.63 1.56 1.97.71 3.13 1.63 3.13 3.33 0 1.68-1.29 2.92-3.56 2.92" stroke="none"/><path clip-path="url(#k)" d="M378.74 254.97c-2.02 0-3.67 1.56-3.67 3.85 0 2.27 1.65 3.81 3.67 3.81 2 0 3.65-1.55 3.65-3.81 0-2.29-1.65-3.85-3.65-3.85m0 9.18c-3.06 0-5.44-2.22-5.44-5.37 0-3.17 2.38-5.39 5.44-5.39s5.42 2.22 5.42 5.39c0 3.15-2.36 5.37-5.42 5.37" stroke="none"/><path clip-path="url(#k)" d="M393.32 263.9v-6.69c0-1.25-.84-2.31-2.61-2.31-1.72 0-2.7 1.06-2.7 2.31v6.69h-1.75V253.63h1.61v1.43h.02c.39-.93 1.39-1.68 3.24-1.68 2.25 0 3.92 1.41 3.92 3.67v6.85Z" stroke="none"/><path clip-path="url(#k)" d="M403.08 259.02l-2.2.2c-1.36.14-2.04.91-2.04 1.84 0 .88.7 1.59 1.77 1.59 1.27 0 2.47-.95 2.47-2.47Zm1.84 5.12c-.7-.16-1.5-.77-1.63-1.72-.43 1.2-1.59 1.72-2.83 1.72-2 0-3.29-1.43-3.29-3.11 0-2 1.61-3.06 3.35-3.22l2.56-.25v-.82c0-1.09-.73-1.86-2.22-1.86-1.02 0-2.06.32-2.77.79l-.37-1.45c.86-.57 2-.86 3.22-.86 2.24 0 3.88 1.27 3.88 3.58v4.43c0 .97.54 1.52 1.2 1.63Z" stroke="none"/><path clip-path="url(#k)" d="M409.56 264.29c-.75-.2-1.9-.91-1.9-2.73v-13.8h1.74v13.57c0 .98.68 1.61 1.36 1.75Z" stroke="none"/><path clip-path="url(#k)" d="M412.78 253.63h1.77V263.9h-1.77Zm.88-2.02c-.36 0-1.11-.77-1.11-1.13 0-.39.75-1.11 1.11-1.11.39 0 1.13.72 1.13 1.11 0 .36-.75 1.13-1.13 1.13" stroke="none"/><path clip-path="url(#k)" d="M416.91 263.9v-.36l3.42-5.62c.54-.88 1.2-2.02 1.74-2.84l-.02-.04h-4.79v-1.41h7.3v.36l-3.44 5.62c-.55.9-1.13 1.86-1.75 2.84l.02.04h5.58v1.41Z" stroke="none"/><path clip-path="url(#k)" d="M432.52 259.02l-2.2.2c-1.36.14-2.04.91-2.04 1.84 0 .88.7 1.59 1.77 1.59 1.27 0 2.47-.95 2.47-2.47Zm1.84 5.12c-.7-.16-1.5-.77-1.63-1.72-.43 1.2-1.59 1.72-2.83 1.72-2 0-3.29-1.43-3.29-3.11 0-2 1.61-3.06 3.35-3.22l2.56-.25v-.82c0-1.09-.73-1.86-2.22-1.86-1.02 0-2.06.32-2.77.79l-.37-1.45c.86-.57 2-.86 3.22-.86 2.24 0 3.88 1.27 3.88 3.58v4.43c0 .97.54 1.52 1.2 1.63Z" stroke="none"/><path clip-path="url(#k)" d="M444.51 256.08c-.41-.45-1.33-1.11-2.74-1.11-2.02 0-3.63 1.56-3.63 3.83 0 2.29 1.61 3.83 3.63 3.83 1.34 0 2.29-.69 2.74-1.34Zm.09 7.82v-1.14h-.02c-.48.69-1.52 1.39-3.17 1.39-2.42 0-5.03-1.93-5.03-5.37 0-3.15 2.24-5.39 5.23-5.39 1.22 0 2.47.49 2.9.98v-6.6h1.75V263.9Z" stroke="none"/><path clip-path="url(#k)" d="M454.4 259.02l-2.2.2c-1.36.14-2.04.91-2.04 1.84 0 .88.7 1.59 1.77 1.59 1.27 0 2.47-.95 2.47-2.47Zm1.84 5.12c-.7-.16-1.5-.77-1.63-1.72-.43 1.2-1.59 1.72-2.83 1.72-2 0-3.29-1.43-3.29-3.11 0-2 1.61-3.06 3.35-3.22l2.56-.25v-.82c0-1.09-.73-1.86-2.22-1.86-1.02 0-2.06.32-2.77.79l-.37-1.45c.86-.57 2-.86 3.22-.86 2.24 0 3.88 1.27 3.88 3.58v4.43c0 .97.54 1.52 1.2 1.63Z" stroke="none"/><path clip-path="url(#l)" d="M82.9 217.21H84v1.1H82.9Z" stroke="none"/><path clip-path="url(#l)" d="M84 217.21h1.1v1.1H84Z" stroke="none"/><path clip-path="url(#l)" d="M85.1 217.21h1.1v1.1H85.1Z" stroke="none"/><path clip-path="url(#l)" d="M86.2 217.21h1.1v1.1H86.2Z" stroke="none"/><path clip-path="url(#l)" d="M87.31 217.21h1.1v1.1h-1.1Z" stroke="none"/><path clip-path="url(#l)" d="M88.41 217.21h1.1v1.1h-1.1Z" stroke="none"/><path clip-path="url(#l)" d="M89.51 217.21h1.1v1.1h-1.1Z" stroke="none"/><path clip-path="url(#l)" d="M91.71 217.21h1.1v1.1h-1.1Z" stroke="none"/><path clip-path="url(#l)" d="M92.81 217.21h1.1v1.1h-1.1Z" stroke="none"/><path clip-path="url(#l)" d="M93.92 217.21h1.1v1.1h-1.1Z" stroke="none"/><path clip-path="url(#l)" d="M95.02 217.21h1.1v1.1h-1.1Z" stroke="none"/><path clip-path="url(#l)" d="M97.22 217.21h1.1v1.1h-1.1Z" stroke="none"/><path clip-path="url(#l)" d="M98.32 217.21h1.1v1.1h-1.1Z" stroke="none"/><path clip-path="url(#l)" d="M102.73 217.21h1.1v1.1h-1.1Z" stroke="none"/><path clip-path="url(#l)" d="M103.83 217.21h1.1v1.1h-1.1Z" stroke="none"/><path clip-path="url(#l)" d="M104.93 217.21h1.1v1.1h-1.1Z" stroke="none"/><path clip-path="url(#l)" d="M106.04 217.21h1.1v1.1h-1.1Z" stroke="none"/><path clip-path="url(#l)" d="M107.14 217.21h1.1v1.1h-1.1Z" stroke="none"/><path clip-path="url(#l)" d="M108.24 217.21h1.1v1.1h-1.1Z" stroke="none"/><path clip-path="url(#l)" d="M109.34 217.21h1.1v1.1h-1.1Z" stroke="none"/><path clip-path="url(#l)" d="M82.9 218.32H84v1.1H82.9Z" stroke="none"/><path clip-path="url(#l)" d="M89.51 218.32h1.1v1.1h-1.1Z" stroke="none"/><path clip-path="url(#l)" d="M91.71 218.32h1.1v1.1h-1.1Z" stroke="none"/><path clip-path="url(#l)" d="M95.02 218.32h1.1v1.1h-1.1Z" stroke="none"/><path clip-path="url(#l)" d="M98.32 218.32h1.1v1.1h-1.1Z" stroke="none"/><path clip-path="url(#l)" d="M100.53 218.32h1.1v1.1h-1.1Z" stroke="none"/><path clip-path="url(#l)" d="M102.73 218.32h1.1v1.1h-1.1Z" stroke="none"/><path clip-path="url(#l)" d="M109.34 218.32h1.1v1.1h-1.1Z" stroke="none"/><path clip-path="url(#l)" d="M82.9 219.42H84v1.1H82.9Z" stroke="none"/><path clip-path="url(#l)" d="M85.1 219.42h1.1v1.1H85.1Z" stroke="none"/><path clip-path="url(#l)" d="M86.2 219.42h1.1v1.1H86.2Z" stroke="none"/><path clip-path="url(#l)" d="M87.31 219.42h1.1v1.1h-1.1Z" stroke="none"/><path clip-path="url(#l)" d="M89.51 219.42h1.1v1.1h-1.1Z" stroke="none"/><path clip-path="url(#l)" d="M92.81 219.42h1.1v1.1h-1.1Z" stroke="none"/><path clip-path="url(#l)" d="M97.22 219.42h1.1v1.1h-1.1Z" stroke="none"/><path clip-path="url(#l)" d="M98.32 219.42h1.1v1.1h-1.1Z" stroke="none"/><path clip-path="url(#l)" d="M102.73 219.42h1.1v1.1h-1.1Z" stroke="none"/><path clip-path="url(#l)" d="M104.93 219.42h1.1v1.1h-1.1Z" stroke="none"/><path clip-path="url(#l)" d="M106.04 219.42h1.1v1.1h-1.1Z" stroke="none"/><path clip-path="url(#l)" d="M107.14 219.42h1.1v1.1h-1.1Z" stroke="none"/><path clip-path="url(#l)" d="M109.34 219.42h1.1v1.1h-1.1Z" stroke="none"/><path clip-path="url(#l)" d="M82.9 220.52H84v1.1H82.9Z" stroke="none"/><path clip-path="url(#l)" d="M85.1 220.52h1.1v1.1H85.1Z" stroke="none"/><path clip-path="url(#l)" d="M86.2 220.52h1.1v1.1H86.2Z" stroke="none"/><path clip-path="url(#l)" d="M87.31 220.52h1.1v1.1h-1.1Z" stroke="none"/><path clip-path="url(#l)" d="M89.51 220.52h1.1v1.1h-1.1Z" stroke="none"/><path clip-path="url(#l)" d="M95.02 220.52h1.1v1.1h-1.1Z" stroke="none"/><path clip-path="url(#l)" d="M96.12 220.52h1.1v1.1h-1.1Z" stroke="none"/><path clip-path="url(#l)" d="M97.22 220.52h1.1v1.1h-1.1Z" stroke="none"/><path clip-path="url(#l)" d="M98.32 220.52h1.1v1.1h-1.1Z" stroke="none"/><path clip-path="url(#l)" d="M99.43 220.52h1.1v1.1h-1.1Z" stroke="none"/><path clip-path="url(#l)" d="M102.73 220.52h1.1v1.1h-1.1Z" stroke="none"/><path clip-path="url(#l)" d="M104.93 220.52h1.1v1.1h-1.1Z" stroke="none"/><path clip-path="url(#l)" d="M106.04 220.52h1.1v1.1h-1.1Z" stroke="none"/><path clip-path="url(#l)" d="M107.14 220.52h1.1v1.1h-1.1Z" stroke="none"/><path clip-path="url(#l)" d="M109.34 220.52h1.1v1.1h-1.1Z" stroke="none"/><path clip-path="url(#l)" d="M82.9 221.62H84v1.1H82.9Z" stroke="none"/><path clip-path="url(#l)" d="M85.1 221.62h1.1v1.1H85.1Z" stroke="none"/><path clip-path="url(#l)" d="M86.2 221.62h1.1v1.1H86.2Z" stroke="none"/><path clip-path="url(#l)" d="M87.31 221.62h1.1v1.1h-1.1Z" stroke="none"/><path clip-path="url(#l)" d="M89.51 221.62h1.1v1.1h-1.1Z" stroke="none"/><path clip-path="url(#l)" d="M91.71 221.62h1.1v1.1h-1.1Z" stroke="none"/><path clip-path="url(#l)" d="M95.02 221.62h1.1v1.1h-1.1Z" stroke="none"/><path clip-path="url(#l)" d="M96.12 221.62h1.1v1.1h-1.1Z" stroke="none"/><path clip-path="url(#l)" d="M97.22 221.62h1.1v1.1h-1.1Z" stroke="none"/><path clip-path="url(#l)" d="M98.32 221.62h1.1v1.1h-1.1Z" stroke="none"/><path clip-path="url(#l)" d="M100.53 221.62h1.1v1.1h-1.1Z" stroke="none"/><path clip-path="url(#l)" d="M102.73 221.62h1.1v1.1h-1.1Z" stroke="none"/><path clip-path="url(#l)" d="M104.93 221.62h1.1v1.1h-1.1Z" stroke="none"/><path clip-path="url(#l)" d="M106.04 221.62h1.1v1.1h-1.1Z" stroke="none"/><path clip-path="url(#l)" d="M107.14 221.62h1.1v1.1h-1.1Z" stroke="none"/><path clip-path="url(#l)" d="M109.34 221.62h1.1v1.1h-1.1Z" stroke="none"/><path clip-path="url(#l)" d="M82.9 222.72H84v1.1H82.9Z" stroke="none"/><path clip-path="url(#l)" d="M89.51 222.72h1.1v1.1h-1.1Z" stroke="none"/><path clip-path="url(#l)" d="M91.71 222.72h1.1v1.1h-1.1Z" stroke="none"/><path clip-path="url(#l)" d="M92.81 222.72h1.1v1.1h-1.1Z" stroke="none"/><path clip-path="url(#l)" d="M93.92 222.72h1.1v1.1h-1.1Z" stroke="none"/><path clip-path="url(#l)" d="M96.12 222.72h1.1v1.1h-1.1Z" stroke="none"/><path clip-path="url(#l)" d="M97.22 222.72h1.1v1.1h-1.1Z" stroke="none"/><path clip-path="url(#l)" d="M98.32 222.72h1.1v1.1h-1.1Z" stroke="none"/><path clip-path="url(#l)" d="M100.53 222.72h1.1v1.1h-1.1Z" stroke="none"/><path clip-path="url(#l)" d="M102.73 222.72h1.1v1.1h-1.1Z" stroke="none"/><path clip-path="url(#l)" d="M109.34 222.72h1.1v1.1h-1.1Z" stroke="none"/><path clip-path="url(#l)" d="M82.9 223.82H84v1.1H82.9Z" stroke="none"/><path clip-path="url(#l)" d="M84 223.82h1.1v1.1H84Z" stroke="none"/><path clip-path="url(#l)" d="M85.1 223.82h1.1v1.1H85.1Z" stroke="none"/><path clip-path="url(#l)" d="M86.2 223.82h1.1v1.1H86.2Z" stroke="none"/><path clip-path="url(#l)" d="M87.31 223.82h1.1v1.1h-1.1Z" stroke="none"/><path clip-path="url(#l)" d="M88.41 223.82h1.1v1.1h-1.1Z" stroke="none"/><path clip-path="url(#l)" d="M89.51 223.82h1.1v1.1h-1.1Z" stroke="none"/><path clip-path="url(#l)" d="M91.71 223.82h1.1v1.1h-1.1Z" stroke="none"/><path clip-path="url(#l)" d="M93.92 223.82h1.1v1.1h-1.1Z" stroke="none"/><path clip-path="url(#l)" d="M96.12 223.82h1.1v1.1h-1.1Z" stroke="none"/><path clip-path="url(#l)" d="M98.32 223.82h1.1v1.1h-1.1Z" stroke="none"/><path clip-path="url(#l)" d="M100.53 223.82h1.1v1.1h-1.1Z" stroke="none"/><path clip-path="url(#l)" d="M102.73 223.82h1.1v1.1h-1.1Z" stroke="none"/><path clip-path="url(#l)" d="M103.83 223.82h1.1v1.1h-1.1Z" stroke="none"/><path clip-path="url(#l)" d="M104.93 223.82h1.1v1.1h-1.1Z" stroke="none"/><path clip-path="url(#l)" d="M106.04 223.82h1.1v1.1h-1.1Z" stroke="none"/><path clip-path="url(#l)" d="M107.14 223.82h1.1v1.1h-1.1Z" stroke="none"/><path clip-path="url(#l)" d="M108.24 223.82h1.1v1.1h-1.1Z" stroke="none"/><path clip-path="url(#l)" d="M109.34 223.82h1.1v1.1h-1.1Z" stroke="none"/><path clip-path="url(#l)" d="M91.71 224.93h1.1v1.1h-1.1Z" stroke="none"/><path clip-path="url(#l)" d="M92.81 224.93h1.1v1.1h-1.1Z" stroke="none"/><path clip-path="url(#l)" d="M99.43 224.93h1.1v1.1h-1.1Z" stroke="none"/><path clip-path="url(#l)" d="M100.53 224.93h1.1v1.1h-1.1Z" stroke="none"/><path clip-path="url(#l)" d="M82.9 226.03H84v1.1H82.9Z" stroke="none"/><path clip-path="url(#l)" d="M84 226.03h1.1v1.1H84Z" stroke="none"/><path clip-path="url(#l)" d="M85.1 226.03h1.1v1.1H85.1Z" stroke="none"/><path clip-path="url(#l)" d="M88.41 226.03h1.1v1.1h-1.1Z" stroke="none"/><path clip-path="url(#l)" d="M89.51 226.03h1.1v1.1h-1.1Z" stroke="none"/><path clip-path="url(#l)" d="M91.71 226.03h1.1v1.1h-1.1Z" stroke="none"/><path clip-path="url(#l)" d="M92.81 226.03h1.1v1.1h-1.1Z" stroke="none"/><path clip-path="url(#l)" d="M95.02 226.03h1.1v1.1h-1.1Z" stroke="none"/><path clip-path="url(#l)" d="M96.12 226.03h1.1v1.1h-1.1Z" stroke="none"/><path clip-path="url(#l)" d="M100.53 226.03h1.1v1.1h-1.1Z" stroke="none"/><path clip-path="url(#l)" d="M101.63 226.03h1.1v1.1h-1.1Z" stroke="none"/><path clip-path="url(#l)" d="M102.73 226.03h1.1v1.1h-1.1Z" stroke="none"/><path clip-path="url(#l)" d="M103.83 226.03h1.1v1.1h-1.1Z" stroke="none"/><path clip-path="url(#l)" d="M104.93 226.03h1.1v1.1h-1.1Z" stroke="none"/><path clip-path="url(#l)" d="M108.24 226.03h1.1v1.1h-1.1Z" stroke="none"/><path clip-path="url(#l)" d="M109.34 226.03h1.1v1.1h-1.1Z" stroke="none"/><path clip-path="url(#l)" d="M84 227.13h1.1v1.1H84Z" stroke="none"/><path clip-path="url(#l)" d="M87.31 227.13h1.1v1.1h-1.1Z" stroke="none"/><path clip-path="url(#l)" d="M91.71 227.13h1.1v1.1h-1.1Z" stroke="none"/><path clip-path="url(#l)" d="M96.12 227.13h1.1v1.1h-1.1Z" stroke="none"/><path clip-path="url(#l)" d="M98.32 227.13h1.1v1.1h-1.1Z" stroke="none"/><path clip-path="url(#l)" d="M99.43 227.13h1.1v1.1h-1.1Z" stroke="none"/><path clip-path="url(#l)" d="M100.53 227.13h1.1v1.1h-1.1Z" stroke="none"/><path clip-path="url(#l)" d="M101.63 227.13h1.1v1.1h-1.1Z" stroke="none"/><path clip-path="url(#l)" d="M102.73 227.13h1.1v1.1h-1.1Z" stroke="none"/><path clip-path="url(#l)" d="M103.83 227.13h1.1v1.1h-1.1Z" stroke="none"/><path clip-path="url(#l)" d="M106.04 227.13h1.1v1.1h-1.1Z" stroke="none"/><path clip-path="url(#l)" d="M108.24 227.13h1.1v1.1h-1.1Z" stroke="none"/><path clip-path="url(#l)" d="M109.34 227.13h1.1v1.1h-1.1Z" stroke="none"/><path clip-path="url(#l)" d="M82.9 228.23H84v1.1H82.9Z" stroke="none"/><path clip-path="url(#l)" d="M84 228.23h1.1v1.1H84Z" stroke="none"/><path clip-path="url(#l)" d="M85.1 228.23h1.1v1.1H85.1Z" stroke="none"/><path clip-path="url(#l)" d="M86.2 228.23h1.1v1.1H86.2Z" stroke="none"/><path clip-path="url(#l)" d="M88.41 228.23h1.1v1.1h-1.1Z" stroke="none"/><path clip-path="url(#l)" d="M89.51 228.23h1.1v1.1h-1.1Z" stroke="none"/><path clip-path="url(#l)" d="M90.61 228.23h1.1v1.1h-1.1Z" stroke="none"/><path clip-path="url(#l)" d="M91.71 228.23h1.1v1.1h-1.1Z" stroke="none"/><path clip-path="url(#l)" d="M92.81 228.23h1.1v1.1h-1.1Z" stroke="none"/><path clip-path="url(#l)" d="M93.92 228.23h1.1v1.1h-1.1Z" stroke="none"/><path clip-path="url(#l)" d="M96.12 228.23h1.1v1.1h-1.1Z" stroke="none"/><path clip-path="url(#l)" d="M98.32 228.23h1.1v1.1h-1.1Z" stroke="none"/><path clip-path="url(#l)" d="M99.43 228.23h1.1v1.1h-1.1Z" stroke="none"/><path clip-path="url(#l)" d="M101.63 228.23h1.1v1.1h-1.1Z" stroke="none"/><path clip-path="url(#l)" d="M103.83 228.23h1.1v1.1h-1.1Z" stroke="none"/><path clip-path="url(#l)" d="M104.93 228.23h1.1v1.1h-1.1Z" stroke="none"/><path clip-path="url(#l)" d="M106.04 228.23h1.1v1.1h-1.1Z" stroke="none"/><path clip-path="url(#l)" d="M107.14 228.23h1.1v1.1h-1.1Z" stroke="none"/><path clip-path="url(#l)" d="M109.34 228.23h1.1v1.1h-1.1Z" stroke="none"/><path clip-path="url(#l)" d="M82.9 229.33H84v1.1H82.9Z" stroke="none"/><path clip-path="url(#l)" d="M85.1 229.33h1.1v1.1H85.1Z" stroke="none"/><path clip-path="url(#l)" d="M86.2 229.33h1.1v1.1H86.2Z" stroke="none"/><path clip-path="url(#l)" d="M88.41 229.33h1.1v1.1h-1.1Z" stroke="none"/><path clip-path="url(#l)" d="M90.61 229.33h1.1v1.1h-1.1Z" stroke="none"/><path clip-path="url(#l)" d="M93.92 229.33h1.1v1.1h-1.1Z" stroke="none"/><path clip-path="url(#l)" d="M95.02 229.33h1.1v1.1h-1.1Z" stroke="none"/><path clip-path="url(#l)" d="M96.12 229.33h1.1v1.1h-1.1Z" stroke="none"/><path clip-path="url(#l)" d="M98.32 229.33h1.1v1.1h-1.1Z" stroke="none"/><path clip-path="url(#l)" d="M101.63 229.33h1.1v1.1h-1.1Z" stroke="none"/><path clip-path="url(#l)" d="M104.93 229.33h1.1v1.1h-1.1Z" stroke="none"/><path clip-path="url(#l)" d="M106.04 229.33h1.1v1.1h-1.1Z" stroke="none"/><path clip-path="url(#l)" d="M84 230.44h1.1v1.1H84Z" stroke="none"/><path clip-path="url(#l)" d="M85.1 230.44h1.1v1.1H85.1Z" stroke="none"/><path clip-path="url(#l)" d="M89.51 230.44h1.1v1.1h-1.1Z" stroke="none"/><path clip-path="url(#l)" d="M90.61 230.44h1.1v1.1h-1.1Z" stroke="none"/><path clip-path="url(#l)" d="M92.81 230.44h1.1v1.1h-1.1Z" stroke="none"/><path clip-path="url(#l)" d="M93.92 230.44h1.1v1.1h-1.1Z" stroke="none"/><path clip-path="url(#l)" d="M98.32 230.44h1.1v1.1h-1.1Z" stroke="none"/><path clip-path="url(#l)" d="M100.53 230.44h1.1v1.1h-1.1Z" stroke="none"/><path clip-path="url(#l)" d="M102.73 230.44h1.1v1.1h-1.1Z" stroke="none"/><path clip-path="url(#l)" d="M103.83 230.44h1.1v1.1h-1.1Z" stroke="none"/><path clip-path="url(#l)" d="M109.34 230.44h1.1v1.1h-1.1Z" stroke="none"/><path clip-path="url(#l)" d="M84 231.54h1.1v1.1H84Z" stroke="none"/><path clip-path="url(#l)" d="M85.1 231.54h1.1v1.1H85.1Z" stroke="none"/><path clip-path="url(#l)" d="M88.41 231.54h1.1v1.1h-1.1Z" stroke="none"/><path clip-path="url(#l)" d="M90.61 231.54h1.1v1.1h-1.1Z" stroke="none"/><path clip-path="url(#l)" d="M92.81 231.54h1.1v1.1h-1.1Z" stroke="none"/><path clip-path="url(#l)" d="M93.92 231.54h1.1v1.1h-1.1Z" stroke="none"/><path clip-path="url(#l)" d="M98.32 231.54h1.1v1.1h-1.1Z" stroke="none"/><path clip-path="url(#l)" d="M99.43 231.54h1.1v1.1h-1.1Z" stroke="none"/><path clip-path="url(#l)" d="M100.53 231.54h1.1v1.1h-1.1Z" stroke="none"/><path clip-path="url(#l)" d="M101.63 231.54h1.1v1.1h-1.1Z" stroke="none"/><path clip-path="url(#l)" d="M102.73 231.54h1.1v1.1h-1.1Z" stroke="none"/><path clip-path="url(#l)" d="M103.83 231.54h1.1v1.1h-1.1Z" stroke="none"/><path clip-path="url(#l)" d="M108.24 231.54h1.1v1.1h-1.1Z" stroke="none"/><path clip-path="url(#l)" d="M109.34 231.54h1.1v1.1h-1.1Z" stroke="none"/><path clip-path="url(#l)" d="M82.9 232.64H84v1.1H82.9Z" stroke="none"/><path clip-path="url(#l)" d="M84 232.64h1.1v1.1H84Z" stroke="none"/><path clip-path="url(#l)" d="M85.1 232.64h1.1v1.1H85.1Z" stroke="none"/><path clip-path="url(#l)" d="M86.2 232.64h1.1v1.1H86.2Z" stroke="none"/><path clip-path="url(#l)" d="M87.31 232.64h1.1v1.1h-1.1Z" stroke="none"/><path clip-path="url(#l)" d="M88.41 232.64h1.1v1.1h-1.1Z" stroke="none"/><path clip-path="url(#l)" d="M89.51 232.64h1.1v1.1h-1.1Z" stroke="none"/><path clip-path="url(#l)" d="M93.92 232.64h1.1v1.1h-1.1Z" stroke="none"/><path clip-path="url(#l)" d="M95.02 232.64h1.1v1.1h-1.1Z" stroke="none"/><path clip-path="url(#l)" d="M99.43 232.64h1.1v1.1h-1.1Z" stroke="none"/><path clip-path="url(#l)" d="M100.53 232.64h1.1v1.1h-1.1Z" stroke="none"/><path clip-path="url(#l)" d="M101.63 232.64h1.1v1.1h-1.1Z" stroke="none"/><path clip-path="url(#l)" d="M102.73 232.64h1.1v1.1h-1.1Z" stroke="none"/><path clip-path="url(#l)" d="M106.04 232.64h1.1v1.1h-1.1Z" stroke="none"/><path clip-path="url(#l)" d="M107.14 232.64h1.1v1.1h-1.1Z" stroke="none"/><path clip-path="url(#l)" d="M109.34 232.64h1.1v1.1h-1.1Z" stroke="none"/><path clip-path="url(#l)" d="M85.1 233.74h1.1v1.1H85.1Z" stroke="none"/><path clip-path="url(#l)" d="M90.61 233.74h1.1v1.1h-1.1Z" stroke="none"/><path clip-path="url(#l)" d="M91.71 233.74h1.1v1.1h-1.1Z" stroke="none"/><path clip-path="url(#l)" d="M93.92 233.74h1.1v1.1h-1.1Z" stroke="none"/><path clip-path="url(#l)" d="M98.32 233.74h1.1v1.1h-1.1Z" stroke="none"/><path clip-path="url(#l)" d="M99.43 233.74h1.1v1.1h-1.1Z" stroke="none"/><path clip-path="url(#l)" d="M100.53 233.74h1.1v1.1h-1.1Z" stroke="none"/><path clip-path="url(#l)" d="M103.83 233.74h1.1v1.1h-1.1Z" stroke="none"/><path clip-path="url(#l)" d="M104.93 233.74h1.1v1.1h-1.1Z" stroke="none"/><path clip-path="url(#l)" d="M106.04 233.74h1.1v1.1h-1.1Z" stroke="none"/><path clip-path="url(#l)" d="M82.9 234.84H84v1.1H82.9Z" stroke="none"/><path clip-path="url(#l)" d="M84 234.84h1.1v1.1H84Z" stroke="none"/><path clip-path="url(#l)" d="M89.51 234.84h1.1v1.1h-1.1Z" stroke="none"/><path clip-path="url(#l)" d="M90.61 234.84h1.1v1.1h-1.1Z" stroke="none"/><path clip-path="url(#l)" d="M91.71 234.84h1.1v1.1h-1.1Z" stroke="none"/><path clip-path="url(#l)" d="M92.81 234.84h1.1v1.1h-1.1Z" stroke="none"/><path clip-path="url(#l)" d="M95.02 234.84h1.1v1.1h-1.1Z" stroke="none"/><path clip-path="url(#l)" d="M96.12 234.84h1.1v1.1h-1.1Z" stroke="none"/><path clip-path="url(#l)" d="M98.32 234.84h1.1v1.1h-1.1Z" stroke="none"/><path clip-path="url(#l)" d="M100.53 234.84h1.1v1.1h-1.1Z" stroke="none"/><path clip-path="url(#l)" d="M101.63 234.84h1.1v1.1h-1.1Z" stroke="none"/><path clip-path="url(#l)" d="M102.73 234.84h1.1v1.1h-1.1Z" stroke="none"/><path clip-path="url(#l)" d="M103.83 234.84h1.1v1.1h-1.1Z" stroke="none"/><path clip-path="url(#l)" d="M104.93 234.84h1.1v1.1h-1.1Z" stroke="none"/><path clip-path="url(#l)" d="M108.24 234.84h1.1v1.1h-1.1Z" stroke="none"/><path clip-path="url(#l)" d="M91.71 235.94h1.1v1.1h-1.1Z" stroke="none"/><path clip-path="url(#l)" d="M96.12 235.94h1.1v1.1h-1.1Z" stroke="none"/><path clip-path="url(#l)" d="M97.22 235.94h1.1v1.1h-1.1Z" stroke="none"/><path clip-path="url(#l)" d="M98.32 235.94h1.1v1.1h-1.1Z" stroke="none"/><path clip-path="url(#l)" d="M100.53 235.94h1.1v1.1h-1.1Z" stroke="none"/><path clip-path="url(#l)" d="M104.93 235.94h1.1v1.1h-1.1Z" stroke="none"/><path clip-path="url(#l)" d="M109.34 235.94h1.1v1.1h-1.1Z" stroke="none"/><path clip-path="url(#l)" d="M82.9 237.05H84v1.1H82.9Z" stroke="none"/><path clip-path="url(#l)" d="M84 237.05h1.1v1.1H84Z" stroke="none"/><path clip-path="url(#l)" d="M85.1 237.05h1.1v1.1H85.1Z" stroke="none"/><path clip-path="url(#l)" d="M86.2 237.05h1.1v1.1H86.2Z" stroke="none"/><path clip-path="url(#l)" d="M87.31 237.05h1.1v1.1h-1.1Z" stroke="none"/><path clip-path="url(#l)" d="M88.41 237.05h1.1v1.1h-1.1Z" stroke="none"/><path clip-path="url(#l)" d="M89.51 237.05h1.1v1.1h-1.1Z" stroke="none"/><path clip-path="url(#l)" d="M93.92 237.05h1.1v1.1h-1.1Z" stroke="none"/><path clip-path="url(#l)" d="M96.12 237.05h1.1v1.1h-1.1Z" stroke="none"/><path clip-path="url(#l)" d="M97.22 237.05h1.1v1.1h-1.1Z" stroke="none"/><path clip-path="url(#l)" d="M98.32 237.05h1.1v1.1h-1.1Z" stroke="none"/><path clip-path="url(#l)" d="M100.53 237.05h1.1v1.1h-1.1Z" stroke="none"/><path clip-path="url(#l)" d="M102.73 237.05h1.1v1.1h-1.1Z" stroke="none"/><path clip-path="url(#l)" d="M104.93 237.05h1.1v1.1h-1.1Z" stroke="none"/><path clip-path="url(#l)" d="M109.34 237.05h1.1v1.1h-1.1Z" stroke="none"/><path clip-path="url(#l)" d="M82.9 238.15H84v1.1H82.9Z" stroke="none"/><path clip-path="url(#l)" d="M89.51 238.15h1.1v1.1h-1.1Z" stroke="none"/><path clip-path="url(#l)" d="M91.71 238.15h1.1v1.1h-1.1Z" stroke="none"/><path clip-path="url(#l)" d="M95.02 238.15h1.1v1.1h-1.1Z" stroke="none"/><path clip-path="url(#l)" d="M96.12 238.15h1.1v1.1h-1.1Z" stroke="none"/><path clip-path="url(#l)" d="M100.53 238.15h1.1v1.1h-1.1Z" stroke="none"/><path clip-path="url(#l)" d="M104.93 238.15h1.1v1.1h-1.1Z" stroke="none"/><path clip-path="url(#l)" d="M82.9 239.25H84v1.1H82.9Z" stroke="none"/><path clip-path="url(#l)" d="M85.1 239.25h1.1v1.1H85.1Z" stroke="none"/><path clip-path="url(#l)" d="M86.2 239.25h1.1v1.1H86.2Z" stroke="none"/><path clip-path="url(#l)" d="M87.31 239.25h1.1v1.1h-1.1Z" stroke="none"/><path clip-path="url(#l)" d="M89.51 239.25h1.1v1.1h-1.1Z" stroke="none"/><path clip-path="url(#l)" d="M92.81 239.25h1.1v1.1h-1.1Z" stroke="none"/><path clip-path="url(#l)" d="M93.92 239.25h1.1v1.1h-1.1Z" stroke="none"/><path clip-path="url(#l)" d="M96.12 239.25h1.1v1.1h-1.1Z" stroke="none"/><path clip-path="url(#l)" d="M98.32 239.25h1.1v1.1h-1.1Z" stroke="none"/><path clip-path="url(#l)" d="M99.43 239.25h1.1v1.1h-1.1Z" stroke="none"/><path clip-path="url(#l)" d="M100.53 239.25h1.1v1.1h-1.1Z" stroke="none"/><path clip-path="url(#l)" d="M101.63 239.25h1.1v1.1h-1.1Z" stroke="none"/><path clip-path="url(#l)" d="M102.73 239.25h1.1v1.1h-1.1Z" stroke="none"/><path clip-path="url(#l)" d="M103.83 239.25h1.1v1.1h-1.1Z" stroke="none"/><path clip-path="url(#l)" d="M104.93 239.25h1.1v1.1h-1.1Z" stroke="none"/><path clip-path="url(#l)" d="M108.24 239.25h1.1v1.1h-1.1Z" stroke="none"/><path clip-path="url(#l)" d="M82.9 240.35H84v1.1H82.9Z" stroke="none"/><path clip-path="url(#l)" d="M85.1 240.35h1.1v1.1H85.1Z" stroke="none"/><path clip-path="url(#l)" d="M86.2 240.35h1.1v1.1H86.2Z" stroke="none"/><path clip-path="url(#l)" d="M87.31 240.35h1.1v1.1h-1.1Z" stroke="none"/><path clip-path="url(#l)" d="M89.51 240.35h1.1v1.1h-1.1Z" stroke="none"/><path clip-path="url(#l)" d="M93.92 240.35h1.1v1.1h-1.1Z" stroke="none"/><path clip-path="url(#l)" d="M97.22 240.35h1.1v1.1h-1.1Z" stroke="none"/><path clip-path="url(#l)" d="M98.32 240.35h1.1v1.1h-1.1Z" stroke="none"/><path clip-path="url(#l)" d="M99.43 240.35h1.1v1.1h-1.1Z" stroke="none"/><path clip-path="url(#l)" d="M101.63 240.35h1.1v1.1h-1.1Z" stroke="none"/><path clip-path="url(#l)" d="M104.93 240.35h1.1v1.1h-1.1Z" stroke="none"/><path clip-path="url(#l)" d="M107.14 240.35h1.1v1.1h-1.1Z" stroke="none"/><path clip-path="url(#l)" d="M108.24 240.35h1.1v1.1h-1.1Z" stroke="none"/><path clip-path="url(#l)" d="M82.9 241.45H84v1.1H82.9Z" stroke="none"/><path clip-path="url(#l)" d="M85.1 241.45h1.1v1.1H85.1Z" stroke="none"/><path clip-path="url(#l)" d="M86.2 241.45h1.1v1.1H86.2Z" stroke="none"/><path clip-path="url(#l)" d="M87.31 241.45h1.1v1.1h-1.1Z" stroke="none"/><path clip-path="url(#l)" d="M89.51 241.45h1.1v1.1h-1.1Z" stroke="none"/><path clip-path="url(#l)" d="M91.71 241.45h1.1v1.1h-1.1Z" stroke="none"/><path clip-path="url(#l)" d="M93.92 241.45h1.1v1.1h-1.1Z" stroke="none"/><path clip-path="url(#l)" d="M95.02 241.45h1.1v1.1h-1.1Z" stroke="none"/><path clip-path="url(#l)" d="M97.22 241.45h1.1v1.1h-1.1Z" stroke="none"/><path clip-path="url(#l)" d="M98.32 241.45h1.1v1.1h-1.1Z" stroke="none"/><path clip-path="url(#l)" d="M99.43 241.45h1.1v1.1h-1.1Z" stroke="none"/><path clip-path="url(#l)" d="M100.53 241.45h1.1v1.1h-1.1Z" stroke="none"/><path clip-path="url(#l)" d="M103.83 241.45h1.1v1.1h-1.1Z" stroke="none"/><path clip-path="url(#l)" d="M104.93 241.45h1.1v1.1h-1.1Z" stroke="none"/><path clip-path="url(#l)" d="M106.04 241.45h1.1v1.1h-1.1Z" stroke="none"/><path clip-path="url(#l)" d="M108.24 241.45h1.1v1.1h-1.1Z" stroke="none"/><path clip-path="url(#l)" d="M109.34 241.45h1.1v1.1h-1.1Z" stroke="none"/><path clip-path="url(#l)" d="M82.9 242.56H84v1.1H82.9Z" stroke="none"/><path clip-path="url(#l)" d="M89.51 242.56h1.1v1.1h-1.1Z" stroke="none"/><path clip-path="url(#l)" d="M91.71 242.56h1.1v1.1h-1.1Z" stroke="none"/><path clip-path="url(#l)" d="M93.92 242.56h1.1v1.1h-1.1Z" stroke="none"/><path clip-path="url(#l)" d="M95.02 242.56h1.1v1.1h-1.1Z" stroke="none"/><path clip-path="url(#l)" d="M96.12 242.56h1.1v1.1h-1.1Z" stroke="none"/><path clip-path="url(#l)" d="M98.32 242.56h1.1v1.1h-1.1Z" stroke="none"/><path clip-path="url(#l)" d="M100.53 242.56h1.1v1.1h-1.1Z" stroke="none"/><path clip-path="url(#l)" d="M103.83 242.56h1.1v1.1h-1.1Z" stroke="none"/><path clip-path="url(#l)" d="M104.93 242.56h1.1v1.1h-1.1Z" stroke="none"/><path clip-path="url(#l)" d="M82.9 243.66H84v1.1H82.9Z" stroke="none"/><path clip-path="url(#l)" d="M84 243.66h1.1v1.1H84Z" stroke="none"/><path clip-path="url(#l)" d="M85.1 243.66h1.1v1.1H85.1Z" stroke="none"/><path clip-path="url(#l)" d="M86.2 243.66h1.1v1.1H86.2Z" stroke="none"/><path clip-path="url(#l)" d="M87.31 243.66h1.1v1.1h-1.1Z" stroke="none"/><path clip-path="url(#l)" d="M88.41 243.66h1.1v1.1h-1.1Z" stroke="none"/><path clip-path="url(#l)" d="M89.51 243.66h1.1v1.1h-1.1Z" stroke="none"/><path clip-path="url(#l)" d="M91.71 243.66h1.1v1.1h-1.1Z" stroke="none"/><path clip-path="url(#l)" d="M93.92 243.66h1.1v1.1h-1.1Z" stroke="none"/><path clip-path="url(#l)" d="M95.02 243.66h1.1v1.1h-1.1Z" stroke="none"/><path clip-path="url(#l)" d="M96.12 243.66h1.1v1.1h-1.1Z" stroke="none"/><path clip-path="url(#l)" d="M100.53 243.66h1.1v1.1h-1.1Z" stroke="none"/><path clip-path="url(#l)" d="M101.63 243.66h1.1v1.1h-1.1Z" stroke="none"/><path clip-path="url(#l)" d="M106.04 243.66h1.1v1.1h-1.1Z" stroke="none"/><path clip-path="url(#l)" d="M109.34 243.66h1.1v1.1h-1.1Z" stroke="none"/></g></g></svg>