<?xml version="1.0" encoding="UTF-8"?><svg xmlns="http://www.w3.org/2000/svg" color-interpolation="auto" height="180.08" stroke="#000" stroke-linecap="square" stroke-miterlimit="10" width="476.56"><defs><clipPath id="a"><path d="M5 5V175.08H476.56V5Z"/></clipPath><clipPath clip-path="url(#a)" id="b"><path d="M5 175.08H897.91V5H5Z"/></clipPath><clipPath clip-path="url(#b)" id="i"><path d="M5 5H897.91V175.08H5Z"/></clipPath><clipPath id="c"><path d="M5 5V175.08H476.56V5Z"/></clipPath><clipPath clip-path="url(#c)" id="d"><path d="M5 175.08H897.91V5H5Z"/></clipPath><clipPath clip-path="url(#d)" id="j"><path d="M5 5V175.08H422.18c27.27 0 49.39-22.11 49.39-49.39V5Z"/></clipPath><clipPath id="e"><path d="M5 5V175.08H476.56V5Z"/></clipPath><clipPath clip-path="url(#e)" id="f"><path d="M5 175.08H897.91V5H5Z"/></clipPath><clipPath clip-path="url(#f)" id="k"><path d="M5 5H897.91V175.08H5Z"/></clipPath><clipPath id="g"><path d="M5 5V175.08H476.56V5Z"/></clipPath><clipPath clip-path="url(#g)" id="h"><path d="M5 175.08H897.91V5H5Z"/></clipPath><clipPath clip-path="url(#h)" id="l"><path d="M5 5H897.91V175.08H5Z"/></clipPath></defs><g><g fill="#611F7F" stroke="#611F7F"><path clip-path="url(#i)" d="M5 5V175.08H422.18c27.27 0 49.38-22.11 49.38-49.39V5Z" stroke="none"/></g><g fill="#F16D00" stroke="#F16D00" stroke-linecap="butt" stroke-width=".3"><path clip-path="url(#j)" d="M271.93 71.98V55.91h22.8c7.88 0 14.28-5.02 14.28-12.9s-6.41-14.28-14.28-14.28h-22.8V12.66h22.8c16.74 0 30.35 13.61 30.35 30.35s-13.61 28.96-30.35 28.96h-22.8Z" fill="none"/><path clip-path="url(#j)" d="M266.91 72.06h-4.76c-6.25 0-11.31-5.07-11.31-11.31V33.78h16.07V72.06Z" fill="none"/><path clip-path="url(#j)" d="M266.82 28.93H250.84V12.92h15.99V28.93Z" fill="none"/><path clip-path="url(#j)" d="M169.49 126.66V105.27h30.36c10.49 0 19.02-6.69 19.02-17.18s-8.53-19.02-19.02-19.02H169.49V47.68h30.36c22.29 0 40.42 18.13 40.42 40.41s-18.13 38.57-40.42 38.57H169.49Z" fill="none"/><path clip-path="url(#j)" d="M162.81 126.76h-6.33c-8.32 0-15.06-6.74-15.06-15.06V75.8h21.4v50.97Z" fill="none"/><path clip-path="url(#j)" d="M162.7 69.33H141.41V48.01H162.7V69.33Z" fill="none"/><path clip-path="url(#j)" d="M42.77 25.35H29.24V6.17c0-6.63-4.23-12.02-10.85-12.02S6.37-.46 6.37 6.17V25.35H-7.15V6.17c0-14.08 11.46-25.54 25.54-25.54S42.77-7.91 42.77 6.17V25.35Z" fill="none"/><path clip-path="url(#j)" d="M42.83 29.58v4c0 5.26-4.26 9.52-9.52 9.52H10.62V29.58H42.83Z" fill="none"/><path clip-path="url(#j)" d="M6.54 29.65V43.1H-6.94V29.65H6.54Z" fill="none"/><path clip-path="url(#j)" d="M250.81 153.54h20.05V125.09c0-9.83 6.27-17.82 16.09-17.82s17.82 7.99 17.82 17.82v28.45h20.05V125.09c0-20.88-16.99-37.87-37.87-37.87s-36.14 16.99-36.14 37.87v28.45Z" fill="none" stroke="#fff"/><path clip-path="url(#j)" d="M250.71 159.8v5.93c0 7.8 6.32 14.12 14.11 14.12h33.64V159.8H250.71Z" fill="none" stroke="#fff"/><path clip-path="url(#j)" d="M304.53 179.85H324.5V159.9H304.53Z" fill="none" stroke="#fff"/><path clip-path="url(#j)" d="M130.9-53.04v23.05H98.19c-11.3 0-20.49 7.21-20.49 18.51S86.89 9.02 98.19 9.02H130.9V32.07H98.19c-24.01 0-43.55-19.53-43.55-43.55S74.18-53.04 98.19-53.04H130.9Z" fill="none" stroke="#fff"/><path clip-path="url(#j)" d="M138.22 8.74h22.93V31.71H138.22V8.74Z" fill="none" stroke="#fff"/><path clip-path="url(#j)" d="M238.21-20.31H222.37V2.16c0 7.76-4.95 14.08-12.71 14.08S195.58 9.92 195.58 2.16V-20.31H179.75V2.16c0 16.49 13.42 29.91 29.91 29.91s28.55-13.42 28.55-29.91V-20.31Z" fill="none" stroke="#fff"/><path clip-path="url(#j)" d="M188.23 248.8V219.35H146.44c-14.44 0-26.18-9.21-26.18-23.64s11.74-26.18 26.18-26.18h41.79V140.08H146.44c-30.68 0-55.63 24.96-55.63 55.63s24.96 53.09 55.63 53.09h41.79Z" fill="none" stroke="#fff"/><path clip-path="url(#j)" d="M197.58 169.88h29.3V140.54h-29.3v29.34Z" fill="none" stroke="#fff"/><path clip-path="url(#j)" d="M5.32 167.83V139.25H-35.23c-14.01 0-25.4-8.93-25.4-22.94s11.39-25.4 25.4-25.4H5.32V62.33H-35.23c-29.77 0-53.98 24.21-53.98 53.98s24.22 51.52 53.98 51.52H5.32Z" fill="none" stroke="#fff"/><path clip-path="url(#j)" d="M14.25 167.97h8.46c11.11 0 20.12-9.01 20.12-20.12V99.89H14.25v68.08Z" fill="none" stroke="#fff"/><path clip-path="url(#j)" d="M14.4 91.25H42.83V62.78H14.4V91.25Z" fill="none" stroke="#fff"/><path clip-path="url(#k)" d="M381.48 104.29V85h27.37C418.31 85 426 78.96 426 69.51s-7.69-17.15-17.15-17.15H381.48V33.07h27.37c20.09 0 36.44 16.35 36.44 36.44s-16.35 34.78-36.44 34.78Z" fill="#fff" stroke="none"/><path clip-path="url(#k)" d="M374.58 104.07h-5.71c-7.5 0-13.58-6.08-13.58-13.58V58.12h19.29Z" fill="#fff" stroke="none"/><path clip-path="url(#k)" d="M374.48 52.29H355.29V33.07h19.19Z" stroke="none"/><path clip-path="url(#k)" d="M444.38 121.38c0-.41.03-.83.09-1.26s.16-.84.29-1.24.3-.75.5-1.07.45-.57.74-.76.62-.28.99-.29c.44 0 .8.1 1.09.3s.53.46.71.78.32.69.41 1.09.15.81.19 1.22.05.81.04 1.19c0 .65-.04 1.24-.12 1.8s-.21 1.04-.4 1.46-.43.74-.74.98-.68.35-1.13.35c-.51-.01-.93-.15-1.28-.41s-.62-.62-.82-1.06-.35-.93-.43-1.47-.13-1.07-.13-1.62m-2.31 9.18h2.31v-4.77h.05c.08.18.19.38.35.6s.37.43.63.64.58.37.95.51.82.2 1.32.21c.93-.01 1.71-.27 2.34-.8s1.13-1.28 1.46-2.26.5-2.16.5-3.52c0-.88-.08-1.69-.24-2.43s-.4-1.4-.74-1.96-.77-.99-1.3-1.31-1.16-.47-1.9-.47c-.5 0-.94.09-1.33.23s-.72.34-1 .57-.5.46-.68.7-.3.44-.36.62h-.05v-1.85h-2.31Zm-8.53-3.11h2.3v-5.18c.01-.93.11-1.71.3-2.33s.47-1.11.83-1.47.76-.62 1.21-.77.95-.23 1.47-.22v-2.51c-.6.01-1.12.1-1.56.29s-.81.43-1.1.71-.54.59-.72.9-.31.59-.39.84h-.05v-2.46h-2.3Zm-11.12-6.1c0-.4.01-.81.05-1.23s.11-.84.22-1.23.27-.76.48-1.07.49-.57.83-.76.76-.28 1.27-.29.91.1 1.25.29.61.44.82.76.37.68.47 1.07.18.81.22 1.23.06.84.06 1.23c.01.39-.02.8-.06 1.23s-.11.83-.22 1.23-.26.76-.47 1.08-.48.58-.82.76-.75.29-1.25.29-.93-.1-1.27-.29-.62-.44-.83-.76-.37-.68-.48-1.08-.18-.81-.22-1.23-.06-.83-.05-1.23m2.84 6.38c.91-.01 1.71-.15 2.39-.46s1.23-.73 1.68-1.29.77-1.23.99-2.01.32-1.65.32-2.62c0-1.31-.19-2.43-.58-3.39s-.98-1.69-1.78-2.2-1.8-.78-3.02-.79c-1.23.01-2.24.27-3.04.79s-1.4 1.25-1.79 2.2-.58 2.08-.58 3.39c0 .97.11 1.84.32 2.62s.55 1.45.99 2.01 1.01.99 1.69 1.29 1.48.45 2.4.46m-6.99-2.05c-.33.1-.66.17-.98.2s-.65.06-.97.05c-.76 0-1.43-.12-1.98-.34s-1.02-.52-1.39-.89-.66-.8-.88-1.27-.37-.96-.46-1.47-.14-1-.14-1.49c0-.76.11-1.41.31-1.96s.49-.99.86-1.29.81-.46 1.32-.46c.42 0 .76.09 1.01.25s.43.38.56.63.21.52.24.8.06.54.05.77h2.64c.01-.51-.06-1.01-.19-1.51s-.36-.96-.69-1.37-.77-.74-1.34-.99-1.28-.38-2.14-.38c-.91 0-1.69.15-2.35.45s-1.19.71-1.61 1.25-.73 1.16-.93 1.88-.3 1.51-.3 2.37c0 .61.05 1.23.18 1.87s.31 1.25.58 1.84.64 1.12 1.09 1.58 1.03.84 1.7 1.11 1.48.41 2.41.42c.71 0 1.35-.04 1.89-.12s1.05-.2 1.49-.34Zm-18.29-6.76c0-.14.03-.33.12-.56s.2-.47.39-.71.43-.45.75-.62.71-.25 1.18-.26c.44 0 .8.08 1.09.23s.52.33.68.56.29.46.35.71.1.47.1.66Zm6.69 6.58c-.26.1-.58.19-.96.29s-.83.14-1.35.15c-.67 0-1.25-.12-1.75-.35s-.92-.54-1.27-.92-.63-.82-.84-1.29-.38-.97-.47-1.47-.14-.99-.14-1.45h7.07v-.59c0-.72-.09-1.38-.27-1.98s-.46-1.11-.82-1.55-.82-.77-1.37-1.01-1.2-.36-1.94-.36c-.32 0-.69.03-1.12.1s-.86.22-1.31.44-.86.53-1.25.96-.69.99-.93 1.69-.36 1.57-.37 2.61c.01 1.59.26 2.91.75 3.94s1.19 1.79 2.09 2.29 1.97.75 3.21.74c.44 0 .82-.02 1.16-.06s.65-.09.95-.15.61-.13.94-.21Zm-10.76.26c-.17.05-.37.09-.58.13s-.43.05-.65.05c-.44 0-.8-.08-1.06-.22s-.46-.33-.59-.56-.21-.49-.25-.77-.05-.56-.05-.84v-6.51h3.38v-1.79h-3.38v-4.3l-2.31 1.43v2.87h-2.18v1.79h2.18v7.71c0 .42.05.81.16 1.17s.3.67.57.94.64.48 1.12.63 1.08.23 1.82.23c.31 0 .62-.01.92-.04s.61-.07.9-.14Zm-19.78 1.69h2.3v-5.18c0-.61.08-1.22.24-1.81s.38-1.13.66-1.6.63-.86 1.02-1.14.83-.43 1.3-.44c.41 0 .74.08.96.23s.39.38.49.68.16.67.18 1.1.03.94.03 1.5v6.66h2.31v-8.45c0-.31-.02-.64-.07-1s-.14-.72-.27-1.07-.32-.68-.56-.97-.56-.53-.95-.71-.86-.27-1.42-.27c-.62.01-1.15.11-1.6.31s-.81.45-1.11.76-.54.62-.73.95-.33.62-.43.88h-.05v-2.61h-2.3Zm-5.99-5.46v.69c0 .36-.07.73-.21 1.11s-.33.72-.58 1.05-.54.58-.88.78-.7.3-1.1.31c-.24 0-.45-.07-.65-.2s-.36-.31-.49-.54-.19-.51-.19-.83c0-.39.11-.74.31-1.03s.48-.54.82-.74.73-.35 1.17-.45.88-.15 1.34-.15Zm0 5.46h2.31v-8.38c0-.23-.01-.51-.03-.85s-.1-.7-.23-1.07-.32-.73-.61-1.05-.68-.6-1.18-.81-1.16-.31-1.95-.32c-.85 0-1.57.1-2.15.3s-1.05.46-1.41.8-.61.73-.77 1.17-.24.91-.23 1.4h2.43c0-.33.06-.64.19-.92s.35-.51.63-.68.66-.26 1.12-.27c.29 0 .57.04.83.14s.48.27.66.49.31.54.38.93v2.13c-.62 0-1.25.03-1.88.11s-1.23.2-1.8.37-1.08.42-1.52.72-.8.69-1.05 1.15-.39 1.01-.4 1.66.13 1.2.39 1.69.65.88 1.16 1.16 1.15.42 1.91.43c.46-.01.88-.07 1.24-.19s.67-.27.92-.46.47-.38.63-.58.28-.39.36-.56h.05Zm-27.08 0h2.31V112.79h.05l5.07 14.65h2.43L358 112.79h.05v14.65h2.31V109.77h-3.59l-5.02 14.47h-.05l-5.02-14.47h-3.61Z" stroke="none"/><path clip-path="url(#k)" d="M344.56 143.9c-.97 0-1.8-.3-2.27-.63l-.14-1.14c.63.5 1.48.84 2.44.84 1.03 0 1.76-.59 1.76-1.47s-.51-1.36-1.65-1.76c-1.54-.52-2.31-1.28-2.31-2.5 0-1.14.85-2.25 2.62-2.25.82 0 1.51.26 1.85.49l-.22.91c-.33-.23-.99-.51-1.66-.51-1 0-1.57.62-1.57 1.28 0 .71.48 1.15 1.5 1.51 1.52.55 2.5 1.23 2.5 2.73 0 1.51-1.07 2.5-2.87 2.5" fill="#fff" stroke="none"/><path clip-path="url(#k)" d="M352.14 140.88l-1.33.12c-.82.08-1.24.55-1.24 1.11 0 .53.43.96 1.07.96.77 0 1.5-.58 1.5-1.5Zm1.11 3.1c-.43-.1-.91-.47-.99-1.04-.26.72-.96 1.04-1.72 1.04-1.21 0-1.99-.86-1.99-1.88 0-1.21.97-1.85 2.03-1.95l1.55-.15v-.49c0-.66-.44-1.13-1.34-1.13-.62 0-1.25.19-1.68.48l-.22-.88c.52-.35 1.21-.52 1.95-.52 1.36 0 2.35.77 2.35 2.17v2.68c0 .59.33.92.73.98Z" fill="#fff" stroke="none"/><path clip-path="url(#k)" d="M358.92 135.23c-.47.53-1.03.98-1.63 1.36l-.55-.25c.52-.41 1.17-1.06 1.57-1.63.08-.11.22-.18.3-.18.15 0 .47.33.47.46 0 .06-.07.16-.15.23m.32 8.61v-.87h-.01c-.23.56-.84 1.02-1.96 1.02-1.36 0-2.38-.85-2.38-2.23v-4.15h1.06v4.05c0 .76.51 1.4 1.58 1.4 1.04 0 1.63-.65 1.63-1.4v-4.05h1.06v6.22Z" fill="#fff" stroke="none"/><path clip-path="url(#k)" d="M366.4 139.1c-.25-.27-.81-.67-1.66-.67-1.22 0-2.2.94-2.2 2.32 0 1.39.97 2.32 2.2 2.32.81 0 1.39-.42 1.66-.81Zm.05 4.74v-.69h-.01c-.29.42-.92.84-1.92.84-1.47 0-3.05-1.17-3.05-3.25 0-1.91 1.36-3.27 3.17-3.27.74 0 1.5.3 1.76.59v-4h1.06v9.78Z" fill="#fff" stroke="none"/><path clip-path="url(#k)" d="M371.9 138.35c-.93 0-1.81.78-1.98 1.73h3.55c.01-.06.01-.12.01-.19 0-.73-.58-1.54-1.59-1.54m2.58 1.97l-.58.59h-4.05c0 1.02.85 2.2 2.39 2.2.77 0 1.36-.22 1.81-.53l-.12 1c-.44.25-1 .42-1.81.42-1.79 0-3.31-1.33-3.31-3.25 0-2.04 1.57-3.27 3.03-3.27 1.72 0 2.68 1.21 2.68 2.39 0 .18-.01.33-.04.46" fill="#fff" stroke="none"/><path clip-path="url(#k)" d="M381.73 138.43c-.81 0-1.39.41-1.66.81v3.16c.25.27.81.68 1.66.68 1.22 0 2.2-.95 2.2-2.32 0-1.39-.98-2.32-2.2-2.32m.1 5.56c-.74 0-1.5-.3-1.76-.59v3.61h-1.06v-9.39h1v.69h.02c.29-.42.92-.84 1.92-.84 1.47 0 3.05 1.17 3.05 3.26 0 1.91-1.36 3.27-3.17 3.27" fill="#fff" stroke="none"/><path clip-path="url(#k)" d="M389.07 138.35c-.93 0-1.81.78-1.98 1.73h3.55c.01-.06.01-.12.01-.19 0-.73-.58-1.54-1.59-1.54m2.58 1.97l-.58.59h-4.05c0 1.02.85 2.2 2.39 2.2.77 0 1.36-.22 1.81-.53l-.12 1c-.44.25-1 .42-1.81.42-1.79 0-3.31-1.33-3.31-3.25 0-2.04 1.57-3.27 3.03-3.27 1.72 0 2.68 1.21 2.68 2.39 0 .18-.01.33-.04.46" fill="#fff" stroke="none"/><path clip-path="url(#k)" d="M396.22 138.68c-.11-.03-.29-.07-.47-.07-.89 0-1.77.53-1.77 2.08v3.16h-1.02v-6.22h1.02v1.36H394c.2-.88.92-1.44 1.87-1.44.18 0 .45.03.6.08Z" fill="#fff" stroke="none"/><path clip-path="url(#k)" d="M398.93 143.92c-.74 0-1.3-.19-1.71-.48l-.14-1.1c.45.4 1.14.72 1.87.72.64 0 1.12-.34 1.12-.87 0-.51-.38-.81-1.03-1.05-1.17-.41-1.82-.94-1.82-1.92 0-1 .82-1.69 1.96-1.69.67 0 1.3.25 1.55.4l-.22.87c-.27-.21-.73-.42-1.34-.42-.58 0-.96.33-.96.8 0 .49.34.71.99.94 1.19.43 1.9.99 1.9 2.02 0 1.02-.78 1.77-2.16 1.77" fill="#fff" stroke="none"/><path clip-path="url(#k)" d="M405.28 138.43c-1.22 0-2.22.94-2.22 2.33 0 1.37 1 2.31 2.22 2.31 1.21 0 2.21-.94 2.21-2.31 0-1.39-1-2.33-2.21-2.33m0 5.56c-1.85 0-3.29-1.35-3.29-3.25 0-1.92 1.44-3.27 3.29-3.27s3.28 1.35 3.28 3.27c0 1.91-1.43 3.25-3.28 3.25" fill="#fff" stroke="none"/><path clip-path="url(#k)" d="M414.11 143.84v-4.05c0-.75-.51-1.4-1.58-1.4-1.04 0-1.63.65-1.63 1.4v4.05h-1.06v-6.22h.98v.87h.01c.23-.56.84-1.01 1.96-1.01 1.36 0 2.38.85 2.38 2.22v4.15Z" fill="#fff" stroke="none"/><path clip-path="url(#k)" d="M420.03 140.88l-1.33.12c-.82.08-1.24.55-1.24 1.11 0 .53.43.96 1.07.96.77 0 1.5-.58 1.5-1.5Zm1.11 3.1c-.43-.1-.91-.47-.99-1.04-.26.72-.96 1.04-1.72 1.04-1.21 0-1.99-.86-1.99-1.88 0-1.21.97-1.85 2.03-1.95l1.55-.15v-.49c0-.66-.44-1.13-1.34-1.13-.62 0-1.25.19-1.68.48l-.22-.88c.52-.35 1.21-.52 1.95-.52 1.36 0 2.35.77 2.35 2.17v2.68c0 .59.33.92.73.98Z" fill="#fff" stroke="none"/><path clip-path="url(#k)" d="M423.95 144.07c-.45-.12-1.15-.55-1.15-1.65v-8.36h1.06v8.22c0 .59.41.98.83 1.06Z" fill="#fff" stroke="none"/><path clip-path="url(#k)" d="M425.9 137.62h1.07v6.22H425.9Zm.54-1.22c-.22 0-.67-.46-.67-.68 0-.23.45-.67.67-.67.23 0 .69.44.69.67 0 .22-.45.68-.69.68" fill="#fff" stroke="none"/><path clip-path="url(#k)" d="M428.4 143.84v-.22l2.07-3.4c.33-.53.73-1.22 1.06-1.72l-.01-.03h-2.9v-.85h4.42v.22l-2.09 3.4c-.33.55-.69 1.13-1.06 1.72l.01.03h3.38v.85Z" fill="#fff" stroke="none"/><path clip-path="url(#k)" d="M437.86 140.88l-1.33.12c-.82.08-1.24.55-1.24 1.11 0 .53.43.96 1.07.96.77 0 1.5-.58 1.5-1.5Zm1.11 3.1c-.43-.1-.91-.47-.99-1.04-.26.72-.96 1.04-1.72 1.04-1.21 0-1.99-.86-1.99-1.88 0-1.21.97-1.85 2.03-1.95l1.55-.15v-.49c0-.66-.44-1.13-1.34-1.13-.62 0-1.25.19-1.68.48l-.22-.88c.52-.35 1.21-.52 1.95-.52 1.36 0 2.35.77 2.35 2.17v2.68c0 .59.33.92.73.98Z" fill="#fff" stroke="none"/><path clip-path="url(#k)" d="M445.12 139.1c-.25-.27-.81-.67-1.66-.67-1.22 0-2.2.94-2.2 2.32 0 1.39.97 2.32 2.2 2.32.81 0 1.39-.42 1.66-.81Zm.05 4.74v-.69h-.01c-.29.42-.92.84-1.92.84-1.47 0-3.05-1.17-3.05-3.25 0-1.91 1.36-3.27 3.17-3.27.74 0 1.5.3 1.76.59v-4h1.06v9.78Z" fill="#fff" stroke="none"/><path clip-path="url(#k)" d="M451.11 140.88l-1.33.12c-.82.08-1.24.55-1.24 1.11 0 .53.43.96 1.07.96.77 0 1.5-.58 1.5-1.5Zm1.11 3.1c-.43-.1-.91-.47-.99-1.04-.26.72-.96 1.04-1.72 1.04-1.21 0-1.99-.86-1.99-1.88 0-1.21.97-1.85 2.03-1.95l1.55-.15v-.49c0-.66-.44-1.13-1.34-1.13-.62 0-1.25.19-1.68.48l-.22-.88c.52-.35 1.21-.52 1.95-.52 1.36 0 2.35.77 2.35 2.17v2.68c0 .59.33.92.73.98Z" fill="#fff" stroke="none"/><path clip-path="url(#l)" d="M57.74 126.13h1.1v1.1h-1.1Z" fill="#fff" stroke="none"/><path clip-path="url(#l)" d="M58.84 126.13h1.1v1.1h-1.1Z" fill="#fff" stroke="none"/><path clip-path="url(#l)" d="M59.94 126.13h1.1v1.1h-1.1Z" fill="#fff" stroke="none"/><path clip-path="url(#l)" d="M61.04 126.13h1.1v1.1h-1.1Z" fill="#fff" stroke="none"/><path clip-path="url(#l)" d="M62.15 126.13h1.1v1.1h-1.1Z" fill="#fff" stroke="none"/><path clip-path="url(#l)" d="M63.25 126.13h1.1v1.1h-1.1Z" fill="#fff" stroke="none"/><path clip-path="url(#l)" d="M64.35 126.13h1.1v1.1h-1.1Z" fill="#fff" stroke="none"/><path clip-path="url(#l)" d="M66.55 126.13h1.1v1.1h-1.1Z" fill="#fff" stroke="none"/><path clip-path="url(#l)" d="M67.65 126.13h1.1v1.1h-1.1Z" fill="#fff" stroke="none"/><path clip-path="url(#l)" d="M68.76 126.13h1.1v1.1h-1.1Z" fill="#fff" stroke="none"/><path clip-path="url(#l)" d="M69.86 126.13h1.1v1.1h-1.1Z" fill="#fff" stroke="none"/><path clip-path="url(#l)" d="M72.06 126.13h1.1v1.1h-1.1Z" fill="#fff" stroke="none"/><path clip-path="url(#l)" d="M73.16 126.13h1.1v1.1h-1.1Z" fill="#fff" stroke="none"/><path clip-path="url(#l)" d="M77.57 126.13h1.1v1.1h-1.1Z" fill="#fff" stroke="none"/><path clip-path="url(#l)" d="M78.67 126.13h1.1v1.1h-1.1Z" fill="#fff" stroke="none"/><path clip-path="url(#l)" d="M79.78 126.13h1.1v1.1h-1.1Z" fill="#fff" stroke="none"/><path clip-path="url(#l)" d="M80.88 126.13h1.1v1.1h-1.1Z" fill="#fff" stroke="none"/><path clip-path="url(#l)" d="M81.98 126.13h1.1v1.1h-1.1Z" fill="#fff" stroke="none"/><path clip-path="url(#l)" d="M83.08 126.13h1.1v1.1h-1.1Z" fill="#fff" stroke="none"/><path clip-path="url(#l)" d="M84.18 126.13h1.1v1.1h-1.1Z" fill="#fff" stroke="none"/><path clip-path="url(#l)" d="M57.74 127.23h1.1v1.1h-1.1Z" fill="#fff" stroke="none"/><path clip-path="url(#l)" d="M64.35 127.23h1.1v1.1h-1.1Z" fill="#fff" stroke="none"/><path clip-path="url(#l)" d="M66.55 127.23h1.1v1.1h-1.1Z" fill="#fff" stroke="none"/><path clip-path="url(#l)" d="M69.86 127.23h1.1v1.1h-1.1Z" fill="#fff" stroke="none"/><path clip-path="url(#l)" d="M73.16 127.23h1.1v1.1h-1.1Z" fill="#fff" stroke="none"/><path clip-path="url(#l)" d="M75.37 127.23h1.1v1.1h-1.1Z" fill="#fff" stroke="none"/><path clip-path="url(#l)" d="M77.57 127.23h1.1v1.1h-1.1Z" fill="#fff" stroke="none"/><path clip-path="url(#l)" d="M84.18 127.23h1.1v1.1h-1.1Z" fill="#fff" stroke="none"/><path clip-path="url(#l)" d="M57.74 128.33h1.1v1.1h-1.1Z" fill="#fff" stroke="none"/><path clip-path="url(#l)" d="M59.94 128.33h1.1v1.1h-1.1Z" fill="#fff" stroke="none"/><path clip-path="url(#l)" d="M61.04 128.33h1.1v1.1h-1.1Z" fill="#fff" stroke="none"/><path clip-path="url(#l)" d="M62.15 128.33h1.1v1.1h-1.1Z" fill="#fff" stroke="none"/><path clip-path="url(#l)" d="M64.35 128.33h1.1v1.1h-1.1Z" fill="#fff" stroke="none"/><path clip-path="url(#l)" d="M67.65 128.33h1.1v1.1h-1.1Z" fill="#fff" stroke="none"/><path clip-path="url(#l)" d="M72.06 128.33h1.1v1.1h-1.1Z" fill="#fff" stroke="none"/><path clip-path="url(#l)" d="M73.16 128.33h1.1v1.1h-1.1Z" fill="#fff" stroke="none"/><path clip-path="url(#l)" d="M77.57 128.33h1.1v1.1h-1.1Z" fill="#fff" stroke="none"/><path clip-path="url(#l)" d="M79.78 128.33h1.1v1.1h-1.1Z" fill="#fff" stroke="none"/><path clip-path="url(#l)" d="M80.88 128.33h1.1v1.1h-1.1Z" fill="#fff" stroke="none"/><path clip-path="url(#l)" d="M81.98 128.33h1.1v1.1h-1.1Z" fill="#fff" stroke="none"/><path clip-path="url(#l)" d="M84.18 128.33h1.1v1.1h-1.1Z" fill="#fff" stroke="none"/><path clip-path="url(#l)" d="M57.74 129.43h1.1v1.1h-1.1Z" fill="#fff" stroke="none"/><path clip-path="url(#l)" d="M59.94 129.43h1.1v1.1h-1.1Z" fill="#fff" stroke="none"/><path clip-path="url(#l)" d="M61.04 129.43h1.1v1.1h-1.1Z" fill="#fff" stroke="none"/><path clip-path="url(#l)" d="M62.15 129.43h1.1v1.1h-1.1Z" fill="#fff" stroke="none"/><path clip-path="url(#l)" d="M64.35 129.43h1.1v1.1h-1.1Z" fill="#fff" stroke="none"/><path clip-path="url(#l)" d="M69.86 129.43h1.1v1.1h-1.1Z" fill="#fff" stroke="none"/><path clip-path="url(#l)" d="M70.96 129.43h1.1v1.1h-1.1Z" fill="#fff" stroke="none"/><path clip-path="url(#l)" d="M72.06 129.43h1.1v1.1h-1.1Z" fill="#fff" stroke="none"/><path clip-path="url(#l)" d="M73.16 129.43h1.1v1.1h-1.1Z" fill="#fff" stroke="none"/><path clip-path="url(#l)" d="M74.26 129.43h1.1v1.1h-1.1Z" fill="#fff" stroke="none"/><path clip-path="url(#l)" d="M77.57 129.43h1.1v1.1h-1.1Z" fill="#fff" stroke="none"/><path clip-path="url(#l)" d="M79.78 129.43h1.1v1.1h-1.1Z" fill="#fff" stroke="none"/><path clip-path="url(#l)" d="M80.88 129.43h1.1v1.1h-1.1Z" fill="#fff" stroke="none"/><path clip-path="url(#l)" d="M81.98 129.43h1.1v1.1h-1.1Z" fill="#fff" stroke="none"/><path clip-path="url(#l)" d="M84.18 129.43h1.1v1.1h-1.1Z" fill="#fff" stroke="none"/><path clip-path="url(#l)" d="M57.74 130.53h1.1v1.1h-1.1Z" fill="#fff" stroke="none"/><path clip-path="url(#l)" d="M59.94 130.53h1.1v1.1h-1.1Z" fill="#fff" stroke="none"/><path clip-path="url(#l)" d="M61.04 130.53h1.1v1.1h-1.1Z" fill="#fff" stroke="none"/><path clip-path="url(#l)" d="M62.15 130.53h1.1v1.1h-1.1Z" fill="#fff" stroke="none"/><path clip-path="url(#l)" d="M64.35 130.53h1.1v1.1h-1.1Z" fill="#fff" stroke="none"/><path clip-path="url(#l)" d="M66.55 130.53h1.1v1.1h-1.1Z" fill="#fff" stroke="none"/><path clip-path="url(#l)" d="M69.86 130.53h1.1v1.1h-1.1Z" fill="#fff" stroke="none"/><path clip-path="url(#l)" d="M70.96 130.53h1.1v1.1h-1.1Z" fill="#fff" stroke="none"/><path clip-path="url(#l)" d="M72.06 130.53h1.1v1.1h-1.1Z" fill="#fff" stroke="none"/><path clip-path="url(#l)" d="M73.16 130.53h1.1v1.1h-1.1Z" fill="#fff" stroke="none"/><path clip-path="url(#l)" d="M75.37 130.53h1.1v1.1h-1.1Z" fill="#fff" stroke="none"/><path clip-path="url(#l)" d="M77.57 130.53h1.1v1.1h-1.1Z" fill="#fff" stroke="none"/><path clip-path="url(#l)" d="M79.78 130.53h1.1v1.1h-1.1Z" fill="#fff" stroke="none"/><path clip-path="url(#l)" d="M80.88 130.53h1.1v1.1h-1.1Z" fill="#fff" stroke="none"/><path clip-path="url(#l)" d="M81.98 130.53h1.1v1.1h-1.1Z" fill="#fff" stroke="none"/><path clip-path="url(#l)" d="M84.18 130.53h1.1v1.1h-1.1Z" fill="#fff" stroke="none"/><path clip-path="url(#l)" d="M57.74 131.64h1.1v1.1h-1.1Z" fill="#fff" stroke="none"/><path clip-path="url(#l)" d="M64.35 131.64h1.1v1.1h-1.1Z" fill="#fff" stroke="none"/><path clip-path="url(#l)" d="M66.55 131.64h1.1v1.1h-1.1Z" fill="#fff" stroke="none"/><path clip-path="url(#l)" d="M67.65 131.64h1.1v1.1h-1.1Z" fill="#fff" stroke="none"/><path clip-path="url(#l)" d="M68.76 131.64h1.1v1.1h-1.1Z" fill="#fff" stroke="none"/><path clip-path="url(#l)" d="M70.96 131.64h1.1v1.1h-1.1Z" fill="#fff" stroke="none"/><path clip-path="url(#l)" d="M72.06 131.64h1.1v1.1h-1.1Z" fill="#fff" stroke="none"/><path clip-path="url(#l)" d="M73.16 131.64h1.1v1.1h-1.1Z" fill="#fff" stroke="none"/><path clip-path="url(#l)" d="M75.37 131.64h1.1v1.1h-1.1Z" fill="#fff" stroke="none"/><path clip-path="url(#l)" d="M77.57 131.64h1.1v1.1h-1.1Z" fill="#fff" stroke="none"/><path clip-path="url(#l)" d="M84.18 131.64h1.1v1.1h-1.1Z" fill="#fff" stroke="none"/><path clip-path="url(#l)" d="M57.74 132.74h1.1v1.1h-1.1Z" fill="#fff" stroke="none"/><path clip-path="url(#l)" d="M58.84 132.74h1.1v1.1h-1.1Z" fill="#fff" stroke="none"/><path clip-path="url(#l)" d="M59.94 132.74h1.1v1.1h-1.1Z" fill="#fff" stroke="none"/><path clip-path="url(#l)" d="M61.04 132.74h1.1v1.1h-1.1Z" fill="#fff" stroke="none"/><path clip-path="url(#l)" d="M62.15 132.74h1.1v1.1h-1.1Z" fill="#fff" stroke="none"/><path clip-path="url(#l)" d="M63.25 132.74h1.1v1.1h-1.1Z" fill="#fff" stroke="none"/><path clip-path="url(#l)" d="M64.35 132.74h1.1v1.1h-1.1Z" fill="#fff" stroke="none"/><path clip-path="url(#l)" d="M66.55 132.74h1.1v1.1h-1.1Z" fill="#fff" stroke="none"/><path clip-path="url(#l)" d="M68.76 132.74h1.1v1.1h-1.1Z" fill="#fff" stroke="none"/><path clip-path="url(#l)" d="M70.96 132.74h1.1v1.1h-1.1Z" fill="#fff" stroke="none"/><path clip-path="url(#l)" d="M73.16 132.74h1.1v1.1h-1.1Z" fill="#fff" stroke="none"/><path clip-path="url(#l)" d="M75.37 132.74h1.1v1.1h-1.1Z" fill="#fff" stroke="none"/><path clip-path="url(#l)" d="M77.57 132.74h1.1v1.1h-1.1Z" fill="#fff" stroke="none"/><path clip-path="url(#l)" d="M78.67 132.74h1.1v1.1h-1.1Z" fill="#fff" stroke="none"/><path clip-path="url(#l)" d="M79.78 132.74h1.1v1.1h-1.1Z" fill="#fff" stroke="none"/><path clip-path="url(#l)" d="M80.88 132.74h1.1v1.1h-1.1Z" fill="#fff" stroke="none"/><path clip-path="url(#l)" d="M81.98 132.74h1.1v1.1h-1.1Z" fill="#fff" stroke="none"/><path clip-path="url(#l)" d="M83.08 132.74h1.1v1.1h-1.1Z" fill="#fff" stroke="none"/><path clip-path="url(#l)" d="M84.18 132.74h1.1v1.1h-1.1Z" fill="#fff" stroke="none"/><path clip-path="url(#l)" d="M66.55 133.84h1.1v1.1h-1.1Z" fill="#fff" stroke="none"/><path clip-path="url(#l)" d="M67.65 133.84h1.1v1.1h-1.1Z" fill="#fff" stroke="none"/><path clip-path="url(#l)" d="M74.26 133.84h1.1v1.1h-1.1Z" fill="#fff" stroke="none"/><path clip-path="url(#l)" d="M75.37 133.84h1.1v1.1h-1.1Z" fill="#fff" stroke="none"/><path clip-path="url(#l)" d="M57.74 134.94h1.1v1.1h-1.1Z" fill="#fff" stroke="none"/><path clip-path="url(#l)" d="M58.84 134.94h1.1v1.1h-1.1Z" fill="#fff" stroke="none"/><path clip-path="url(#l)" d="M59.94 134.94h1.1v1.1h-1.1Z" fill="#fff" stroke="none"/><path clip-path="url(#l)" d="M63.25 134.94h1.1v1.1h-1.1Z" fill="#fff" stroke="none"/><path clip-path="url(#l)" d="M64.35 134.94h1.1v1.1h-1.1Z" fill="#fff" stroke="none"/><path clip-path="url(#l)" d="M66.55 134.94h1.1v1.1h-1.1Z" fill="#fff" stroke="none"/><path clip-path="url(#l)" d="M67.65 134.94h1.1v1.1h-1.1Z" fill="#fff" stroke="none"/><path clip-path="url(#l)" d="M69.86 134.94h1.1v1.1h-1.1Z" fill="#fff" stroke="none"/><path clip-path="url(#l)" d="M70.96 134.94h1.1v1.1h-1.1Z" fill="#fff" stroke="none"/><path clip-path="url(#l)" d="M75.37 134.94h1.1v1.1h-1.1Z" fill="#fff" stroke="none"/><path clip-path="url(#l)" d="M76.47 134.94h1.1v1.1h-1.1Z" fill="#fff" stroke="none"/><path clip-path="url(#l)" d="M77.57 134.94h1.1v1.1h-1.1Z" fill="#fff" stroke="none"/><path clip-path="url(#l)" d="M78.67 134.94h1.1v1.1h-1.1Z" fill="#fff" stroke="none"/><path clip-path="url(#l)" d="M79.78 134.94h1.1v1.1h-1.1Z" fill="#fff" stroke="none"/><path clip-path="url(#l)" d="M83.08 134.94h1.1v1.1h-1.1Z" fill="#fff" stroke="none"/><path clip-path="url(#l)" d="M84.18 134.94h1.1v1.1h-1.1Z" fill="#fff" stroke="none"/><path clip-path="url(#l)" d="M58.84 136.04h1.1v1.1h-1.1Z" fill="#fff" stroke="none"/><path clip-path="url(#l)" d="M62.15 136.04h1.1v1.1h-1.1Z" fill="#fff" stroke="none"/><path clip-path="url(#l)" d="M66.55 136.04h1.1v1.1h-1.1Z" fill="#fff" stroke="none"/><path clip-path="url(#l)" d="M70.96 136.04h1.1v1.1h-1.1Z" fill="#fff" stroke="none"/><path clip-path="url(#l)" d="M73.16 136.04h1.1v1.1h-1.1Z" fill="#fff" stroke="none"/><path clip-path="url(#l)" d="M74.26 136.04h1.1v1.1h-1.1Z" fill="#fff" stroke="none"/><path clip-path="url(#l)" d="M75.37 136.04h1.1v1.1h-1.1Z" fill="#fff" stroke="none"/><path clip-path="url(#l)" d="M76.47 136.04h1.1v1.1h-1.1Z" fill="#fff" stroke="none"/><path clip-path="url(#l)" d="M77.57 136.04h1.1v1.1h-1.1Z" fill="#fff" stroke="none"/><path clip-path="url(#l)" d="M78.67 136.04h1.1v1.1h-1.1Z" fill="#fff" stroke="none"/><path clip-path="url(#l)" d="M80.88 136.04h1.1v1.1h-1.1Z" fill="#fff" stroke="none"/><path clip-path="url(#l)" d="M83.08 136.04h1.1v1.1h-1.1Z" fill="#fff" stroke="none"/><path clip-path="url(#l)" d="M84.18 136.04h1.1v1.1h-1.1Z" fill="#fff" stroke="none"/><path clip-path="url(#l)" d="M57.74 137.15h1.1v1.1h-1.1Z" fill="#fff" stroke="none"/><path clip-path="url(#l)" d="M58.84 137.15h1.1v1.1h-1.1Z" fill="#fff" stroke="none"/><path clip-path="url(#l)" d="M59.94 137.15h1.1v1.1h-1.1Z" fill="#fff" stroke="none"/><path clip-path="url(#l)" d="M61.04 137.15h1.1v1.1h-1.1Z" fill="#fff" stroke="none"/><path clip-path="url(#l)" d="M63.25 137.15h1.1v1.1h-1.1Z" fill="#fff" stroke="none"/><path clip-path="url(#l)" d="M64.35 137.15h1.1v1.1h-1.1Z" fill="#fff" stroke="none"/><path clip-path="url(#l)" d="M65.45 137.15h1.1v1.1h-1.1Z" fill="#fff" stroke="none"/><path clip-path="url(#l)" d="M66.55 137.15h1.1v1.1h-1.1Z" fill="#fff" stroke="none"/><path clip-path="url(#l)" d="M67.65 137.15h1.1v1.1h-1.1Z" fill="#fff" stroke="none"/><path clip-path="url(#l)" d="M68.76 137.15h1.1v1.1h-1.1Z" fill="#fff" stroke="none"/><path clip-path="url(#l)" d="M70.96 137.15h1.1v1.1h-1.1Z" fill="#fff" stroke="none"/><path clip-path="url(#l)" d="M73.16 137.15h1.1v1.1h-1.1Z" fill="#fff" stroke="none"/><path clip-path="url(#l)" d="M74.26 137.15h1.1v1.1h-1.1Z" fill="#fff" stroke="none"/><path clip-path="url(#l)" d="M76.47 137.15h1.1v1.1h-1.1Z" fill="#fff" stroke="none"/><path clip-path="url(#l)" d="M78.67 137.15h1.1v1.1h-1.1Z" fill="#fff" stroke="none"/><path clip-path="url(#l)" d="M79.78 137.15h1.1v1.1h-1.1Z" fill="#fff" stroke="none"/><path clip-path="url(#l)" d="M80.88 137.15h1.1v1.1h-1.1Z" fill="#fff" stroke="none"/><path clip-path="url(#l)" d="M81.98 137.15h1.1v1.1h-1.1Z" fill="#fff" stroke="none"/><path clip-path="url(#l)" d="M84.18 137.15h1.1v1.1h-1.1Z" fill="#fff" stroke="none"/><path clip-path="url(#l)" d="M57.74 138.25h1.1v1.1h-1.1Z" fill="#fff" stroke="none"/><path clip-path="url(#l)" d="M59.94 138.25h1.1v1.1h-1.1Z" fill="#fff" stroke="none"/><path clip-path="url(#l)" d="M61.04 138.25h1.1v1.1h-1.1Z" fill="#fff" stroke="none"/><path clip-path="url(#l)" d="M63.25 138.25h1.1v1.1h-1.1Z" fill="#fff" stroke="none"/><path clip-path="url(#l)" d="M65.45 138.25h1.1v1.1h-1.1Z" fill="#fff" stroke="none"/><path clip-path="url(#l)" d="M68.76 138.25h1.1v1.1h-1.1Z" fill="#fff" stroke="none"/><path clip-path="url(#l)" d="M69.86 138.25h1.1v1.1h-1.1Z" fill="#fff" stroke="none"/><path clip-path="url(#l)" d="M70.96 138.25h1.1v1.1h-1.1Z" fill="#fff" stroke="none"/><path clip-path="url(#l)" d="M73.16 138.25h1.1v1.1h-1.1Z" fill="#fff" stroke="none"/><path clip-path="url(#l)" d="M76.47 138.25h1.1v1.1h-1.1Z" fill="#fff" stroke="none"/><path clip-path="url(#l)" d="M79.78 138.25h1.1v1.1h-1.1Z" fill="#fff" stroke="none"/><path clip-path="url(#l)" d="M80.88 138.25h1.1v1.1h-1.1Z" fill="#fff" stroke="none"/><path clip-path="url(#l)" d="M58.84 139.35h1.1v1.1h-1.1Z" fill="#fff" stroke="none"/><path clip-path="url(#l)" d="M59.94 139.35h1.1v1.1h-1.1Z" fill="#fff" stroke="none"/><path clip-path="url(#l)" d="M64.35 139.35h1.1v1.1h-1.1Z" fill="#fff" stroke="none"/><path clip-path="url(#l)" d="M65.45 139.35h1.1v1.1h-1.1Z" fill="#fff" stroke="none"/><path clip-path="url(#l)" d="M67.65 139.35h1.1v1.1h-1.1Z" fill="#fff" stroke="none"/><path clip-path="url(#l)" d="M68.76 139.35h1.1v1.1h-1.1Z" fill="#fff" stroke="none"/><path clip-path="url(#l)" d="M73.16 139.35h1.1v1.1h-1.1Z" fill="#fff" stroke="none"/><path clip-path="url(#l)" d="M75.37 139.35h1.1v1.1h-1.1Z" fill="#fff" stroke="none"/><path clip-path="url(#l)" d="M77.57 139.35h1.1v1.1h-1.1Z" fill="#fff" stroke="none"/><path clip-path="url(#l)" d="M78.67 139.35h1.1v1.1h-1.1Z" fill="#fff" stroke="none"/><path clip-path="url(#l)" d="M84.18 139.35h1.1v1.1h-1.1Z" fill="#fff" stroke="none"/><path clip-path="url(#l)" d="M58.84 140.45h1.1v1.1h-1.1Z" fill="#fff" stroke="none"/><path clip-path="url(#l)" d="M59.94 140.45h1.1v1.1h-1.1Z" fill="#fff" stroke="none"/><path clip-path="url(#l)" d="M63.25 140.45h1.1v1.1h-1.1Z" fill="#fff" stroke="none"/><path clip-path="url(#l)" d="M65.45 140.45h1.1v1.1h-1.1Z" fill="#fff" stroke="none"/><path clip-path="url(#l)" d="M67.65 140.45h1.1v1.1h-1.1Z" fill="#fff" stroke="none"/><path clip-path="url(#l)" d="M68.76 140.45h1.1v1.1h-1.1Z" fill="#fff" stroke="none"/><path clip-path="url(#l)" d="M73.16 140.45h1.1v1.1h-1.1Z" fill="#fff" stroke="none"/><path clip-path="url(#l)" d="M74.26 140.45h1.1v1.1h-1.1Z" fill="#fff" stroke="none"/><path clip-path="url(#l)" d="M75.37 140.45h1.1v1.1h-1.1Z" fill="#fff" stroke="none"/><path clip-path="url(#l)" d="M76.47 140.45h1.1v1.1h-1.1Z" fill="#fff" stroke="none"/><path clip-path="url(#l)" d="M77.57 140.45h1.1v1.1h-1.1Z" fill="#fff" stroke="none"/><path clip-path="url(#l)" d="M78.67 140.45h1.1v1.1h-1.1Z" fill="#fff" stroke="none"/><path clip-path="url(#l)" d="M83.08 140.45h1.1v1.1h-1.1Z" fill="#fff" stroke="none"/><path clip-path="url(#l)" d="M84.18 140.45h1.1v1.1h-1.1Z" fill="#fff" stroke="none"/><path clip-path="url(#l)" d="M57.74 141.55h1.1v1.1h-1.1Z" fill="#fff" stroke="none"/><path clip-path="url(#l)" d="M58.84 141.55h1.1v1.1h-1.1Z" fill="#fff" stroke="none"/><path clip-path="url(#l)" d="M59.94 141.55h1.1v1.1h-1.1Z" fill="#fff" stroke="none"/><path clip-path="url(#l)" d="M61.04 141.55h1.1v1.1h-1.1Z" fill="#fff" stroke="none"/><path clip-path="url(#l)" d="M62.15 141.55h1.1v1.1h-1.1Z" fill="#fff" stroke="none"/><path clip-path="url(#l)" d="M63.25 141.55h1.1v1.1h-1.1Z" fill="#fff" stroke="none"/><path clip-path="url(#l)" d="M64.35 141.55h1.1v1.1h-1.1Z" fill="#fff" stroke="none"/><path clip-path="url(#l)" d="M68.76 141.55h1.1v1.1h-1.1Z" fill="#fff" stroke="none"/><path clip-path="url(#l)" d="M69.86 141.55h1.1v1.1h-1.1Z" fill="#fff" stroke="none"/><path clip-path="url(#l)" d="M74.26 141.55h1.1v1.1h-1.1Z" fill="#fff" stroke="none"/><path clip-path="url(#l)" d="M75.37 141.55h1.1v1.1h-1.1Z" fill="#fff" stroke="none"/><path clip-path="url(#l)" d="M76.47 141.55h1.1v1.1h-1.1Z" fill="#fff" stroke="none"/><path clip-path="url(#l)" d="M77.57 141.55h1.1v1.1h-1.1Z" fill="#fff" stroke="none"/><path clip-path="url(#l)" d="M80.88 141.55h1.1v1.1h-1.1Z" fill="#fff" stroke="none"/><path clip-path="url(#l)" d="M81.98 141.55h1.1v1.1h-1.1Z" fill="#fff" stroke="none"/><path clip-path="url(#l)" d="M84.18 141.55h1.1v1.1h-1.1Z" fill="#fff" stroke="none"/><path clip-path="url(#l)" d="M59.94 142.65h1.1v1.1h-1.1Z" fill="#fff" stroke="none"/><path clip-path="url(#l)" d="M65.45 142.65h1.1v1.1h-1.1Z" fill="#fff" stroke="none"/><path clip-path="url(#l)" d="M66.55 142.65h1.1v1.1h-1.1Z" fill="#fff" stroke="none"/><path clip-path="url(#l)" d="M68.76 142.65h1.1v1.1h-1.1Z" fill="#fff" stroke="none"/><path clip-path="url(#l)" d="M73.16 142.65h1.1v1.1h-1.1Z" fill="#fff" stroke="none"/><path clip-path="url(#l)" d="M74.26 142.65h1.1v1.1h-1.1Z" fill="#fff" stroke="none"/><path clip-path="url(#l)" d="M75.37 142.65h1.1v1.1h-1.1Z" fill="#fff" stroke="none"/><path clip-path="url(#l)" d="M78.67 142.65h1.1v1.1h-1.1Z" fill="#fff" stroke="none"/><path clip-path="url(#l)" d="M79.78 142.65h1.1v1.1h-1.1Z" fill="#fff" stroke="none"/><path clip-path="url(#l)" d="M80.88 142.65h1.1v1.1h-1.1Z" fill="#fff" stroke="none"/><path clip-path="url(#l)" d="M57.74 143.76h1.1v1.1h-1.1Z" fill="#fff" stroke="none"/><path clip-path="url(#l)" d="M58.84 143.76h1.1v1.1h-1.1Z" fill="#fff" stroke="none"/><path clip-path="url(#l)" d="M64.35 143.76h1.1v1.1h-1.1Z" fill="#fff" stroke="none"/><path clip-path="url(#l)" d="M65.45 143.76h1.1v1.1h-1.1Z" fill="#fff" stroke="none"/><path clip-path="url(#l)" d="M66.55 143.76h1.1v1.1h-1.1Z" fill="#fff" stroke="none"/><path clip-path="url(#l)" d="M67.65 143.76h1.1v1.1h-1.1Z" fill="#fff" stroke="none"/><path clip-path="url(#l)" d="M69.86 143.76h1.1v1.1h-1.1Z" fill="#fff" stroke="none"/><path clip-path="url(#l)" d="M70.96 143.76h1.1v1.1h-1.1Z" fill="#fff" stroke="none"/><path clip-path="url(#l)" d="M73.16 143.76h1.1v1.1h-1.1Z" fill="#fff" stroke="none"/><path clip-path="url(#l)" d="M75.37 143.76h1.1v1.1h-1.1Z" fill="#fff" stroke="none"/><path clip-path="url(#l)" d="M76.47 143.76h1.1v1.1h-1.1Z" fill="#fff" stroke="none"/><path clip-path="url(#l)" d="M77.57 143.76h1.1v1.1h-1.1Z" fill="#fff" stroke="none"/><path clip-path="url(#l)" d="M78.67 143.76h1.1v1.1h-1.1Z" fill="#fff" stroke="none"/><path clip-path="url(#l)" d="M79.78 143.76h1.1v1.1h-1.1Z" fill="#fff" stroke="none"/><path clip-path="url(#l)" d="M83.08 143.76h1.1v1.1h-1.1Z" fill="#fff" stroke="none"/><path clip-path="url(#l)" d="M66.55 144.86h1.1v1.1h-1.1Z" fill="#fff" stroke="none"/><path clip-path="url(#l)" d="M70.96 144.86h1.1v1.1h-1.1Z" fill="#fff" stroke="none"/><path clip-path="url(#l)" d="M72.06 144.86h1.1v1.1h-1.1Z" fill="#fff" stroke="none"/><path clip-path="url(#l)" d="M73.16 144.86h1.1v1.1h-1.1Z" fill="#fff" stroke="none"/><path clip-path="url(#l)" d="M75.37 144.86h1.1v1.1h-1.1Z" fill="#fff" stroke="none"/><path clip-path="url(#l)" d="M79.78 144.86h1.1v1.1h-1.1Z" fill="#fff" stroke="none"/><path clip-path="url(#l)" d="M84.18 144.86h1.1v1.1h-1.1Z" fill="#fff" stroke="none"/><path clip-path="url(#l)" d="M57.74 145.96h1.1v1.1h-1.1Z" fill="#fff" stroke="none"/><path clip-path="url(#l)" d="M58.84 145.96h1.1v1.1h-1.1Z" fill="#fff" stroke="none"/><path clip-path="url(#l)" d="M59.94 145.96h1.1v1.1h-1.1Z" fill="#fff" stroke="none"/><path clip-path="url(#l)" d="M61.04 145.96h1.1v1.1h-1.1Z" fill="#fff" stroke="none"/><path clip-path="url(#l)" d="M62.15 145.96h1.1v1.1h-1.1Z" fill="#fff" stroke="none"/><path clip-path="url(#l)" d="M63.25 145.96h1.1v1.1h-1.1Z" fill="#fff" stroke="none"/><path clip-path="url(#l)" d="M64.35 145.96h1.1v1.1h-1.1Z" fill="#fff" stroke="none"/><path clip-path="url(#l)" d="M68.76 145.96h1.1v1.1h-1.1Z" fill="#fff" stroke="none"/><path clip-path="url(#l)" d="M70.96 145.96h1.1v1.1h-1.1Z" fill="#fff" stroke="none"/><path clip-path="url(#l)" d="M72.06 145.96h1.1v1.1h-1.1Z" fill="#fff" stroke="none"/><path clip-path="url(#l)" d="M73.16 145.96h1.1v1.1h-1.1Z" fill="#fff" stroke="none"/><path clip-path="url(#l)" d="M75.37 145.96h1.1v1.1h-1.1Z" fill="#fff" stroke="none"/><path clip-path="url(#l)" d="M77.57 145.96h1.1v1.1h-1.1Z" fill="#fff" stroke="none"/><path clip-path="url(#l)" d="M79.78 145.96h1.1v1.1h-1.1Z" fill="#fff" stroke="none"/><path clip-path="url(#l)" d="M84.18 145.96h1.1v1.1h-1.1Z" fill="#fff" stroke="none"/><path clip-path="url(#l)" d="M57.74 147.06h1.1v1.1h-1.1Z" fill="#fff" stroke="none"/><path clip-path="url(#l)" d="M64.35 147.06h1.1v1.1h-1.1Z" fill="#fff" stroke="none"/><path clip-path="url(#l)" d="M66.55 147.06h1.1v1.1h-1.1Z" fill="#fff" stroke="none"/><path clip-path="url(#l)" d="M69.86 147.06h1.1v1.1h-1.1Z" fill="#fff" stroke="none"/><path clip-path="url(#l)" d="M70.96 147.06h1.1v1.1h-1.1Z" fill="#fff" stroke="none"/><path clip-path="url(#l)" d="M75.37 147.06h1.1v1.1h-1.1Z" fill="#fff" stroke="none"/><path clip-path="url(#l)" d="M79.78 147.06h1.1v1.1h-1.1Z" fill="#fff" stroke="none"/><path clip-path="url(#l)" d="M57.74 148.16h1.1v1.1h-1.1Z" fill="#fff" stroke="none"/><path clip-path="url(#l)" d="M59.94 148.16h1.1v1.1h-1.1Z" fill="#fff" stroke="none"/><path clip-path="url(#l)" d="M61.04 148.16h1.1v1.1h-1.1Z" fill="#fff" stroke="none"/><path clip-path="url(#l)" d="M62.15 148.16h1.1v1.1h-1.1Z" fill="#fff" stroke="none"/><path clip-path="url(#l)" d="M64.35 148.16h1.1v1.1h-1.1Z" fill="#fff" stroke="none"/><path clip-path="url(#l)" d="M67.65 148.16h1.1v1.1h-1.1Z" fill="#fff" stroke="none"/><path clip-path="url(#l)" d="M68.76 148.16h1.1v1.1h-1.1Z" fill="#fff" stroke="none"/><path clip-path="url(#l)" d="M70.96 148.16h1.1v1.1h-1.1Z" fill="#fff" stroke="none"/><path clip-path="url(#l)" d="M73.16 148.16h1.1v1.1h-1.1Z" fill="#fff" stroke="none"/><path clip-path="url(#l)" d="M74.26 148.16h1.1v1.1h-1.1Z" fill="#fff" stroke="none"/><path clip-path="url(#l)" d="M75.37 148.16h1.1v1.1h-1.1Z" fill="#fff" stroke="none"/><path clip-path="url(#l)" d="M76.47 148.16h1.1v1.1h-1.1Z" fill="#fff" stroke="none"/><path clip-path="url(#l)" d="M77.57 148.16h1.1v1.1h-1.1Z" fill="#fff" stroke="none"/><path clip-path="url(#l)" d="M78.67 148.16h1.1v1.1h-1.1Z" fill="#fff" stroke="none"/><path clip-path="url(#l)" d="M79.78 148.16h1.1v1.1h-1.1Z" fill="#fff" stroke="none"/><path clip-path="url(#l)" d="M83.08 148.16h1.1v1.1h-1.1Z" fill="#fff" stroke="none"/><path clip-path="url(#l)" d="M57.74 149.27h1.1v1.1h-1.1Z" fill="#fff" stroke="none"/><path clip-path="url(#l)" d="M59.94 149.27h1.1v1.1h-1.1Z" fill="#fff" stroke="none"/><path clip-path="url(#l)" d="M61.04 149.27h1.1v1.1h-1.1Z" fill="#fff" stroke="none"/><path clip-path="url(#l)" d="M62.15 149.27h1.1v1.1h-1.1Z" fill="#fff" stroke="none"/><path clip-path="url(#l)" d="M64.35 149.27h1.1v1.1h-1.1Z" fill="#fff" stroke="none"/><path clip-path="url(#l)" d="M68.76 149.27h1.1v1.1h-1.1Z" fill="#fff" stroke="none"/><path clip-path="url(#l)" d="M72.06 149.27h1.1v1.1h-1.1Z" fill="#fff" stroke="none"/><path clip-path="url(#l)" d="M73.16 149.27h1.1v1.1h-1.1Z" fill="#fff" stroke="none"/><path clip-path="url(#l)" d="M74.26 149.27h1.1v1.1h-1.1Z" fill="#fff" stroke="none"/><path clip-path="url(#l)" d="M76.47 149.27h1.1v1.1h-1.1Z" fill="#fff" stroke="none"/><path clip-path="url(#l)" d="M79.78 149.27h1.1v1.1h-1.1Z" fill="#fff" stroke="none"/><path clip-path="url(#l)" d="M81.98 149.27h1.1v1.1h-1.1Z" fill="#fff" stroke="none"/><path clip-path="url(#l)" d="M83.08 149.27h1.1v1.1h-1.1Z" fill="#fff" stroke="none"/><path clip-path="url(#l)" d="M57.74 150.37h1.1v1.1h-1.1Z" fill="#fff" stroke="none"/><path clip-path="url(#l)" d="M59.94 150.37h1.1v1.1h-1.1Z" fill="#fff" stroke="none"/><path clip-path="url(#l)" d="M61.04 150.37h1.1v1.1h-1.1Z" fill="#fff" stroke="none"/><path clip-path="url(#l)" d="M62.15 150.37h1.1v1.1h-1.1Z" fill="#fff" stroke="none"/><path clip-path="url(#l)" d="M64.35 150.37h1.1v1.1h-1.1Z" fill="#fff" stroke="none"/><path clip-path="url(#l)" d="M66.55 150.37h1.1v1.1h-1.1Z" fill="#fff" stroke="none"/><path clip-path="url(#l)" d="M68.76 150.37h1.1v1.1h-1.1Z" fill="#fff" stroke="none"/><path clip-path="url(#l)" d="M69.86 150.37h1.1v1.1h-1.1Z" fill="#fff" stroke="none"/><path clip-path="url(#l)" d="M72.06 150.37h1.1v1.1h-1.1Z" fill="#fff" stroke="none"/><path clip-path="url(#l)" d="M73.16 150.37h1.1v1.1h-1.1Z" fill="#fff" stroke="none"/><path clip-path="url(#l)" d="M74.26 150.37h1.1v1.1h-1.1Z" fill="#fff" stroke="none"/><path clip-path="url(#l)" d="M75.37 150.37h1.1v1.1h-1.1Z" fill="#fff" stroke="none"/><path clip-path="url(#l)" d="M78.67 150.37h1.1v1.1h-1.1Z" fill="#fff" stroke="none"/><path clip-path="url(#l)" d="M79.78 150.37h1.1v1.1h-1.1Z" fill="#fff" stroke="none"/><path clip-path="url(#l)" d="M80.88 150.37h1.1v1.1h-1.1Z" fill="#fff" stroke="none"/><path clip-path="url(#l)" d="M83.08 150.37h1.1v1.1h-1.1Z" fill="#fff" stroke="none"/><path clip-path="url(#l)" d="M84.18 150.37h1.1v1.1h-1.1Z" fill="#fff" stroke="none"/><path clip-path="url(#l)" d="M57.74 151.47h1.1v1.1h-1.1Z" fill="#fff" stroke="none"/><path clip-path="url(#l)" d="M64.35 151.47h1.1v1.1h-1.1Z" fill="#fff" stroke="none"/><path clip-path="url(#l)" d="M66.55 151.47h1.1v1.1h-1.1Z" fill="#fff" stroke="none"/><path clip-path="url(#l)" d="M68.76 151.47h1.1v1.1h-1.1Z" fill="#fff" stroke="none"/><path clip-path="url(#l)" d="M69.86 151.47h1.1v1.1h-1.1Z" fill="#fff" stroke="none"/><path clip-path="url(#l)" d="M70.96 151.47h1.1v1.1h-1.1Z" fill="#fff" stroke="none"/><path clip-path="url(#l)" d="M73.16 151.47h1.1v1.1h-1.1Z" fill="#fff" stroke="none"/><path clip-path="url(#l)" d="M75.37 151.47h1.1v1.1h-1.1Z" fill="#fff" stroke="none"/><path clip-path="url(#l)" d="M78.67 151.47h1.1v1.1h-1.1Z" fill="#fff" stroke="none"/><path clip-path="url(#l)" d="M79.78 151.47h1.1v1.1h-1.1Z" fill="#fff" stroke="none"/><path clip-path="url(#l)" d="M57.74 152.57h1.1v1.1h-1.1Z" fill="#fff" stroke="none"/><path clip-path="url(#l)" d="M58.84 152.57h1.1v1.1h-1.1Z" fill="#fff" stroke="none"/><path clip-path="url(#l)" d="M59.94 152.57h1.1v1.1h-1.1Z" fill="#fff" stroke="none"/><path clip-path="url(#l)" d="M61.04 152.57h1.1v1.1h-1.1Z" fill="#fff" stroke="none"/><path clip-path="url(#l)" d="M62.15 152.57h1.1v1.1h-1.1Z" fill="#fff" stroke="none"/><path clip-path="url(#l)" d="M63.25 152.57h1.1v1.1h-1.1Z" fill="#fff" stroke="none"/><path clip-path="url(#l)" d="M64.35 152.57h1.1v1.1h-1.1Z" fill="#fff" stroke="none"/><path clip-path="url(#l)" d="M66.55 152.57h1.1v1.1h-1.1Z" fill="#fff" stroke="none"/><path clip-path="url(#l)" d="M68.76 152.57h1.1v1.1h-1.1Z" fill="#fff" stroke="none"/><path clip-path="url(#l)" d="M69.86 152.57h1.1v1.1h-1.1Z" fill="#fff" stroke="none"/><path clip-path="url(#l)" d="M70.96 152.57h1.1v1.1h-1.1Z" fill="#fff" stroke="none"/><path clip-path="url(#l)" d="M75.37 152.57h1.1v1.1h-1.1Z" fill="#fff" stroke="none"/><path clip-path="url(#l)" d="M76.47 152.57h1.1v1.1h-1.1Z" fill="#fff" stroke="none"/><path clip-path="url(#l)" d="M80.88 152.57h1.1v1.1h-1.1Z" fill="#fff" stroke="none"/><path clip-path="url(#l)" d="M84.18 152.57h1.1v1.1h-1.1Z" fill="#fff" stroke="none"/></g></g></svg>