<?xml version="1.0" encoding="UTF-8"?><svg xmlns="http://www.w3.org/2000/svg" color-interpolation="auto" height="123.39" stroke="#000" stroke-linecap="square" stroke-miterlimit="10" width="406.85"><defs><clipPath id="a"><path d="M5 5V118.39H401.85V5Z"/></clipPath><clipPath clip-path="url(#a)" id="b"><path d="M5 118.39H401.85V5H5Z"/></clipPath><clipPath clip-path="url(#b)" id="i"><path d="M5 5H401.85V118.39H5Z"/></clipPath><clipPath id="c"><path d="M5 5V118.39H401.85V5Z"/></clipPath><clipPath clip-path="url(#c)" id="d"><path d="M5 118.39H401.85V5H5Z"/></clipPath><clipPath clip-path="url(#d)" id="j"><path d="M5 5V118.39H194.55c18.95 0 34.32-15.36 34.32-34.31V5Z"/></clipPath><clipPath id="e"><path d="M5 5V118.39H401.85V5Z"/></clipPath><clipPath clip-path="url(#e)" id="f"><path d="M5 118.39H401.85V5H5Z"/></clipPath><clipPath clip-path="url(#f)" id="k"><path d="M5 5H401.85V118.39H5Z"/></clipPath><clipPath id="g"><path d="M5 5V118.39H401.85V5Z"/></clipPath><clipPath clip-path="url(#g)" id="h"><path d="M5 118.39H401.85V5H5Z"/></clipPath><clipPath clip-path="url(#h)" id="l"><path d="M5 5H401.85V118.39H5Z"/></clipPath></defs><g><g fill="#57207F" stroke="#57207F" stroke-linecap="butt" stroke-width=".25"><path clip-path="url(#i)" d="M401.85 118.39H5V5H401.85Z" fill="none"/><path clip-path="url(#i)" d="M5 5V118.39H194.55c18.95 0 34.32-15.36 34.32-34.32V5Z" fill="#611F7F" stroke="none"/><path clip-path="url(#j)" d="M4.03 124.81v-3.52c0-4.62 3.75-8.37 8.37-8.37H32.36v11.89H4.03Z" fill="none" stroke="#F16D00" stroke-width=".3"/><path clip-path="url(#j)" d="M35.95 124.75V112.92H47.8v11.83H35.95Z" fill="none" stroke="#F16D00" stroke-width=".3"/><path clip-path="url(#j)" d="M86.77 149.41V134.53h21.11c7.29 0 13.23-4.65 13.23-11.94s-5.93-13.23-13.23-13.23H86.77V94.48h21.11c15.5 0 28.11 12.61 28.11 28.11s-12.61 26.83-28.11 26.83H86.77Z" fill="none" stroke="#fff" stroke-width=".3"/><path clip-path="url(#j)" d="M82.12 149.48h-4.4c-5.79 0-10.48-4.69-10.48-10.48V114.03H82.12v35.45Z" fill="none" stroke="#fff" stroke-width=".3"/><path clip-path="url(#j)" d="M82.04 109.54H67.24V94.71h14.8v14.83Z" fill="none" stroke="#fff" stroke-width=".3"/><path clip-path="url(#j)" d="M117.4 16.08V-2.58H90.92c-9.15 0-16.59-5.83-16.59-14.98s7.44-16.59 16.59-16.59H117.4V-52.81H90.92c-19.44 0-35.25 15.81-35.25 35.25S71.48 16.08 90.92 16.08H117.4Z" fill="none" stroke="#F16D00" stroke-width=".3"/><path clip-path="url(#j)" d="M123.23 16.17h5.52c7.26 0 13.14-5.88 13.14-13.14V-28.28H123.23V16.17Z" fill="none" stroke="#F16D00" stroke-width=".3"/><path clip-path="url(#j)" d="M-3.79 108.66H3.74c9.88 0 17.89-8.01 17.89-17.89V48.13H-3.79v60.53Z" fill="none" stroke="#fff" stroke-width=".3"/><path clip-path="url(#j)" d="M-3.65 40.45H21.63V15.13H-3.65V40.45Z" fill="none" stroke="#fff" stroke-width=".3"/><path clip-path="url(#j)" d="M135.94 58.85H125.38V43.87c0-5.18-3.3-9.39-8.48-9.39s-9.39 4.21-9.39 9.39V58.85H96.96V43.87c0-11 8.95-19.94 19.94-19.94s19.03 8.95 19.03 19.94V58.85Z" fill="none" stroke="#fff" stroke-width=".3"/><path clip-path="url(#j)" d="M135.99 62.15v3.12c0 4.1-3.33 7.43-7.43 7.43H110.84V62.15h25.15Z" fill="none" stroke="#fff" stroke-width=".3"/><path clip-path="url(#j)" d="M107.65 62.2v10.5H97.13V62.2h10.52Z" fill="none" stroke="#fff" stroke-width=".3"/><path clip-path="url(#k)" d="M172.52 71.45V58.21h18.79c6.49 0 11.77-4.14 11.77-10.63s-5.28-11.77-11.77-11.77H172.52V22.57h18.79c13.79 0 25.01 11.22 25.01 25.01S205.1 71.45 191.31 71.45Z" fill="#fff" stroke="none"/><path clip-path="url(#k)" d="M167.79 71.3h-3.92c-5.15 0-9.32-4.17-9.32-9.32V39.76h13.24Z" fill="#fff" stroke="none"/><path clip-path="url(#k)" d="M167.72 35.76H154.55V22.57h13.17Z" fill="#F16D00" stroke="none"/><path clip-path="url(#k)" d="M215.69 83.18c0-.28.02-.57.07-.86s.11-.58.2-.85.21-.52.35-.74.31-.39.51-.52.43-.19.68-.2c.3 0 .55.07.75.21s.36.31.49.54.22.47.28.75.1.56.13.84.03.56.03.81c0 .44-.03.85-.08 1.23s-.15.71-.27 1-.3.51-.51.67-.47.24-.77.24c-.35-.01-.64-.1-.88-.28s-.43-.42-.56-.73-.24-.64-.3-1.01-.09-.74-.09-1.11m-1.58 6.3h1.58V86.2h.04c.05.12.13.26.24.41s.25.3.43.44.39.25.65.35.56.14.91.14c.64 0 1.17-.19 1.61-.55s.77-.88 1-1.55.34-1.48.34-2.41c0-.6-.05-1.16-.16-1.67s-.28-.96-.51-1.35-.53-.68-.89-.9-.8-.32-1.3-.33c-.34 0-.65.06-.91.16s-.49.24-.69.39-.35.32-.47.48-.2.3-.25.43h-.04V78.97h-1.58Zm-5.85-2.13h1.58V83.79c0-.64.07-1.17.21-1.6s.32-.76.57-1.01.52-.42.83-.53.65-.15 1.01-.15V78.78c-.41.01-.77.07-1.07.2s-.55.29-.76.49-.37.4-.49.62-.21.4-.27.58h-.03V78.97h-1.58Zm-7.63-4.19c0-.27.01-.56.04-.85s.08-.57.15-.85.18-.52.33-.73.33-.39.57-.52.52-.19.87-.2.62.07.86.2.42.3.56.52.25.46.32.73.12.55.15.85.04.58.04.85-.01.55-.04.84-.08.57-.15.84-.18.52-.32.74-.33.4-.56.52-.52.2-.86.2-.64-.07-.87-.2-.43-.3-.57-.52-.25-.47-.33-.74-.12-.55-.15-.84-.04-.57-.04-.84m1.95 4.38c.63 0 1.18-.11 1.64-.31s.85-.5 1.15-.89.53-.84.68-1.38.22-1.13.22-1.8c0-.9-.13-1.67-.4-2.32s-.67-1.16-1.22-1.51-1.24-.54-2.07-.54c-.84.01-1.54.19-2.09.54s-.96.86-1.23 1.51-.4 1.43-.4 2.32c0 .66.07 1.26.22 1.8s.38 1 .68 1.38.69.68 1.16.89 1.01.31 1.65.31m-4.8-1.41c-.23.07-.46.12-.67.14s-.44.04-.66.03c-.52 0-.98-.08-1.36-.23s-.7-.35-.95-.61-.46-.55-.6-.87-.26-.66-.32-1.01-.1-.69-.09-1.02c0-.52.07-.97.21-1.35s.34-.68.59-.88.55-.31.9-.32c.29 0 .52.06.69.17s.3.26.39.43.14.36.17.55.04.37.04.53h1.81c0-.35-.04-.69-.13-1.03s-.25-.66-.47-.94-.53-.51-.92-.68-.88-.26-1.47-.26c-.62 0-1.16.11-1.61.31s-.82.49-1.11.86-.5.8-.64 1.29-.21 1.03-.21 1.62c0 .42.04.85.12 1.28s.21.86.4 1.26.44.76.75 1.08.71.57 1.17.76 1.02.28 1.65.29c.49 0 .92-.03 1.3-.08s.72-.14 1.02-.23Zm-12.56-4.64c0-.1.02-.23.08-.39s.14-.33.27-.49.3-.31.52-.42.49-.17.81-.18c.3 0 .55.06.75.16s.35.23.47.38.2.32.24.48.07.32.07.45Zm4.59 4.52c-.18.07-.4.13-.66.2s-.57.1-.92.1c-.46 0-.85-.08-1.2-.24s-.63-.37-.87-.63-.43-.56-.58-.89-.26-.67-.33-1.01-.1-.68-.1-.99h4.85v-.4c0-.5-.06-.95-.19-1.36s-.31-.76-.56-1.06-.57-.53-.94-.69-.82-.25-1.33-.25c-.22 0-.47.02-.77.07s-.59.15-.9.3-.59.37-.85.66-.48.68-.64 1.16-.25 1.08-.25 1.79c.01 1.09.18 2 .51 2.7s.82 1.23 1.44 1.57 1.35.51 2.2.51c.3 0 .57-.01.8-.04s.45-.06.65-.1.42-.09.65-.14Zm-7.39.18c-.12.03-.25.06-.4.09s-.3.03-.44.03c-.3 0-.55-.05-.73-.15s-.32-.23-.4-.38-.14-.34-.17-.53-.04-.38-.04-.57V80.2h2.32V78.97h-2.32V76.02l-1.58.99v1.97h-1.49V80.2h1.49V85.5c0 .29.04.55.11.8s.21.46.39.65.44.33.77.43.74.16 1.25.16c.21 0 .42-.01.63-.03s.42-.05.62-.09Zm-13.57 1.16h1.58V83.79c0-.42.06-.84.16-1.24s.26-.77.45-1.1.43-.59.7-.78.57-.3.89-.3c.28 0 .5.05.66.16s.27.26.34.47.11.46.13.76.02.64.02 1.03v4.57h1.58v-5.8c0-.21-.01-.44-.05-.69s-.1-.49-.19-.74-.22-.47-.39-.67-.39-.37-.65-.49-.59-.19-.98-.19c-.42.01-.79.08-1.1.21s-.56.31-.76.52-.37.42-.5.65-.23.42-.29.61h-.03V78.97h-1.58Zm-4.11-3.74v.47c0 .25-.05.5-.14.76s-.23.5-.4.72-.37.4-.6.54-.48.21-.76.21c-.16 0-.31-.05-.45-.14s-.25-.21-.33-.37-.13-.35-.13-.57c0-.27.07-.5.21-.71s.33-.37.57-.51.5-.24.8-.31.6-.11.92-.11Zm0 3.74h1.58V81.59c0-.16 0-.35-.02-.58s-.07-.48-.15-.73-.22-.5-.42-.72-.47-.41-.81-.55-.79-.21-1.34-.22c-.58 0-1.08.07-1.47.21s-.72.32-.97.55-.42.5-.53.8-.17.62-.16.96h1.67c0-.23.04-.44.13-.63s.24-.35.43-.47.45-.18.77-.19c.2 0 .39.03.57.1s.33.18.45.34.21.37.26.64v1.46c-.43 0-.86.02-1.29.07s-.84.14-1.24.26-.74.28-1.05.49-.55.47-.72.79-.27.69-.27 1.14.09.82.27 1.16.45.6.8.8.79.29 1.31.29c.32 0 .6-.05.85-.13s.46-.19.63-.32.32-.26.43-.4.19-.27.25-.38h.04Zm-18.59 0h1.58V77.29h.04l3.48 10.06h1.67l3.48-10.06h.03V87.34h1.58V75.21h-2.46l-3.45 9.93h-.04l-3.44-9.93h-2.48Z" fill="#F16D00" stroke="none"/><path clip-path="url(#k)" d="M147.18 98.64c-.67 0-1.23-.21-1.55-.43l-.09-.78c.43.34 1.02.58 1.68.58.71 0 1.21-.41 1.21-1.01s-.35-.93-1.13-1.21c-1.06-.36-1.58-.88-1.58-1.72 0-.78.59-1.55 1.8-1.55.57 0 1.04.18 1.27.34l-.15.62c-.23-.16-.68-.35-1.14-.35-.69 0-1.07.42-1.07.88 0 .49.33.79 1.03 1.04 1.05.38 1.71.84 1.71 1.87s-.74 1.72-1.97 1.72" fill="#fff" stroke="none"/><path clip-path="url(#k)" d="M152.38 96.57l-.91.08c-.57.06-.85.38-.85.76 0 .37.29.66.74.66.53 0 1.03-.4 1.03-1.03Zm.76 2.13c-.29-.07-.62-.32-.68-.72-.18.5-.66.72-1.18.72-.83 0-1.37-.59-1.37-1.29 0-.83.67-1.27 1.39-1.34l1.07-.1v-.34c0-.45-.3-.77-.92-.77-.42 0-.86.13-1.15.33l-.15-.6c.36-.24.83-.36 1.34-.36.93 0 1.61.53 1.61 1.49v1.84c0 .4.23.63.5.68Z" fill="#fff" stroke="none"/><path clip-path="url(#k)" d="M157.04 92.68c-.32.37-.71.67-1.12.93l-.38-.17c.36-.28.8-.73 1.07-1.12.06-.08.15-.12.21-.12.1 0 .32.22.32.32 0 .04-.05.11-.1.16m.22 5.91V98h-.01c-.16.38-.58.7-1.35.7-.93 0-1.63-.58-1.63-1.53V94.32h.72V97.1c0 .52.35.96 1.08.96.72 0 1.12-.44 1.12-.96V94.32h.73v4.27Z" fill="#fff" stroke="none"/><path clip-path="url(#k)" d="M162.17 95.34c-.17-.19-.56-.46-1.14-.46-.84 0-1.51.65-1.51 1.59 0 .95.67 1.59 1.51 1.59.56 0 .95-.28 1.14-.56Zm.04 3.25v-.47h-.01c-.2.28-.63.58-1.32.58-1.01 0-2.09-.8-2.09-2.23 0-1.31.93-2.24 2.18-2.24.51 0 1.03.21 1.21.41V91.88h.73v6.71Z" fill="#fff" stroke="none"/><path clip-path="url(#k)" d="M165.94 94.82c-.64 0-1.24.54-1.36 1.19h2.44c.01-.04.01-.08.01-.13 0-.5-.39-1.06-1.09-1.06m1.77 1.35l-.39.4h-2.78c0 .7.58 1.51 1.64 1.51.53 0 .93-.15 1.24-.37l-.09.69c-.3.17-.69.29-1.24.29-1.23 0-2.27-.91-2.27-2.23 0-1.4 1.07-2.24 2.08-2.24 1.18 0 1.84.83 1.84 1.64 0 .12-.01.23-.03.31" fill="#fff" stroke="none"/><path clip-path="url(#k)" d="M172.69 94.88c-.56 0-.95.28-1.14.56V97.6c.17.19.56.46 1.14.46.84 0 1.51-.65 1.51-1.59s-.67-1.59-1.51-1.59m.07 3.82c-.51 0-1.03-.21-1.21-.41v2.48h-.73V94.32h.69v.47h.01c.2-.29.63-.58 1.32-.58 1.01 0 2.09.8 2.09 2.23 0 1.31-.93 2.24-2.18 2.24" fill="#fff" stroke="none"/><path clip-path="url(#k)" d="M177.73 94.82c-.64 0-1.24.54-1.36 1.19h2.44c.01-.04.01-.08.01-.13 0-.5-.39-1.06-1.09-1.06m1.77 1.35l-.39.4h-2.78c0 .7.58 1.51 1.64 1.51.53 0 .93-.15 1.24-.37l-.09.69c-.3.17-.69.29-1.24.29-1.23 0-2.27-.91-2.27-2.23 0-1.4 1.07-2.24 2.08-2.24 1.18 0 1.84.83 1.84 1.64 0 .12-.01.23-.03.31" fill="#fff" stroke="none"/><path clip-path="url(#k)" d="M182.64 95.05c-.07-.02-.2-.05-.32-.05-.61 0-1.21.37-1.21 1.42v2.17h-.7V94.32h.7v.93h.01c.14-.6.63-.99 1.28-.99.12 0 .31.02.41.06Z" fill="#fff" stroke="none"/><path clip-path="url(#k)" d="M184.49 98.65c-.51 0-.9-.13-1.18-.33l-.09-.76c.31.27.78.49 1.28.49.44 0 .77-.24.77-.59s-.26-.56-.71-.72c-.8-.28-1.25-.65-1.25-1.32 0-.69.57-1.16 1.35-1.16.46 0 .9.17 1.07.27l-.15.59c-.19-.14-.5-.28-.92-.28-.4 0-.66.23-.66.55 0 .34.23.49.68.65.82.29 1.3.68 1.3 1.39s-.54 1.22-1.48 1.22" fill="#fff" stroke="none"/><path clip-path="url(#k)" d="M188.86 94.88c-.84 0-1.53.65-1.53 1.6s.69 1.58 1.53 1.58 1.52-.64 1.52-1.58-.69-1.6-1.52-1.6m0 3.82c-1.27 0-2.26-.92-2.26-2.23s.99-2.24 2.26-2.24 2.25.92 2.25 2.24-.98 2.23-2.25 2.23" fill="#fff" stroke="none"/><path clip-path="url(#k)" d="M194.92 98.59V95.81c0-.52-.35-.96-1.09-.96-.71 0-1.12.44-1.12.96v2.78h-.73V94.32h.67v.59h.01c.16-.38.58-.7 1.35-.7.93 0 1.63.58 1.63 1.53v2.85Z" fill="#fff" stroke="none"/><path clip-path="url(#k)" d="M198.98 96.57l-.91.08c-.57.06-.85.38-.85.76 0 .37.29.66.74.66.53 0 1.03-.4 1.03-1.03Zm.76 2.13c-.29-.07-.62-.32-.68-.72-.18.5-.66.72-1.18.72-.83 0-1.37-.59-1.37-1.29 0-.83.67-1.27 1.39-1.34l1.07-.1v-.34c0-.45-.3-.77-.92-.77-.42 0-.86.13-1.15.33l-.15-.6c.36-.24.83-.36 1.34-.36.93 0 1.61.53 1.61 1.49v1.84c0 .4.23.63.5.68Z" fill="#fff" stroke="none"/><path clip-path="url(#k)" d="M201.67 98.75c-.31-.08-.79-.38-.79-1.13V91.88h.72v5.64c0 .41.28.67.57.73Z" fill="#fff" stroke="none"/><path clip-path="url(#k)" d="M203.01 94.32h.74v4.27h-.74Zm.37-.84c-.15 0-.46-.32-.46-.47s.31-.46.46-.46c.16 0 .47.3.47.46s-.31.47-.47.47" fill="#fff" stroke="none"/><path clip-path="url(#k)" d="M204.73 98.59v-.15l1.42-2.34c.23-.37.5-.84.73-1.18l-.01-.02h-1.99v-.59h3.04v.15l-1.43 2.34c-.23.38-.47.77-.73 1.18l.01.02h2.32v.58Z" fill="#fff" stroke="none"/><path clip-path="url(#k)" d="M211.22 96.57l-.91.08c-.57.06-.85.38-.85.76 0 .37.29.66.74.66.53 0 1.03-.4 1.03-1.03Zm.76 2.13c-.29-.07-.62-.32-.68-.72-.18.5-.66.72-1.18.72-.83 0-1.37-.59-1.37-1.29 0-.83.67-1.27 1.39-1.34l1.07-.1v-.34c0-.45-.3-.77-.92-.77-.42 0-.86.13-1.15.33l-.15-.6c.36-.24.83-.36 1.34-.36.93 0 1.61.53 1.61 1.49v1.84c0 .4.23.63.5.68Z" fill="#fff" stroke="none"/><path clip-path="url(#k)" d="M216.2 95.34c-.17-.19-.55-.46-1.14-.46-.84 0-1.51.65-1.51 1.59 0 .95.67 1.59 1.51 1.59.56 0 .95-.28 1.14-.56Zm.04 3.25v-.47h-.01c-.2.28-.63.58-1.32.58-1.01 0-2.09-.8-2.09-2.23 0-1.31.93-2.24 2.18-2.24.51 0 1.03.21 1.21.41V91.88h.73v6.71Z" fill="#fff" stroke="none"/><path clip-path="url(#k)" d="M220.31 96.57l-.91.08c-.57.06-.85.38-.85.76 0 .37.29.66.74.66.53 0 1.03-.4 1.03-1.03Zm.76 2.13c-.29-.07-.62-.32-.68-.72-.18.5-.66.72-1.18.72-.83 0-1.37-.59-1.37-1.29 0-.83.67-1.27 1.39-1.34l1.07-.1v-.34c0-.45-.3-.77-.92-.77-.42 0-.86.13-1.15.33l-.15-.6c.36-.24.83-.36 1.34-.36.93 0 1.61.53 1.61 1.49v1.84c0 .4.23.63.5.68Z" fill="#fff" stroke="none"/><path clip-path="url(#l)" d="M25.29 61.44h.97v.97h-.97Z" fill="#fff" stroke="none"/><path clip-path="url(#l)" d="M26.27 61.44h.97v.97h-.97Z" fill="#fff" stroke="none"/><path clip-path="url(#l)" d="M27.24 61.44h.97v.97h-.97Z" fill="#fff" stroke="none"/><path clip-path="url(#l)" d="M28.21 61.44h.97v.97h-.97Z" fill="#fff" stroke="none"/><path clip-path="url(#l)" d="M29.19 61.44h.97v.97h-.97Z" fill="#fff" stroke="none"/><path clip-path="url(#l)" d="M30.16 61.44h.97v.97h-.97Z" fill="#fff" stroke="none"/><path clip-path="url(#l)" d="M31.14 61.44h.97v.97h-.97Z" fill="#fff" stroke="none"/><path clip-path="url(#l)" d="M33.08 61.44h.97v.97h-.97Z" fill="#fff" stroke="none"/><path clip-path="url(#l)" d="M34.06 61.44h.97v.97h-.97Z" fill="#fff" stroke="none"/><path clip-path="url(#l)" d="M35.03 61.44h.97v.97h-.97Z" fill="#fff" stroke="none"/><path clip-path="url(#l)" d="M36 61.44h.97v.97H36Z" fill="#fff" stroke="none"/><path clip-path="url(#l)" d="M37.95 61.44h.97v.97h-.97Z" fill="#fff" stroke="none"/><path clip-path="url(#l)" d="M38.93 61.44h.97v.97h-.97Z" fill="#fff" stroke="none"/><path clip-path="url(#l)" d="M42.82 61.44h.97v.97h-.97Z" fill="#fff" stroke="none"/><path clip-path="url(#l)" d="M43.79 61.44h.97v.97h-.97Z" fill="#fff" stroke="none"/><path clip-path="url(#l)" d="M44.77 61.44h.97v.97h-.97Z" fill="#fff" stroke="none"/><path clip-path="url(#l)" d="M45.74 61.44h.97v.97h-.97Z" fill="#fff" stroke="none"/><path clip-path="url(#l)" d="M46.72 61.44h.97v.97h-.97Z" fill="#fff" stroke="none"/><path clip-path="url(#l)" d="M47.69 61.44h.97v.97h-.97Z" fill="#fff" stroke="none"/><path clip-path="url(#l)" d="M48.66 61.44h.97v.97h-.97Z" fill="#fff" stroke="none"/><path clip-path="url(#l)" d="M25.29 62.41h.97v.97h-.97Z" fill="#fff" stroke="none"/><path clip-path="url(#l)" d="M31.14 62.41h.97v.97h-.97Z" fill="#fff" stroke="none"/><path clip-path="url(#l)" d="M33.08 62.41h.97v.97h-.97Z" fill="#fff" stroke="none"/><path clip-path="url(#l)" d="M36 62.41h.97v.97H36Z" fill="#fff" stroke="none"/><path clip-path="url(#l)" d="M38.93 62.41h.97v.97h-.97Z" fill="#fff" stroke="none"/><path clip-path="url(#l)" d="M40.87 62.41h.97v.97h-.97Z" fill="#fff" stroke="none"/><path clip-path="url(#l)" d="M42.82 62.41h.97v.97h-.97Z" fill="#fff" stroke="none"/><path clip-path="url(#l)" d="M48.66 62.41h.97v.97h-.97Z" fill="#fff" stroke="none"/><path clip-path="url(#l)" d="M25.29 63.39h.97v.97h-.97Z" fill="#fff" stroke="none"/><path clip-path="url(#l)" d="M27.24 63.39h.97v.97h-.97Z" fill="#fff" stroke="none"/><path clip-path="url(#l)" d="M28.21 63.39h.97v.97h-.97Z" fill="#fff" stroke="none"/><path clip-path="url(#l)" d="M29.19 63.39h.97v.97h-.97Z" fill="#fff" stroke="none"/><path clip-path="url(#l)" d="M31.14 63.39h.97v.97h-.97Z" fill="#fff" stroke="none"/><path clip-path="url(#l)" d="M34.06 63.39h.97v.97h-.97Z" fill="#fff" stroke="none"/><path clip-path="url(#l)" d="M37.95 63.39h.97v.97h-.97Z" fill="#fff" stroke="none"/><path clip-path="url(#l)" d="M38.93 63.39h.97v.97h-.97Z" fill="#fff" stroke="none"/><path clip-path="url(#l)" d="M42.82 63.39h.97v.97h-.97Z" fill="#fff" stroke="none"/><path clip-path="url(#l)" d="M44.77 63.39h.97v.97h-.97Z" fill="#fff" stroke="none"/><path clip-path="url(#l)" d="M45.74 63.39h.97v.97h-.97Z" fill="#fff" stroke="none"/><path clip-path="url(#l)" d="M46.72 63.39h.97v.97h-.97Z" fill="#fff" stroke="none"/><path clip-path="url(#l)" d="M48.66 63.39h.97v.97h-.97Z" fill="#fff" stroke="none"/><path clip-path="url(#l)" d="M25.29 64.36h.97v.97h-.97Z" fill="#fff" stroke="none"/><path clip-path="url(#l)" d="M27.24 64.36h.97v.97h-.97Z" fill="#fff" stroke="none"/><path clip-path="url(#l)" d="M28.21 64.36h.97v.97h-.97Z" fill="#fff" stroke="none"/><path clip-path="url(#l)" d="M29.19 64.36h.97v.97h-.97Z" fill="#fff" stroke="none"/><path clip-path="url(#l)" d="M31.14 64.36h.97v.97h-.97Z" fill="#fff" stroke="none"/><path clip-path="url(#l)" d="M36 64.36h.97v.97H36Z" fill="#fff" stroke="none"/><path clip-path="url(#l)" d="M36.98 64.36h.97v.97h-.97Z" fill="#fff" stroke="none"/><path clip-path="url(#l)" d="M37.95 64.36h.97v.97h-.97Z" fill="#fff" stroke="none"/><path clip-path="url(#l)" d="M38.93 64.36h.97v.97h-.97Z" fill="#fff" stroke="none"/><path clip-path="url(#l)" d="M39.9 64.36h.97v.97H39.9Z" fill="#fff" stroke="none"/><path clip-path="url(#l)" d="M42.82 64.36h.97v.97h-.97Z" fill="#fff" stroke="none"/><path clip-path="url(#l)" d="M44.77 64.36h.97v.97h-.97Z" fill="#fff" stroke="none"/><path clip-path="url(#l)" d="M45.74 64.36h.97v.97h-.97Z" fill="#fff" stroke="none"/><path clip-path="url(#l)" d="M46.72 64.36h.97v.97h-.97Z" fill="#fff" stroke="none"/><path clip-path="url(#l)" d="M48.66 64.36h.97v.97h-.97Z" fill="#fff" stroke="none"/><path clip-path="url(#l)" d="M25.29 65.33h.97v.97h-.97Z" fill="#fff" stroke="none"/><path clip-path="url(#l)" d="M27.24 65.33h.97v.97h-.97Z" fill="#fff" stroke="none"/><path clip-path="url(#l)" d="M28.21 65.33h.97v.97h-.97Z" fill="#fff" stroke="none"/><path clip-path="url(#l)" d="M29.19 65.33h.97v.97h-.97Z" fill="#fff" stroke="none"/><path clip-path="url(#l)" d="M31.14 65.33h.97v.97h-.97Z" fill="#fff" stroke="none"/><path clip-path="url(#l)" d="M33.08 65.33h.97v.97h-.97Z" fill="#fff" stroke="none"/><path clip-path="url(#l)" d="M36 65.33h.97v.97H36Z" fill="#fff" stroke="none"/><path clip-path="url(#l)" d="M36.98 65.33h.97v.97h-.97Z" fill="#fff" stroke="none"/><path clip-path="url(#l)" d="M37.95 65.33h.97v.97h-.97Z" fill="#fff" stroke="none"/><path clip-path="url(#l)" d="M38.93 65.33h.97v.97h-.97Z" fill="#fff" stroke="none"/><path clip-path="url(#l)" d="M40.87 65.33h.97v.97h-.97Z" fill="#fff" stroke="none"/><path clip-path="url(#l)" d="M42.82 65.33h.97v.97h-.97Z" fill="#fff" stroke="none"/><path clip-path="url(#l)" d="M44.77 65.33h.97v.97h-.97Z" fill="#fff" stroke="none"/><path clip-path="url(#l)" d="M45.74 65.33h.97v.97h-.97Z" fill="#fff" stroke="none"/><path clip-path="url(#l)" d="M46.72 65.33h.97v.97h-.97Z" fill="#fff" stroke="none"/><path clip-path="url(#l)" d="M48.66 65.33h.97v.97h-.97Z" fill="#fff" stroke="none"/><path clip-path="url(#l)" d="M25.29 66.31h.97v.97h-.97Z" fill="#fff" stroke="none"/><path clip-path="url(#l)" d="M31.14 66.31h.97v.97h-.97Z" fill="#fff" stroke="none"/><path clip-path="url(#l)" d="M33.08 66.31h.97v.97h-.97Z" fill="#fff" stroke="none"/><path clip-path="url(#l)" d="M34.06 66.31h.97v.97h-.97Z" fill="#fff" stroke="none"/><path clip-path="url(#l)" d="M35.03 66.31h.97v.97h-.97Z" fill="#fff" stroke="none"/><path clip-path="url(#l)" d="M36.98 66.31h.97v.97h-.97Z" fill="#fff" stroke="none"/><path clip-path="url(#l)" d="M37.95 66.31h.97v.97h-.97Z" fill="#fff" stroke="none"/><path clip-path="url(#l)" d="M38.93 66.31h.97v.97h-.97Z" fill="#fff" stroke="none"/><path clip-path="url(#l)" d="M40.87 66.31h.97v.97h-.97Z" fill="#fff" stroke="none"/><path clip-path="url(#l)" d="M42.82 66.31h.97v.97h-.97Z" fill="#fff" stroke="none"/><path clip-path="url(#l)" d="M48.66 66.31h.97v.97h-.97Z" fill="#fff" stroke="none"/><path clip-path="url(#l)" d="M25.29 67.28h.97v.97h-.97Z" fill="#fff" stroke="none"/><path clip-path="url(#l)" d="M26.27 67.28h.97v.97h-.97Z" fill="#fff" stroke="none"/><path clip-path="url(#l)" d="M27.24 67.28h.97v.97h-.97Z" fill="#fff" stroke="none"/><path clip-path="url(#l)" d="M28.21 67.28h.97v.97h-.97Z" fill="#fff" stroke="none"/><path clip-path="url(#l)" d="M29.19 67.28h.97v.97h-.97Z" fill="#fff" stroke="none"/><path clip-path="url(#l)" d="M30.16 67.28h.97v.97h-.97Z" fill="#fff" stroke="none"/><path clip-path="url(#l)" d="M31.14 67.28h.97v.97h-.97Z" fill="#fff" stroke="none"/><path clip-path="url(#l)" d="M33.08 67.28h.97v.97h-.97Z" fill="#fff" stroke="none"/><path clip-path="url(#l)" d="M35.03 67.28h.97v.97h-.97Z" fill="#fff" stroke="none"/><path clip-path="url(#l)" d="M36.98 67.28h.97v.97h-.97Z" fill="#fff" stroke="none"/><path clip-path="url(#l)" d="M38.93 67.28h.97v.97h-.97Z" fill="#fff" stroke="none"/><path clip-path="url(#l)" d="M40.87 67.28h.97v.97h-.97Z" fill="#fff" stroke="none"/><path clip-path="url(#l)" d="M42.82 67.28h.97v.97h-.97Z" fill="#fff" stroke="none"/><path clip-path="url(#l)" d="M43.79 67.28h.97v.97h-.97Z" fill="#fff" stroke="none"/><path clip-path="url(#l)" d="M44.77 67.28h.97v.97h-.97Z" fill="#fff" stroke="none"/><path clip-path="url(#l)" d="M45.74 67.28h.97v.97h-.97Z" fill="#fff" stroke="none"/><path clip-path="url(#l)" d="M46.72 67.28h.97v.97h-.97Z" fill="#fff" stroke="none"/><path clip-path="url(#l)" d="M47.69 67.28h.97v.97h-.97Z" fill="#fff" stroke="none"/><path clip-path="url(#l)" d="M48.66 67.28h.97v.97h-.97Z" fill="#fff" stroke="none"/><path clip-path="url(#l)" d="M33.08 68.26h.97v.97h-.97Z" fill="#fff" stroke="none"/><path clip-path="url(#l)" d="M34.06 68.26h.97v.97h-.97Z" fill="#fff" stroke="none"/><path clip-path="url(#l)" d="M39.9 68.26h.97v.97H39.9Z" fill="#fff" stroke="none"/><path clip-path="url(#l)" d="M40.87 68.26h.97v.97h-.97Z" fill="#fff" stroke="none"/><path clip-path="url(#l)" d="M25.29 69.23h.97v.97h-.97Z" fill="#fff" stroke="none"/><path clip-path="url(#l)" d="M26.27 69.23h.97v.97h-.97Z" fill="#fff" stroke="none"/><path clip-path="url(#l)" d="M27.24 69.23h.97v.97h-.97Z" fill="#fff" stroke="none"/><path clip-path="url(#l)" d="M30.16 69.23h.97v.97h-.97Z" fill="#fff" stroke="none"/><path clip-path="url(#l)" d="M31.14 69.23h.97v.97h-.97Z" fill="#fff" stroke="none"/><path clip-path="url(#l)" d="M33.08 69.23h.97v.97h-.97Z" fill="#fff" stroke="none"/><path clip-path="url(#l)" d="M34.06 69.23h.97v.97h-.97Z" fill="#fff" stroke="none"/><path clip-path="url(#l)" d="M36 69.23h.97v.97H36Z" fill="#fff" stroke="none"/><path clip-path="url(#l)" d="M36.98 69.23h.97v.97h-.97Z" fill="#fff" stroke="none"/><path clip-path="url(#l)" d="M40.87 69.23h.97v.97h-.97Z" fill="#fff" stroke="none"/><path clip-path="url(#l)" d="M41.85 69.23h.97v.97h-.97Z" fill="#fff" stroke="none"/><path clip-path="url(#l)" d="M42.82 69.23h.97v.97h-.97Z" fill="#fff" stroke="none"/><path clip-path="url(#l)" d="M43.79 69.23h.97v.97h-.97Z" fill="#fff" stroke="none"/><path clip-path="url(#l)" d="M44.77 69.23h.97v.97h-.97Z" fill="#fff" stroke="none"/><path clip-path="url(#l)" d="M47.69 69.23h.97v.97h-.97Z" fill="#fff" stroke="none"/><path clip-path="url(#l)" d="M48.66 69.23h.97v.97h-.97Z" fill="#fff" stroke="none"/><path clip-path="url(#l)" d="M26.27 70.2h.97v.97h-.97Z" fill="#fff" stroke="none"/><path clip-path="url(#l)" d="M29.19 70.2h.97v.97h-.97Z" fill="#fff" stroke="none"/><path clip-path="url(#l)" d="M33.08 70.2h.97v.97h-.97Z" fill="#fff" stroke="none"/><path clip-path="url(#l)" d="M36.98 70.2h.97v.97h-.97Z" fill="#fff" stroke="none"/><path clip-path="url(#l)" d="M38.93 70.2h.97v.97h-.97Z" fill="#fff" stroke="none"/><path clip-path="url(#l)" d="M39.9 70.2h.97v.97H39.9Z" fill="#fff" stroke="none"/><path clip-path="url(#l)" d="M40.87 70.2h.97v.97h-.97Z" fill="#fff" stroke="none"/><path clip-path="url(#l)" d="M41.85 70.2h.97v.97h-.97Z" fill="#fff" stroke="none"/><path clip-path="url(#l)" d="M42.82 70.2h.97v.97h-.97Z" fill="#fff" stroke="none"/><path clip-path="url(#l)" d="M43.79 70.2h.97v.97h-.97Z" fill="#fff" stroke="none"/><path clip-path="url(#l)" d="M45.74 70.2h.97v.97h-.97Z" fill="#fff" stroke="none"/><path clip-path="url(#l)" d="M47.69 70.2h.97v.97h-.97Z" fill="#fff" stroke="none"/><path clip-path="url(#l)" d="M48.66 70.2h.97v.97h-.97Z" fill="#fff" stroke="none"/><path clip-path="url(#l)" d="M25.29 71.18h.97v.97h-.97Z" fill="#fff" stroke="none"/><path clip-path="url(#l)" d="M26.27 71.18h.97v.97h-.97Z" fill="#fff" stroke="none"/><path clip-path="url(#l)" d="M27.24 71.18h.97v.97h-.97Z" fill="#fff" stroke="none"/><path clip-path="url(#l)" d="M28.21 71.18h.97v.97h-.97Z" fill="#fff" stroke="none"/><path clip-path="url(#l)" d="M30.16 71.18h.97v.97h-.97Z" fill="#fff" stroke="none"/><path clip-path="url(#l)" d="M31.14 71.18h.97v.97h-.97Z" fill="#fff" stroke="none"/><path clip-path="url(#l)" d="M32.11 71.18h.97v.97h-.97Z" fill="#fff" stroke="none"/><path clip-path="url(#l)" d="M33.08 71.18h.97v.97h-.97Z" fill="#fff" stroke="none"/><path clip-path="url(#l)" d="M34.06 71.18h.97v.97h-.97Z" fill="#fff" stroke="none"/><path clip-path="url(#l)" d="M35.03 71.18h.97v.97h-.97Z" fill="#fff" stroke="none"/><path clip-path="url(#l)" d="M36.98 71.18h.97v.97h-.97Z" fill="#fff" stroke="none"/><path clip-path="url(#l)" d="M38.93 71.18h.97v.97h-.97Z" fill="#fff" stroke="none"/><path clip-path="url(#l)" d="M39.9 71.18h.97v.97H39.9Z" fill="#fff" stroke="none"/><path clip-path="url(#l)" d="M41.85 71.18h.97v.97h-.97Z" fill="#fff" stroke="none"/><path clip-path="url(#l)" d="M43.79 71.18h.97v.97h-.97Z" fill="#fff" stroke="none"/><path clip-path="url(#l)" d="M44.77 71.18h.97v.97h-.97Z" fill="#fff" stroke="none"/><path clip-path="url(#l)" d="M45.74 71.18h.97v.97h-.97Z" fill="#fff" stroke="none"/><path clip-path="url(#l)" d="M46.72 71.18h.97v.97h-.97Z" fill="#fff" stroke="none"/><path clip-path="url(#l)" d="M48.66 71.18h.97v.97h-.97Z" fill="#fff" stroke="none"/><path clip-path="url(#l)" d="M25.29 72.15h.97v.97h-.97Z" fill="#fff" stroke="none"/><path clip-path="url(#l)" d="M27.24 72.15h.97v.97h-.97Z" fill="#fff" stroke="none"/><path clip-path="url(#l)" d="M28.21 72.15h.97v.97h-.97Z" fill="#fff" stroke="none"/><path clip-path="url(#l)" d="M30.16 72.15h.97v.97h-.97Z" fill="#fff" stroke="none"/><path clip-path="url(#l)" d="M32.11 72.15h.97v.97h-.97Z" fill="#fff" stroke="none"/><path clip-path="url(#l)" d="M35.03 72.15h.97v.97h-.97Z" fill="#fff" stroke="none"/><path clip-path="url(#l)" d="M36 72.15h.97v.97H36Z" fill="#fff" stroke="none"/><path clip-path="url(#l)" d="M36.98 72.15h.97v.97h-.97Z" fill="#fff" stroke="none"/><path clip-path="url(#l)" d="M38.93 72.15h.97v.97h-.97Z" fill="#fff" stroke="none"/><path clip-path="url(#l)" d="M41.85 72.15h.97v.97h-.97Z" fill="#fff" stroke="none"/><path clip-path="url(#l)" d="M44.77 72.15h.97v.97h-.97Z" fill="#fff" stroke="none"/><path clip-path="url(#l)" d="M45.74 72.15h.97v.97h-.97Z" fill="#fff" stroke="none"/><path clip-path="url(#l)" d="M26.27 73.12h.97v.97h-.97Z" fill="#fff" stroke="none"/><path clip-path="url(#l)" d="M27.24 73.12h.97v.97h-.97Z" fill="#fff" stroke="none"/><path clip-path="url(#l)" d="M31.14 73.12h.97v.97h-.97Z" fill="#fff" stroke="none"/><path clip-path="url(#l)" d="M32.11 73.12h.97v.97h-.97Z" fill="#fff" stroke="none"/><path clip-path="url(#l)" d="M34.06 73.12h.97v.97h-.97Z" fill="#fff" stroke="none"/><path clip-path="url(#l)" d="M35.03 73.12h.97v.97h-.97Z" fill="#fff" stroke="none"/><path clip-path="url(#l)" d="M38.93 73.12h.97v.97h-.97Z" fill="#fff" stroke="none"/><path clip-path="url(#l)" d="M40.87 73.12h.97v.97h-.97Z" fill="#fff" stroke="none"/><path clip-path="url(#l)" d="M42.82 73.12h.97v.97h-.97Z" fill="#fff" stroke="none"/><path clip-path="url(#l)" d="M43.79 73.12h.97v.97h-.97Z" fill="#fff" stroke="none"/><path clip-path="url(#l)" d="M48.66 73.12h.97v.97h-.97Z" fill="#fff" stroke="none"/><path clip-path="url(#l)" d="M26.27 74.1h.97v.97h-.97Z" fill="#fff" stroke="none"/><path clip-path="url(#l)" d="M27.24 74.1h.97v.97h-.97Z" fill="#fff" stroke="none"/><path clip-path="url(#l)" d="M30.16 74.1h.97v.97h-.97Z" fill="#fff" stroke="none"/><path clip-path="url(#l)" d="M32.11 74.1h.97v.97h-.97Z" fill="#fff" stroke="none"/><path clip-path="url(#l)" d="M34.06 74.1h.97v.97h-.97Z" fill="#fff" stroke="none"/><path clip-path="url(#l)" d="M35.03 74.1h.97v.97h-.97Z" fill="#fff" stroke="none"/><path clip-path="url(#l)" d="M38.93 74.1h.97v.97h-.97Z" fill="#fff" stroke="none"/><path clip-path="url(#l)" d="M39.9 74.1h.97v.97H39.9Z" fill="#fff" stroke="none"/><path clip-path="url(#l)" d="M40.87 74.1h.97v.97h-.97Z" fill="#fff" stroke="none"/><path clip-path="url(#l)" d="M41.85 74.1h.97v.97h-.97Z" fill="#fff" stroke="none"/><path clip-path="url(#l)" d="M42.82 74.1h.97v.97h-.97Z" fill="#fff" stroke="none"/><path clip-path="url(#l)" d="M43.79 74.1h.97v.97h-.97Z" fill="#fff" stroke="none"/><path clip-path="url(#l)" d="M47.69 74.1h.97v.97h-.97Z" fill="#fff" stroke="none"/><path clip-path="url(#l)" d="M48.66 74.1h.97v.97h-.97Z" fill="#fff" stroke="none"/><path clip-path="url(#l)" d="M25.29 75.07h.97v.97h-.97Z" fill="#fff" stroke="none"/><path clip-path="url(#l)" d="M26.27 75.07h.97v.97h-.97Z" fill="#fff" stroke="none"/><path clip-path="url(#l)" d="M27.24 75.07h.97v.97h-.97Z" fill="#fff" stroke="none"/><path clip-path="url(#l)" d="M28.21 75.07h.97v.97h-.97Z" fill="#fff" stroke="none"/><path clip-path="url(#l)" d="M29.19 75.07h.97v.97h-.97Z" fill="#fff" stroke="none"/><path clip-path="url(#l)" d="M30.16 75.07h.97v.97h-.97Z" fill="#fff" stroke="none"/><path clip-path="url(#l)" d="M31.14 75.07h.97v.97h-.97Z" fill="#fff" stroke="none"/><path clip-path="url(#l)" d="M35.03 75.07h.97v.97h-.97Z" fill="#fff" stroke="none"/><path clip-path="url(#l)" d="M36 75.07h.97v.97H36Z" fill="#fff" stroke="none"/><path clip-path="url(#l)" d="M39.9 75.07h.97v.97H39.9Z" fill="#fff" stroke="none"/><path clip-path="url(#l)" d="M40.87 75.07h.97v.97h-.97Z" fill="#fff" stroke="none"/><path clip-path="url(#l)" d="M41.85 75.07h.97v.97h-.97Z" fill="#fff" stroke="none"/><path clip-path="url(#l)" d="M42.82 75.07h.97v.97h-.97Z" fill="#fff" stroke="none"/><path clip-path="url(#l)" d="M45.74 75.07h.97v.97h-.97Z" fill="#fff" stroke="none"/><path clip-path="url(#l)" d="M46.72 75.07h.97v.97h-.97Z" fill="#fff" stroke="none"/><path clip-path="url(#l)" d="M48.66 75.07h.97v.97h-.97Z" fill="#fff" stroke="none"/><path clip-path="url(#l)" d="M27.24 76.05h.97v.97h-.97Z" fill="#fff" stroke="none"/><path clip-path="url(#l)" d="M32.11 76.05h.97v.97h-.97Z" fill="#fff" stroke="none"/><path clip-path="url(#l)" d="M33.08 76.05h.97v.97h-.97Z" fill="#fff" stroke="none"/><path clip-path="url(#l)" d="M35.03 76.05h.97v.97h-.97Z" fill="#fff" stroke="none"/><path clip-path="url(#l)" d="M38.93 76.05h.97v.97h-.97Z" fill="#fff" stroke="none"/><path clip-path="url(#l)" d="M39.9 76.05h.97v.97H39.9Z" fill="#fff" stroke="none"/><path clip-path="url(#l)" d="M40.87 76.05h.97v.97h-.97Z" fill="#fff" stroke="none"/><path clip-path="url(#l)" d="M43.79 76.05h.97v.97h-.97Z" fill="#fff" stroke="none"/><path clip-path="url(#l)" d="M44.77 76.05h.97v.97h-.97Z" fill="#fff" stroke="none"/><path clip-path="url(#l)" d="M45.74 76.05h.97v.97h-.97Z" fill="#fff" stroke="none"/><path clip-path="url(#l)" d="M25.29 77.02h.97v.97h-.97Z" fill="#fff" stroke="none"/><path clip-path="url(#l)" d="M26.27 77.02h.97v.97h-.97Z" fill="#fff" stroke="none"/><path clip-path="url(#l)" d="M31.14 77.02h.97v.97h-.97Z" fill="#fff" stroke="none"/><path clip-path="url(#l)" d="M32.11 77.02h.97v.97h-.97Z" fill="#fff" stroke="none"/><path clip-path="url(#l)" d="M33.08 77.02h.97v.97h-.97Z" fill="#fff" stroke="none"/><path clip-path="url(#l)" d="M34.06 77.02h.97v.97h-.97Z" fill="#fff" stroke="none"/><path clip-path="url(#l)" d="M36 77.02h.97v.97H36Z" fill="#fff" stroke="none"/><path clip-path="url(#l)" d="M36.98 77.02h.97v.97h-.97Z" fill="#fff" stroke="none"/><path clip-path="url(#l)" d="M38.93 77.02h.97v.97h-.97Z" fill="#fff" stroke="none"/><path clip-path="url(#l)" d="M40.87 77.02h.97v.97h-.97Z" fill="#fff" stroke="none"/><path clip-path="url(#l)" d="M41.85 77.02h.97v.97h-.97Z" fill="#fff" stroke="none"/><path clip-path="url(#l)" d="M42.82 77.02h.97v.97h-.97Z" fill="#fff" stroke="none"/><path clip-path="url(#l)" d="M43.79 77.02h.97v.97h-.97Z" fill="#fff" stroke="none"/><path clip-path="url(#l)" d="M44.77 77.02h.97v.97h-.97Z" fill="#fff" stroke="none"/><path clip-path="url(#l)" d="M47.69 77.02h.97v.97h-.97Z" fill="#fff" stroke="none"/><path clip-path="url(#l)" d="M33.08 77.99h.97v.97h-.97Z" fill="#fff" stroke="none"/><path clip-path="url(#l)" d="M36.98 77.99h.97v.97h-.97Z" fill="#fff" stroke="none"/><path clip-path="url(#l)" d="M37.95 77.99h.97v.97h-.97Z" fill="#fff" stroke="none"/><path clip-path="url(#l)" d="M38.93 77.99h.97v.97h-.97Z" fill="#fff" stroke="none"/><path clip-path="url(#l)" d="M40.87 77.99h.97v.97h-.97Z" fill="#fff" stroke="none"/><path clip-path="url(#l)" d="M44.77 77.99h.97v.97h-.97Z" fill="#fff" stroke="none"/><path clip-path="url(#l)" d="M48.66 77.99h.97v.97h-.97Z" fill="#fff" stroke="none"/><path clip-path="url(#l)" d="M25.29 78.97h.97v.97h-.97Z" fill="#fff" stroke="none"/><path clip-path="url(#l)" d="M26.27 78.97h.97v.97h-.97Z" fill="#fff" stroke="none"/><path clip-path="url(#l)" d="M27.24 78.97h.97v.97h-.97Z" fill="#fff" stroke="none"/><path clip-path="url(#l)" d="M28.21 78.97h.97v.97h-.97Z" fill="#fff" stroke="none"/><path clip-path="url(#l)" d="M29.19 78.97h.97v.97h-.97Z" fill="#fff" stroke="none"/><path clip-path="url(#l)" d="M30.16 78.97h.97v.97h-.97Z" fill="#fff" stroke="none"/><path clip-path="url(#l)" d="M31.14 78.97h.97v.97h-.97Z" fill="#fff" stroke="none"/><path clip-path="url(#l)" d="M35.03 78.97h.97v.97h-.97Z" fill="#fff" stroke="none"/><path clip-path="url(#l)" d="M36.98 78.97h.97v.97h-.97Z" fill="#fff" stroke="none"/><path clip-path="url(#l)" d="M37.95 78.97h.97v.97h-.97Z" fill="#fff" stroke="none"/><path clip-path="url(#l)" d="M38.93 78.97h.97v.97h-.97Z" fill="#fff" stroke="none"/><path clip-path="url(#l)" d="M40.87 78.97h.97v.97h-.97Z" fill="#fff" stroke="none"/><path clip-path="url(#l)" d="M42.82 78.97h.97v.97h-.97Z" fill="#fff" stroke="none"/><path clip-path="url(#l)" d="M44.77 78.97h.97v.97h-.97Z" fill="#fff" stroke="none"/><path clip-path="url(#l)" d="M48.66 78.97h.97v.97h-.97Z" fill="#fff" stroke="none"/><path clip-path="url(#l)" d="M25.29 79.94h.97v.97h-.97Z" fill="#fff" stroke="none"/><path clip-path="url(#l)" d="M31.14 79.94h.97v.97h-.97Z" fill="#fff" stroke="none"/><path clip-path="url(#l)" d="M33.08 79.94h.97v.97h-.97Z" fill="#fff" stroke="none"/><path clip-path="url(#l)" d="M36 79.94h.97v.97H36Z" fill="#fff" stroke="none"/><path clip-path="url(#l)" d="M36.98 79.94h.97v.97h-.97Z" fill="#fff" stroke="none"/><path clip-path="url(#l)" d="M40.87 79.94h.97v.97h-.97Z" fill="#fff" stroke="none"/><path clip-path="url(#l)" d="M44.77 79.94h.97v.97h-.97Z" fill="#fff" stroke="none"/><path clip-path="url(#l)" d="M25.29 80.91h.97v.97h-.97Z" fill="#fff" stroke="none"/><path clip-path="url(#l)" d="M27.24 80.91h.97v.97h-.97Z" fill="#fff" stroke="none"/><path clip-path="url(#l)" d="M28.21 80.91h.97v.97h-.97Z" fill="#fff" stroke="none"/><path clip-path="url(#l)" d="M29.19 80.91h.97v.97h-.97Z" fill="#fff" stroke="none"/><path clip-path="url(#l)" d="M31.14 80.91h.97v.97h-.97Z" fill="#fff" stroke="none"/><path clip-path="url(#l)" d="M34.06 80.91h.97v.97h-.97Z" fill="#fff" stroke="none"/><path clip-path="url(#l)" d="M35.03 80.91h.97v.97h-.97Z" fill="#fff" stroke="none"/><path clip-path="url(#l)" d="M36.98 80.91h.97v.97h-.97Z" fill="#fff" stroke="none"/><path clip-path="url(#l)" d="M38.93 80.91h.97v.97h-.97Z" fill="#fff" stroke="none"/><path clip-path="url(#l)" d="M39.9 80.91h.97v.97H39.9Z" fill="#fff" stroke="none"/><path clip-path="url(#l)" d="M40.87 80.91h.97v.97h-.97Z" fill="#fff" stroke="none"/><path clip-path="url(#l)" d="M41.85 80.91h.97v.97h-.97Z" fill="#fff" stroke="none"/><path clip-path="url(#l)" d="M42.82 80.91h.97v.97h-.97Z" fill="#fff" stroke="none"/><path clip-path="url(#l)" d="M43.79 80.91h.97v.97h-.97Z" fill="#fff" stroke="none"/><path clip-path="url(#l)" d="M44.77 80.91h.97v.97h-.97Z" fill="#fff" stroke="none"/><path clip-path="url(#l)" d="M47.69 80.91h.97v.97h-.97Z" fill="#fff" stroke="none"/><path clip-path="url(#l)" d="M25.29 81.89h.97v.97h-.97Z" fill="#fff" stroke="none"/><path clip-path="url(#l)" d="M27.24 81.89h.97v.97h-.97Z" fill="#fff" stroke="none"/><path clip-path="url(#l)" d="M28.21 81.89h.97v.97h-.97Z" fill="#fff" stroke="none"/><path clip-path="url(#l)" d="M29.19 81.89h.97v.97h-.97Z" fill="#fff" stroke="none"/><path clip-path="url(#l)" d="M31.14 81.89h.97v.97h-.97Z" fill="#fff" stroke="none"/><path clip-path="url(#l)" d="M35.03 81.89h.97v.97h-.97Z" fill="#fff" stroke="none"/><path clip-path="url(#l)" d="M37.95 81.89h.97v.97h-.97Z" fill="#fff" stroke="none"/><path clip-path="url(#l)" d="M38.93 81.89h.97v.97h-.97Z" fill="#fff" stroke="none"/><path clip-path="url(#l)" d="M39.9 81.89h.97v.97H39.9Z" fill="#fff" stroke="none"/><path clip-path="url(#l)" d="M41.85 81.89h.97v.97h-.97Z" fill="#fff" stroke="none"/><path clip-path="url(#l)" d="M44.77 81.89h.97v.97h-.97Z" fill="#fff" stroke="none"/><path clip-path="url(#l)" d="M46.72 81.89h.97v.97h-.97Z" fill="#fff" stroke="none"/><path clip-path="url(#l)" d="M47.69 81.89h.97v.97h-.97Z" fill="#fff" stroke="none"/><path clip-path="url(#l)" d="M25.29 82.86h.97v.97h-.97Z" fill="#fff" stroke="none"/><path clip-path="url(#l)" d="M27.24 82.86h.97v.97h-.97Z" fill="#fff" stroke="none"/><path clip-path="url(#l)" d="M28.21 82.86h.97v.97h-.97Z" fill="#fff" stroke="none"/><path clip-path="url(#l)" d="M29.19 82.86h.97v.97h-.97Z" fill="#fff" stroke="none"/><path clip-path="url(#l)" d="M31.14 82.86h.97v.97h-.97Z" fill="#fff" stroke="none"/><path clip-path="url(#l)" d="M33.08 82.86h.97v.97h-.97Z" fill="#fff" stroke="none"/><path clip-path="url(#l)" d="M35.03 82.86h.97v.97h-.97Z" fill="#fff" stroke="none"/><path clip-path="url(#l)" d="M36 82.86h.97v.97H36Z" fill="#fff" stroke="none"/><path clip-path="url(#l)" d="M37.95 82.86h.97v.97h-.97Z" fill="#fff" stroke="none"/><path clip-path="url(#l)" d="M38.93 82.86h.97v.97h-.97Z" fill="#fff" stroke="none"/><path clip-path="url(#l)" d="M39.9 82.86h.97v.97H39.9Z" fill="#fff" stroke="none"/><path clip-path="url(#l)" d="M40.87 82.86h.97v.97h-.97Z" fill="#fff" stroke="none"/><path clip-path="url(#l)" d="M43.79 82.86h.97v.97h-.97Z" fill="#fff" stroke="none"/><path clip-path="url(#l)" d="M44.77 82.86h.97v.97h-.97Z" fill="#fff" stroke="none"/><path clip-path="url(#l)" d="M45.74 82.86h.97v.97h-.97Z" fill="#fff" stroke="none"/><path clip-path="url(#l)" d="M47.69 82.86h.97v.97h-.97Z" fill="#fff" stroke="none"/><path clip-path="url(#l)" d="M48.66 82.86h.97v.97h-.97Z" fill="#fff" stroke="none"/><path clip-path="url(#l)" d="M25.29 83.84h.97v.97h-.97Z" fill="#fff" stroke="none"/><path clip-path="url(#l)" d="M31.14 83.84h.97v.97h-.97Z" fill="#fff" stroke="none"/><path clip-path="url(#l)" d="M33.08 83.84h.97v.97h-.97Z" fill="#fff" stroke="none"/><path clip-path="url(#l)" d="M35.03 83.84h.97v.97h-.97Z" fill="#fff" stroke="none"/><path clip-path="url(#l)" d="M36 83.84h.97v.97H36Z" fill="#fff" stroke="none"/><path clip-path="url(#l)" d="M36.98 83.84h.97v.97h-.97Z" fill="#fff" stroke="none"/><path clip-path="url(#l)" d="M38.93 83.84h.97v.97h-.97Z" fill="#fff" stroke="none"/><path clip-path="url(#l)" d="M40.87 83.84h.97v.97h-.97Z" fill="#fff" stroke="none"/><path clip-path="url(#l)" d="M43.79 83.84h.97v.97h-.97Z" fill="#fff" stroke="none"/><path clip-path="url(#l)" d="M44.77 83.84h.97v.97h-.97Z" fill="#fff" stroke="none"/><path clip-path="url(#l)" d="M25.29 84.81h.97v.97h-.97Z" fill="#fff" stroke="none"/><path clip-path="url(#l)" d="M26.27 84.81h.97v.97h-.97Z" fill="#fff" stroke="none"/><path clip-path="url(#l)" d="M27.24 84.81h.97v.97h-.97Z" fill="#fff" stroke="none"/><path clip-path="url(#l)" d="M28.21 84.81h.97v.97h-.97Z" fill="#fff" stroke="none"/><path clip-path="url(#l)" d="M29.19 84.81h.97v.97h-.97Z" fill="#fff" stroke="none"/><path clip-path="url(#l)" d="M30.16 84.81h.97v.97h-.97Z" fill="#fff" stroke="none"/><path clip-path="url(#l)" d="M31.14 84.81h.97v.97h-.97Z" fill="#fff" stroke="none"/><path clip-path="url(#l)" d="M33.08 84.81h.97v.97h-.97Z" fill="#fff" stroke="none"/><path clip-path="url(#l)" d="M35.03 84.81h.97v.97h-.97Z" fill="#fff" stroke="none"/><path clip-path="url(#l)" d="M36 84.81h.97v.97H36Z" fill="#fff" stroke="none"/><path clip-path="url(#l)" d="M36.98 84.81h.97v.97h-.97Z" fill="#fff" stroke="none"/><path clip-path="url(#l)" d="M40.87 84.81h.97v.97h-.97Z" fill="#fff" stroke="none"/><path clip-path="url(#l)" d="M41.85 84.81h.97v.97h-.97Z" fill="#fff" stroke="none"/><path clip-path="url(#l)" d="M45.74 84.81h.97v.97h-.97Z" fill="#fff" stroke="none"/><path clip-path="url(#l)" d="M48.66 84.81h.97v.97h-.97Z" fill="#fff" stroke="none"/></g></g></svg>