<?xml version="1.0" encoding="UTF-8"?><svg xmlns="http://www.w3.org/2000/svg" color-interpolation="auto" height="236.77" stroke="#000" stroke-linecap="square" stroke-miterlimit="10" width="613.78"><defs><clipPath id="a"><path d="M5 5V231.77H608.78V5Z"/></clipPath><clipPath clip-path="url(#a)" id="b"><path d="M5 231.77H608.78V5H5Z"/></clipPath><clipPath clip-path="url(#b)" id="i"><path d="M5 5H608.78V231.77H5Z"/></clipPath><clipPath id="c"><path d="M5 5V231.77H608.78V5Z"/></clipPath><clipPath clip-path="url(#c)" id="d"><path d="M5 231.77H608.78V5H5Z"/></clipPath><clipPath clip-path="url(#d)" id="j"><path d="M5 5.07V231.77H334.76c28.86 0 52.26-23.4 52.26-52.26V5.07Z"/></clipPath><clipPath id="e"><path d="M5 5V231.77H608.78V5Z"/></clipPath><clipPath clip-path="url(#e)" id="f"><path d="M5 231.77H608.78V5H5Z"/></clipPath><clipPath clip-path="url(#f)" id="k"><path d="M5 5H608.78V231.77H5Z"/></clipPath><clipPath id="g"><path d="M5 5V231.77H608.78V5Z"/></clipPath><clipPath clip-path="url(#g)" id="h"><path d="M5 231.77H608.78V5H5Z"/></clipPath><clipPath clip-path="url(#h)" id="l"><path d="M5 5H608.78V231.77H5Z"/></clipPath></defs><g><g fill="#57207F" stroke="#57207F" stroke-linecap="butt" stroke-width=".25"><path clip-path="url(#i)" d="M608.78 231.77H5V5H608.78Z" fill="none"/><path clip-path="url(#i)" d="M4.99 5.06V231.77H334.76c28.86 0 52.26-23.4 52.26-52.26V5.06Z" fill="#611F7F" stroke="none"/><path clip-path="url(#j)" d="M17.39 230.49h32.1v45.55c0 15.73 10.03 28.53 25.77 28.53s28.53-12.8 28.53-28.53V230.49h32.1v45.55c0 33.43-27.2 60.63-60.63 60.63s-57.86-27.2-57.86-60.63V230.49Z" fill="none" stroke="#F16D00" stroke-width=".3"/><path clip-path="url(#j)" d="M17.24 220.47v-9.5c0-12.48 10.12-22.6 22.6-22.6H93.7v32.1H17.24Z" fill="none" stroke="#F16D00" stroke-width=".3"/><path clip-path="url(#j)" d="M103.4 220.3V188.37h31.98V220.3H103.4Z" fill="none" stroke="#F16D00" stroke-width=".3"/><path clip-path="url(#j)" d="M351.78 274.21H327.1V239.18c0-12.1-7.72-21.94-19.81-21.94s-21.94 9.84-21.94 21.94v35.02H260.67V239.18c0-25.71 20.91-46.62 46.62-46.62s44.49 20.91 44.49 46.62v35.02Z" fill="none" stroke="#F16D00" stroke-width=".3"/><path clip-path="url(#j)" d="M182.72 255.31v-18.5h26.26c9.07 0 16.45-5.78 16.45-14.85s-7.38-16.45-16.45-16.45H182.72V187h26.26c19.27 0 34.95 15.68 34.95 34.95s-15.68 33.36-34.95 33.36H182.72Z" fill="none" stroke="#fff" stroke-width=".3"/><path clip-path="url(#j)" d="M176.94 255.4h-5.48c-7.19 0-13.03-5.83-13.03-13.03V211.32h18.51V255.4Z" fill="none" stroke="#fff" stroke-width=".3"/><path clip-path="url(#j)" d="M176.85 205.73H158.44V187.29h18.41v18.44Z" fill="none" stroke="#fff" stroke-width=".3"/><path clip-path="url(#j)" d="M101.72 9.87H76.9V-25.34c0-12.17-7.76-22.06-19.92-22.06s-22.06 9.9-22.06 22.06V9.87H10.1V-25.34c0-25.85 21.03-46.88 46.88-46.88s44.74 21.03 44.74 46.88V9.87Z" fill="none" stroke="#fff" stroke-width=".3"/><path clip-path="url(#j)" d="M101.84 17.63v7.35c0 9.65-7.82 17.47-17.47 17.47H42.72V17.63h59.12Z" fill="none" stroke="#fff" stroke-width=".3"/><path clip-path="url(#j)" d="M35.21 17.76V42.45H10.49V17.76H35.21Z" fill="none" stroke="#fff" stroke-width=".3"/><path clip-path="url(#j)" d="M13.64 177.09V146.13H-30.28c-15.17 0-27.51-9.68-27.51-24.85s12.34-27.51 27.51-27.51H13.64V62.82H-30.28c-32.24 0-58.47 26.23-58.47 58.47s26.23 55.8 58.47 55.8H13.64Z" fill="none" stroke="#fff" stroke-width=".3"/><path clip-path="url(#j)" d="M23.31 177.23h9.16c12.04 0 21.79-9.76 21.79-21.79V103.5H23.31v73.73Z" fill="none" stroke="#fff" stroke-width=".3"/><path clip-path="url(#j)" d="M23.47 94.15H54.26V63.31H23.47V94.15Z" fill="none" stroke="#fff" stroke-width=".3"/><path clip-path="url(#j)" d="M207.98 42.31V14.22H168.12c-13.77 0-24.97-8.78-24.97-22.55s11.2-24.97 24.97-24.97h39.86V-61.39H168.12c-29.26 0-53.06 23.8-53.06 53.06s23.8 50.64 53.06 50.64h39.86Z" fill="none" stroke="#F16D00" stroke-width=".3"/><path clip-path="url(#j)" d="M216.76 42.45h8.31c10.92 0 19.78-8.85 19.78-19.78V-24.47H216.76V42.45Z" fill="none" stroke="#F16D00" stroke-width=".3"/><path clip-path="url(#j)" d="M265.16 6.06h27.73V-33.29c0-13.59 8.67-24.65 22.26-24.65s24.65 11.06 24.65 24.65V6.06h27.73V-33.29c0-28.88-23.49-52.38-52.38-52.38s-49.99 23.5-49.99 52.38V6.06Z" fill="none" stroke="#fff" stroke-width=".3"/><path clip-path="url(#j)" d="M265.02 14.72v8.21c0 10.78 8.74 19.52 19.52 19.52h46.53V14.72H265.02Z" fill="none" stroke="#fff" stroke-width=".3"/><path clip-path="url(#j)" d="M339.46 14.86V42.45h27.63V14.86H339.46Z" fill="none" stroke="#fff" stroke-width=".3"/><path clip-path="url(#j)" d="M236.24 132.23H219.59V108.6c0-8.16-5.21-14.8-13.37-14.8s-14.8 6.64-14.8 14.8v23.63H174.77V108.6c0-17.35 14.11-31.46 31.46-31.46s30.02 14.11 30.02 31.46v23.63Z" fill="none" stroke="#fff" stroke-width=".3"/><path clip-path="url(#j)" d="M236.32 137.43v4.93c0 6.47-5.25 11.72-11.73 11.72H196.65V137.43h39.67Z" fill="none" stroke="#fff" stroke-width=".3"/><path clip-path="url(#j)" d="M191.62 137.52v16.57H175.03V137.52h16.59Z" fill="none" stroke="#fff" stroke-width=".3"/><path clip-path="url(#k)" d="M298.61 132.11V113.5h26.41c9.12 0 16.55-5.82 16.55-14.94s-7.42-16.55-16.55-16.55H298.61V63.39h26.41c19.39 0 35.16 15.77 35.16 35.16s-15.77 33.56-35.16 33.56Z" fill="#fff" stroke="none"/><path clip-path="url(#k)" d="M291.95 131.91h-5.51c-7.24 0-13.11-5.87-13.11-13.11V87.56h18.61Z" fill="#fff" stroke="none"/><path clip-path="url(#k)" d="M291.86 81.94H273.34V63.39h18.52Z" fill="#F16D00" stroke="none"/><path clip-path="url(#k)" d="M359.31 148.6c0-.4.03-.8.09-1.21s.15-.82.28-1.2.29-.73.49-1.03.44-.55.71-.73.6-.27.96-.28c.42 0 .77.1 1.05.29s.51.44.68.76.3.66.39 1.05.15.78.18 1.18.05.78.04 1.15c0 .62-.04 1.2-.11 1.74s-.21 1-.38 1.4-.42.72-.71.94-.65.34-1.09.34c-.49-.01-.9-.14-1.24-.4s-.6-.6-.79-1.03-.34-.9-.42-1.42-.13-1.03-.12-1.56m-2.23 8.86h2.23v-4.61h.05c.07.17.18.36.34.58s.36.42.61.61.56.36.92.49.79.2 1.27.2c.89 0 1.65-.26 2.26-.77s1.09-1.24 1.41-2.18.48-2.08.48-3.39c0-.85-.07-1.63-.23-2.35s-.39-1.35-.72-1.89-.74-.96-1.25-1.26-1.12-.45-1.83-.46c-.48 0-.91.08-1.29.23s-.7.33-.97.55-.49.44-.66.68-.29.43-.35.6h-.05v-1.78h-2.23Zm-8.23-3h2.23v-4.99c0-.9.1-1.65.29-2.24s.46-1.07.8-1.42.73-.59 1.17-.74.92-.22 1.42-.21v-2.42c-.58.01-1.08.1-1.5.28s-.78.41-1.06.69-.52.57-.69.86-.29.57-.37.81h-.05v-2.37h-2.23Zm-10.73-5.88c0-.38.01-.78.05-1.19s.11-.81.21-1.19.26-.73.46-1.04.47-.55.8-.73.74-.27 1.22-.28.88.09 1.2.28.59.42.79.73.35.65.46 1.04.18.78.21 1.19.06.81.05 1.19-.02.78-.05 1.18-.11.8-.21 1.19-.26.73-.46 1.04-.47.56-.79.74-.72.28-1.2.28-.89-.1-1.22-.28-.6-.43-.8-.74-.35-.65-.46-1.04-.17-.78-.21-1.19-.05-.8-.05-1.18m2.74 6.16c.88 0 1.65-.15 2.3-.44s1.19-.7 1.62-1.25.75-1.19.96-1.94.31-1.6.31-2.53c0-1.26-.18-2.35-.56-3.27s-.95-1.63-1.71-2.13-1.74-.75-2.92-.76c-1.19.01-2.16.26-2.93.76s-1.35 1.21-1.72 2.13-.56 2.01-.56 3.27c0 .93.1 1.77.31 2.53s.53 1.4.96 1.94.97.96 1.63 1.25 1.42.44 2.31.44m-6.75-1.98c-.32.1-.64.17-.95.2s-.62.05-.93.05c-.74 0-1.38-.11-1.91-.33s-.98-.5-1.34-.86-.64-.77-.85-1.22-.36-.93-.45-1.42-.14-.97-.13-1.44c0-.73.1-1.36.3-1.9s.47-.95.83-1.24.78-.44 1.27-.44c.4 0 .73.09.97.24s.42.36.54.61.2.5.23.78.06.52.05.75h2.55c0-.49-.06-.97-.19-1.46s-.35-.92-.66-1.32-.74-.72-1.29-.96-1.23-.36-2.07-.37c-.88 0-1.63.15-2.27.43s-1.15.69-1.56 1.2-.71 1.12-.9 1.82-.29 1.45-.29 2.28c0 .59.05 1.19.17 1.81s.3 1.2.56 1.77.61 1.08 1.05 1.53.99.81 1.64 1.07 1.43.4 2.33.4c.69 0 1.3-.04 1.83-.12s1.01-.19 1.44-.33Zm-17.65-6.53c-.01-.14.03-.32.11-.54s.2-.46.38-.69.42-.43.73-.59.68-.24 1.14-.25c.43 0 .78.08 1.06.22s.5.32.66.54.28.44.34.68.1.45.1.64Zm6.45 6.35c-.26.09-.56.18-.93.28s-.8.14-1.3.14c-.64 0-1.2-.12-1.69-.34s-.89-.52-1.23-.89-.61-.79-.82-1.25-.36-.94-.46-1.42-.14-.95-.14-1.4h6.82v-.57c0-.69-.09-1.33-.26-1.91s-.44-1.07-.79-1.49-.8-.74-1.33-.97-1.16-.35-1.88-.35c-.31 0-.67.03-1.08.1s-.83.21-1.26.42-.83.51-1.2.93-.67.95-.9 1.63-.35 1.51-.35 2.52c.01 1.54.25 2.81.72 3.8s1.15 1.73 2.02 2.21 1.9.72 3.09.72c.42 0 .8-.02 1.12-.05s.63-.08.92-.14.59-.13.91-.2Zm-10.38.25c-.17.05-.35.09-.56.12s-.42.05-.62.05c-.43 0-.77-.07-1.02-.21s-.44-.32-.57-.54-.2-.47-.24-.74-.05-.54-.05-.81v-6.28h3.26v-1.73h-3.26v-4.15l-2.22 1.39v2.77h-2.1v1.73h2.1v7.44c0 .4.05.78.15 1.12s.29.65.55.91.62.47 1.08.61 1.04.22 1.75.22c.3 0 .59-.01.89-.04s.58-.07.87-.13Zm-19.08 1.63h2.23v-4.99c0-.59.08-1.17.23-1.74s.36-1.09.64-1.55.6-.83.99-1.1.8-.42 1.26-.42c.4 0 .71.07.93.22s.38.37.48.65.16.64.18 1.06.03.9.02 1.45v6.43h2.23V146.3c0-.3-.02-.62-.07-.96s-.14-.69-.26-1.03-.31-.66-.54-.94-.54-.52-.92-.68-.83-.26-1.37-.26c-.6.01-1.11.11-1.54.3s-.79.44-1.07.73-.52.6-.71.91-.32.6-.41.85h-.05v-2.52h-2.23Zm-5.79-5.27v.67c0 .35-.07.71-.2 1.07s-.32.7-.56 1.01-.52.57-.85.75-.68.29-1.06.3c-.23 0-.44-.07-.63-.19s-.35-.3-.47-.52-.18-.5-.19-.8c0-.38.1-.71.3-1s.46-.52.79-.72.71-.34 1.12-.44.84-.15 1.29-.15Zm0 5.27h2.23v-8.08c0-.22 0-.49-.03-.82s-.1-.67-.22-1.03-.31-.7-.58-1.02-.65-.58-1.14-.78-1.12-.3-1.88-.31c-.82 0-1.51.1-2.07.29s-1.02.44-1.36.77-.59.71-.74 1.13-.23.87-.23 1.35h2.35c0-.32.06-.61.19-.89s.33-.49.61-.66.63-.25 1.08-.26c.28 0 .55.04.8.14s.46.26.64.47.3.52.37.9v2.05c-.6 0-1.21.03-1.82.1s-1.19.19-1.74.36-1.04.4-1.47.69-.77.66-1.02 1.11-.38.98-.38 1.6c0 .61.13 1.16.37 1.63s.63.85 1.12 1.12 1.11.41 1.84.41c.45 0 .85-.07 1.19-.18s.64-.26.89-.44.45-.37.61-.56.27-.38.35-.54h.05Zm-26.13 0h2.23V140.32h.05l4.9 14.14h2.35l4.89-14.14H276v14.14h2.23V137.4h-3.46l-4.85 13.97h-.05l-4.84-13.97h-3.49Z" fill="#F16D00" stroke="none"/><path clip-path="url(#k)" d="M262.99 170.34c-.94 0-1.73-.29-2.19-.61l-.13-1.1c.61.48 1.43.81 2.36.81.99 0 1.7-.57 1.7-1.42s-.49-1.31-1.59-1.69c-1.49-.5-2.23-1.23-2.23-2.41 0-1.1.82-2.17 2.53-2.17.79 0 1.46.25 1.79.48l-.21.87c-.32-.22-.95-.49-1.6-.49-.97 0-1.51.6-1.51 1.24 0 .69.46 1.11 1.44 1.46 1.47.53 2.41 1.19 2.41 2.63 0 1.46-1.03 2.41-2.77 2.41" fill="#fff" stroke="none"/><path clip-path="url(#k)" d="M270.3 167.43l-1.29.12c-.79.08-1.19.53-1.19 1.07 0 .51.41.93 1.03.93.74 0 1.44-.56 1.44-1.45Zm1.07 2.99c-.41-.09-.88-.45-.96-1-.25.7-.93 1-1.65 1-1.17 0-1.92-.83-1.92-1.81 0-1.17.94-1.79 1.96-1.88l1.5-.14v-.48c0-.64-.42-1.09-1.3-1.09-.6 0-1.21.19-1.62.46l-.21-.85c.51-.33 1.17-.5 1.88-.5 1.31 0 2.27.74 2.27 2.09v2.59c0 .57.32.89.7.95Z" fill="#fff" stroke="none"/><path clip-path="url(#k)" d="M276.84 161.97c-.45.52-.99.94-1.58 1.31l-.53-.24c.5-.4 1.13-1.02 1.51-1.58.08-.11.21-.17.29-.17.14 0 .45.31.45.45 0 .06-.07.15-.14.23m.3 8.31v-.83h-.01c-.23.54-.81.98-1.9.98-1.31 0-2.29-.82-2.29-2.15v-4h1.02v3.91c0 .73.49 1.36 1.52 1.36 1.01 0 1.58-.63 1.58-1.36v-3.91h1.02v6Z" fill="#fff" stroke="none"/><path clip-path="url(#k)" d="M284.06 165.7c-.24-.26-.78-.65-1.6-.65-1.18 0-2.12.91-2.12 2.24 0 1.34.94 2.24 2.12 2.24.78 0 1.34-.4 1.6-.78Zm.05 4.57v-.66h-.01c-.28.4-.89.81-1.86.81-1.42 0-2.94-1.12-2.94-3.14 0-1.84 1.31-3.15 3.06-3.15.72 0 1.45.29 1.7.57v-3.86h1.02v9.43Z" fill="#fff" stroke="none"/><path clip-path="url(#k)" d="M289.36 164.98c-.9 0-1.75.75-1.91 1.67h3.43c.01-.06.01-.12.01-.19 0-.7-.56-1.48-1.54-1.48m2.49 1.9l-.56.57h-3.91c0 .98.82 2.12 2.31 2.12.74 0 1.31-.21 1.75-.51l-.12.97c-.42.24-.96.41-1.75.41-1.72 0-3.19-1.29-3.19-3.14 0-1.97 1.51-3.15 2.93-3.15 1.66 0 2.58 1.17 2.58 2.31 0 .17-.01.32-.04.44" fill="#fff" stroke="none"/><path clip-path="url(#k)" d="M298.85 165.06c-.78 0-1.34.4-1.6.78v3.05c.24.26.78.65 1.6.65 1.18 0 2.12-.92 2.12-2.24 0-1.34-.94-2.24-2.12-2.24m.09 5.36c-.71 0-1.45-.29-1.7-.57v3.49h-1.02v-9.06h.97v.66h.02c.28-.4.89-.81 1.85-.81 1.42 0 2.94 1.12 2.94 3.14 0 1.84-1.31 3.15-3.06 3.15" fill="#fff" stroke="none"/><path clip-path="url(#k)" d="M305.93 164.98c-.9 0-1.75.75-1.91 1.67h3.43c.01-.06.01-.12.01-.19 0-.7-.56-1.48-1.54-1.48m2.49 1.9l-.56.57h-3.91c0 .98.82 2.12 2.3 2.12.74 0 1.31-.21 1.75-.51l-.12.97c-.42.24-.97.41-1.75.41-1.72 0-3.19-1.29-3.19-3.14 0-1.97 1.51-3.15 2.93-3.15 1.66 0 2.58 1.17 2.58 2.31 0 .17-.01.32-.04.44" fill="#fff" stroke="none"/><path clip-path="url(#k)" d="M312.83 165.29c-.1-.03-.28-.07-.45-.07-.86 0-1.71.51-1.71 2v3.05h-.98v-6h.98v1.31h.01c.2-.85.89-1.39 1.8-1.39.17 0 .44.03.58.08Z" fill="#fff" stroke="none"/><path clip-path="url(#k)" d="M315.44 170.35c-.72 0-1.26-.18-1.65-.46l-.13-1.06c.44.38 1.1.69 1.8.69.62 0 1.08-.33 1.08-.83 0-.49-.37-.78-.99-1.01-1.13-.4-1.76-.91-1.76-1.85 0-.97.79-1.63 1.89-1.63.65 0 1.26.24 1.5.38l-.21.83c-.26-.2-.7-.4-1.3-.4-.56 0-.93.32-.93.77 0 .48.33.69.95.91 1.15.41 1.83.96 1.83 1.95 0 .98-.76 1.71-2.08 1.71" fill="#fff" stroke="none"/><path clip-path="url(#k)" d="M321.58 165.06c-1.18 0-2.14.91-2.14 2.25 0 1.33.97 2.23 2.14 2.23 1.17 0 2.14-.9 2.14-2.23 0-1.34-.97-2.25-2.14-2.25m0 5.36c-1.79 0-3.18-1.3-3.18-3.14 0-1.85 1.39-3.15 3.18-3.15s3.17 1.3 3.17 3.15c0 1.84-1.38 3.14-3.17 3.14" fill="#fff" stroke="none"/><path clip-path="url(#k)" d="M330.1 170.28v-3.91c0-.73-.49-1.35-1.52-1.35-1.01 0-1.58.62-1.58 1.35v3.91h-1.02v-6h.94v.83h.01c.23-.54.81-.98 1.89-.98 1.31 0 2.29.82 2.29 2.15v4Z" fill="#fff" stroke="none"/><path clip-path="url(#k)" d="M335.81 167.43l-1.29.12c-.79.08-1.19.53-1.19 1.07 0 .51.41.93 1.03.93.74 0 1.44-.56 1.44-1.45Zm1.07 2.99c-.41-.09-.88-.45-.96-1-.25.7-.93 1-1.65 1-1.17 0-1.92-.83-1.92-1.81 0-1.17.94-1.79 1.96-1.88l1.5-.14v-.48c0-.64-.42-1.09-1.3-1.09-.6 0-1.21.19-1.62.46l-.21-.85c.51-.33 1.17-.5 1.88-.5 1.31 0 2.27.74 2.27 2.09v2.59c0 .57.32.89.7.95Z" fill="#fff" stroke="none"/><path clip-path="url(#k)" d="M339.59 170.5c-.44-.12-1.11-.53-1.11-1.59v-8.07h1.02v7.93c0 .57.4.94.8 1.02Z" fill="#fff" stroke="none"/><path clip-path="url(#k)" d="M341.48 164.27h1.03v6h-1.03Zm.51-1.18c-.21 0-.65-.45-.65-.66 0-.23.44-.65.65-.65.23 0 .66.42.66.65 0 .21-.44.66-.66.66" fill="#fff" stroke="none"/><path clip-path="url(#k)" d="M343.89 170.28v-.21l2-3.28c.32-.51.7-1.18 1.02-1.66l-.01-.03h-2.8v-.82h4.27v.21l-2.01 3.28c-.32.53-.66 1.09-1.02 1.66l.01.03h3.26v.82Z" fill="#fff" stroke="none"/><path clip-path="url(#k)" d="M353.01 167.43l-1.29.12c-.79.08-1.19.53-1.19 1.07 0 .51.41.93 1.03.93.74 0 1.44-.56 1.44-1.45Zm1.07 2.99c-.41-.09-.88-.45-.96-1-.25.7-.93 1-1.65 1-1.17 0-1.92-.83-1.92-1.81 0-1.17.94-1.79 1.96-1.88l1.5-.14v-.48c0-.64-.42-1.09-1.3-1.09-.6 0-1.21.19-1.62.46l-.21-.85c.51-.33 1.17-.5 1.88-.5 1.31 0 2.27.74 2.27 2.09v2.59c0 .57.32.89.7.95Z" fill="#fff" stroke="none"/><path clip-path="url(#k)" d="M360.02 165.7c-.24-.26-.78-.65-1.6-.65-1.18 0-2.12.91-2.12 2.24 0 1.34.94 2.24 2.12 2.24.78 0 1.34-.4 1.6-.78Zm.05 4.57v-.66h-.01c-.28.4-.89.81-1.86.81-1.42 0-2.94-1.12-2.94-3.14 0-1.84 1.31-3.15 3.06-3.15.72 0 1.45.29 1.7.57v-3.86h1.02v9.43Z" fill="#fff" stroke="none"/><path clip-path="url(#k)" d="M365.8 167.43l-1.29.12c-.79.08-1.19.53-1.19 1.07 0 .51.41.93 1.03.93.74 0 1.44-.56 1.44-1.45Zm1.07 2.99c-.41-.09-.88-.45-.96-1-.25.7-.93 1-1.65 1-1.17 0-1.92-.83-1.92-1.81 0-1.17.94-1.79 1.96-1.88l1.5-.14v-.48c0-.64-.42-1.09-1.3-1.09-.6 0-1.21.19-1.62.46l-.21-.85c.51-.33 1.17-.5 1.88-.5 1.31 0 2.27.74 2.27 2.09v2.59c0 .57.32.89.7.95Z" fill="#fff" stroke="none"/><path clip-path="url(#l)" d="M76.7 118.13h.97v.97H76.7Z" fill="#fff" stroke="none"/><path clip-path="url(#l)" d="M77.67 118.13h.97v.97h-.97Z" fill="#fff" stroke="none"/><path clip-path="url(#l)" d="M78.65 118.13h.97v.97h-.97Z" fill="#fff" stroke="none"/><path clip-path="url(#l)" d="M79.62 118.13h.97v.97h-.97Z" fill="#fff" stroke="none"/><path clip-path="url(#l)" d="M80.59 118.13h.97v.97h-.97Z" fill="#fff" stroke="none"/><path clip-path="url(#l)" d="M81.57 118.13h.97v.97h-.97Z" fill="#fff" stroke="none"/><path clip-path="url(#l)" d="M82.54 118.13h.97v.97h-.97Z" fill="#fff" stroke="none"/><path clip-path="url(#l)" d="M84.49 118.13h.97v.97h-.97Z" fill="#fff" stroke="none"/><path clip-path="url(#l)" d="M85.46 118.13h.97v.97h-.97Z" fill="#fff" stroke="none"/><path clip-path="url(#l)" d="M86.44 118.13h.97v.97h-.97Z" fill="#fff" stroke="none"/><path clip-path="url(#l)" d="M87.41 118.13h.97v.97h-.97Z" fill="#fff" stroke="none"/><path clip-path="url(#l)" d="M89.36 118.13h.97v.97h-.97Z" fill="#fff" stroke="none"/><path clip-path="url(#l)" d="M90.33 118.13h.97v.97h-.97Z" fill="#fff" stroke="none"/><path clip-path="url(#l)" d="M94.23 118.13h.97v.97h-.97Z" fill="#fff" stroke="none"/><path clip-path="url(#l)" d="M95.2 118.13h.97v.97H95.2Z" fill="#fff" stroke="none"/><path clip-path="url(#l)" d="M96.17 118.13h.97v.97h-.97Z" fill="#fff" stroke="none"/><path clip-path="url(#l)" d="M97.15 118.13h.97v.97h-.97Z" fill="#fff" stroke="none"/><path clip-path="url(#l)" d="M98.12 118.13h.97v.97h-.97Z" fill="#fff" stroke="none"/><path clip-path="url(#l)" d="M99.1 118.13h.97v.97H99.1Z" fill="#fff" stroke="none"/><path clip-path="url(#l)" d="M100.07 118.13h.97v.97h-.97Z" fill="#fff" stroke="none"/><path clip-path="url(#l)" d="M76.7 119.11h.97v.97H76.7Z" fill="#fff" stroke="none"/><path clip-path="url(#l)" d="M82.54 119.11h.97v.97h-.97Z" fill="#fff" stroke="none"/><path clip-path="url(#l)" d="M84.49 119.11h.97v.97h-.97Z" fill="#fff" stroke="none"/><path clip-path="url(#l)" d="M87.41 119.11h.97v.97h-.97Z" fill="#fff" stroke="none"/><path clip-path="url(#l)" d="M90.33 119.11h.97v.97h-.97Z" fill="#fff" stroke="none"/><path clip-path="url(#l)" d="M92.28 119.11h.97v.97h-.97Z" fill="#fff" stroke="none"/><path clip-path="url(#l)" d="M94.23 119.11h.97v.97h-.97Z" fill="#fff" stroke="none"/><path clip-path="url(#l)" d="M100.07 119.11h.97v.97h-.97Z" fill="#fff" stroke="none"/><path clip-path="url(#l)" d="M76.7 120.08h.97v.97H76.7Z" fill="#fff" stroke="none"/><path clip-path="url(#l)" d="M78.65 120.08h.97v.97h-.97Z" fill="#fff" stroke="none"/><path clip-path="url(#l)" d="M79.62 120.08h.97v.97h-.97Z" fill="#fff" stroke="none"/><path clip-path="url(#l)" d="M80.59 120.08h.97v.97h-.97Z" fill="#fff" stroke="none"/><path clip-path="url(#l)" d="M82.54 120.08h.97v.97h-.97Z" fill="#fff" stroke="none"/><path clip-path="url(#l)" d="M85.46 120.08h.97v.97h-.97Z" fill="#fff" stroke="none"/><path clip-path="url(#l)" d="M89.36 120.08h.97v.97h-.97Z" fill="#fff" stroke="none"/><path clip-path="url(#l)" d="M90.33 120.08h.97v.97h-.97Z" fill="#fff" stroke="none"/><path clip-path="url(#l)" d="M94.23 120.08h.97v.97h-.97Z" fill="#fff" stroke="none"/><path clip-path="url(#l)" d="M96.17 120.08h.97v.97h-.97Z" fill="#fff" stroke="none"/><path clip-path="url(#l)" d="M97.15 120.08h.97v.97h-.97Z" fill="#fff" stroke="none"/><path clip-path="url(#l)" d="M98.12 120.08h.97v.97h-.97Z" fill="#fff" stroke="none"/><path clip-path="url(#l)" d="M100.07 120.08h.97v.97h-.97Z" fill="#fff" stroke="none"/><path clip-path="url(#l)" d="M76.7 121.05h.97v.97H76.7Z" fill="#fff" stroke="none"/><path clip-path="url(#l)" d="M78.65 121.05h.97v.97h-.97Z" fill="#fff" stroke="none"/><path clip-path="url(#l)" d="M79.62 121.05h.97v.97h-.97Z" fill="#fff" stroke="none"/><path clip-path="url(#l)" d="M80.59 121.05h.97v.97h-.97Z" fill="#fff" stroke="none"/><path clip-path="url(#l)" d="M82.54 121.05h.97v.97h-.97Z" fill="#fff" stroke="none"/><path clip-path="url(#l)" d="M87.41 121.05h.97v.97h-.97Z" fill="#fff" stroke="none"/><path clip-path="url(#l)" d="M88.38 121.05h.97v.97h-.97Z" fill="#fff" stroke="none"/><path clip-path="url(#l)" d="M89.36 121.05h.97v.97h-.97Z" fill="#fff" stroke="none"/><path clip-path="url(#l)" d="M90.33 121.05h.97v.97h-.97Z" fill="#fff" stroke="none"/><path clip-path="url(#l)" d="M91.31 121.05h.97v.97h-.97Z" fill="#fff" stroke="none"/><path clip-path="url(#l)" d="M94.23 121.05h.97v.97h-.97Z" fill="#fff" stroke="none"/><path clip-path="url(#l)" d="M96.17 121.05h.97v.97h-.97Z" fill="#fff" stroke="none"/><path clip-path="url(#l)" d="M97.15 121.05h.97v.97h-.97Z" fill="#fff" stroke="none"/><path clip-path="url(#l)" d="M98.12 121.05h.97v.97h-.97Z" fill="#fff" stroke="none"/><path clip-path="url(#l)" d="M100.07 121.05h.97v.97h-.97Z" fill="#fff" stroke="none"/><path clip-path="url(#l)" d="M76.7 122.03h.97V123H76.7Z" fill="#fff" stroke="none"/><path clip-path="url(#l)" d="M78.65 122.03h.97V123h-.97Z" fill="#fff" stroke="none"/><path clip-path="url(#l)" d="M79.62 122.03h.97V123h-.97Z" fill="#fff" stroke="none"/><path clip-path="url(#l)" d="M80.59 122.03h.97V123h-.97Z" fill="#fff" stroke="none"/><path clip-path="url(#l)" d="M82.54 122.03h.97V123h-.97Z" fill="#fff" stroke="none"/><path clip-path="url(#l)" d="M84.49 122.03h.97V123h-.97Z" fill="#fff" stroke="none"/><path clip-path="url(#l)" d="M87.41 122.03h.97V123h-.97Z" fill="#fff" stroke="none"/><path clip-path="url(#l)" d="M88.38 122.03h.97V123h-.97Z" fill="#fff" stroke="none"/><path clip-path="url(#l)" d="M89.36 122.03h.97V123h-.97Z" fill="#fff" stroke="none"/><path clip-path="url(#l)" d="M90.33 122.03h.97V123h-.97Z" fill="#fff" stroke="none"/><path clip-path="url(#l)" d="M92.28 122.03h.97V123h-.97Z" fill="#fff" stroke="none"/><path clip-path="url(#l)" d="M94.23 122.03h.97V123h-.97Z" fill="#fff" stroke="none"/><path clip-path="url(#l)" d="M96.17 122.03h.97V123h-.97Z" fill="#fff" stroke="none"/><path clip-path="url(#l)" d="M97.15 122.03h.97V123h-.97Z" fill="#fff" stroke="none"/><path clip-path="url(#l)" d="M98.12 122.03h.97V123h-.97Z" fill="#fff" stroke="none"/><path clip-path="url(#l)" d="M100.07 122.03h.97V123h-.97Z" fill="#fff" stroke="none"/><path clip-path="url(#l)" d="M76.7 123h.97v.97H76.7Z" fill="#fff" stroke="none"/><path clip-path="url(#l)" d="M82.54 123h.97v.97h-.97Z" fill="#fff" stroke="none"/><path clip-path="url(#l)" d="M84.49 123h.97v.97h-.97Z" fill="#fff" stroke="none"/><path clip-path="url(#l)" d="M85.46 123h.97v.97h-.97Z" fill="#fff" stroke="none"/><path clip-path="url(#l)" d="M86.44 123h.97v.97h-.97Z" fill="#fff" stroke="none"/><path clip-path="url(#l)" d="M88.38 123h.97v.97h-.97Z" fill="#fff" stroke="none"/><path clip-path="url(#l)" d="M89.36 123h.97v.97h-.97Z" fill="#fff" stroke="none"/><path clip-path="url(#l)" d="M90.33 123h.97v.97h-.97Z" fill="#fff" stroke="none"/><path clip-path="url(#l)" d="M92.28 123h.97v.97h-.97Z" fill="#fff" stroke="none"/><path clip-path="url(#l)" d="M94.23 123h.97v.97h-.97Z" fill="#fff" stroke="none"/><path clip-path="url(#l)" d="M100.07 123h.97v.97h-.97Z" fill="#fff" stroke="none"/><path clip-path="url(#l)" d="M76.7 123.98h.97v.97H76.7Z" fill="#fff" stroke="none"/><path clip-path="url(#l)" d="M77.67 123.98h.97v.97h-.97Z" fill="#fff" stroke="none"/><path clip-path="url(#l)" d="M78.65 123.98h.97v.97h-.97Z" fill="#fff" stroke="none"/><path clip-path="url(#l)" d="M79.62 123.98h.97v.97h-.97Z" fill="#fff" stroke="none"/><path clip-path="url(#l)" d="M80.59 123.98h.97v.97h-.97Z" fill="#fff" stroke="none"/><path clip-path="url(#l)" d="M81.57 123.98h.97v.97h-.97Z" fill="#fff" stroke="none"/><path clip-path="url(#l)" d="M82.54 123.98h.97v.97h-.97Z" fill="#fff" stroke="none"/><path clip-path="url(#l)" d="M84.49 123.98h.97v.97h-.97Z" fill="#fff" stroke="none"/><path clip-path="url(#l)" d="M86.44 123.98h.97v.97h-.97Z" fill="#fff" stroke="none"/><path clip-path="url(#l)" d="M88.38 123.98h.97v.97h-.97Z" fill="#fff" stroke="none"/><path clip-path="url(#l)" d="M90.33 123.98h.97v.97h-.97Z" fill="#fff" stroke="none"/><path clip-path="url(#l)" d="M92.28 123.98h.97v.97h-.97Z" fill="#fff" stroke="none"/><path clip-path="url(#l)" d="M94.23 123.98h.97v.97h-.97Z" fill="#fff" stroke="none"/><path clip-path="url(#l)" d="M95.2 123.98h.97v.97H95.2Z" fill="#fff" stroke="none"/><path clip-path="url(#l)" d="M96.17 123.98h.97v.97h-.97Z" fill="#fff" stroke="none"/><path clip-path="url(#l)" d="M97.15 123.98h.97v.97h-.97Z" fill="#fff" stroke="none"/><path clip-path="url(#l)" d="M98.12 123.98h.97v.97h-.97Z" fill="#fff" stroke="none"/><path clip-path="url(#l)" d="M99.1 123.98h.97v.97H99.1Z" fill="#fff" stroke="none"/><path clip-path="url(#l)" d="M100.07 123.98h.97v.97h-.97Z" fill="#fff" stroke="none"/><path clip-path="url(#l)" d="M84.49 124.95h.97v.97h-.97Z" fill="#fff" stroke="none"/><path clip-path="url(#l)" d="M85.46 124.95h.97v.97h-.97Z" fill="#fff" stroke="none"/><path clip-path="url(#l)" d="M91.31 124.95h.97v.97h-.97Z" fill="#fff" stroke="none"/><path clip-path="url(#l)" d="M92.28 124.95h.97v.97h-.97Z" fill="#fff" stroke="none"/><path clip-path="url(#l)" d="M76.7 125.92h.97v.97H76.7Z" fill="#fff" stroke="none"/><path clip-path="url(#l)" d="M77.67 125.92h.97v.97h-.97Z" fill="#fff" stroke="none"/><path clip-path="url(#l)" d="M78.65 125.92h.97v.97h-.97Z" fill="#fff" stroke="none"/><path clip-path="url(#l)" d="M81.57 125.92h.97v.97h-.97Z" fill="#fff" stroke="none"/><path clip-path="url(#l)" d="M82.54 125.92h.97v.97h-.97Z" fill="#fff" stroke="none"/><path clip-path="url(#l)" d="M84.49 125.92h.97v.97h-.97Z" fill="#fff" stroke="none"/><path clip-path="url(#l)" d="M85.46 125.92h.97v.97h-.97Z" fill="#fff" stroke="none"/><path clip-path="url(#l)" d="M87.41 125.92h.97v.97h-.97Z" fill="#fff" stroke="none"/><path clip-path="url(#l)" d="M88.38 125.92h.97v.97h-.97Z" fill="#fff" stroke="none"/><path clip-path="url(#l)" d="M92.28 125.92h.97v.97h-.97Z" fill="#fff" stroke="none"/><path clip-path="url(#l)" d="M93.25 125.92h.97v.97h-.97Z" fill="#fff" stroke="none"/><path clip-path="url(#l)" d="M94.23 125.92h.97v.97h-.97Z" fill="#fff" stroke="none"/><path clip-path="url(#l)" d="M95.2 125.92h.97v.97H95.2Z" fill="#fff" stroke="none"/><path clip-path="url(#l)" d="M96.17 125.92h.97v.97h-.97Z" fill="#fff" stroke="none"/><path clip-path="url(#l)" d="M99.1 125.92h.97v.97H99.1Z" fill="#fff" stroke="none"/><path clip-path="url(#l)" d="M100.07 125.92h.97v.97h-.97Z" fill="#fff" stroke="none"/><path clip-path="url(#l)" d="M77.67 126.9h.97v.97h-.97Z" fill="#fff" stroke="none"/><path clip-path="url(#l)" d="M80.59 126.9h.97v.97h-.97Z" fill="#fff" stroke="none"/><path clip-path="url(#l)" d="M84.49 126.9h.97v.97h-.97Z" fill="#fff" stroke="none"/><path clip-path="url(#l)" d="M88.38 126.9h.97v.97h-.97Z" fill="#fff" stroke="none"/><path clip-path="url(#l)" d="M90.33 126.9h.97v.97h-.97Z" fill="#fff" stroke="none"/><path clip-path="url(#l)" d="M91.31 126.9h.97v.97h-.97Z" fill="#fff" stroke="none"/><path clip-path="url(#l)" d="M92.28 126.9h.97v.97h-.97Z" fill="#fff" stroke="none"/><path clip-path="url(#l)" d="M93.25 126.9h.97v.97h-.97Z" fill="#fff" stroke="none"/><path clip-path="url(#l)" d="M94.23 126.9h.97v.97h-.97Z" fill="#fff" stroke="none"/><path clip-path="url(#l)" d="M95.2 126.9h.97v.97H95.2Z" fill="#fff" stroke="none"/><path clip-path="url(#l)" d="M97.15 126.9h.97v.97h-.97Z" fill="#fff" stroke="none"/><path clip-path="url(#l)" d="M99.1 126.9h.97v.97H99.1Z" fill="#fff" stroke="none"/><path clip-path="url(#l)" d="M100.07 126.9h.97v.97h-.97Z" fill="#fff" stroke="none"/><path clip-path="url(#l)" d="M76.7 127.87h.97v.97H76.7Z" fill="#fff" stroke="none"/><path clip-path="url(#l)" d="M77.67 127.87h.97v.97h-.97Z" fill="#fff" stroke="none"/><path clip-path="url(#l)" d="M78.65 127.87h.97v.97h-.97Z" fill="#fff" stroke="none"/><path clip-path="url(#l)" d="M79.62 127.87h.97v.97h-.97Z" fill="#fff" stroke="none"/><path clip-path="url(#l)" d="M81.57 127.87h.97v.97h-.97Z" fill="#fff" stroke="none"/><path clip-path="url(#l)" d="M82.54 127.87h.97v.97h-.97Z" fill="#fff" stroke="none"/><path clip-path="url(#l)" d="M83.51 127.87h.97v.97h-.97Z" fill="#fff" stroke="none"/><path clip-path="url(#l)" d="M84.49 127.87h.97v.97h-.97Z" fill="#fff" stroke="none"/><path clip-path="url(#l)" d="M85.46 127.87h.97v.97h-.97Z" fill="#fff" stroke="none"/><path clip-path="url(#l)" d="M86.44 127.87h.97v.97h-.97Z" fill="#fff" stroke="none"/><path clip-path="url(#l)" d="M88.38 127.87h.97v.97h-.97Z" fill="#fff" stroke="none"/><path clip-path="url(#l)" d="M90.33 127.87h.97v.97h-.97Z" fill="#fff" stroke="none"/><path clip-path="url(#l)" d="M91.31 127.87h.97v.97h-.97Z" fill="#fff" stroke="none"/><path clip-path="url(#l)" d="M93.25 127.87h.97v.97h-.97Z" fill="#fff" stroke="none"/><path clip-path="url(#l)" d="M95.2 127.87h.97v.97H95.2Z" fill="#fff" stroke="none"/><path clip-path="url(#l)" d="M96.17 127.87h.97v.97h-.97Z" fill="#fff" stroke="none"/><path clip-path="url(#l)" d="M97.15 127.87h.97v.97h-.97Z" fill="#fff" stroke="none"/><path clip-path="url(#l)" d="M98.12 127.87h.97v.97h-.97Z" fill="#fff" stroke="none"/><path clip-path="url(#l)" d="M100.07 127.87h.97v.97h-.97Z" fill="#fff" stroke="none"/><path clip-path="url(#l)" d="M76.7 128.84h.97v.97H76.7Z" fill="#fff" stroke="none"/><path clip-path="url(#l)" d="M78.65 128.84h.97v.97h-.97Z" fill="#fff" stroke="none"/><path clip-path="url(#l)" d="M79.62 128.84h.97v.97h-.97Z" fill="#fff" stroke="none"/><path clip-path="url(#l)" d="M81.57 128.84h.97v.97h-.97Z" fill="#fff" stroke="none"/><path clip-path="url(#l)" d="M83.51 128.84h.97v.97h-.97Z" fill="#fff" stroke="none"/><path clip-path="url(#l)" d="M86.44 128.84h.97v.97h-.97Z" fill="#fff" stroke="none"/><path clip-path="url(#l)" d="M87.41 128.84h.97v.97h-.97Z" fill="#fff" stroke="none"/><path clip-path="url(#l)" d="M88.38 128.84h.97v.97h-.97Z" fill="#fff" stroke="none"/><path clip-path="url(#l)" d="M90.33 128.84h.97v.97h-.97Z" fill="#fff" stroke="none"/><path clip-path="url(#l)" d="M93.25 128.84h.97v.97h-.97Z" fill="#fff" stroke="none"/><path clip-path="url(#l)" d="M96.17 128.84h.97v.97h-.97Z" fill="#fff" stroke="none"/><path clip-path="url(#l)" d="M97.15 128.84h.97v.97h-.97Z" fill="#fff" stroke="none"/><path clip-path="url(#l)" d="M77.67 129.82h.97v.97h-.97Z" fill="#fff" stroke="none"/><path clip-path="url(#l)" d="M78.65 129.82h.97v.97h-.97Z" fill="#fff" stroke="none"/><path clip-path="url(#l)" d="M82.54 129.82h.97v.97h-.97Z" fill="#fff" stroke="none"/><path clip-path="url(#l)" d="M83.51 129.82h.97v.97h-.97Z" fill="#fff" stroke="none"/><path clip-path="url(#l)" d="M85.46 129.82h.97v.97h-.97Z" fill="#fff" stroke="none"/><path clip-path="url(#l)" d="M86.44 129.82h.97v.97h-.97Z" fill="#fff" stroke="none"/><path clip-path="url(#l)" d="M90.33 129.82h.97v.97h-.97Z" fill="#fff" stroke="none"/><path clip-path="url(#l)" d="M92.28 129.82h.97v.97h-.97Z" fill="#fff" stroke="none"/><path clip-path="url(#l)" d="M94.23 129.82h.97v.97h-.97Z" fill="#fff" stroke="none"/><path clip-path="url(#l)" d="M95.2 129.82h.97v.97H95.2Z" fill="#fff" stroke="none"/><path clip-path="url(#l)" d="M100.07 129.82h.97v.97h-.97Z" fill="#fff" stroke="none"/><path clip-path="url(#l)" d="M77.67 130.79h.97v.97h-.97Z" fill="#fff" stroke="none"/><path clip-path="url(#l)" d="M78.65 130.79h.97v.97h-.97Z" fill="#fff" stroke="none"/><path clip-path="url(#l)" d="M81.57 130.79h.97v.97h-.97Z" fill="#fff" stroke="none"/><path clip-path="url(#l)" d="M83.51 130.79h.97v.97h-.97Z" fill="#fff" stroke="none"/><path clip-path="url(#l)" d="M85.46 130.79h.97v.97h-.97Z" fill="#fff" stroke="none"/><path clip-path="url(#l)" d="M86.44 130.79h.97v.97h-.97Z" fill="#fff" stroke="none"/><path clip-path="url(#l)" d="M90.33 130.79h.97v.97h-.97Z" fill="#fff" stroke="none"/><path clip-path="url(#l)" d="M91.31 130.79h.97v.97h-.97Z" fill="#fff" stroke="none"/><path clip-path="url(#l)" d="M92.28 130.79h.97v.97h-.97Z" fill="#fff" stroke="none"/><path clip-path="url(#l)" d="M93.25 130.79h.97v.97h-.97Z" fill="#fff" stroke="none"/><path clip-path="url(#l)" d="M94.23 130.79h.97v.97h-.97Z" fill="#fff" stroke="none"/><path clip-path="url(#l)" d="M95.2 130.79h.97v.97H95.2Z" fill="#fff" stroke="none"/><path clip-path="url(#l)" d="M99.1 130.79h.97v.97H99.1Z" fill="#fff" stroke="none"/><path clip-path="url(#l)" d="M100.07 130.79h.97v.97h-.97Z" fill="#fff" stroke="none"/><path clip-path="url(#l)" d="M76.7 131.76h.97v.97H76.7Z" fill="#fff" stroke="none"/><path clip-path="url(#l)" d="M77.67 131.76h.97v.97h-.97Z" fill="#fff" stroke="none"/><path clip-path="url(#l)" d="M78.65 131.76h.97v.97h-.97Z" fill="#fff" stroke="none"/><path clip-path="url(#l)" d="M79.62 131.76h.97v.97h-.97Z" fill="#fff" stroke="none"/><path clip-path="url(#l)" d="M80.59 131.76h.97v.97h-.97Z" fill="#fff" stroke="none"/><path clip-path="url(#l)" d="M81.57 131.76h.97v.97h-.97Z" fill="#fff" stroke="none"/><path clip-path="url(#l)" d="M82.54 131.76h.97v.97h-.97Z" fill="#fff" stroke="none"/><path clip-path="url(#l)" d="M86.44 131.76h.97v.97h-.97Z" fill="#fff" stroke="none"/><path clip-path="url(#l)" d="M87.41 131.76h.97v.97h-.97Z" fill="#fff" stroke="none"/><path clip-path="url(#l)" d="M91.31 131.76h.97v.97h-.97Z" fill="#fff" stroke="none"/><path clip-path="url(#l)" d="M92.28 131.76h.97v.97h-.97Z" fill="#fff" stroke="none"/><path clip-path="url(#l)" d="M93.25 131.76h.97v.97h-.97Z" fill="#fff" stroke="none"/><path clip-path="url(#l)" d="M94.23 131.76h.97v.97h-.97Z" fill="#fff" stroke="none"/><path clip-path="url(#l)" d="M97.15 131.76h.97v.97h-.97Z" fill="#fff" stroke="none"/><path clip-path="url(#l)" d="M98.12 131.76h.97v.97h-.97Z" fill="#fff" stroke="none"/><path clip-path="url(#l)" d="M100.07 131.76h.97v.97h-.97Z" fill="#fff" stroke="none"/><path clip-path="url(#l)" d="M78.65 132.74h.97v.97h-.97Z" fill="#fff" stroke="none"/><path clip-path="url(#l)" d="M83.51 132.74h.97v.97h-.97Z" fill="#fff" stroke="none"/><path clip-path="url(#l)" d="M84.49 132.74h.97v.97h-.97Z" fill="#fff" stroke="none"/><path clip-path="url(#l)" d="M86.44 132.74h.97v.97h-.97Z" fill="#fff" stroke="none"/><path clip-path="url(#l)" d="M90.33 132.74h.97v.97h-.97Z" fill="#fff" stroke="none"/><path clip-path="url(#l)" d="M91.31 132.74h.97v.97h-.97Z" fill="#fff" stroke="none"/><path clip-path="url(#l)" d="M92.28 132.74h.97v.97h-.97Z" fill="#fff" stroke="none"/><path clip-path="url(#l)" d="M95.2 132.74h.97v.97H95.2Z" fill="#fff" stroke="none"/><path clip-path="url(#l)" d="M96.17 132.74h.97v.97h-.97Z" fill="#fff" stroke="none"/><path clip-path="url(#l)" d="M97.15 132.74h.97v.97h-.97Z" fill="#fff" stroke="none"/><path clip-path="url(#l)" d="M76.7 133.71h.97v.97H76.7Z" fill="#fff" stroke="none"/><path clip-path="url(#l)" d="M77.67 133.71h.97v.97h-.97Z" fill="#fff" stroke="none"/><path clip-path="url(#l)" d="M82.54 133.71h.97v.97h-.97Z" fill="#fff" stroke="none"/><path clip-path="url(#l)" d="M83.51 133.71h.97v.97h-.97Z" fill="#fff" stroke="none"/><path clip-path="url(#l)" d="M84.49 133.71h.97v.97h-.97Z" fill="#fff" stroke="none"/><path clip-path="url(#l)" d="M85.46 133.71h.97v.97h-.97Z" fill="#fff" stroke="none"/><path clip-path="url(#l)" d="M87.41 133.71h.97v.97h-.97Z" fill="#fff" stroke="none"/><path clip-path="url(#l)" d="M88.38 133.71h.97v.97h-.97Z" fill="#fff" stroke="none"/><path clip-path="url(#l)" d="M90.33 133.71h.97v.97h-.97Z" fill="#fff" stroke="none"/><path clip-path="url(#l)" d="M92.28 133.71h.97v.97h-.97Z" fill="#fff" stroke="none"/><path clip-path="url(#l)" d="M93.25 133.71h.97v.97h-.97Z" fill="#fff" stroke="none"/><path clip-path="url(#l)" d="M94.23 133.71h.97v.97h-.97Z" fill="#fff" stroke="none"/><path clip-path="url(#l)" d="M95.2 133.71h.97v.97H95.2Z" fill="#fff" stroke="none"/><path clip-path="url(#l)" d="M96.17 133.71h.97v.97h-.97Z" fill="#fff" stroke="none"/><path clip-path="url(#l)" d="M99.1 133.71h.97v.97H99.1Z" fill="#fff" stroke="none"/><path clip-path="url(#l)" d="M84.49 134.69h.97v.97h-.97Z" fill="#fff" stroke="none"/><path clip-path="url(#l)" d="M88.38 134.69h.97v.97h-.97Z" fill="#fff" stroke="none"/><path clip-path="url(#l)" d="M89.36 134.69h.97v.97h-.97Z" fill="#fff" stroke="none"/><path clip-path="url(#l)" d="M90.33 134.69h.97v.97h-.97Z" fill="#fff" stroke="none"/><path clip-path="url(#l)" d="M92.28 134.69h.97v.97h-.97Z" fill="#fff" stroke="none"/><path clip-path="url(#l)" d="M96.17 134.69h.97v.97h-.97Z" fill="#fff" stroke="none"/><path clip-path="url(#l)" d="M100.07 134.69h.97v.97h-.97Z" fill="#fff" stroke="none"/><path clip-path="url(#l)" d="M76.7 135.66h.97v.97H76.7Z" fill="#fff" stroke="none"/><path clip-path="url(#l)" d="M77.67 135.66h.97v.97h-.97Z" fill="#fff" stroke="none"/><path clip-path="url(#l)" d="M78.65 135.66h.97v.97h-.97Z" fill="#fff" stroke="none"/><path clip-path="url(#l)" d="M79.62 135.66h.97v.97h-.97Z" fill="#fff" stroke="none"/><path clip-path="url(#l)" d="M80.59 135.66h.97v.97h-.97Z" fill="#fff" stroke="none"/><path clip-path="url(#l)" d="M81.57 135.66h.97v.97h-.97Z" fill="#fff" stroke="none"/><path clip-path="url(#l)" d="M82.54 135.66h.97v.97h-.97Z" fill="#fff" stroke="none"/><path clip-path="url(#l)" d="M86.44 135.66h.97v.97h-.97Z" fill="#fff" stroke="none"/><path clip-path="url(#l)" d="M88.38 135.66h.97v.97h-.97Z" fill="#fff" stroke="none"/><path clip-path="url(#l)" d="M89.36 135.66h.97v.97h-.97Z" fill="#fff" stroke="none"/><path clip-path="url(#l)" d="M90.33 135.66h.97v.97h-.97Z" fill="#fff" stroke="none"/><path clip-path="url(#l)" d="M92.28 135.66h.97v.97h-.97Z" fill="#fff" stroke="none"/><path clip-path="url(#l)" d="M94.23 135.66h.97v.97h-.97Z" fill="#fff" stroke="none"/><path clip-path="url(#l)" d="M96.17 135.66h.97v.97h-.97Z" fill="#fff" stroke="none"/><path clip-path="url(#l)" d="M100.07 135.66h.97v.97h-.97Z" fill="#fff" stroke="none"/><path clip-path="url(#l)" d="M76.7 136.63h.97v.97H76.7Z" fill="#fff" stroke="none"/><path clip-path="url(#l)" d="M82.54 136.63h.97v.97h-.97Z" fill="#fff" stroke="none"/><path clip-path="url(#l)" d="M84.49 136.63h.97v.97h-.97Z" fill="#fff" stroke="none"/><path clip-path="url(#l)" d="M87.41 136.63h.97v.97h-.97Z" fill="#fff" stroke="none"/><path clip-path="url(#l)" d="M88.38 136.63h.97v.97h-.97Z" fill="#fff" stroke="none"/><path clip-path="url(#l)" d="M92.28 136.63h.97v.97h-.97Z" fill="#fff" stroke="none"/><path clip-path="url(#l)" d="M96.17 136.63h.97v.97h-.97Z" fill="#fff" stroke="none"/><path clip-path="url(#l)" d="M76.7 137.61h.97v.97H76.7Z" fill="#fff" stroke="none"/><path clip-path="url(#l)" d="M78.65 137.61h.97v.97h-.97Z" fill="#fff" stroke="none"/><path clip-path="url(#l)" d="M79.62 137.61h.97v.97h-.97Z" fill="#fff" stroke="none"/><path clip-path="url(#l)" d="M80.59 137.61h.97v.97h-.97Z" fill="#fff" stroke="none"/><path clip-path="url(#l)" d="M82.54 137.61h.97v.97h-.97Z" fill="#fff" stroke="none"/><path clip-path="url(#l)" d="M85.46 137.61h.97v.97h-.97Z" fill="#fff" stroke="none"/><path clip-path="url(#l)" d="M86.44 137.61h.97v.97h-.97Z" fill="#fff" stroke="none"/><path clip-path="url(#l)" d="M88.38 137.61h.97v.97h-.97Z" fill="#fff" stroke="none"/><path clip-path="url(#l)" d="M90.33 137.61h.97v.97h-.97Z" fill="#fff" stroke="none"/><path clip-path="url(#l)" d="M91.31 137.61h.97v.97h-.97Z" fill="#fff" stroke="none"/><path clip-path="url(#l)" d="M92.28 137.61h.97v.97h-.97Z" fill="#fff" stroke="none"/><path clip-path="url(#l)" d="M93.25 137.61h.97v.97h-.97Z" fill="#fff" stroke="none"/><path clip-path="url(#l)" d="M94.23 137.61h.97v.97h-.97Z" fill="#fff" stroke="none"/><path clip-path="url(#l)" d="M95.2 137.61h.97v.97H95.2Z" fill="#fff" stroke="none"/><path clip-path="url(#l)" d="M96.17 137.61h.97v.97h-.97Z" fill="#fff" stroke="none"/><path clip-path="url(#l)" d="M99.1 137.61h.97v.97H99.1Z" fill="#fff" stroke="none"/><path clip-path="url(#l)" d="M76.7 138.58h.97v.97H76.7Z" fill="#fff" stroke="none"/><path clip-path="url(#l)" d="M78.65 138.58h.97v.97h-.97Z" fill="#fff" stroke="none"/><path clip-path="url(#l)" d="M79.62 138.58h.97v.97h-.97Z" fill="#fff" stroke="none"/><path clip-path="url(#l)" d="M80.59 138.58h.97v.97h-.97Z" fill="#fff" stroke="none"/><path clip-path="url(#l)" d="M82.54 138.58h.97v.97h-.97Z" fill="#fff" stroke="none"/><path clip-path="url(#l)" d="M86.44 138.58h.97v.97h-.97Z" fill="#fff" stroke="none"/><path clip-path="url(#l)" d="M89.36 138.58h.97v.97h-.97Z" fill="#fff" stroke="none"/><path clip-path="url(#l)" d="M90.33 138.58h.97v.97h-.97Z" fill="#fff" stroke="none"/><path clip-path="url(#l)" d="M91.31 138.58h.97v.97h-.97Z" fill="#fff" stroke="none"/><path clip-path="url(#l)" d="M93.25 138.58h.97v.97h-.97Z" fill="#fff" stroke="none"/><path clip-path="url(#l)" d="M96.17 138.58h.97v.97h-.97Z" fill="#fff" stroke="none"/><path clip-path="url(#l)" d="M98.12 138.58h.97v.97h-.97Z" fill="#fff" stroke="none"/><path clip-path="url(#l)" d="M99.1 138.58h.97v.97H99.1Z" fill="#fff" stroke="none"/><path clip-path="url(#l)" d="M76.7 139.55h.97v.97H76.7Z" fill="#fff" stroke="none"/><path clip-path="url(#l)" d="M78.65 139.55h.97v.97h-.97Z" fill="#fff" stroke="none"/><path clip-path="url(#l)" d="M79.62 139.55h.97v.97h-.97Z" fill="#fff" stroke="none"/><path clip-path="url(#l)" d="M80.59 139.55h.97v.97h-.97Z" fill="#fff" stroke="none"/><path clip-path="url(#l)" d="M82.54 139.55h.97v.97h-.97Z" fill="#fff" stroke="none"/><path clip-path="url(#l)" d="M84.49 139.55h.97v.97h-.97Z" fill="#fff" stroke="none"/><path clip-path="url(#l)" d="M86.44 139.55h.97v.97h-.97Z" fill="#fff" stroke="none"/><path clip-path="url(#l)" d="M87.41 139.55h.97v.97h-.97Z" fill="#fff" stroke="none"/><path clip-path="url(#l)" d="M89.36 139.55h.97v.97h-.97Z" fill="#fff" stroke="none"/><path clip-path="url(#l)" d="M90.33 139.55h.97v.97h-.97Z" fill="#fff" stroke="none"/><path clip-path="url(#l)" d="M91.31 139.55h.97v.97h-.97Z" fill="#fff" stroke="none"/><path clip-path="url(#l)" d="M92.28 139.55h.97v.97h-.97Z" fill="#fff" stroke="none"/><path clip-path="url(#l)" d="M95.2 139.55h.97v.97H95.2Z" fill="#fff" stroke="none"/><path clip-path="url(#l)" d="M96.17 139.55h.97v.97h-.97Z" fill="#fff" stroke="none"/><path clip-path="url(#l)" d="M97.15 139.55h.97v.97h-.97Z" fill="#fff" stroke="none"/><path clip-path="url(#l)" d="M99.1 139.55h.97v.97H99.1Z" fill="#fff" stroke="none"/><path clip-path="url(#l)" d="M100.07 139.55h.97v.97h-.97Z" fill="#fff" stroke="none"/><path clip-path="url(#l)" d="M76.7 140.53h.97v.97H76.7Z" fill="#fff" stroke="none"/><path clip-path="url(#l)" d="M82.54 140.53h.97v.97h-.97Z" fill="#fff" stroke="none"/><path clip-path="url(#l)" d="M84.49 140.53h.97v.97h-.97Z" fill="#fff" stroke="none"/><path clip-path="url(#l)" d="M86.44 140.53h.97v.97h-.97Z" fill="#fff" stroke="none"/><path clip-path="url(#l)" d="M87.41 140.53h.97v.97h-.97Z" fill="#fff" stroke="none"/><path clip-path="url(#l)" d="M88.38 140.53h.97v.97h-.97Z" fill="#fff" stroke="none"/><path clip-path="url(#l)" d="M90.33 140.53h.97v.97h-.97Z" fill="#fff" stroke="none"/><path clip-path="url(#l)" d="M92.28 140.53h.97v.97h-.97Z" fill="#fff" stroke="none"/><path clip-path="url(#l)" d="M95.2 140.53h.97v.97H95.2Z" fill="#fff" stroke="none"/><path clip-path="url(#l)" d="M96.17 140.53h.97v.97h-.97Z" fill="#fff" stroke="none"/><path clip-path="url(#l)" d="M76.7 141.5h.97v.97H76.7Z" fill="#fff" stroke="none"/><path clip-path="url(#l)" d="M77.67 141.5h.97v.97h-.97Z" fill="#fff" stroke="none"/><path clip-path="url(#l)" d="M78.65 141.5h.97v.97h-.97Z" fill="#fff" stroke="none"/><path clip-path="url(#l)" d="M79.62 141.5h.97v.97h-.97Z" fill="#fff" stroke="none"/><path clip-path="url(#l)" d="M80.59 141.5h.97v.97h-.97Z" fill="#fff" stroke="none"/><path clip-path="url(#l)" d="M81.57 141.5h.97v.97h-.97Z" fill="#fff" stroke="none"/><path clip-path="url(#l)" d="M82.54 141.5h.97v.97h-.97Z" fill="#fff" stroke="none"/><path clip-path="url(#l)" d="M84.49 141.5h.97v.97h-.97Z" fill="#fff" stroke="none"/><path clip-path="url(#l)" d="M86.44 141.5h.97v.97h-.97Z" fill="#fff" stroke="none"/><path clip-path="url(#l)" d="M87.41 141.5h.97v.97h-.97Z" fill="#fff" stroke="none"/><path clip-path="url(#l)" d="M88.38 141.5h.97v.97h-.97Z" fill="#fff" stroke="none"/><path clip-path="url(#l)" d="M92.28 141.5h.97v.97h-.97Z" fill="#fff" stroke="none"/><path clip-path="url(#l)" d="M93.25 141.5h.97v.97h-.97Z" fill="#fff" stroke="none"/><path clip-path="url(#l)" d="M97.15 141.5h.97v.97h-.97Z" fill="#fff" stroke="none"/><path clip-path="url(#l)" d="M100.07 141.5h.97v.97h-.97Z" fill="#fff" stroke="none"/></g></g></svg>