<?xml version="1.0" encoding="UTF-8"?><svg xmlns="http://www.w3.org/2000/svg" color-interpolation="auto" height="80.87" stroke="#000" stroke-linecap="square" stroke-miterlimit="10" width="284.91"><defs><clipPath id="a"><path d="M5 5V75.87H284.91V5Z"/></clipPath><clipPath clip-path="url(#a)" id="b"><path d="M5 75.87H571.93V5H5Z"/></clipPath><clipPath clip-path="url(#b)" id="o"><path d="M5 5H571.93V75.87H5Z"/></clipPath><clipPath id="c"><path d="M5 5V75.87H284.91V5Z"/></clipPath><clipPath clip-path="url(#c)" id="d"><path d="M5 75.87H571.93V5H5Z"/></clipPath><clipPath clip-path="url(#d)" id="p"><path d="M5 5V75.87H242.9h.42c20.25-.11 36.59-16.59 36.59-36.89V5Z"/></clipPath><clipPath id="e"><path d="M5 5V75.87H284.91V5Z"/></clipPath><clipPath clip-path="url(#e)" id="f"><path d="M5 75.87H571.93V5H5Z"/></clipPath><clipPath clip-path="url(#f)" id="q"><path d="M5 5H571.93V75.87H5Z"/></clipPath><clipPath id="g"><path d="M5 5V75.87H284.91V5Z"/></clipPath><clipPath clip-path="url(#g)" id="h"><path d="M5 75.87H571.93V5H5Z"/></clipPath><clipPath clip-path="url(#h)" id="r"><path d="M5 5H571.93V75.87H5Z"/></clipPath><clipPath id="i"><path d="M5 5V75.87H284.91V5Z"/></clipPath><clipPath clip-path="url(#i)" id="j"><path d="M5 75.87H571.93V5H5Z"/></clipPath><clipPath clip-path="url(#j)" id="s"><path d="M5 5H571.93V75.87H5Z"/></clipPath><clipPath id="k"><path d="M5 5V75.87H284.91V5Z"/></clipPath><clipPath clip-path="url(#k)" id="l"><path d="M5 75.87H571.93V5H5Z"/></clipPath><clipPath clip-path="url(#l)" id="t"><path d="M5 5H571.93V75.87H5Z"/></clipPath><clipPath id="m"><path d="M5 5V75.87H284.91V5Z"/></clipPath><clipPath clip-path="url(#m)" id="n"><path d="M5 75.87H571.93V5H5Z"/></clipPath><clipPath clip-path="url(#n)" id="u"><path d="M5 5H571.93V75.87H5Z"/></clipPath></defs><g><g fill="#611F7F" stroke="#611F7F"><path clip-path="url(#o)" d="M5 5V75.87H242.9c20.44.12 37.01-16.45 37.01-36.89V5Z" stroke="none"/></g><g fill="#F16D00" stroke="#F16D00" stroke-linecap="butt" stroke-width=".3"><path clip-path="url(#p)" d="M131.46 9.67h16.07v-22.8c0-7.88 5.02-14.28 12.9-14.28s14.28 6.41 14.28 14.28V9.67h16.07v-22.8c0-16.74-13.61-30.35-30.35-30.35s-28.97 13.61-28.97 30.35V9.67Z" fill="none"/><path clip-path="url(#p)" d="M131.39 14.69v4.76c0 6.25 5.07 11.31 11.31 11.31h26.96V14.69H131.39Z" fill="none"/><path clip-path="url(#p)" d="M174.52 30.75h16.01V14.77H174.52Z" fill="none"/><path clip-path="url(#p)" d="M-9.01 95h7.52C8.39 95 16.4 86.99 16.4 77.11V34.47H-9.01V95Z" fill="none" stroke="#fff"/><path clip-path="url(#p)" d="M-8.88 26.79H16.4V1.47H-8.88V26.79Z" fill="none" stroke="#fff"/><path clip-path="url(#p)" d="M126.98 109.85V90.57h27.37c9.45 0 17.14-6.03 17.14-15.48s-7.69-17.15-17.14-17.15H126.98V38.65h27.37c20.09 0 36.43 16.34 36.43 36.43s-16.34 34.77-36.43 34.77H126.98Z" fill="none" stroke="#fff"/><path clip-path="url(#p)" d="M120.95 109.95h-5.71c-7.5 0-13.58-6.08-13.58-13.58V64h19.29v45.94Z" fill="none" stroke="#fff"/><path clip-path="url(#p)" d="M120.85 58.17H101.66V38.96h19.19V58.17Z" fill="none" stroke="#fff"/><path clip-path="url(#q)" d="M103.14 71.07H82.39c-1.32 0-2.39-1.07-2.39-2.39V47.93c0-1.32 1.07-2.39 2.39-2.39h20.75c1.32 0 2.39 1.07 2.39 2.39V68.68c0 1.32-1.07 2.39-2.39 2.39" fill="#611F7F" stroke="none"/><path clip-path="url(#r)" d="M225.14 47.08V38.24h12.55c4.34 0 7.86-2.76 7.86-7.1s-3.53-7.86-7.86-7.86H225.14V14.43h12.55c9.21 0 16.71 7.49 16.71 16.71s-7.5 15.95-16.71 15.95Z" fill="#fff" stroke="none"/><path clip-path="url(#r)" d="M221.98 46.98h-2.62c-3.44 0-6.23-2.79-6.23-6.23V25.91h8.85Z" fill="#fff" stroke="none"/><path clip-path="url(#r)" d="M221.93 23.24h-8.8V14.43h8.8Z" stroke="none"/><path clip-path="url(#r)" d="M253.98 54.92c0-.19.01-.38.04-.58s.07-.39.13-.57.14-.35.23-.49.21-.26.34-.35.28-.13.45-.13c.2 0 .37.05.5.14s.24.21.32.36.15.32.19.5.07.37.09.56.02.37.02.54c0 .3-.02.57-.05.82s-.1.48-.18.67-.2.34-.34.45-.31.16-.52.16c-.23 0-.43-.07-.59-.19s-.28-.28-.38-.49-.16-.43-.2-.67-.06-.49-.06-.74m-1.06 4.21h1.06V56.94h.02c.04.08.09.17.16.27s.17.2.29.29.26.17.44.23.37.09.61.1c.42 0 .78-.12 1.07-.37s.52-.59.67-1.04.23-.99.23-1.61c0-.4-.04-.77-.11-1.12s-.19-.64-.34-.9-.35-.46-.6-.6-.53-.22-.87-.22c-.23 0-.43.04-.61.11s-.33.16-.46.26-.23.21-.31.32-.14.2-.17.29h-.02v-.84h-1.06Zm-3.91-1.42h1.06V55.33c0-.43.05-.78.14-1.07s.22-.51.38-.67.35-.28.56-.35.44-.1.68-.1V51.98c-.28 0-.51.05-.72.13s-.37.2-.5.33-.25.27-.33.41-.14.27-.18.39h-.02V52.11h-1.06Zm-5.1-2.8c0-.18.01-.37.02-.57s.05-.38.1-.57.12-.35.22-.49.22-.26.38-.35.35-.13.58-.13.42.04.57.13.28.2.38.35.17.31.22.49.08.37.1.57.03.38.03.57-.01.37-.03.56-.05.38-.1.56-.12.35-.22.49-.22.26-.38.35-.34.13-.57.13-.43-.05-.58-.13-.29-.2-.38-.35-.17-.31-.22-.49-.08-.37-.1-.56-.03-.38-.02-.56m1.3 2.92c.42 0 .79-.07 1.1-.21s.57-.34.77-.59.35-.56.45-.92.15-.76.15-1.2c0-.6-.09-1.12-.27-1.55s-.45-.77-.82-1.01-.83-.36-1.39-.36-1.03.12-1.39.36-.64.57-.82 1.01-.27.95-.27 1.55c0 .44.05.84.15 1.2s.25.67.46.92.46.46.77.59.68.21 1.1.21m-3.21-.94c-.15.05-.3.08-.45.09s-.3.03-.44.02c-.35 0-.65-.05-.91-.15s-.47-.24-.64-.41-.3-.37-.4-.58-.17-.44-.21-.68-.07-.46-.06-.68c0-.35.05-.65.14-.9s.23-.45.4-.59.37-.21.6-.21c.19 0 .35.04.46.11s.2.17.26.29.09.24.11.37.03.25.03.35h1.21c0-.23-.03-.46-.09-.69s-.17-.44-.32-.63-.35-.34-.61-.45-.59-.17-.98-.18c-.42 0-.77.07-1.08.21s-.55.33-.74.57-.34.53-.43.86-.14.69-.14 1.08c0 .28.03.57.08.86s.14.57.27.84.29.51.5.72.47.38.78.51.68.19 1.11.19c.33 0 .62-.02.87-.06s.48-.09.68-.15Zm-8.39-3.1c0-.06.01-.15.05-.26s.09-.22.18-.33.2-.21.34-.28.32-.11.54-.12c.2 0 .37.04.5.1s.24.15.31.26.13.21.16.32.05.21.04.3Zm3.07 3.02c-.12.05-.27.09-.44.13s-.38.07-.62.07c-.31 0-.57-.06-.8-.16s-.42-.25-.58-.42-.29-.38-.39-.59-.17-.44-.22-.67-.07-.45-.07-.66h3.24v-.27c0-.33-.04-.63-.12-.91s-.21-.51-.38-.71-.38-.35-.63-.46-.55-.16-.89-.17c-.15 0-.32.01-.51.05s-.39.1-.6.2-.4.24-.57.44-.32.45-.43.77-.16.72-.17 1.2c0 .73.12 1.33.34 1.81s.55.82.96 1.05.9.34 1.47.34c.2 0 .38-.01.53-.02s.3-.04.43-.07.28-.06.43-.1Zm-4.93.12c-.08.02-.17.04-.27.06s-.2.02-.3.02c-.2 0-.37-.03-.49-.1s-.21-.15-.27-.26-.1-.22-.11-.35-.03-.26-.02-.38V52.93h1.55v-.82H230.3V50.14l-1.06.66v1.32h-1v.82h1v3.54c0 .19.02.37.07.53s.14.31.26.43.3.22.51.29.5.1.83.11c.14 0 .28-.01.42-.02s.28-.03.41-.06Zm-9.07.77h1.06V55.33c0-.28.04-.56.11-.83s.17-.52.3-.74.29-.4.47-.52.38-.2.6-.2c.19 0 .34.03.44.1s.18.17.23.31.07.31.08.5.01.43.01.69V57.7h1.06V53.82c0-.14-.01-.29-.03-.46s-.07-.33-.12-.49-.15-.31-.26-.44-.26-.25-.44-.33-.39-.12-.65-.13c-.28 0-.53.05-.73.14s-.37.21-.51.35-.25.28-.34.43-.15.28-.2.41h-.02v-1.2h-1.06Zm-2.75-2.5v.32c0 .17-.03.34-.1.51s-.15.33-.26.48-.25.27-.4.36-.32.14-.51.14c-.11 0-.21-.03-.3-.09s-.17-.14-.22-.25-.09-.24-.09-.38c0-.18.05-.34.14-.47s.22-.25.38-.34.34-.16.53-.21.4-.07.61-.07Zm0 2.5H221V53.86c0-.1 0-.23-.01-.39s-.05-.32-.1-.49-.15-.33-.28-.48-.31-.27-.54-.37-.53-.14-.9-.15c-.39 0-.72.05-.98.14s-.48.21-.65.37-.28.33-.35.53-.11.41-.11.64h1.12c0-.15.03-.29.09-.42s.16-.23.29-.31.3-.12.51-.12c.14 0 .26.02.38.06s.22.12.3.22.14.25.17.43v.98c-.29 0-.57.02-.86.05s-.56.09-.83.17-.49.19-.7.33-.37.32-.48.52-.18.46-.18.76.06.55.18.77.3.4.53.53.53.19.88.2c.21 0 .4-.03.57-.09s.31-.12.42-.21.21-.17.29-.27.13-.18.16-.26h.02Zm-12.42 0h1.06V50.98h.02l2.33 6.72h1.12l2.32-6.72h.02V57.7h1.06V49.6h-1.64l-2.3 6.64h-.02l-2.3-6.64h-1.66Z" stroke="none"/><path clip-path="url(#r)" d="M208.21 65.25c-.45 0-.82-.14-1.04-.29l-.06-.52c.29.23.68.39 1.12.39.47 0 .81-.27.81-.67s-.23-.62-.75-.81c-.71-.24-1.06-.59-1.06-1.15 0-.52.39-1.03 1.2-1.03.38 0 .69.12.85.23l-.1.41c-.15-.1-.45-.23-.76-.23-.46 0-.72.28-.72.59 0 .33.22.53.69.69.7.25 1.15.57 1.15 1.25s-.49 1.15-1.32 1.15" fill="#fff" stroke="none"/><path clip-path="url(#r)" d="M211.69 63.86l-.61.06c-.38.04-.57.25-.57.51 0 .24.2.44.49.44.35 0 .69-.27.69-.69Zm.51 1.42c-.19-.04-.42-.21-.45-.48-.12.33-.44.48-.79.48-.56 0-.91-.4-.91-.86 0-.56.45-.85.93-.89l.71-.07v-.23c0-.3-.2-.52-.62-.52-.28 0-.57.09-.77.22l-.1-.4c.24-.16.55-.24.89-.24.62 0 1.08.35 1.08.99v1.23c0 .27.15.42.33.45Z" fill="#fff" stroke="none"/><path clip-path="url(#r)" d="M214.8 61.27c-.21.24-.47.45-.75.62l-.25-.11c.24-.19.54-.48.72-.75.04-.05.1-.08.14-.08.07 0 .21.15.21.21 0 .03-.03.07-.07.11m.15 3.95v-.4h-.01c-.11.26-.39.47-.9.47-.62 0-1.09-.39-1.09-1.02v-1.9h.48v1.86c0 .35.23.64.72.64.48 0 .75-.3.75-.64V62.36h.49v2.85Z" fill="#fff" stroke="none"/><path clip-path="url(#r)" d="M218.23 63.04c-.11-.13-.37-.31-.76-.31-.56 0-1.01.43-1.01 1.06s.45 1.06 1.01 1.06c.37 0 .63-.19.76-.37Zm.02 2.17V64.9h-.01c-.13.19-.42.39-.88.39-.67 0-1.4-.53-1.4-1.49 0-.88.62-1.5 1.45-1.5.34 0 .69.14.81.27V60.73h.49v4.48Z" fill="#fff" stroke="none"/><path clip-path="url(#r)" d="M220.74 62.7c-.43 0-.83.36-.91.79h1.63c.01-.03.01-.06.01-.09 0-.34-.26-.7-.73-.7m1.18.9l-.26.27h-1.86c0 .47.39 1.01 1.1 1.01.35 0 .62-.1.83-.25l-.06.46c-.2.11-.46.19-.83.19-.82 0-1.52-.61-1.52-1.49 0-.94.72-1.5 1.39-1.5.79 0 1.23.56 1.23 1.1 0 .08-.01.15-.02.21" fill="#fff" stroke="none"/><path clip-path="url(#r)" d="M225.25 62.74c-.37 0-.64.19-.76.37v1.45c.11.13.37.31.76.31.56 0 1.01-.44 1.01-1.07s-.45-1.06-1.01-1.06m.04 2.55c-.34 0-.69-.14-.81-.27v1.66h-.49V62.36h.46v.32h.01c.13-.19.42-.38.88-.38.67 0 1.4.53 1.4 1.49 0 .87-.62 1.5-1.45 1.5" fill="#fff" stroke="none"/><path clip-path="url(#r)" d="M228.62 62.7c-.43 0-.83.36-.91.79h1.63c.01-.03.01-.06.01-.09 0-.34-.26-.7-.73-.7m1.18.9l-.26.27h-1.86c0 .47.39 1.01 1.1 1.01.35 0 .62-.1.83-.25l-.06.46c-.2.11-.46.19-.83.19-.82 0-1.52-.61-1.52-1.49 0-.94.72-1.5 1.39-1.5.79 0 1.23.56 1.23 1.1 0 .08-.01.15-.02.21" fill="#fff" stroke="none"/><path clip-path="url(#r)" d="M231.9 62.85c-.05-.01-.13-.03-.21-.03-.41 0-.81.24-.81.95v1.45h-.47V62.36h.47v.62h.01c.09-.4.42-.66.86-.66.08 0 .21.01.28.04Z" fill="#fff" stroke="none"/><path clip-path="url(#r)" d="M233.14 65.25c-.34 0-.6-.09-.79-.22l-.06-.5c.21.18.52.33.86.33.3 0 .51-.16.51-.4s-.18-.37-.47-.48c-.54-.19-.84-.43-.84-.88 0-.46.38-.77.9-.77.31 0 .6.11.71.18l-.1.4c-.13-.1-.33-.19-.62-.19-.26 0-.44.15-.44.37 0 .23.16.33.45.43.55.2.87.45.87.92s-.36.81-.99.81" fill="#fff" stroke="none"/><path clip-path="url(#r)" d="M236.05 62.74c-.56 0-1.02.43-1.02 1.07s.46 1.06 1.02 1.06 1.01-.43 1.01-1.06-.46-1.07-1.01-1.07m0 2.55c-.85 0-1.51-.62-1.51-1.49s.66-1.5 1.51-1.5 1.51.62 1.51 1.5-.65 1.49-1.51 1.49" fill="#fff" stroke="none"/><path clip-path="url(#r)" d="M240.1 65.22V63.36c0-.35-.23-.64-.73-.64-.48 0-.75.3-.75.64v1.86h-.49V62.36h.45v.4h.01c.11-.26.38-.47.9-.47.62 0 1.09.39 1.09 1.02v1.9Z" fill="#fff" stroke="none"/><path clip-path="url(#r)" d="M242.81 63.86l-.61.06c-.38.04-.57.25-.57.51 0 .24.2.44.49.44.35 0 .69-.27.69-.69Zm.51 1.42c-.19-.04-.42-.21-.45-.48-.12.33-.44.48-.79.48-.56 0-.91-.4-.91-.86 0-.56.45-.85.93-.89l.71-.07v-.23c0-.3-.2-.52-.62-.52-.28 0-.57.09-.77.22l-.1-.4c.24-.16.55-.24.89-.24.62 0 1.08.35 1.08.99v1.23c0 .27.15.42.33.45Z" fill="#fff" stroke="none"/><path clip-path="url(#r)" d="M244.61 65.32c-.21-.06-.53-.25-.53-.76V60.73h.48V64.5c0 .27.19.45.38.49Z" fill="#fff" stroke="none"/><path clip-path="url(#r)" d="M245.51 62.36H246v2.85h-.49Zm.24-.56c-.1 0-.31-.21-.31-.31s.21-.31.31-.31.31.2.31.31-.21.31-.31.31" fill="#fff" stroke="none"/><path clip-path="url(#r)" d="M246.65 65.22v-.1l.95-1.56c.15-.24.33-.56.48-.79l-.01-.01h-1.33v-.39h2.03v.1l-.96 1.56c-.15.25-.32.52-.49.79l.01.01h1.55v.39Z" fill="#fff" stroke="none"/><path clip-path="url(#r)" d="M250.99 63.86l-.61.06c-.38.04-.57.25-.57.51 0 .24.2.44.49.44.35 0 .69-.27.69-.69Zm.51 1.42c-.19-.04-.42-.21-.45-.48-.12.33-.44.48-.79.48-.56 0-.91-.4-.91-.86 0-.56.45-.85.93-.89l.71-.07v-.23c0-.3-.2-.52-.62-.52-.28 0-.57.09-.77.22l-.1-.4c.24-.16.55-.24.89-.24.62 0 1.08.35 1.08.99v1.23c0 .27.15.42.33.45Z" fill="#fff" stroke="none"/><path clip-path="url(#r)" d="M254.32 63.04c-.11-.13-.37-.31-.76-.31-.56 0-1.01.43-1.01 1.06s.45 1.06 1.01 1.06c.37 0 .63-.19.76-.37Zm.02 2.17V64.9h-.01c-.13.19-.42.39-.88.39-.67 0-1.4-.53-1.4-1.49 0-.88.62-1.5 1.45-1.5.34 0 .69.14.81.27V60.73h.49v4.48Z" fill="#fff" stroke="none"/><path clip-path="url(#r)" d="M257.07 63.86l-.61.06c-.38.04-.57.25-.57.51 0 .24.2.44.49.44.35 0 .69-.27.69-.69Zm.51 1.42c-.19-.04-.42-.21-.45-.48-.12.33-.44.48-.79.48-.56 0-.91-.4-.91-.86 0-.56.45-.85.93-.89l.71-.07v-.23c0-.3-.2-.52-.62-.52-.28 0-.57.09-.77.22l-.1-.4c.24-.16.55-.24.89-.24.62 0 1.08.35 1.08.99v1.23c0 .27.15.42.33.45Z" fill="#fff" stroke="none"/></g><g fill="#611F7F" stroke="#611F7F" stroke-linecap="round" stroke-linejoin="round" stroke-width="3"><path clip-path="url(#s)" d="M83.18 41.37c.26 0 .47-.07.62-.21s.22-.33.22-.56c0-.16-.03-.29-.1-.39s-.16-.17-.27-.23c-.03-.01-.06-.03-.09-.05s-.06-.03-.08-.04c-.11-.04-.18-.09-.23-.12s-.07-.09-.07-.15c0-.11.07-.16.23-.16.09 0 .17.01.24.05s.11.05.12.05c.04 0 .08-.04.12-.13s.06-.16.06-.22c0-.08-.07-.15-.21-.19s-.28-.07-.43-.07c-.24 0-.43.07-.57.2s-.21.31-.21.54c0 .2.04.34.13.44s.21.18.35.23c.11.04.18.07.22.09s.07.04.1.08.05.08.05.13-.02.11-.06.14-.1.05-.18.05c-.07 0-.12-.01-.17-.03s-.1-.04-.16-.06c-.04-.02-.07-.04-.09-.04-.04 0-.09.04-.14.13s-.08.16-.08.22c0 .09.07.16.22.22s.31.09.49.09Z" fill="none"/><path clip-path="url(#s)" d="M84.92 41.37c.12 0 .22-.02.31-.07s.16-.09.21-.15.08-.1.1-.13c0 .02.01.05.02.1s.02.1.04.14.06.07.11.07c.09 0 .19-.01.31-.04s.17-.06.17-.11c0-.03 0-.06-.01-.1-.01-.09-.02-.17-.03-.24s-.01-.18-.01-.31V39.7c0-.23-.07-.42-.22-.55s-.38-.2-.7-.2c-.15 0-.29.02-.41.04s-.22.07-.3.12-.11.1-.11.15c0 .03.01.08.04.14s.06.11.09.16.06.07.09.07c.01 0 .04-.01.1-.04s.12-.05.2-.07.16-.03.25-.03c.12 0 .2.02.25.06s.08.11.08.19v.15c-.48 0-.81.08-.98.24s-.25.36-.25.6c0 .2.05.36.15.48s.26.18.48.18Zm.21-.53c-.07 0-.12-.02-.16-.06s-.06-.08-.06-.14c0-.22.2-.33.6-.33v.25c-.03.08-.09.15-.16.2s-.15.08-.23.08Z" fill="none"/><path clip-path="url(#s)" d="M87 38.69c.21 0 .32-.06.32-.17V38.2c0-.11-.11-.17-.32-.17s-.32.05-.32.17v.32c0 .11.11.17.32.17Zm-.06 2.65h.12c.17 0 .26-.05.26-.14V39.12c0-.1-.08-.14-.26-.14h-.12c-.17 0-.26.05-.26.14V41.2c0 .09.09.14.26.14Z" fill="none"/><path clip-path="url(#s)" d="M89.02 41.37c.15 0 .29-.05.41-.14s.21-.23.28-.42.1-.4.1-.66c0-.37-.08-.67-.24-.88s-.38-.33-.66-.33c-.17 0-.31.05-.44.14v-1c0-.1-.08-.14-.26-.14h-.12c-.17 0-.26.05-.26.14V41.2c0 .1.08.14.26.14h.05c.07 0 .13-.01.17-.02s.07-.05.08-.09c.01-.03.02-.1.04-.19.05.1.13.18.23.24s.22.1.34.1Zm-.19-.54c-.14 0-.25-.09-.35-.27v-1c.1-.06.2-.09.3-.09.26 0 .4.23.4.68 0 .45-.12.67-.35.67Z" fill="none"/><path clip-path="url(#s)" d="M90.81 41.37c.12 0 .22-.02.31-.07s.16-.09.21-.15.08-.1.1-.13c0 .02.01.05.02.1s.02.1.04.14.06.07.11.07c.09 0 .19-.01.31-.04s.17-.06.17-.11c0-.03 0-.06-.01-.1-.01-.09-.02-.17-.03-.24s-.01-.18-.01-.31V39.7c0-.23-.07-.42-.22-.55s-.38-.2-.7-.2c-.15 0-.29.02-.41.04s-.22.07-.3.12-.11.1-.11.15c0 .03.01.08.04.14s.06.11.09.16.06.07.09.07c.01 0 .04-.01.1-.04s.12-.05.2-.07.16-.03.25-.03c.12 0 .2.02.25.06s.08.11.08.19v.15c-.48 0-.81.08-.98.24s-.25.36-.25.6c0 .2.05.36.15.48s.26.18.48.18Zm.21-.53c-.07 0-.12-.02-.16-.06s-.06-.08-.06-.14c0-.22.2-.33.6-.33v.25c-.03.08-.09.15-.16.2s-.15.08-.23.08Z" fill="none"/><path clip-path="url(#s)" d="M96.07 38.94c-.13 0-.26.03-.38.1s-.21.15-.28.24c-.04-.12-.11-.2-.2-.26s-.21-.08-.36-.08c-.13 0-.25.03-.36.1s-.2.15-.27.24c0-.02-.01-.05-.02-.1s-.02-.09-.04-.13-.06-.06-.11-.06c-.09 0-.19.01-.31.04s-.17.06-.17.11c0 .02 0 .05.01.09.01.09.02.17.03.24s.01.17.01.3V41.2c0 .1.09.14.26.14H94c.17 0 .26-.05.26-.14V39.76c.03-.07.08-.13.14-.18s.12-.08.2-.08c.09 0 .16.02.19.07s.06.12.06.21V41.2c0 .1.08.14.26.14h.12c.17 0 .26-.05.26-.14V39.75c.09-.17.21-.26.34-.26.09 0 .16.02.19.07s.06.12.06.21V41.2c0 .1.09.14.26.14h.12c.17 0 .26-.05.26-.14V39.67c0-.25-.05-.43-.15-.55s-.26-.18-.47-.18Z" fill="none"/><path clip-path="url(#s)" d="M97.79 41.37c.12 0 .22-.02.31-.07s.16-.09.21-.15.08-.1.1-.13c0 .02.01.05.02.1s.02.1.04.14.06.07.11.07c.09 0 .19-.01.31-.04s.17-.06.17-.11c0-.03 0-.06-.01-.1-.01-.09-.02-.17-.03-.24s-.01-.18-.01-.31V39.7c0-.23-.07-.42-.22-.55s-.38-.2-.7-.2c-.15 0-.29.02-.41.04s-.22.07-.3.12-.11.1-.11.15c0 .03.01.08.04.14s.06.11.09.16.06.07.09.07c.01 0 .04-.01.1-.04s.12-.05.2-.07.16-.03.25-.03c.12 0 .2.02.25.06s.08.11.08.19v.15c-.48 0-.81.08-.98.24s-.25.36-.25.6c0 .2.05.36.15.48s.26.18.48.18Zm.21-.53c-.07 0-.12-.02-.16-.06s-.06-.08-.06-.14c0-.22.2-.33.6-.33v.25c-.03.08-.09.15-.16.2s-.15.08-.23.08Z" fill="none"/><path clip-path="url(#s)" d="M99.88 38.69c.21 0 .32-.06.32-.17V38.2c0-.11-.11-.17-.32-.17s-.32.05-.32.17v.32c0 .11.11.17.32.17Zm-.06 2.65h.12c.17 0 .26-.05.26-.14V39.12c0-.1-.08-.14-.26-.14h-.12c-.17 0-.26.05-.26.14V41.2c0 .09.09.14.26.14Z" fill="none"/><path clip-path="url(#s)" d="M101.29 41.37c.26 0 .47-.07.62-.21s.22-.33.22-.56c0-.16-.03-.29-.1-.39s-.16-.17-.27-.23c-.03-.01-.06-.03-.09-.05s-.06-.03-.08-.04c-.11-.04-.18-.09-.23-.12s-.07-.09-.07-.15c0-.11.07-.16.23-.16.09 0 .17.01.24.05s.11.05.12.05c.04 0 .08-.04.12-.13s.06-.16.06-.22c0-.08-.07-.15-.21-.19s-.28-.07-.43-.07c-.24 0-.43.07-.57.2s-.21.31-.21.54c0 .2.04.34.13.44s.21.18.35.23c.11.04.18.07.22.09s.07.04.1.08.05.08.05.13-.02.11-.06.14-.1.05-.18.05c-.07 0-.12-.01-.17-.03s-.1-.04-.16-.06c-.04-.02-.07-.04-.09-.04-.04 0-.09.04-.14.13s-.08.16-.08.22c0 .09.07.16.22.22s.31.09.49.09Z" fill="none"/><path clip-path="url(#s)" d="M104.53 41.37c.09 0 .2-.01.32-.04s.23-.06.32-.11.13-.11.13-.18c0-.03-.01-.07-.04-.13s-.05-.11-.09-.15-.07-.06-.1-.06c-.02 0-.05.01-.09.04-.07.03-.14.06-.21.07s-.14.03-.22.03c-.15 0-.26-.04-.35-.11s-.13-.19-.15-.36h1.09c.03 0 .07-.03.13-.1s.09-.12.09-.16c0-.34-.07-.62-.22-.84s-.38-.32-.7-.32-.58.1-.76.3-.28.51-.28.93c0 .38.09.67.28.88s.46.32.84.32Zm-.46-1.44c.05-.3.17-.45.38-.45.1 0 .18.04.23.12s.08.19.08.33h-.69Z" fill="none"/><path clip-path="url(#s)" d="M108.26 38.94c-.13 0-.26.03-.38.1s-.21.15-.28.24c-.04-.12-.11-.2-.2-.26s-.21-.08-.36-.08c-.13 0-.25.03-.36.1s-.2.15-.27.24c0-.02-.01-.05-.02-.1s-.02-.09-.04-.13-.06-.06-.11-.06c-.09 0-.19.01-.31.04s-.17.06-.17.11c0 .02 0 .05.01.09.01.09.02.17.03.24s.01.17.01.3V41.2c0 .1.09.14.26.14h.12c.17 0 .26-.05.26-.14V39.76c.03-.07.08-.13.14-.18s.12-.08.2-.08c.09 0 .16.02.19.07s.06.12.06.21V41.2c0 .1.08.14.26.14h.12c.17 0 .26-.05.26-.14V39.75c.09-.17.21-.26.34-.26.09 0 .16.02.19.07s.06.12.06.21V41.2c0 .1.09.14.26.14h.12c.17 0 .26-.05.26-.14V39.67c0-.25-.05-.43-.15-.55s-.26-.18-.47-.18Z" fill="none"/><path clip-path="url(#s)" d="M109.51 39.67h.14c.17 0 .26-.05.26-.15v-.41c0-.09-.08-.14-.26-.14h-.14c-.17 0-.26.05-.26.14v.41c0 .1.08.15.26.15Zm0 1.67h.14c.17 0 .26-.05.26-.14v-.41c0-.1-.08-.14-.26-.14h-.14c-.17 0-.26.05-.26.14v.41c0 .1.08.14.26.14Z" fill="none"/><path clip-path="url(#t)" d="M83.2 45.79h.21c.06 0 .12-.01.16-.02s.07-.04.07-.07l.24-1.07c.01-.02.01-.05.01-.08s.01-.05.01-.07c0-.03.01-.08.02-.15h.02l.02.14c0 .02.01.05.01.08s.01.06.01.07l.26 1.07c.02.06.1.09.24.09h.21c.06 0 .12-.01.16-.02s.07-.04.07-.07l.5-2.09c.01-.02.01-.04.01-.07 0-.08-.09-.12-.26-.12-.15 0-.24.03-.25.09l-.27 1.19c0-.01-.01.05-.03.16-.01.08-.02.13-.03.15h-.01l-.02-.13c-.01-.03-.01-.06-.01-.08s-.01-.06-.01-.08l-.27-1.2c-.01-.03-.03-.05-.07-.07s-.1-.02-.16-.02h-.1c-.14 0-.22.03-.24.09l-.27 1.17c0 .02-.01.08-.03.19l-.02.11h-.02l-.02-.14c0-.02-.01-.05-.01-.08s-.01-.06-.01-.07l-.27-1.19c-.01-.03-.04-.06-.09-.07s-.13-.02-.25-.02c-.18 0-.26.04-.26.12 0 .03 0 .05.01.07l.54 2.09c.02.06.1.09.24.09Z" fill="none"/><path clip-path="url(#t)" d="M86.39 45.79h.21c.06 0 .12-.01.16-.02s.07-.04.07-.07l.24-1.07c.01-.02.01-.05.01-.08s.01-.05.01-.07c0-.03.01-.08.02-.15h.02l.02.14c0 .02.01.05.01.08s.01.06.01.07l.26 1.07c.02.06.1.09.24.09h.21c.06 0 .12-.01.16-.02s.07-.04.07-.07l.5-2.09c.01-.02.01-.04.01-.07 0-.08-.09-.12-.26-.12-.15 0-.24.03-.25.09l-.27 1.19c0-.01-.01.05-.03.16-.01.08-.02.13-.03.15h-.01l-.02-.13c-.01-.03-.01-.06-.01-.08s-.01-.06-.01-.08l-.27-1.2c-.01-.03-.03-.05-.07-.07s-.1-.02-.16-.02h-.1c-.14 0-.22.03-.24.09l-.27 1.17c0 .02-.01.08-.03.19l-.02.11h-.02l-.02-.14c0-.02-.01-.05-.01-.08s-.01-.06-.01-.07l-.27-1.19c-.01-.03-.04-.06-.09-.07s-.13-.02-.25-.02c-.18 0-.26.04-.26.12 0 .03 0 .05.01.07l.54 2.09c.02.06.1.09.24.09Z" fill="none"/><path clip-path="url(#t)" d="M89.58 45.79h.21c.06 0 .12-.01.16-.02s.07-.04.07-.07l.24-1.07c.01-.02.01-.05.01-.08s.01-.05.01-.07c0-.03.01-.08.02-.15h.02l.02.14c0 .02.01.05.01.08s.01.06.01.07l.26 1.07c.02.06.1.09.24.09h.21c.06 0 .12-.01.16-.02s.07-.04.07-.07l.5-2.09c.01-.02.01-.04.01-.07 0-.08-.09-.12-.26-.12-.15 0-.24.03-.25.09l-.27 1.19c0-.01-.01.05-.03.16-.01.08-.02.13-.03.15h-.01l-.02-.13c-.01-.03-.01-.06-.01-.08s-.01-.06-.01-.08l-.27-1.2c-.01-.03-.03-.05-.07-.07s-.1-.02-.16-.02h-.1c-.14 0-.22.03-.24.09l-.27 1.17c0 .02-.01.08-.03.19l-.02.11h-.02l-.02-.14c0-.02-.01-.05-.01-.08s-.01-.06-.01-.07l-.27-1.19c-.01-.03-.04-.06-.09-.07s-.13-.02-.25-.02c-.18 0-.26.04-.26.12 0 .03 0 .05.01.07l.54 2.09c.02.06.1.09.24.09Z" fill="none"/><path clip-path="url(#t)" d="M92.27 45.79h.14c.17 0 .26-.05.26-.14v-.41c0-.09-.08-.14-.26-.14h-.14c-.17 0-.26.05-.26.14v.41c0 .1.08.14.26.14Z" fill="none"/><path clip-path="url(#t)" d="M93.33 43.14c.21 0 .32-.06.32-.17v-.32c0-.11-.11-.17-.32-.17s-.32.05-.32.17v.32c0 .11.11.17.32.17Zm-.06 2.66h.12c.17 0 .26-.05.26-.14V43.57c0-.1-.08-.14-.26-.14h-.12c-.17 0-.26.05-.26.14v2.08c0 .09.09.14.26.14Z" fill="none"/><path clip-path="url(#t)" d="M94.88 45.82c.13 0 .24-.03.34-.09s.18-.14.23-.24c0 .02.01.05.02.1s.02.09.04.14.06.07.11.07c.09 0 .19-.01.31-.04s.17-.06.17-.11c0-.03 0-.06-.01-.1-.01-.09-.02-.17-.03-.24s-.01-.18-.01-.31V42.54c0-.1-.08-.14-.26-.14h-.12c-.17 0-.26.05-.26.14v1c-.12-.09-.27-.14-.44-.14-.29 0-.51.11-.66.33s-.24.51-.24.88c0 .26.03.47.1.66s.16.32.28.42.26.14.41.14Zm.19-.55c-.23 0-.35-.22-.35-.67s.13-.68.4-.68c.1 0 .2.03.3.09v1c-.1.18-.21.27-.35.27Z" fill="none"/><path clip-path="url(#t)" d="M99.03 43.4c-.13 0-.26.03-.38.1s-.21.15-.28.24c-.04-.12-.11-.2-.2-.26s-.21-.08-.36-.08c-.13 0-.25.03-.36.1s-.2.15-.27.24c0-.02-.01-.05-.02-.1s-.02-.09-.04-.13-.06-.06-.11-.06c-.09 0-.19.01-.31.04s-.17.06-.17.11c0 .02 0 .05.01.09.01.09.02.17.03.24s.01.17.01.3v1.43c0 .1.09.14.26.14h.12c.17 0 .26-.05.26-.14V44.21c.03-.07.08-.13.14-.18s.12-.08.2-.08c.09 0 .16.02.19.07s.06.12.06.21v1.43c0 .1.08.14.26.14h.12c.17 0 .26-.05.26-.14V44.2c.09-.17.21-.26.34-.26.09 0 .16.02.19.07s.06.12.06.21v1.43c0 .1.09.14.26.14h.12c.17 0 .26-.05.26-.14V44.13c0-.25-.05-.43-.15-.55s-.26-.18-.47-.18Z" fill="none"/><path clip-path="url(#t)" d="M100.75 45.82c.12 0 .22-.02.31-.07s.16-.09.21-.15.08-.1.1-.13c0 .02.01.05.02.1s.02.1.04.14.06.07.11.07c.09 0 .19-.01.31-.04s.17-.06.17-.11c0-.03 0-.06-.01-.1-.01-.09-.02-.17-.03-.24s-.01-.18-.01-.31v-.85c0-.23-.07-.42-.22-.55s-.38-.2-.7-.2c-.15 0-.29.02-.41.04s-.22.07-.3.12-.11.1-.11.15c0 .03.01.08.04.14s.06.11.09.16.06.07.09.07c.01 0 .04-.01.1-.04s.12-.05.2-.07.16-.03.25-.03c.12 0 .2.02.25.06s.08.11.08.19v.15c-.48 0-.81.08-.98.24s-.25.36-.25.6c0 .2.05.36.15.48s.26.18.48.18Zm.21-.53c-.07 0-.12-.02-.16-.05s-.06-.08-.06-.14c0-.22.2-.33.6-.33v.25c-.03.08-.09.15-.16.2s-.15.08-.23.08Z" fill="none"/><path clip-path="url(#t)" d="M102.79 45.79h.12c.17 0 .26-.05.26-.14V44.21c.04-.07.08-.13.14-.18s.13-.08.2-.08c.09 0 .16.02.2.07s.06.12.06.21v1.43c0 .1.08.14.26.14h.12c.17 0 .26-.05.26-.14V44.13c0-.25-.05-.43-.15-.55s-.26-.18-.48-.18c-.13 0-.25.03-.36.1s-.2.15-.27.24c0-.02-.01-.05-.02-.1s-.03-.09-.04-.13-.06-.06-.11-.06c-.09 0-.19.01-.31.04s-.17.06-.17.11c0 .02 0 .05.01.09.01.09.02.17.03.24s.01.17.01.3v1.43c0 .1.08.14.26.14Z" fill="none"/><path clip-path="url(#t)" d="M105.6 45.82c.27 0 .41-.07.41-.22 0-.02-.01-.05-.02-.11s-.03-.1-.05-.15-.04-.07-.07-.07c-.01 0-.03 0-.06.01s-.04.01-.06.01c-.06 0-.09-.02-.12-.04s-.04-.08-.04-.15V43.96h.21c.05 0 .08-.02.1-.05s.03-.09.03-.17v-.08c0-.08-.01-.13-.03-.17s-.05-.05-.1-.05h-.21v-.43c0-.1-.07-.14-.21-.14h-.13c-.14 0-.22.05-.23.14l-.06.43h-.07c-.05 0-.08.02-.1.05s-.03.09-.03.17v.08c0 .08.01.14.03.17s.05.05.1.05h.07v1.13c0 .49.21.73.62.73Z" fill="none"/><path clip-path="url(#t)" d="M107.41 45.82c.09 0 .2-.01.32-.04s.23-.06.32-.11.13-.11.13-.18c0-.03-.01-.07-.04-.13s-.05-.11-.09-.15-.07-.07-.1-.07c-.02 0-.05.01-.09.04-.07.03-.14.05-.21.07s-.14.03-.22.03c-.15 0-.26-.04-.35-.11s-.13-.19-.15-.36h1.09c.03 0 .07-.03.13-.1s.09-.12.09-.16c0-.34-.07-.62-.22-.84s-.38-.32-.7-.32-.58.1-.76.3-.28.51-.28.93c0 .38.09.67.28.88s.46.32.84.32Zm-.46-1.44c.05-.3.17-.45.38-.45.1 0 .18.04.23.12s.08.19.08.33h-.69Z" fill="none"/><path clip-path="url(#t)" d="M109.67 45.82c.07 0 .16-.01.28-.03s.23-.05.32-.1.14-.11.14-.18c0-.03-.01-.07-.04-.13s-.05-.11-.09-.15-.07-.07-.1-.07c-.01 0-.03.01-.08.03-.01.01-.04.02-.07.03s-.09.03-.15.05-.12.03-.2.03c-.16 0-.28-.06-.35-.17s-.11-.29-.11-.52.04-.41.12-.52.2-.17.37-.17c.08 0 .15.01.2.03s.11.04.17.07c.04.02.06.03.08.03.04 0 .08-.05.14-.14s.09-.16.09-.21c0-.1-.08-.17-.22-.23s-.31-.08-.49-.08c-.38 0-.65.1-.83.31s-.27.51-.27.92.09.71.27.9.45.3.81.3Z" fill="none"/><path clip-path="url(#t)" d="M111.71 45.82c.34 0 .6-.1.77-.31s.26-.51.26-.9-.09-.69-.26-.9-.43-.31-.77-.31-.6.1-.77.31-.27.51-.27.9.09.69.27.9.43.31.77.31Zm0-.53c-.26 0-.4-.23-.4-.69 0-.23.03-.4.1-.51s.17-.17.3-.17.23.06.3.17.1.29.1.51-.03.4-.1.51-.16.17-.3.17Z" fill="none"/><path clip-path="url(#t)" d="M113.44 45.79h.12c.17 0 .26-.05.26-.14V44.21c.04-.06.08-.11.14-.16s.13-.07.2-.07c.03 0 .07 0 .11.02s.07.02.09.02c.04 0 .07-.05.09-.14s.04-.17.04-.24-.02-.12-.05-.17-.1-.07-.19-.07c-.11 0-.2.03-.28.09s-.14.15-.19.25c0-.02-.01-.05-.02-.1s-.03-.09-.04-.13-.06-.06-.11-.06c-.09 0-.19.01-.31.04s-.17.06-.17.11c0 .02 0 .05.01.09.01.09.02.17.03.24s.01.17.01.3v1.43c0 .1.08.14.26.14Z" fill="none"/><path clip-path="url(#t)" d="M115.04 46.71h.12c.17 0 .26-.05.26-.14v-.89c.12.09.27.14.44.14.29 0 .51-.11.67-.33s.24-.51.24-.88c0-.25-.03-.47-.1-.66s-.16-.32-.28-.42-.26-.14-.41-.14c-.13 0-.24.03-.34.09s-.18.14-.23.24c0-.02-.01-.05-.02-.1s-.03-.09-.04-.13-.06-.06-.11-.06c-.09 0-.19.01-.31.04s-.17.06-.17.11c0 .02 0 .05.01.09.01.09.02.17.03.24s.01.17.01.3v2.34c0 .1.08.14.26.14Zm.68-1.42c-.1 0-.2-.03-.3-.09v-1c.1-.18.21-.26.35-.26.23 0 .35.22.35.67s-.13.68-.4.68Z" fill="none"/><path clip-path="url(#t)" d="M117.29 45.79h.14c.17 0 .26-.05.26-.14v-.41c0-.09-.08-.14-.26-.14h-.14c-.17 0-.26.05-.26.14v.41c0 .1.08.14.26.14Z" fill="none"/><path clip-path="url(#t)" d="M119.04 45.82c.07 0 .16-.01.28-.03s.23-.05.32-.1.14-.11.14-.18c0-.03-.01-.07-.04-.13s-.05-.11-.09-.15-.07-.07-.1-.07c-.01 0-.03.01-.08.03-.01.01-.04.02-.07.03s-.09.03-.15.05-.12.03-.2.03c-.16 0-.28-.06-.35-.17s-.11-.29-.11-.52.04-.41.12-.52.2-.17.37-.17c.08 0 .15.01.2.03s.11.04.17.07c.04.02.06.03.08.03.04 0 .08-.05.14-.14s.09-.16.09-.21c0-.1-.08-.17-.22-.23s-.31-.08-.49-.08c-.38 0-.65.1-.83.31s-.27.51-.27.92.09.71.27.9.45.3.81.3Z" fill="none"/><path clip-path="url(#t)" d="M121.07 45.82c.34 0 .6-.1.77-.31s.26-.51.26-.9-.09-.69-.26-.9-.43-.31-.77-.31-.6.1-.77.31-.27.51-.27.9.09.69.27.9.43.31.77.31Zm0-.53c-.26 0-.4-.23-.4-.69 0-.23.03-.4.1-.51s.17-.17.3-.17.23.06.3.17.1.29.1.51-.03.4-.1.51-.16.17-.3.17Z" fill="none"/><path clip-path="url(#t)" d="M125.01 43.4c-.13 0-.26.03-.38.1s-.21.15-.28.24c-.04-.12-.11-.2-.2-.26s-.21-.08-.36-.08c-.13 0-.25.03-.36.1s-.2.15-.27.24c0-.02-.01-.05-.02-.1s-.02-.09-.04-.13-.06-.06-.11-.06c-.09 0-.19.01-.31.04s-.17.06-.17.11c0 .02 0 .05.01.09.01.09.02.17.03.24s.01.17.01.3v1.43c0 .1.09.14.26.14h.12c.17 0 .26-.05.26-.14V44.21c.03-.07.08-.13.14-.18s.12-.08.2-.08c.09 0 .16.02.19.07s.06.12.06.21v1.43c0 .1.08.14.26.14h.12c.17 0 .26-.05.26-.14V44.2c.09-.17.21-.26.34-.26.09 0 .16.02.19.07s.06.12.06.21v1.43c0 .1.09.14.26.14h.12c.17 0 .26-.05.26-.14V44.13c0-.25-.05-.43-.15-.55s-.26-.18-.47-.18Z" fill="none"/><path clip-path="url(#t)" d="M126.26 45.79h.14c.17 0 .26-.05.26-.14v-.41c0-.09-.08-.14-.26-.14h-.14c-.17 0-.26.05-.26.14v.41c0 .1.08.14.26.14Z" fill="none"/><path clip-path="url(#t)" d="M128.21 45.82c.15 0 .29-.05.41-.14s.21-.23.28-.42.1-.4.1-.66c0-.37-.08-.67-.24-.88s-.38-.33-.66-.33c-.17 0-.31.05-.44.14v-1c0-.1-.08-.14-.26-.14h-.12c-.17 0-.26.05-.26.14v3.11c0 .1.08.14.26.14h.05c.07 0 .13-.01.17-.02s.07-.05.08-.09c.01-.03.02-.1.04-.19.05.1.13.18.23.24s.22.09.34.09Zm-.19-.55c-.14 0-.25-.09-.35-.27v-1c.1-.06.2-.09.3-.09.26 0 .4.23.4.68s-.12.67-.35.67Z" fill="none"/><path clip-path="url(#t)" d="M129.71 45.79h.12c.17 0 .26-.05.26-.14V44.21c.04-.06.08-.11.14-.16s.13-.07.2-.07c.03 0 .07 0 .11.02s.07.02.09.02c.04 0 .07-.05.09-.14s.04-.17.04-.24-.02-.12-.05-.17-.1-.07-.19-.07c-.11 0-.2.03-.28.09s-.14.15-.19.25c0-.02-.01-.05-.02-.1s-.03-.09-.04-.13-.06-.06-.11-.06c-.09 0-.19.01-.31.04s-.17.06-.17.11c0 .02 0 .05.01.09.01.09.02.17.03.24s.01.17.01.3v1.43c0 .1.08.14.26.14Z" fill="none"/><path clip-path="url(#u)" d="M82.34 47.87h.83v.83h-.83Z" fill="#fff" stroke="none"/><path clip-path="url(#u)" d="M83.17 47.87h.83v.83h-.83Z" fill="#fff" stroke="none"/><path clip-path="url(#u)" d="M84.01 47.87h.83v.83h-.83Z" fill="#fff" stroke="none"/><path clip-path="url(#u)" d="M84.84 47.87h.83v.83h-.83Z" fill="#fff" stroke="none"/><path clip-path="url(#u)" d="M85.68 47.87h.83v.83h-.83Z" fill="#fff" stroke="none"/><path clip-path="url(#u)" d="M86.51 47.87h.83v.83h-.83Z" fill="#fff" stroke="none"/><path clip-path="url(#u)" d="M87.35 47.87h.83v.83h-.83Z" fill="#fff" stroke="none"/><path clip-path="url(#u)" d="M89.01 47.87h.83v.83h-.83Z" fill="#fff" stroke="none"/><path clip-path="url(#u)" d="M89.85 47.87h.83v.83h-.83Z" fill="#fff" stroke="none"/><path clip-path="url(#u)" d="M90.68 47.87h.83v.83h-.83Z" fill="#fff" stroke="none"/><path clip-path="url(#u)" d="M91.52 47.87h.83v.83h-.83Z" fill="#fff" stroke="none"/><path clip-path="url(#u)" d="M93.19 47.87h.83v.83h-.83Z" fill="#fff" stroke="none"/><path clip-path="url(#u)" d="M94.02 47.87h.83v.83h-.83Z" fill="#fff" stroke="none"/><path clip-path="url(#u)" d="M97.36 47.87h.83v.83h-.83Z" fill="#fff" stroke="none"/><path clip-path="url(#u)" d="M98.19 47.87h.83v.83h-.83Z" fill="#fff" stroke="none"/><path clip-path="url(#u)" d="M99.03 47.87h.83v.83h-.83Z" fill="#fff" stroke="none"/><path clip-path="url(#u)" d="M99.86 47.87h.83v.83h-.83Z" fill="#fff" stroke="none"/><path clip-path="url(#u)" d="M100.7 47.87h.83v.83h-.83Z" fill="#fff" stroke="none"/><path clip-path="url(#u)" d="M101.53 47.87h.83v.83h-.83Z" fill="#fff" stroke="none"/><path clip-path="url(#u)" d="M102.37 47.87h.83v.83h-.83Z" fill="#fff" stroke="none"/><path clip-path="url(#u)" d="M82.34 48.71h.83v.83h-.83Z" fill="#fff" stroke="none"/><path clip-path="url(#u)" d="M87.35 48.71h.83v.83h-.83Z" fill="#fff" stroke="none"/><path clip-path="url(#u)" d="M89.01 48.71h.83v.83h-.83Z" fill="#fff" stroke="none"/><path clip-path="url(#u)" d="M91.52 48.71h.83v.83h-.83Z" fill="#fff" stroke="none"/><path clip-path="url(#u)" d="M94.02 48.71h.83v.83h-.83Z" fill="#fff" stroke="none"/><path clip-path="url(#u)" d="M95.69 48.71h.83v.83h-.83Z" fill="#fff" stroke="none"/><path clip-path="url(#u)" d="M97.36 48.71h.83v.83h-.83Z" fill="#fff" stroke="none"/><path clip-path="url(#u)" d="M102.37 48.71h.83v.83h-.83Z" fill="#fff" stroke="none"/><path clip-path="url(#u)" d="M82.34 49.54h.83v.83h-.83Z" fill="#fff" stroke="none"/><path clip-path="url(#u)" d="M84.01 49.54h.83v.83h-.83Z" fill="#fff" stroke="none"/><path clip-path="url(#u)" d="M84.84 49.54h.83v.83h-.83Z" fill="#fff" stroke="none"/><path clip-path="url(#u)" d="M85.68 49.54h.83v.83h-.83Z" fill="#fff" stroke="none"/><path clip-path="url(#u)" d="M87.35 49.54h.83v.83h-.83Z" fill="#fff" stroke="none"/><path clip-path="url(#u)" d="M89.85 49.54h.83v.83h-.83Z" fill="#fff" stroke="none"/><path clip-path="url(#u)" d="M93.19 49.54h.83v.83h-.83Z" fill="#fff" stroke="none"/><path clip-path="url(#u)" d="M94.02 49.54h.83v.83h-.83Z" fill="#fff" stroke="none"/><path clip-path="url(#u)" d="M97.36 49.54h.83v.83h-.83Z" fill="#fff" stroke="none"/><path clip-path="url(#u)" d="M99.03 49.54h.83v.83h-.83Z" fill="#fff" stroke="none"/><path clip-path="url(#u)" d="M99.86 49.54h.83v.83h-.83Z" fill="#fff" stroke="none"/><path clip-path="url(#u)" d="M100.7 49.54h.83v.83h-.83Z" fill="#fff" stroke="none"/><path clip-path="url(#u)" d="M102.37 49.54h.83v.83h-.83Z" fill="#fff" stroke="none"/><path clip-path="url(#u)" d="M82.34 50.38h.83v.83h-.83Z" fill="#fff" stroke="none"/><path clip-path="url(#u)" d="M84.01 50.38h.83v.83h-.83Z" fill="#fff" stroke="none"/><path clip-path="url(#u)" d="M84.84 50.38h.83v.83h-.83Z" fill="#fff" stroke="none"/><path clip-path="url(#u)" d="M85.68 50.38h.83v.83h-.83Z" fill="#fff" stroke="none"/><path clip-path="url(#u)" d="M87.35 50.38h.83v.83h-.83Z" fill="#fff" stroke="none"/><path clip-path="url(#u)" d="M91.52 50.38h.83v.83h-.83Z" fill="#fff" stroke="none"/><path clip-path="url(#u)" d="M92.35 50.38h.83v.83h-.83Z" fill="#fff" stroke="none"/><path clip-path="url(#u)" d="M93.19 50.38h.83v.83h-.83Z" fill="#fff" stroke="none"/><path clip-path="url(#u)" d="M94.02 50.38h.83v.83h-.83Z" fill="#fff" stroke="none"/><path clip-path="url(#u)" d="M94.86 50.38h.83v.83h-.83Z" fill="#fff" stroke="none"/><path clip-path="url(#u)" d="M97.36 50.38h.83v.83h-.83Z" fill="#fff" stroke="none"/><path clip-path="url(#u)" d="M99.03 50.38h.83v.83h-.83Z" fill="#fff" stroke="none"/><path clip-path="url(#u)" d="M99.86 50.38h.83v.83h-.83Z" fill="#fff" stroke="none"/><path clip-path="url(#u)" d="M100.7 50.38h.83v.83h-.83Z" fill="#fff" stroke="none"/><path clip-path="url(#u)" d="M102.37 50.38h.83v.83h-.83Z" fill="#fff" stroke="none"/><path clip-path="url(#u)" d="M82.34 51.21h.83v.83h-.83Z" fill="#fff" stroke="none"/><path clip-path="url(#u)" d="M84.01 51.21h.83v.83h-.83Z" fill="#fff" stroke="none"/><path clip-path="url(#u)" d="M84.84 51.21h.83v.83h-.83Z" fill="#fff" stroke="none"/><path clip-path="url(#u)" d="M85.68 51.21h.83v.83h-.83Z" fill="#fff" stroke="none"/><path clip-path="url(#u)" d="M87.35 51.21h.83v.83h-.83Z" fill="#fff" stroke="none"/><path clip-path="url(#u)" d="M89.01 51.21h.83v.83h-.83Z" fill="#fff" stroke="none"/><path clip-path="url(#u)" d="M91.52 51.21h.83v.83h-.83Z" fill="#fff" stroke="none"/><path clip-path="url(#u)" d="M92.35 51.21h.83v.83h-.83Z" fill="#fff" stroke="none"/><path clip-path="url(#u)" d="M93.19 51.21h.83v.83h-.83Z" fill="#fff" stroke="none"/><path clip-path="url(#u)" d="M94.02 51.21h.83v.83h-.83Z" fill="#fff" stroke="none"/><path clip-path="url(#u)" d="M95.69 51.21h.83v.83h-.83Z" fill="#fff" stroke="none"/><path clip-path="url(#u)" d="M97.36 51.21h.83v.83h-.83Z" fill="#fff" stroke="none"/><path clip-path="url(#u)" d="M99.03 51.21h.83v.83h-.83Z" fill="#fff" stroke="none"/><path clip-path="url(#u)" d="M99.86 51.21h.83v.83h-.83Z" fill="#fff" stroke="none"/><path clip-path="url(#u)" d="M100.7 51.21h.83v.83h-.83Z" fill="#fff" stroke="none"/><path clip-path="url(#u)" d="M102.37 51.21h.83v.83h-.83Z" fill="#fff" stroke="none"/><path clip-path="url(#u)" d="M82.34 52.05h.83v.83h-.83Z" fill="#fff" stroke="none"/><path clip-path="url(#u)" d="M87.35 52.05h.83v.83h-.83Z" fill="#fff" stroke="none"/><path clip-path="url(#u)" d="M89.01 52.05h.83v.83h-.83Z" fill="#fff" stroke="none"/><path clip-path="url(#u)" d="M89.85 52.05h.83v.83h-.83Z" fill="#fff" stroke="none"/><path clip-path="url(#u)" d="M90.68 52.05h.83v.83h-.83Z" fill="#fff" stroke="none"/><path clip-path="url(#u)" d="M92.35 52.05h.83v.83h-.83Z" fill="#fff" stroke="none"/><path clip-path="url(#u)" d="M93.19 52.05h.83v.83h-.83Z" fill="#fff" stroke="none"/><path clip-path="url(#u)" d="M94.02 52.05h.83v.83h-.83Z" fill="#fff" stroke="none"/><path clip-path="url(#u)" d="M95.69 52.05h.83v.83h-.83Z" fill="#fff" stroke="none"/><path clip-path="url(#u)" d="M97.36 52.05h.83v.83h-.83Z" fill="#fff" stroke="none"/><path clip-path="url(#u)" d="M102.37 52.05h.83v.83h-.83Z" fill="#fff" stroke="none"/><path clip-path="url(#u)" d="M82.34 52.88h.83v.83h-.83Z" fill="#fff" stroke="none"/><path clip-path="url(#u)" d="M83.17 52.88h.83v.83h-.83Z" fill="#fff" stroke="none"/><path clip-path="url(#u)" d="M84.01 52.88h.83v.83h-.83Z" fill="#fff" stroke="none"/><path clip-path="url(#u)" d="M84.84 52.88h.83v.83h-.83Z" fill="#fff" stroke="none"/><path clip-path="url(#u)" d="M85.68 52.88h.83v.83h-.83Z" fill="#fff" stroke="none"/><path clip-path="url(#u)" d="M86.51 52.88h.83v.83h-.83Z" fill="#fff" stroke="none"/><path clip-path="url(#u)" d="M87.35 52.88h.83v.83h-.83Z" fill="#fff" stroke="none"/><path clip-path="url(#u)" d="M89.01 52.88h.83v.83h-.83Z" fill="#fff" stroke="none"/><path clip-path="url(#u)" d="M90.68 52.88h.83v.83h-.83Z" fill="#fff" stroke="none"/><path clip-path="url(#u)" d="M92.35 52.88h.83v.83h-.83Z" fill="#fff" stroke="none"/><path clip-path="url(#u)" d="M94.02 52.88h.83v.83h-.83Z" fill="#fff" stroke="none"/><path clip-path="url(#u)" d="M95.69 52.88h.83v.83h-.83Z" fill="#fff" stroke="none"/><path clip-path="url(#u)" d="M97.36 52.88h.83v.83h-.83Z" fill="#fff" stroke="none"/><path clip-path="url(#u)" d="M98.19 52.88h.83v.83h-.83Z" fill="#fff" stroke="none"/><path clip-path="url(#u)" d="M99.03 52.88h.83v.83h-.83Z" fill="#fff" stroke="none"/><path clip-path="url(#u)" d="M99.86 52.88h.83v.83h-.83Z" fill="#fff" stroke="none"/><path clip-path="url(#u)" d="M100.7 52.88h.83v.83h-.83Z" fill="#fff" stroke="none"/><path clip-path="url(#u)" d="M101.53 52.88h.83v.83h-.83Z" fill="#fff" stroke="none"/><path clip-path="url(#u)" d="M102.37 52.88h.83v.83h-.83Z" fill="#fff" stroke="none"/><path clip-path="url(#u)" d="M89.01 53.72h.83v.83h-.83Z" fill="#fff" stroke="none"/><path clip-path="url(#u)" d="M89.85 53.72h.83v.83h-.83Z" fill="#fff" stroke="none"/><path clip-path="url(#u)" d="M94.86 53.72h.83v.83h-.83Z" fill="#fff" stroke="none"/><path clip-path="url(#u)" d="M95.69 53.72h.83v.83h-.83Z" fill="#fff" stroke="none"/><path clip-path="url(#u)" d="M82.34 54.55h.83v.83h-.83Z" fill="#fff" stroke="none"/><path clip-path="url(#u)" d="M83.17 54.55h.83v.83h-.83Z" fill="#fff" stroke="none"/><path clip-path="url(#u)" d="M84.01 54.55h.83v.83h-.83Z" fill="#fff" stroke="none"/><path clip-path="url(#u)" d="M86.51 54.55h.83v.83h-.83Z" fill="#fff" stroke="none"/><path clip-path="url(#u)" d="M87.35 54.55h.83v.83h-.83Z" fill="#fff" stroke="none"/><path clip-path="url(#u)" d="M89.01 54.55h.83v.83h-.83Z" fill="#fff" stroke="none"/><path clip-path="url(#u)" d="M89.85 54.55h.83v.83h-.83Z" fill="#fff" stroke="none"/><path clip-path="url(#u)" d="M91.52 54.55h.83v.83h-.83Z" fill="#fff" stroke="none"/><path clip-path="url(#u)" d="M92.35 54.55h.83v.83h-.83Z" fill="#fff" stroke="none"/><path clip-path="url(#u)" d="M95.69 54.55h.83v.83h-.83Z" fill="#fff" stroke="none"/><path clip-path="url(#u)" d="M96.52 54.55h.83v.83h-.83Z" fill="#fff" stroke="none"/><path clip-path="url(#u)" d="M97.36 54.55h.83v.83h-.83Z" fill="#fff" stroke="none"/><path clip-path="url(#u)" d="M98.19 54.55h.83v.83h-.83Z" fill="#fff" stroke="none"/><path clip-path="url(#u)" d="M99.03 54.55h.83v.83h-.83Z" fill="#fff" stroke="none"/><path clip-path="url(#u)" d="M101.53 54.55h.83v.83h-.83Z" fill="#fff" stroke="none"/><path clip-path="url(#u)" d="M102.37 54.55h.83v.83h-.83Z" fill="#fff" stroke="none"/><path clip-path="url(#u)" d="M83.17 55.38h.83v.83h-.83Z" fill="#fff" stroke="none"/><path clip-path="url(#u)" d="M85.68 55.38h.83v.83h-.83Z" fill="#fff" stroke="none"/><path clip-path="url(#u)" d="M89.01 55.38h.83v.83h-.83Z" fill="#fff" stroke="none"/><path clip-path="url(#u)" d="M92.35 55.38h.83v.83h-.83Z" fill="#fff" stroke="none"/><path clip-path="url(#u)" d="M94.02 55.38h.83v.83h-.83Z" fill="#fff" stroke="none"/><path clip-path="url(#u)" d="M94.86 55.38h.83v.83h-.83Z" fill="#fff" stroke="none"/><path clip-path="url(#u)" d="M95.69 55.38h.83v.83h-.83Z" fill="#fff" stroke="none"/><path clip-path="url(#u)" d="M96.52 55.38h.83v.83h-.83Z" fill="#fff" stroke="none"/><path clip-path="url(#u)" d="M97.36 55.38h.83v.83h-.83Z" fill="#fff" stroke="none"/><path clip-path="url(#u)" d="M98.19 55.38h.83v.83h-.83Z" fill="#fff" stroke="none"/><path clip-path="url(#u)" d="M99.86 55.38h.83v.83h-.83Z" fill="#fff" stroke="none"/><path clip-path="url(#u)" d="M101.53 55.38h.83v.83h-.83Z" fill="#fff" stroke="none"/><path clip-path="url(#u)" d="M102.37 55.38h.83v.83h-.83Z" fill="#fff" stroke="none"/><path clip-path="url(#u)" d="M82.34 56.22h.83v.83h-.83Z" fill="#fff" stroke="none"/><path clip-path="url(#u)" d="M83.17 56.22h.83v.83h-.83Z" fill="#fff" stroke="none"/><path clip-path="url(#u)" d="M84.01 56.22h.83v.83h-.83Z" fill="#fff" stroke="none"/><path clip-path="url(#u)" d="M84.84 56.22h.83v.83h-.83Z" fill="#fff" stroke="none"/><path clip-path="url(#u)" d="M86.51 56.22h.83v.83h-.83Z" fill="#fff" stroke="none"/><path clip-path="url(#u)" d="M87.35 56.22h.83v.83h-.83Z" fill="#fff" stroke="none"/><path clip-path="url(#u)" d="M88.18 56.22h.83v.83h-.83Z" fill="#fff" stroke="none"/><path clip-path="url(#u)" d="M89.01 56.22h.83v.83h-.83Z" fill="#fff" stroke="none"/><path clip-path="url(#u)" d="M89.85 56.22h.83v.83h-.83Z" fill="#fff" stroke="none"/><path clip-path="url(#u)" d="M90.68 56.22h.83v.83h-.83Z" fill="#fff" stroke="none"/><path clip-path="url(#u)" d="M92.35 56.22h.83v.83h-.83Z" fill="#fff" stroke="none"/><path clip-path="url(#u)" d="M94.02 56.22h.83v.83h-.83Z" fill="#fff" stroke="none"/><path clip-path="url(#u)" d="M94.86 56.22h.83v.83h-.83Z" fill="#fff" stroke="none"/><path clip-path="url(#u)" d="M96.52 56.22h.83v.83h-.83Z" fill="#fff" stroke="none"/><path clip-path="url(#u)" d="M98.19 56.22h.83v.83h-.83Z" fill="#fff" stroke="none"/><path clip-path="url(#u)" d="M99.03 56.22h.83v.83h-.83Z" fill="#fff" stroke="none"/><path clip-path="url(#u)" d="M99.86 56.22h.83v.83h-.83Z" fill="#fff" stroke="none"/><path clip-path="url(#u)" d="M100.7 56.22h.83v.83h-.83Z" fill="#fff" stroke="none"/><path clip-path="url(#u)" d="M102.37 56.22h.83v.83h-.83Z" fill="#fff" stroke="none"/><path clip-path="url(#u)" d="M82.34 57.05h.83v.83h-.83Z" fill="#fff" stroke="none"/><path clip-path="url(#u)" d="M84.01 57.05h.83v.83h-.83Z" fill="#fff" stroke="none"/><path clip-path="url(#u)" d="M84.84 57.05h.83v.83h-.83Z" fill="#fff" stroke="none"/><path clip-path="url(#u)" d="M86.51 57.05h.83v.83h-.83Z" fill="#fff" stroke="none"/><path clip-path="url(#u)" d="M88.18 57.05h.83v.83h-.83Z" fill="#fff" stroke="none"/><path clip-path="url(#u)" d="M90.68 57.05h.83v.83h-.83Z" fill="#fff" stroke="none"/><path clip-path="url(#u)" d="M91.52 57.05h.83v.83h-.83Z" fill="#fff" stroke="none"/><path clip-path="url(#u)" d="M92.35 57.05h.83v.83h-.83Z" fill="#fff" stroke="none"/><path clip-path="url(#u)" d="M94.02 57.05h.83v.83h-.83Z" fill="#fff" stroke="none"/><path clip-path="url(#u)" d="M96.52 57.05h.83v.83h-.83Z" fill="#fff" stroke="none"/><path clip-path="url(#u)" d="M99.03 57.05h.83v.83h-.83Z" fill="#fff" stroke="none"/><path clip-path="url(#u)" d="M99.86 57.05h.83v.83h-.83Z" fill="#fff" stroke="none"/><path clip-path="url(#u)" d="M83.17 57.89h.83v.83h-.83Z" fill="#fff" stroke="none"/><path clip-path="url(#u)" d="M84.01 57.89h.83v.83h-.83Z" fill="#fff" stroke="none"/><path clip-path="url(#u)" d="M87.35 57.89h.83v.83h-.83Z" fill="#fff" stroke="none"/><path clip-path="url(#u)" d="M88.18 57.89h.83v.83h-.83Z" fill="#fff" stroke="none"/><path clip-path="url(#u)" d="M89.85 57.89h.83v.83h-.83Z" fill="#fff" stroke="none"/><path clip-path="url(#u)" d="M90.68 57.89h.83v.83h-.83Z" fill="#fff" stroke="none"/><path clip-path="url(#u)" d="M94.02 57.89h.83v.83h-.83Z" fill="#fff" stroke="none"/><path clip-path="url(#u)" d="M95.69 57.89h.83v.83h-.83Z" fill="#fff" stroke="none"/><path clip-path="url(#u)" d="M97.36 57.89h.83v.83h-.83Z" fill="#fff" stroke="none"/><path clip-path="url(#u)" d="M98.19 57.89h.83v.83h-.83Z" fill="#fff" stroke="none"/><path clip-path="url(#u)" d="M102.37 57.89h.83v.83h-.83Z" fill="#fff" stroke="none"/><path clip-path="url(#u)" d="M83.17 58.72h.83v.83h-.83Z" fill="#fff" stroke="none"/><path clip-path="url(#u)" d="M84.01 58.72h.83v.83h-.83Z" fill="#fff" stroke="none"/><path clip-path="url(#u)" d="M86.51 58.72h.83v.83h-.83Z" fill="#fff" stroke="none"/><path clip-path="url(#u)" d="M88.18 58.72h.83v.83h-.83Z" fill="#fff" stroke="none"/><path clip-path="url(#u)" d="M89.85 58.72h.83v.83h-.83Z" fill="#fff" stroke="none"/><path clip-path="url(#u)" d="M90.68 58.72h.83v.83h-.83Z" fill="#fff" stroke="none"/><path clip-path="url(#u)" d="M94.02 58.72h.83v.83h-.83Z" fill="#fff" stroke="none"/><path clip-path="url(#u)" d="M94.86 58.72h.83v.83h-.83Z" fill="#fff" stroke="none"/><path clip-path="url(#u)" d="M95.69 58.72h.83v.83h-.83Z" fill="#fff" stroke="none"/><path clip-path="url(#u)" d="M96.52 58.72h.83v.83h-.83Z" fill="#fff" stroke="none"/><path clip-path="url(#u)" d="M97.36 58.72h.83v.83h-.83Z" fill="#fff" stroke="none"/><path clip-path="url(#u)" d="M98.19 58.72h.83v.83h-.83Z" fill="#fff" stroke="none"/><path clip-path="url(#u)" d="M101.53 58.72h.83v.83h-.83Z" fill="#fff" stroke="none"/><path clip-path="url(#u)" d="M102.37 58.72h.83v.83h-.83Z" fill="#fff" stroke="none"/><path clip-path="url(#u)" d="M82.34 59.56h.83v.83h-.83Z" fill="#fff" stroke="none"/><path clip-path="url(#u)" d="M83.17 59.56h.83v.83h-.83Z" fill="#fff" stroke="none"/><path clip-path="url(#u)" d="M84.01 59.56h.83v.83h-.83Z" fill="#fff" stroke="none"/><path clip-path="url(#u)" d="M84.84 59.56h.83v.83h-.83Z" fill="#fff" stroke="none"/><path clip-path="url(#u)" d="M85.68 59.56h.83v.83h-.83Z" fill="#fff" stroke="none"/><path clip-path="url(#u)" d="M86.51 59.56h.83v.83h-.83Z" fill="#fff" stroke="none"/><path clip-path="url(#u)" d="M87.35 59.56h.83v.83h-.83Z" fill="#fff" stroke="none"/><path clip-path="url(#u)" d="M90.68 59.56h.83v.83h-.83Z" fill="#fff" stroke="none"/><path clip-path="url(#u)" d="M91.52 59.56h.83v.83h-.83Z" fill="#fff" stroke="none"/><path clip-path="url(#u)" d="M94.86 59.56h.83v.83h-.83Z" fill="#fff" stroke="none"/><path clip-path="url(#u)" d="M95.69 59.56h.83v.83h-.83Z" fill="#fff" stroke="none"/><path clip-path="url(#u)" d="M96.52 59.56h.83v.83h-.83Z" fill="#fff" stroke="none"/><path clip-path="url(#u)" d="M97.36 59.56h.83v.83h-.83Z" fill="#fff" stroke="none"/><path clip-path="url(#u)" d="M99.86 59.56h.83v.83h-.83Z" fill="#fff" stroke="none"/><path clip-path="url(#u)" d="M100.7 59.56h.83v.83h-.83Z" fill="#fff" stroke="none"/><path clip-path="url(#u)" d="M102.37 59.56h.83v.83h-.83Z" fill="#fff" stroke="none"/><path clip-path="url(#u)" d="M84.01 60.39h.83v.83h-.83Z" fill="#fff" stroke="none"/><path clip-path="url(#u)" d="M88.18 60.39h.83v.83h-.83Z" fill="#fff" stroke="none"/><path clip-path="url(#u)" d="M89.01 60.39h.83v.83h-.83Z" fill="#fff" stroke="none"/><path clip-path="url(#u)" d="M90.68 60.39h.83v.83h-.83Z" fill="#fff" stroke="none"/><path clip-path="url(#u)" d="M94.02 60.39h.83v.83h-.83Z" fill="#fff" stroke="none"/><path clip-path="url(#u)" d="M94.86 60.39h.83v.83h-.83Z" fill="#fff" stroke="none"/><path clip-path="url(#u)" d="M95.69 60.39h.83v.83h-.83Z" fill="#fff" stroke="none"/><path clip-path="url(#u)" d="M98.19 60.39h.83v.83h-.83Z" fill="#fff" stroke="none"/><path clip-path="url(#u)" d="M99.03 60.39h.83v.83h-.83Z" fill="#fff" stroke="none"/><path clip-path="url(#u)" d="M99.86 60.39h.83v.83h-.83Z" fill="#fff" stroke="none"/><path clip-path="url(#u)" d="M82.34 61.23h.83v.83h-.83Z" fill="#fff" stroke="none"/><path clip-path="url(#u)" d="M83.17 61.23h.83v.83h-.83Z" fill="#fff" stroke="none"/><path clip-path="url(#u)" d="M87.35 61.23h.83v.83h-.83Z" fill="#fff" stroke="none"/><path clip-path="url(#u)" d="M88.18 61.23h.83v.83h-.83Z" fill="#fff" stroke="none"/><path clip-path="url(#u)" d="M89.01 61.23h.83v.83h-.83Z" fill="#fff" stroke="none"/><path clip-path="url(#u)" d="M89.85 61.23h.83v.83h-.83Z" fill="#fff" stroke="none"/><path clip-path="url(#u)" d="M91.52 61.23h.83v.83h-.83Z" fill="#fff" stroke="none"/><path clip-path="url(#u)" d="M92.35 61.23h.83v.83h-.83Z" fill="#fff" stroke="none"/><path clip-path="url(#u)" d="M94.02 61.23h.83v.83h-.83Z" fill="#fff" stroke="none"/><path clip-path="url(#u)" d="M95.69 61.23h.83v.83h-.83Z" fill="#fff" stroke="none"/><path clip-path="url(#u)" d="M96.52 61.23h.83v.83h-.83Z" fill="#fff" stroke="none"/><path clip-path="url(#u)" d="M97.36 61.23h.83v.83h-.83Z" fill="#fff" stroke="none"/><path clip-path="url(#u)" d="M98.19 61.23h.83v.83h-.83Z" fill="#fff" stroke="none"/><path clip-path="url(#u)" d="M99.03 61.23h.83v.83h-.83Z" fill="#fff" stroke="none"/><path clip-path="url(#u)" d="M101.53 61.23h.83v.83h-.83Z" fill="#fff" stroke="none"/><path clip-path="url(#u)" d="M89.01 62.06h.83v.83h-.83Z" fill="#fff" stroke="none"/><path clip-path="url(#u)" d="M92.35 62.06h.83v.83h-.83Z" fill="#fff" stroke="none"/><path clip-path="url(#u)" d="M93.19 62.06h.83v.83h-.83Z" fill="#fff" stroke="none"/><path clip-path="url(#u)" d="M94.02 62.06h.83v.83h-.83Z" fill="#fff" stroke="none"/><path clip-path="url(#u)" d="M95.69 62.06h.83v.83h-.83Z" fill="#fff" stroke="none"/><path clip-path="url(#u)" d="M99.03 62.06h.83v.83h-.83Z" fill="#fff" stroke="none"/><path clip-path="url(#u)" d="M102.37 62.06h.83v.83h-.83Z" fill="#fff" stroke="none"/><path clip-path="url(#u)" d="M82.34 62.9h.83v.83h-.83Z" fill="#fff" stroke="none"/><path clip-path="url(#u)" d="M83.17 62.9h.83v.83h-.83Z" fill="#fff" stroke="none"/><path clip-path="url(#u)" d="M84.01 62.9h.83v.83h-.83Z" fill="#fff" stroke="none"/><path clip-path="url(#u)" d="M84.84 62.9h.83v.83h-.83Z" fill="#fff" stroke="none"/><path clip-path="url(#u)" d="M85.68 62.9h.83v.83h-.83Z" fill="#fff" stroke="none"/><path clip-path="url(#u)" d="M86.51 62.9h.83v.83h-.83Z" fill="#fff" stroke="none"/><path clip-path="url(#u)" d="M87.35 62.9h.83v.83h-.83Z" fill="#fff" stroke="none"/><path clip-path="url(#u)" d="M90.68 62.9h.83v.83h-.83Z" fill="#fff" stroke="none"/><path clip-path="url(#u)" d="M92.35 62.9h.83v.83h-.83Z" fill="#fff" stroke="none"/><path clip-path="url(#u)" d="M93.19 62.9h.83v.83h-.83Z" fill="#fff" stroke="none"/><path clip-path="url(#u)" d="M94.02 62.9h.83v.83h-.83Z" fill="#fff" stroke="none"/><path clip-path="url(#u)" d="M95.69 62.9h.83v.83h-.83Z" fill="#fff" stroke="none"/><path clip-path="url(#u)" d="M97.36 62.9h.83v.83h-.83Z" fill="#fff" stroke="none"/><path clip-path="url(#u)" d="M99.03 62.9h.83v.83h-.83Z" fill="#fff" stroke="none"/><path clip-path="url(#u)" d="M102.37 62.9h.83v.83h-.83Z" fill="#fff" stroke="none"/><path clip-path="url(#u)" d="M82.34 63.73h.83v.83h-.83Z" fill="#fff" stroke="none"/><path clip-path="url(#u)" d="M87.35 63.73h.83v.83h-.83Z" fill="#fff" stroke="none"/><path clip-path="url(#u)" d="M89.01 63.73h.83v.83h-.83Z" fill="#fff" stroke="none"/><path clip-path="url(#u)" d="M91.52 63.73h.83v.83h-.83Z" fill="#fff" stroke="none"/><path clip-path="url(#u)" d="M92.35 63.73h.83v.83h-.83Z" fill="#fff" stroke="none"/><path clip-path="url(#u)" d="M95.69 63.73h.83v.83h-.83Z" fill="#fff" stroke="none"/><path clip-path="url(#u)" d="M99.03 63.73h.83v.83h-.83Z" fill="#fff" stroke="none"/><path clip-path="url(#u)" d="M82.34 64.56h.83v.83h-.83Z" fill="#fff" stroke="none"/><path clip-path="url(#u)" d="M84.01 64.56h.83v.83h-.83Z" fill="#fff" stroke="none"/><path clip-path="url(#u)" d="M84.84 64.56h.83v.83h-.83Z" fill="#fff" stroke="none"/><path clip-path="url(#u)" d="M85.68 64.56h.83v.83h-.83Z" fill="#fff" stroke="none"/><path clip-path="url(#u)" d="M87.35 64.56h.83v.83h-.83Z" fill="#fff" stroke="none"/><path clip-path="url(#u)" d="M89.85 64.56h.83v.83h-.83Z" fill="#fff" stroke="none"/><path clip-path="url(#u)" d="M90.68 64.56h.83v.83h-.83Z" fill="#fff" stroke="none"/><path clip-path="url(#u)" d="M92.35 64.56h.83v.83h-.83Z" fill="#fff" stroke="none"/><path clip-path="url(#u)" d="M94.02 64.56h.83v.83h-.83Z" fill="#fff" stroke="none"/><path clip-path="url(#u)" d="M94.86 64.56h.83v.83h-.83Z" fill="#fff" stroke="none"/><path clip-path="url(#u)" d="M95.69 64.56h.83v.83h-.83Z" fill="#fff" stroke="none"/><path clip-path="url(#u)" d="M96.52 64.56h.83v.83h-.83Z" fill="#fff" stroke="none"/><path clip-path="url(#u)" d="M97.36 64.56h.83v.83h-.83Z" fill="#fff" stroke="none"/><path clip-path="url(#u)" d="M98.19 64.56h.83v.83h-.83Z" fill="#fff" stroke="none"/><path clip-path="url(#u)" d="M99.03 64.56h.83v.83h-.83Z" fill="#fff" stroke="none"/><path clip-path="url(#u)" d="M101.53 64.56h.83v.83h-.83Z" fill="#fff" stroke="none"/><path clip-path="url(#u)" d="M82.34 65.4h.83v.83h-.83Z" fill="#fff" stroke="none"/><path clip-path="url(#u)" d="M84.01 65.4h.83v.83h-.83Z" fill="#fff" stroke="none"/><path clip-path="url(#u)" d="M84.84 65.4h.83v.83h-.83Z" fill="#fff" stroke="none"/><path clip-path="url(#u)" d="M85.68 65.4h.83v.83h-.83Z" fill="#fff" stroke="none"/><path clip-path="url(#u)" d="M87.35 65.4h.83v.83h-.83Z" fill="#fff" stroke="none"/><path clip-path="url(#u)" d="M90.68 65.4h.83v.83h-.83Z" fill="#fff" stroke="none"/><path clip-path="url(#u)" d="M93.19 65.4h.83v.83h-.83Z" fill="#fff" stroke="none"/><path clip-path="url(#u)" d="M94.02 65.4h.83v.83h-.83Z" fill="#fff" stroke="none"/><path clip-path="url(#u)" d="M94.86 65.4h.83v.83h-.83Z" fill="#fff" stroke="none"/><path clip-path="url(#u)" d="M96.52 65.4h.83v.83h-.83Z" fill="#fff" stroke="none"/><path clip-path="url(#u)" d="M99.03 65.4h.83v.83h-.83Z" fill="#fff" stroke="none"/><path clip-path="url(#u)" d="M100.7 65.4h.83v.83h-.83Z" fill="#fff" stroke="none"/><path clip-path="url(#u)" d="M101.53 65.4h.83v.83h-.83Z" fill="#fff" stroke="none"/><path clip-path="url(#u)" d="M82.34 66.23h.83v.83h-.83Z" fill="#fff" stroke="none"/><path clip-path="url(#u)" d="M84.01 66.23h.83v.83h-.83Z" fill="#fff" stroke="none"/><path clip-path="url(#u)" d="M84.84 66.23h.83v.83h-.83Z" fill="#fff" stroke="none"/><path clip-path="url(#u)" d="M85.68 66.23h.83v.83h-.83Z" fill="#fff" stroke="none"/><path clip-path="url(#u)" d="M87.35 66.23h.83v.83h-.83Z" fill="#fff" stroke="none"/><path clip-path="url(#u)" d="M89.01 66.23h.83v.83h-.83Z" fill="#fff" stroke="none"/><path clip-path="url(#u)" d="M90.68 66.23h.83v.83h-.83Z" fill="#fff" stroke="none"/><path clip-path="url(#u)" d="M91.52 66.23h.83v.83h-.83Z" fill="#fff" stroke="none"/><path clip-path="url(#u)" d="M93.19 66.23h.83v.83h-.83Z" fill="#fff" stroke="none"/><path clip-path="url(#u)" d="M94.02 66.23h.83v.83h-.83Z" fill="#fff" stroke="none"/><path clip-path="url(#u)" d="M94.86 66.23h.83v.83h-.83Z" fill="#fff" stroke="none"/><path clip-path="url(#u)" d="M95.69 66.23h.83v.83h-.83Z" fill="#fff" stroke="none"/><path clip-path="url(#u)" d="M98.19 66.23h.83v.83h-.83Z" fill="#fff" stroke="none"/><path clip-path="url(#u)" d="M99.03 66.23h.83v.83h-.83Z" fill="#fff" stroke="none"/><path clip-path="url(#u)" d="M99.86 66.23h.83v.83h-.83Z" fill="#fff" stroke="none"/><path clip-path="url(#u)" d="M101.53 66.23h.83v.83h-.83Z" fill="#fff" stroke="none"/><path clip-path="url(#u)" d="M102.37 66.23h.83v.83h-.83Z" fill="#fff" stroke="none"/><path clip-path="url(#u)" d="M82.34 67.07h.83v.83h-.83Z" fill="#fff" stroke="none"/><path clip-path="url(#u)" d="M87.35 67.07h.83v.83h-.83Z" fill="#fff" stroke="none"/><path clip-path="url(#u)" d="M89.01 67.07h.83v.83h-.83Z" fill="#fff" stroke="none"/><path clip-path="url(#u)" d="M90.68 67.07h.83v.83h-.83Z" fill="#fff" stroke="none"/><path clip-path="url(#u)" d="M91.52 67.07h.83v.83h-.83Z" fill="#fff" stroke="none"/><path clip-path="url(#u)" d="M92.35 67.07h.83v.83h-.83Z" fill="#fff" stroke="none"/><path clip-path="url(#u)" d="M94.02 67.07h.83v.83h-.83Z" fill="#fff" stroke="none"/><path clip-path="url(#u)" d="M95.69 67.07h.83v.83h-.83Z" fill="#fff" stroke="none"/><path clip-path="url(#u)" d="M98.19 67.07h.83v.83h-.83Z" fill="#fff" stroke="none"/><path clip-path="url(#u)" d="M99.03 67.07h.83v.83h-.83Z" fill="#fff" stroke="none"/><path clip-path="url(#u)" d="M82.34 67.9h.83v.83h-.83Z" fill="#fff" stroke="none"/><path clip-path="url(#u)" d="M83.17 67.9h.83v.83h-.83Z" fill="#fff" stroke="none"/><path clip-path="url(#u)" d="M84.01 67.9h.83v.83h-.83Z" fill="#fff" stroke="none"/><path clip-path="url(#u)" d="M84.84 67.9h.83v.83h-.83Z" fill="#fff" stroke="none"/><path clip-path="url(#u)" d="M85.68 67.9h.83v.83h-.83Z" fill="#fff" stroke="none"/><path clip-path="url(#u)" d="M86.51 67.9h.83v.83h-.83Z" fill="#fff" stroke="none"/><path clip-path="url(#u)" d="M87.35 67.9h.83v.83h-.83Z" fill="#fff" stroke="none"/><path clip-path="url(#u)" d="M89.01 67.9h.83v.83h-.83Z" fill="#fff" stroke="none"/><path clip-path="url(#u)" d="M90.68 67.9h.83v.83h-.83Z" fill="#fff" stroke="none"/><path clip-path="url(#u)" d="M91.52 67.9h.83v.83h-.83Z" fill="#fff" stroke="none"/><path clip-path="url(#u)" d="M92.35 67.9h.83v.83h-.83Z" fill="#fff" stroke="none"/><path clip-path="url(#u)" d="M95.69 67.9h.83v.83h-.83Z" fill="#fff" stroke="none"/><path clip-path="url(#u)" d="M96.52 67.9h.83v.83h-.83Z" fill="#fff" stroke="none"/><path clip-path="url(#u)" d="M99.86 67.9h.83v.83h-.83Z" fill="#fff" stroke="none"/><path clip-path="url(#u)" d="M102.37 67.9h.83v.83h-.83Z" fill="#fff" stroke="none"/></g></g></svg>