<?xml version="1.0" encoding="UTF-8"?><svg xmlns="http://www.w3.org/2000/svg" color-interpolation="auto" height="208.43" stroke="#000" stroke-linecap="square" stroke-miterlimit="10" width="136.34"><defs><clipPath id="a"><path d="M5 5V203.43H136.34V5Z"/></clipPath><clipPath clip-path="url(#a)" id="b"><path d="M5 203.43H274.29V5H5Z"/></clipPath><clipPath clip-path="url(#b)" id="e"><path d="M5 5H274.29V203.43H5Z"/></clipPath><clipPath id="c"><path d="M5 5V203.43H136.34V5Z"/></clipPath><clipPath clip-path="url(#c)" id="d"><path d="M5 203.43H274.29V5H5Z"/></clipPath><clipPath clip-path="url(#d)" id="f"><path d="M5 5V203.43H97.87c19.09-3.83 33.47-20.68 33.47-40.9V5Z"/></clipPath></defs><g><g fill="#611F7F" stroke="none"><path clip-path="url(#e)" d="M5 5V204.24H89.63c23.04 0 41.72-18.68 41.72-41.72V5Z"/><path clip-path="url(#e)" d="M56.49 117.7V99.99H81.62c8.68 0 15.74-5.54 15.74-14.22S90.3 70.03 81.62 70.03H56.49V52.32H81.62c18.44 0 33.45 15 33.45 33.45S100.06 117.7 81.62 117.7Z"/><path clip-path="url(#e)" d="M50.16 117.5H44.92c-6.89 0-12.47-5.58-12.47-12.47V75.32H50.16Z"/><path clip-path="url(#e)" d="M50.07 69.97H32.45V52.32H50.07Z"/><path clip-path="url(#e)" d="M114.23 133.38c0-.38.03-.76.09-1.15s.15-.78.26-1.14.27-.69.46-.98.42-.53.68-.69.57-.26.91-.26c.4 0 .73.09 1 .28s.49.42.65.72.29.63.37 1 .14.74.17 1.12.04.74.04 1.09c0 .59-.04 1.14-.11 1.65s-.2.95-.37 1.34-.4.68-.68.9-.62.32-1.04.32c-.46-.01-.86-.13-1.17-.38s-.57-.57-.75-.98-.32-.86-.4-1.35-.12-.98-.12-1.49m-2.12 8.43h2.12v-4.38h.05c.07.17.18.35.32.55s.34.4.58.58.53.34.87.46.75.19 1.21.19c.85 0 1.57-.25 2.15-.74s1.03-1.18 1.34-2.08.46-1.98.46-3.23c0-.8-.07-1.55-.22-2.23s-.37-1.29-.68-1.8-.71-.91-1.19-1.2-1.07-.43-1.74-.43c-.46 0-.86.08-1.22.21s-.66.31-.92.52-.46.42-.62.64-.27.41-.34.57h-.05v-1.69h-2.12Zm-7.83-2.85h2.12v-4.75c0-.85.1-1.57.28-2.14s.43-1.02.76-1.35.69-.57 1.11-.71.87-.21 1.35-.2v-2.31c-.55.01-1.03.09-1.43.27s-.74.39-1.01.65-.49.54-.66.82-.28.54-.36.77h-.05v-2.26h-2.12Zm-10.21-5.6c0-.36.01-.74.05-1.13s.1-.77.2-1.13.25-.69.44-.98.45-.52.76-.7.7-.26 1.16-.26.83.09 1.14.26.56.4.75.7.34.62.44.98.17.74.2 1.13.06.77.05 1.13-.02.74-.05 1.12-.1.76-.2 1.13-.24.69-.44.99-.44.53-.75.7-.69.26-1.14.27-.85-.09-1.16-.27-.57-.41-.76-.7-.34-.62-.44-.99-.17-.74-.2-1.13-.05-.76-.05-1.12m2.61 5.86c.84 0 1.57-.14 2.19-.42s1.13-.67 1.54-1.19.71-1.13.91-1.85.3-1.52.3-2.4c0-1.2-.18-2.23-.53-3.11s-.9-1.55-1.63-2.02-1.65-.72-2.78-.72c-1.13.01-2.06.25-2.79.72s-1.28 1.15-1.64 2.02-.53 1.91-.53 3.11c0 .89.1 1.69.3 2.4s.51 1.33.91 1.85.92.91 1.55 1.19 1.36.42 2.2.42m-6.42-1.88c-.31.09-.61.16-.9.19s-.59.05-.89.05c-.7 0-1.31-.1-1.82-.31s-.93-.47-1.27-.82-.61-.73-.81-1.16-.34-.88-.42-1.35-.13-.92-.12-1.37c0-.69.1-1.29.28-1.8s.45-.9.79-1.18.74-.42 1.21-.42c.38 0 .69.08.93.23s.4.34.52.58.19.48.22.74.05.49.05.71h2.42c0-.47-.06-.93-.18-1.38s-.33-.88-.63-1.26-.71-.68-1.23-.91-1.17-.34-1.96-.35c-.84 0-1.55.14-2.16.41s-1.1.65-1.48 1.15-.67 1.07-.86 1.73-.28 1.38-.28 2.17c0 .56.05 1.13.16 1.72s.29 1.14.54 1.68.58 1.02 1 1.45.94.77 1.57 1.02 1.36.38 2.21.38c.65 0 1.24-.04 1.74-.11s.96-.18 1.37-.31Zm-16.79-6.21c-.01-.13.03-.3.1-.52s.19-.43.36-.65.4-.41.69-.57.65-.23 1.08-.24c.4 0 .74.08 1 .21s.47.31.63.51.26.42.33.65.09.43.09.61Zm6.14 6.04c-.24.09-.54.18-.88.26s-.76.13-1.24.14c-.61 0-1.14-.11-1.6-.32s-.85-.49-1.17-.85-.57-.75-.77-1.19-.35-.89-.43-1.35-.13-.9-.13-1.33h6.49V132c0-.66-.08-1.26-.25-1.81s-.42-1.02-.75-1.42-.76-.71-1.26-.92-1.1-.33-1.78-.33c-.29 0-.64.03-1.03.09s-.79.2-1.2.4-.79.49-1.14.88-.63.91-.85 1.55-.33 1.44-.34 2.39c.01 1.46.24 2.67.68 3.61s1.09 1.65 1.92 2.1 1.81.69 2.94.68c.4 0 .76-.02 1.07-.05s.6-.08.87-.13.56-.12.86-.19Zm-9.88.24c-.16.05-.34.08-.54.12s-.4.05-.59.05c-.41 0-.73-.07-.97-.2s-.42-.3-.54-.51-.19-.45-.23-.71-.05-.51-.05-.77v-5.97h3.1v-1.65h-3.1v-3.95l-2.12 1.32v2.63h-2v1.65h2v7.08c0 .38.05.74.15 1.07s.27.62.52.86.59.44 1.03.58.99.21 1.67.21c.28 0 .56-.01.84-.04s.56-.07.83-.12Zm-18.16 1.55H53.7v-4.75c0-.56.08-1.12.22-1.66s.34-1.04.61-1.47.58-.79.94-1.05.76-.4 1.19-.4c.38 0 .67.07.89.21s.36.35.45.62.15.61.17 1.01.03.86.02 1.38v6.11h2.12V131.2c0-.28-.02-.59-.06-.92s-.13-.66-.25-.98-.29-.62-.52-.89-.52-.49-.88-.65-.79-.25-1.31-.25c-.57.01-1.05.1-1.47.28s-.75.42-1.02.69-.5.57-.67.87-.3.57-.39.81H53.7v-2.4H51.58Zm-5.5-5.01v.63c0 .33-.07.68-.19 1.02s-.3.67-.53.96-.5.54-.81.72-.64.28-1.01.28c-.22 0-.42-.06-.6-.18s-.33-.28-.45-.49-.17-.47-.18-.76c0-.36.1-.67.29-.95s.44-.5.76-.68.67-.33 1.07-.42.8-.14 1.23-.14Zm0 5.01H48.2v-7.69c0-.21 0-.47-.03-.78s-.09-.64-.21-.98-.3-.67-.56-.97-.62-.55-1.09-.74-1.06-.29-1.79-.29c-.78 0-1.44.09-1.97.27s-.97.42-1.29.74-.56.67-.7 1.07-.22.83-.22 1.28h2.24c0-.3.06-.58.18-.84s.32-.47.58-.63.6-.24 1.03-.25c.27 0 .52.04.76.13s.44.24.61.45.28.5.35.86v1.95c-.57 0-1.15.03-1.73.1s-1.13.18-1.65.34-.99.38-1.4.66-.73.63-.97 1.05-.36.93-.36 1.52.12 1.1.36 1.55.6.81 1.07 1.07 1.06.39 1.75.39c.43 0 .81-.06 1.14-.17s.61-.25.85-.42.43-.35.58-.54.26-.36.33-.51h.05Zm-24.86 0h2.12V125.51h.05l4.66 13.45h2.24l4.66-13.45h.05v13.45H37.1V122.73H33.8l-4.61 13.29h-.05l-4.61-13.29H21.22Z"/><path clip-path="url(#e)" d="M22.6 154.07c-.89 0-1.65-.28-2.08-.58l-.13-1.04c.58.45 1.36.77 2.24.77.94 0 1.61-.54 1.61-1.35s-.47-1.25-1.51-1.61c-1.41-.48-2.12-1.17-2.12-2.29 0-1.05.78-2.07 2.41-2.07.76 0 1.39.24 1.7.45l-.2.83c-.3-.21-.91-.47-1.53-.47-.92 0-1.44.57-1.44 1.17 0 .65.44 1.06 1.37 1.39 1.4.5 2.3 1.13 2.3 2.51 0 1.39-.98 2.29-2.64 2.29"/><path clip-path="url(#e)" d="M29.56 151.29l-1.22.11c-.76.08-1.14.51-1.14 1.02 0 .49.39.88.98.88.7 0 1.37-.53 1.37-1.37Zm1.02 2.85c-.39-.09-.83-.43-.91-.96-.24.66-.88.96-1.57.96-1.11 0-1.83-.79-1.83-1.73 0-1.11.89-1.7 1.86-1.79l1.42-.14v-.45c0-.6-.4-1.03-1.23-1.03-.57 0-1.15.18-1.54.44l-.2-.81c.48-.32 1.11-.48 1.79-.48 1.25 0 2.16.71 2.16 1.99v2.46c0 .54.3.84.67.9Z"/><path clip-path="url(#e)" d="M35.78 146.1c-.43.49-.95.9-1.5 1.25l-.5-.23c.48-.38 1.07-.97 1.44-1.5.07-.1.2-.16.28-.16.14 0 .43.3.43.42 0 .05-.06.14-.14.22m.29 7.9v-.79h-.01c-.22.51-.77.93-1.8.93-1.25 0-2.18-.78-2.18-2.04v-3.81h.97v3.72c0 .69.47 1.29 1.45 1.29.96 0 1.5-.59 1.5-1.29v-3.72h.97v5.71Z"/><path clip-path="url(#e)" d="M42.65 149.66c-.23-.25-.74-.62-1.52-.62-1.12 0-2.02.87-2.02 2.13 0 1.27.89 2.13 2.02 2.13.74 0 1.27-.38 1.52-.75ZM42.7 154v-.63h-.01c-.27.38-.85.77-1.77.77-1.35 0-2.8-1.07-2.8-2.99 0-1.75 1.25-3 2.91-3 .68 0 1.37.28 1.61.54v-3.67h.97V154Z"/><path clip-path="url(#e)" d="M47.69 148.96c-.86 0-1.66.72-1.81 1.59h3.26c.01-.05.01-.11.01-.18 0-.67-.53-1.41-1.46-1.41m2.37 1.8l-.53.54H45.81c0 .93.78 2.02 2.2 2.02.7 0 1.25-.2 1.66-.49l-.11.92c-.4.23-.92.39-1.66.39-1.64 0-3.04-1.22-3.04-2.99 0-1.88 1.44-3 2.78-3 1.58 0 2.46 1.11 2.46 2.19 0 .16-.01.3-.04.42"/><path clip-path="url(#e)" d="M56.72 149.04c-.74 0-1.27.38-1.53.74v2.9c.23.25.74.62 1.53.62 1.12 0 2.02-.87 2.02-2.13 0-1.27-.9-2.13-2.02-2.13m.09 5.1c-.68 0-1.37-.28-1.61-.54v3.31h-.97v-8.62h.92v.63h.01c.26-.38.84-.77 1.76-.77 1.35 0 2.8 1.07 2.8 2.99 0 1.75-1.25 3-2.91 3"/><path clip-path="url(#e)" d="M63.46 148.96c-.86 0-1.66.72-1.81 1.59h3.26c.01-.05.01-.11.01-.18 0-.67-.53-1.41-1.46-1.41m2.37 1.8l-.53.54H61.58c0 .93.78 2.02 2.19 2.02.7 0 1.25-.2 1.66-.49l-.11.92c-.4.23-.92.39-1.66.39-1.64 0-3.04-1.22-3.04-2.99 0-1.88 1.44-3 2.78-3 1.58 0 2.46 1.11 2.46 2.19 0 .16-.01.3-.04.42"/><path clip-path="url(#e)" d="M70.02 149.27c-.1-.03-.26-.06-.43-.06-.82 0-1.62.49-1.62 1.9V154h-.93v-5.71h.93v1.25h.01c.19-.81.85-1.32 1.72-1.32.16 0 .41.03.55.07Z"/><path clip-path="url(#e)" d="M72.51 154.08c-.68 0-1.2-.17-1.57-.44l-.12-1.01c.41.36 1.04.66 1.71.66.59 0 1.03-.32 1.03-.79 0-.47-.35-.75-.94-.96-1.07-.38-1.68-.87-1.68-1.76 0-.92.76-1.55 1.8-1.55.62 0 1.2.23 1.43.36l-.2.79c-.25-.19-.67-.38-1.23-.38-.53 0-.88.3-.88.73 0 .45.31.65.91.87 1.1.39 1.74.91 1.74 1.85 0 .93-.72 1.62-1.98 1.62"/><path clip-path="url(#e)" d="M78.34 149.04c-1.12 0-2.04.87-2.04 2.14 0 1.26.92 2.12 2.04 2.12 1.11 0 2.03-.86 2.03-2.12 0-1.27-.92-2.14-2.03-2.14m0 5.1c-1.7 0-3.02-1.24-3.02-2.99 0-1.76 1.32-3 3.02-3s3.01 1.24 3.01 3c0 1.75-1.31 2.99-3.01 2.99"/><path clip-path="url(#e)" d="M86.45 154v-3.72c0-.69-.47-1.28-1.45-1.28-.96 0-1.5.59-1.5 1.28V154h-.97v-5.71h.89v.79h.01c.21-.51.77-.93 1.8-.93 1.25 0 2.18.78 2.18 2.04V154Z"/><path clip-path="url(#e)" d="M91.88 151.29l-1.22.11c-.76.08-1.14.51-1.14 1.02 0 .49.39.88.98.88.71 0 1.37-.53 1.37-1.37Zm1.02 2.85c-.39-.09-.83-.43-.91-.96-.24.66-.88.96-1.57.96-1.11 0-1.83-.79-1.83-1.73 0-1.11.89-1.7 1.86-1.79l1.43-.14v-.45c0-.6-.4-1.03-1.23-1.03-.57 0-1.15.18-1.54.44l-.2-.81c.48-.32 1.11-.48 1.79-.48 1.25 0 2.16.71 2.16 1.99v2.46c0 .54.3.84.67.9Z"/><path clip-path="url(#e)" d="M95.48 154.22c-.42-.11-1.06-.51-1.06-1.52v-7.67h.97v7.55c0 .54.38.9.76.97Z"/><path clip-path="url(#e)" d="M97.27 148.29h.98v5.71h-.98Zm.49-1.12c-.2 0-.62-.42-.62-.63 0-.22.42-.62.62-.62.21 0 .63.4.63.62 0 .2-.42.63-.63.63"/><path clip-path="url(#e)" d="M99.56 154v-.2l1.9-3.12c.3-.49.67-1.12.97-1.58l-.01-.03H99.76v-.78h4.06v.2l-1.92 3.12c-.3.5-.63 1.03-.97 1.58l.01.02h3.1V154Z"/><path clip-path="url(#e)" d="M108.25 151.29l-1.22.11c-.76.08-1.14.51-1.14 1.02 0 .49.39.88.98.88.71 0 1.37-.53 1.37-1.37Zm1.02 2.85c-.39-.09-.83-.43-.91-.96-.24.66-.88.96-1.57.96-1.11 0-1.83-.79-1.83-1.73 0-1.11.89-1.7 1.86-1.79l1.43-.14v-.45c0-.6-.4-1.03-1.23-1.03-.57 0-1.15.18-1.54.44l-.2-.81c.48-.32 1.11-.48 1.79-.48 1.25 0 2.16.71 2.16 1.99v2.46c0 .54.3.84.67.9Z"/><path clip-path="url(#e)" d="M114.91 149.66c-.23-.25-.74-.62-1.52-.62-1.12 0-2.02.87-2.02 2.13 0 1.27.89 2.13 2.02 2.13.74 0 1.27-.38 1.52-.75Zm.05 4.35v-.63h-.01c-.26.38-.85.77-1.76.77-1.35 0-2.8-1.07-2.8-2.99 0-1.75 1.25-3 2.91-3 .68 0 1.37.28 1.61.54v-3.67h.97V154Z"/><path clip-path="url(#e)" d="M120.41 151.29l-1.22.11c-.76.08-1.14.51-1.14 1.02 0 .49.39.88.98.88.71 0 1.37-.53 1.37-1.37Zm1.02 2.85c-.39-.09-.83-.43-.91-.96-.24.66-.88.96-1.57.96-1.11 0-1.83-.79-1.83-1.73 0-1.11.89-1.7 1.86-1.79l1.43-.14v-.45c0-.6-.4-1.03-1.23-1.03-.57 0-1.15.18-1.54.44l-.2-.81c.48-.32 1.11-.48 1.79-.48 1.25 0 2.16.71 2.16 1.99v2.46c0 .54.3.84.67.9Z"/><path clip-path="url(#e)" d="M56.49 117.7V99.99H81.62c8.68 0 15.74-5.54 15.74-14.22S90.3 70.03 81.62 70.03H56.49V52.32H81.62c18.44 0 33.45 15 33.45 33.45S100.06 117.7 81.62 117.7Z" fill="#fff"/><path clip-path="url(#e)" d="M50.16 117.5H44.92c-6.89 0-12.47-5.58-12.47-12.47V75.32H50.16Z" fill="#fff"/><path clip-path="url(#e)" d="M50.07 69.97H32.45V52.32H50.07Z" fill="#F16D00"/><path clip-path="url(#e)" d="M114.23 133.38c0-.38.03-.76.09-1.15s.15-.78.26-1.14.27-.69.46-.98.42-.53.68-.69.57-.26.91-.26c.4 0 .73.09 1 .28s.49.42.65.72.29.63.37 1 .14.74.17 1.12.04.74.04 1.09c0 .59-.04 1.14-.11 1.65s-.2.95-.37 1.34-.4.68-.68.9-.62.32-1.04.32c-.46-.01-.86-.13-1.17-.38s-.57-.57-.75-.98-.32-.86-.4-1.35-.12-.98-.12-1.49m-2.12 8.43h2.12v-4.38h.05c.07.17.18.35.32.55s.34.4.58.58.53.34.87.46.75.19 1.21.19c.85 0 1.57-.25 2.15-.74s1.03-1.18 1.34-2.08.46-1.98.46-3.23c0-.8-.07-1.55-.22-2.23s-.37-1.29-.68-1.8-.71-.91-1.19-1.2-1.07-.43-1.74-.43c-.46 0-.86.08-1.22.21s-.66.31-.92.52-.46.42-.62.64-.27.41-.34.57h-.05v-1.69h-2.12Zm-7.83-2.85h2.12v-4.75c0-.85.1-1.57.28-2.14s.43-1.02.76-1.35.69-.57 1.11-.71.87-.21 1.35-.2v-2.31c-.55.01-1.03.09-1.43.27s-.74.39-1.01.65-.49.54-.66.82-.28.54-.36.77h-.05v-2.26h-2.12Zm-10.21-5.6c0-.36.01-.74.05-1.13s.1-.77.2-1.13.25-.69.44-.98.45-.52.76-.7.7-.26 1.16-.26.83.09 1.14.26.56.4.75.7.34.62.44.98.17.74.2 1.13.06.77.05 1.13-.02.74-.05 1.12-.1.76-.2 1.13-.24.69-.44.99-.44.53-.75.7-.69.26-1.14.27-.85-.09-1.16-.27-.57-.41-.76-.7-.34-.62-.44-.99-.17-.74-.2-1.13-.05-.76-.05-1.12m2.61 5.86c.84 0 1.57-.14 2.19-.42s1.13-.67 1.54-1.19.71-1.13.91-1.85.3-1.52.3-2.4c0-1.2-.18-2.23-.53-3.11s-.9-1.55-1.63-2.02-1.65-.72-2.78-.72c-1.13.01-2.06.25-2.79.72s-1.28 1.15-1.64 2.02-.53 1.91-.53 3.11c0 .89.1 1.69.3 2.4s.51 1.33.91 1.85.92.91 1.55 1.19 1.36.42 2.2.42m-6.42-1.88c-.31.09-.61.16-.9.19s-.59.05-.89.05c-.7 0-1.31-.1-1.82-.31s-.93-.47-1.27-.82-.61-.73-.81-1.16-.34-.88-.42-1.35-.13-.92-.12-1.37c0-.69.1-1.29.28-1.8s.45-.9.79-1.18.74-.42 1.21-.42c.38 0 .69.08.93.23s.4.34.52.58.19.48.22.74.05.49.05.71h2.42c0-.47-.06-.93-.18-1.38s-.33-.88-.63-1.26-.71-.68-1.23-.91-1.17-.34-1.96-.35c-.84 0-1.55.14-2.16.41s-1.1.65-1.48 1.15-.67 1.07-.86 1.73-.28 1.38-.28 2.17c0 .56.05 1.13.16 1.72s.29 1.14.54 1.68.58 1.02 1 1.45.94.77 1.57 1.02 1.36.38 2.21.38c.65 0 1.24-.04 1.74-.11s.96-.18 1.37-.31Zm-16.79-6.21c-.01-.13.03-.3.1-.52s.19-.43.36-.65.4-.41.69-.57.65-.23 1.08-.24c.4 0 .74.08 1 .21s.47.31.63.51.26.42.33.65.09.43.09.61Zm6.14 6.04c-.24.09-.54.18-.88.26s-.76.13-1.24.14c-.61 0-1.14-.11-1.6-.32s-.85-.49-1.17-.85-.57-.75-.77-1.19-.35-.89-.43-1.35-.13-.9-.13-1.33h6.49V132c0-.66-.08-1.26-.25-1.81s-.42-1.02-.75-1.42-.76-.71-1.26-.92-1.1-.33-1.78-.33c-.29 0-.64.03-1.03.09s-.79.2-1.2.4-.79.49-1.14.88-.63.91-.85 1.55-.33 1.44-.34 2.39c.01 1.46.24 2.67.68 3.61s1.09 1.65 1.92 2.1 1.81.69 2.94.68c.4 0 .76-.02 1.07-.05s.6-.08.87-.13.56-.12.86-.19Zm-9.88.24c-.16.05-.34.08-.54.12s-.4.05-.59.05c-.41 0-.73-.07-.97-.2s-.42-.3-.54-.51-.19-.45-.23-.71-.05-.51-.05-.77v-5.97h3.1v-1.65h-3.1v-3.95l-2.12 1.32v2.63h-2v1.65h2v7.08c0 .38.05.74.15 1.07s.27.62.52.86.59.44 1.03.58.99.21 1.67.21c.28 0 .56-.01.84-.04s.56-.07.83-.12Zm-18.16 1.55H53.7v-4.75c0-.56.08-1.12.22-1.66s.34-1.04.61-1.47.58-.79.94-1.05.76-.4 1.19-.4c.38 0 .67.07.89.21s.36.35.45.62.15.61.17 1.01.03.86.02 1.38v6.11h2.12V131.2c0-.28-.02-.59-.06-.92s-.13-.66-.25-.98-.29-.62-.52-.89-.52-.49-.88-.65-.79-.25-1.31-.25c-.57.01-1.05.1-1.47.28s-.75.42-1.02.69-.5.57-.67.87-.3.57-.39.81H53.7v-2.4H51.58Zm-5.5-5.01v.63c0 .33-.07.68-.19 1.02s-.3.67-.53.96-.5.54-.81.72-.64.28-1.01.28c-.22 0-.42-.06-.6-.18s-.33-.28-.45-.49-.17-.47-.18-.76c0-.36.1-.67.29-.95s.44-.5.76-.68.67-.33 1.07-.42.8-.14 1.23-.14Zm0 5.01H48.2v-7.69c0-.21 0-.47-.03-.78s-.09-.64-.21-.98-.3-.67-.56-.97-.62-.55-1.09-.74-1.06-.29-1.79-.29c-.78 0-1.44.09-1.97.27s-.97.42-1.29.74-.56.67-.7 1.07-.22.83-.22 1.28h2.24c0-.3.06-.58.18-.84s.32-.47.58-.63.6-.24 1.03-.25c.27 0 .52.04.76.13s.44.24.61.45.28.5.35.86v1.95c-.57 0-1.15.03-1.73.1s-1.13.18-1.65.34-.99.38-1.4.66-.73.63-.97 1.05-.36.93-.36 1.52.12 1.1.36 1.55.6.81 1.07 1.07 1.06.39 1.75.39c.43 0 .81-.06 1.14-.17s.61-.25.85-.42.43-.35.58-.54.26-.36.33-.51h.05Zm-24.86 0h2.12V125.51h.05l4.66 13.45h2.24l4.66-13.45h.05v13.45H37.1V122.73H33.8l-4.61 13.29h-.05l-4.61-13.29H21.22Z" fill="#F16D00"/><path clip-path="url(#e)" d="M22.6 154.07c-.89 0-1.65-.28-2.08-.58l-.13-1.04c.58.45 1.36.77 2.24.77.94 0 1.61-.54 1.61-1.35s-.47-1.25-1.51-1.61c-1.41-.48-2.12-1.17-2.12-2.29 0-1.05.78-2.07 2.41-2.07.76 0 1.39.24 1.7.45l-.2.83c-.3-.21-.91-.47-1.53-.47-.92 0-1.44.57-1.44 1.17 0 .65.44 1.06 1.37 1.39 1.4.5 2.3 1.13 2.3 2.51 0 1.39-.98 2.29-2.64 2.29" fill="#fff"/><path clip-path="url(#e)" d="M29.56 151.29l-1.22.11c-.76.08-1.14.51-1.14 1.02 0 .49.39.88.98.88.7 0 1.37-.53 1.37-1.37Zm1.02 2.85c-.39-.09-.83-.43-.91-.96-.24.66-.88.96-1.57.96-1.11 0-1.83-.79-1.83-1.73 0-1.11.89-1.7 1.86-1.79l1.42-.14v-.45c0-.6-.4-1.03-1.23-1.03-.57 0-1.15.18-1.54.44l-.2-.81c.48-.32 1.11-.48 1.79-.48 1.25 0 2.16.71 2.16 1.99v2.46c0 .54.3.84.67.9Z" fill="#fff"/><path clip-path="url(#e)" d="M35.78 146.1c-.43.49-.95.9-1.5 1.25l-.5-.23c.48-.38 1.07-.97 1.44-1.5.07-.1.2-.16.28-.16.14 0 .43.3.43.42 0 .05-.06.14-.14.22m.29 7.9v-.79h-.01c-.22.51-.77.93-1.8.93-1.25 0-2.18-.78-2.18-2.04v-3.81h.97v3.72c0 .69.47 1.29 1.45 1.29.96 0 1.5-.59 1.5-1.29v-3.72h.97v5.71Z" fill="#fff"/><path clip-path="url(#e)" d="M42.65 149.66c-.23-.25-.74-.62-1.52-.62-1.12 0-2.02.87-2.02 2.13 0 1.27.89 2.13 2.02 2.13.74 0 1.27-.38 1.52-.75ZM42.7 154v-.63h-.01c-.27.38-.85.77-1.77.77-1.35 0-2.8-1.07-2.8-2.99 0-1.75 1.25-3 2.91-3 .68 0 1.37.28 1.61.54v-3.67h.97V154Z" fill="#fff"/><path clip-path="url(#e)" d="M47.69 148.96c-.86 0-1.66.72-1.81 1.59h3.26c.01-.05.01-.11.01-.18 0-.67-.53-1.41-1.46-1.41m2.37 1.8l-.53.54H45.81c0 .93.78 2.02 2.2 2.02.7 0 1.25-.2 1.66-.49l-.11.92c-.4.23-.92.39-1.66.39-1.64 0-3.04-1.22-3.04-2.99 0-1.88 1.44-3 2.78-3 1.58 0 2.46 1.11 2.46 2.19 0 .16-.01.3-.04.42" fill="#fff"/><path clip-path="url(#e)" d="M56.72 149.04c-.74 0-1.27.38-1.53.74v2.9c.23.25.74.62 1.53.62 1.12 0 2.02-.87 2.02-2.13 0-1.27-.9-2.13-2.02-2.13m.09 5.1c-.68 0-1.37-.28-1.61-.54v3.31h-.97v-8.62h.92v.63h.01c.26-.38.84-.77 1.76-.77 1.35 0 2.8 1.07 2.8 2.99 0 1.75-1.25 3-2.91 3" fill="#fff"/><path clip-path="url(#e)" d="M63.46 148.96c-.86 0-1.66.72-1.81 1.59h3.26c.01-.05.01-.11.01-.18 0-.67-.53-1.41-1.46-1.41m2.37 1.8l-.53.54H61.58c0 .93.78 2.02 2.19 2.02.7 0 1.25-.2 1.66-.49l-.11.92c-.4.23-.92.39-1.66.39-1.64 0-3.04-1.22-3.04-2.99 0-1.88 1.44-3 2.78-3 1.58 0 2.46 1.11 2.46 2.19 0 .16-.01.3-.04.42" fill="#fff"/><path clip-path="url(#e)" d="M70.02 149.27c-.1-.03-.26-.06-.43-.06-.82 0-1.62.49-1.62 1.9V154h-.93v-5.71h.93v1.25h.01c.19-.81.85-1.32 1.72-1.32.16 0 .41.03.55.07Z" fill="#fff"/><path clip-path="url(#e)" d="M72.51 154.08c-.68 0-1.2-.17-1.57-.44l-.12-1.01c.41.36 1.04.66 1.71.66.59 0 1.03-.32 1.03-.79 0-.47-.35-.75-.94-.96-1.07-.38-1.68-.87-1.68-1.76 0-.92.76-1.55 1.8-1.55.62 0 1.2.23 1.43.36l-.2.79c-.25-.19-.67-.38-1.23-.38-.53 0-.88.3-.88.73 0 .45.31.65.91.87 1.1.39 1.74.91 1.74 1.85 0 .93-.72 1.62-1.98 1.62" fill="#fff"/><path clip-path="url(#e)" d="M78.34 149.04c-1.12 0-2.04.87-2.04 2.14 0 1.26.92 2.12 2.04 2.12 1.11 0 2.03-.86 2.03-2.12 0-1.27-.92-2.14-2.03-2.14m0 5.1c-1.7 0-3.02-1.24-3.02-2.99 0-1.76 1.32-3 3.02-3s3.01 1.24 3.01 3c0 1.75-1.31 2.99-3.01 2.99" fill="#fff"/><path clip-path="url(#e)" d="M86.45 154v-3.72c0-.69-.47-1.28-1.45-1.28-.96 0-1.5.59-1.5 1.28V154h-.97v-5.71h.89v.79h.01c.21-.51.77-.93 1.8-.93 1.25 0 2.18.78 2.18 2.04V154Z" fill="#fff"/><path clip-path="url(#e)" d="M91.88 151.29l-1.22.11c-.76.08-1.14.51-1.14 1.02 0 .49.39.88.98.88.71 0 1.37-.53 1.37-1.37Zm1.02 2.85c-.39-.09-.83-.43-.91-.96-.24.66-.88.96-1.57.96-1.11 0-1.83-.79-1.83-1.73 0-1.11.89-1.7 1.86-1.79l1.43-.14v-.45c0-.6-.4-1.03-1.23-1.03-.57 0-1.15.18-1.54.44l-.2-.81c.48-.32 1.11-.48 1.79-.48 1.25 0 2.16.71 2.16 1.99v2.46c0 .54.3.84.67.9Z" fill="#fff"/><path clip-path="url(#e)" d="M95.48 154.22c-.42-.11-1.06-.51-1.06-1.52v-7.67h.97v7.55c0 .54.38.9.76.97Z" fill="#fff"/><path clip-path="url(#e)" d="M97.27 148.29h.98v5.71h-.98Zm.49-1.12c-.2 0-.62-.42-.62-.63 0-.22.42-.62.62-.62.21 0 .63.4.63.62 0 .2-.42.63-.63.63" fill="#fff"/><path clip-path="url(#e)" d="M99.56 154v-.2l1.9-3.12c.3-.49.67-1.12.97-1.58l-.01-.03H99.76v-.78h4.06v.2l-1.92 3.12c-.3.5-.63 1.03-.97 1.58l.01.02h3.1V154Z" fill="#fff"/><path clip-path="url(#e)" d="M108.25 151.29l-1.22.11c-.76.08-1.14.51-1.14 1.02 0 .49.39.88.98.88.71 0 1.37-.53 1.37-1.37Zm1.02 2.85c-.39-.09-.83-.43-.91-.96-.24.66-.88.96-1.57.96-1.11 0-1.83-.79-1.83-1.73 0-1.11.89-1.7 1.86-1.79l1.43-.14v-.45c0-.6-.4-1.03-1.23-1.03-.57 0-1.15.18-1.54.44l-.2-.81c.48-.32 1.11-.48 1.79-.48 1.25 0 2.16.71 2.16 1.99v2.46c0 .54.3.84.67.9Z" fill="#fff"/><path clip-path="url(#e)" d="M114.91 149.66c-.23-.25-.74-.62-1.52-.62-1.12 0-2.02.87-2.02 2.13 0 1.27.89 2.13 2.02 2.13.74 0 1.27-.38 1.52-.75Zm.05 4.35v-.63h-.01c-.26.38-.85.77-1.76.77-1.35 0-2.8-1.07-2.8-2.99 0-1.75 1.25-3 2.91-3 .68 0 1.37.28 1.61.54v-3.67h.97V154Z" fill="#fff"/><path clip-path="url(#e)" d="M120.41 151.29l-1.22.11c-.76.08-1.14.51-1.14 1.02 0 .49.39.88.98.88.71 0 1.37-.53 1.37-1.37Zm1.02 2.85c-.39-.09-.83-.43-.91-.96-.24.66-.88.96-1.57.96-1.11 0-1.83-.79-1.83-1.73 0-1.11.89-1.7 1.86-1.79l1.43-.14v-.45c0-.6-.4-1.03-1.23-1.03-.57 0-1.15.18-1.54.44l-.2-.81c.48-.32 1.11-.48 1.79-.48 1.25 0 2.16.71 2.16 1.99v2.46c0 .54.3.84.67.9Z" fill="#fff"/></g><g fill="none" stroke="#fff" stroke-linecap="butt" stroke-width=".3"><path clip-path="url(#f)" d="M84.66 35.62V15.46h28.61c9.88 0 17.92-6.3 17.92-16.18s-8.04-17.92-17.92-17.92H84.66V-38.81h28.61c21 0 38.08 17.08 38.08 38.08s-17.08 36.34-38.08 36.34H84.66Z"/><path clip-path="url(#f)" d="M78.37 35.71H72.4c-7.84 0-14.19-6.35-14.19-14.19V-12.31H78.37V35.71Z"/><path clip-path="url(#f)" d="M15.06 241.23H35.42V212.34c0-9.98 6.36-18.09 16.34-18.09s18.09 8.12 18.09 18.09v28.88H90.2V212.34c0-21.2-17.25-38.45-38.45-38.45s-36.69 17.25-36.69 38.45v28.88Z"/><path clip-path="url(#f)" d="M34.07-9.53V2.73H16.68c-6.01 0-10.89 3.83-10.89 9.84s4.89 10.89 10.89 10.89H34.07V35.71H16.68C3.92 35.71-6.47 25.33-6.47 12.57S3.92-9.53 16.68-9.53H34.07Z" stroke="#F16D00"/><path clip-path="url(#f)" d="M37.9-9.59h3.63c4.77 0 8.63 3.86 8.63 8.63V19.61H37.9V-9.59Z" stroke="#F16D00"/><path clip-path="url(#f)" d="M37.96 23.31H50.15V35.52H37.96V23.31Z" stroke="#F16D00"/></g></g></svg>