<?xml version="1.0" encoding="UTF-8"?><svg xmlns="http://www.w3.org/2000/svg" color-interpolation="auto" height="137.56" stroke="#000" stroke-linecap="square" stroke-miterlimit="10" width="171.7"><defs><clipPath id="a"><path d="M5 5V132.56H171.7V5Z"/></clipPath><clipPath clip-path="url(#a)" id="b"><path d="M5 132.56H296.97V5H5Z"/></clipPath><clipPath clip-path="url(#b)" id="i"><path d="M5 5H296.97V132.56H5Z"/></clipPath><clipPath id="c"><path d="M5 5V132.56H171.7V5Z"/></clipPath><clipPath clip-path="url(#c)" id="d"><path d="M5 132.56H296.97V5H5Z"/></clipPath><clipPath clip-path="url(#d)" id="j"><path d="M5 5V132.56H133.78c18.18 0 32.92-14.74 32.92-32.92V5Z"/></clipPath><clipPath id="e"><path d="M5 5V132.56H171.7V5Z"/></clipPath><clipPath clip-path="url(#e)" id="f"><path d="M5 132.56H296.97V5H5Z"/></clipPath><clipPath clip-path="url(#f)" id="k"><path d="M5 5H296.97V132.56H5Z"/></clipPath><clipPath id="g"><path d="M5 5V132.56H171.7V5Z"/></clipPath><clipPath clip-path="url(#g)" id="h"><path d="M5 132.56H296.97V5H5Z"/></clipPath><clipPath clip-path="url(#h)" id="l"><path d="M5 5H296.97V132.56H5Z"/></clipPath></defs><g><g fill="#611F7F" stroke="#611F7F"><path clip-path="url(#i)" d="M5 5V132.56H133.78c18.18 0 32.92-14.74 32.92-32.92V5Z" stroke="none"/></g><g fill="#fff" stroke="#fff" stroke-linecap="butt" stroke-width=".3"><path clip-path="url(#j)" d="M31.89 17.44V6.73h15.2c5.25 0 9.52-3.35 9.52-8.6s-4.27-9.52-9.52-9.52H31.89V-22.1h15.2c11.16 0 20.23 9.08 20.23 20.23S58.24 17.44 47.09 17.44H31.89Z" fill="none"/><path clip-path="url(#j)" d="M28.54 17.49H25.37c-4.17 0-7.54-3.38-7.54-7.54V-8.02H28.54V17.49Z" fill="none"/><path clip-path="url(#j)" d="M104-13.39v8.37H92.13c-4.1 0-7.44 2.62-7.44 6.72s3.34 7.44 7.44 7.44H104v8.37H92.13c-8.71 0-15.8-7.09-15.8-15.8s7.09-15.08 15.8-15.08H104Z" fill="none" stroke="#F16D00"/><path clip-path="url(#j)" d="M106.61-13.43h2.48c3.25 0 5.89 2.64 5.89 5.89V6.5h-8.37V-13.43Z" fill="none" stroke="#F16D00"/><path clip-path="url(#j)" d="M106.65 9.03h8.32v8.33h-8.32Z" fill="none" stroke="#F16D00"/><path clip-path="url(#j)" d="M160.74-11.22h-8.68V1.1c0 4.25-2.71 7.71-6.97 7.71s-7.71-3.46-7.71-7.71V-11.22H128.7V1.1c0 9.04 7.35 16.39 16.39 16.39s15.65-7.35 15.65-16.39V-11.22Z" fill="none"/><path clip-path="url(#j)" d="M118.08 160.57V149.32H102.11c-5.52 0-10.01-3.52-10.01-9.04s4.49-10.01 10.01-10.01h15.97V119.02H102.11c-11.72 0-21.26 9.54-21.26 21.26s9.54 20.29 21.26 20.29h15.97Z" fill="none" stroke="#F16D00"/><path clip-path="url(#j)" d="M121.66 130.41h11.2V119.2h-11.2v11.22Z" fill="none" stroke="#F16D00"/><path clip-path="url(#j)" d="M73.25 134.02v-4.44c0-5.83-4.73-10.56-10.56-10.56H37.53v15H73.25Z" fill="none"/><path clip-path="url(#j)" d="M33 133.94V119.02H18.06v14.92H33Z" fill="none"/><path clip-path="url(#k)" d="M112.77 78.28V65.42h18.25c6.3 0 11.43-4.02 11.43-10.32s-5.13-11.43-11.43-11.43H112.77V30.8h18.25c13.4 0 24.29 10.9 24.29 24.29s-10.9 23.18-24.29 23.18Z" stroke="none"/><path clip-path="url(#k)" d="M108.17 78.14h-3.81c-5 0-9.06-4.05-9.06-9.06V47.5h12.86Z" stroke="none"/><path clip-path="url(#k)" d="M108.11 43.61H95.31V30.8h12.79Z" fill="#F16D00" stroke="none"/><path clip-path="url(#k)" d="M154.71 89.67c0-.27.02-.55.06-.84s.1-.56.19-.83.2-.5.34-.72.3-.38.49-.5.41-.19.66-.19c.29 0 .53.07.73.2s.35.31.47.52.21.46.27.73.1.54.12.82.03.54.03.79c0 .43-.03.83-.08 1.2s-.14.69-.26.97-.29.49-.49.65-.45.23-.75.24c-.34-.01-.62-.1-.85-.27s-.41-.41-.55-.71-.23-.62-.29-.98-.09-.72-.09-1.08m-1.54 6.12h1.54V92.61h.04c.05.12.13.25.24.4s.25.29.42.42.38.25.63.34.54.14.88.14c.62 0 1.14-.18 1.56-.54s.75-.85.97-1.51.33-1.44.33-2.35c0-.58-.05-1.12-.16-1.62s-.27-.93-.49-1.31-.51-.66-.87-.87-.77-.31-1.26-.32c-.33 0-.63.06-.89.16s-.48.23-.67.38-.34.31-.45.47-.2.3-.24.42h-.04V85.59h-1.54Zm-5.69-2.07h1.54V90.27c0-.62.07-1.14.2-1.55s.32-.74.55-.98.5-.41.81-.51.63-.15.98-.15V85.4c-.4.01-.74.07-1.04.19s-.54.28-.73.47-.36.39-.48.6-.2.39-.26.56h-.03V85.59h-1.54Zm-7.41-4.07c0-.26.01-.54.03-.82s.07-.56.14-.82.18-.51.32-.72.33-.38.55-.51.51-.19.85-.19.61.07.83.19.41.29.55.51.25.45.32.72.12.54.15.82.04.56.04.82-.01.54-.04.82-.07.56-.15.82-.18.5-.32.72-.32.38-.55.51-.5.19-.83.19-.62-.07-.85-.19-.41-.3-.55-.51-.24-.45-.32-.72-.12-.54-.14-.82-.04-.56-.03-.82m1.9 4.25c.61 0 1.14-.1 1.59-.31s.82-.49 1.12-.86.52-.82.66-1.34.22-1.1.22-1.75c0-.87-.13-1.62-.39-2.26s-.65-1.12-1.18-1.47-1.2-.52-2.01-.53c-.82.01-1.49.18-2.03.53s-.93.83-1.19 1.47-.39 1.39-.39 2.26c0 .64.07 1.23.22 1.75s.37.97.66 1.34.67.66 1.13.86.98.3 1.6.31m-4.66-1.37c-.22.07-.44.11-.65.14s-.43.04-.64.03c-.51 0-.95-.08-1.32-.23s-.68-.34-.93-.59-.44-.53-.59-.85-.25-.64-.31-.98-.09-.67-.09-.99c0-.5.07-.94.21-1.31s.33-.66.58-.86.54-.3.88-.31c.28 0 .5.06.67.17s.29.25.38.42.14.35.16.53.04.36.04.52h1.76c0-.34-.04-.67-.13-1.01s-.24-.64-.46-.91-.51-.5-.89-.66-.85-.25-1.43-.26c-.61 0-1.13.1-1.56.3s-.8.48-1.08.83-.49.77-.62 1.26-.2 1-.2 1.58c0 .41.04.82.12 1.25s.21.83.39 1.22.42.74.73 1.05.69.56 1.14.74.99.28 1.61.28c.47 0 .9-.03 1.26-.08s.7-.13.99-.22Zm-12.2-4.51c0-.1.02-.22.08-.38s.14-.32.26-.48.29-.3.5-.41.47-.17.79-.17c.29 0 .53.05.73.15s.34.22.46.37.19.31.24.47.07.31.07.44Zm4.46 4.39c-.18.06-.39.13-.64.19s-.55.09-.9.1c-.44 0-.83-.08-1.17-.23s-.61-.36-.85-.61-.42-.55-.56-.86-.25-.65-.32-.98-.1-.66-.1-.97h4.71v-.39c0-.48-.06-.92-.18-1.32s-.3-.74-.55-1.03-.55-.51-.92-.67-.8-.24-1.3-.24c-.21 0-.46.02-.75.07s-.57.15-.87.29-.57.36-.83.64-.46.66-.62 1.12-.24 1.04-.25 1.74c.01 1.06.17 1.94.5 2.62s.79 1.19 1.39 1.53 1.32.5 2.14.5c.29 0 .55-.01.77-.04s.43-.06.63-.1.41-.09.63-.14Zm-7.17.17c-.11.03-.24.06-.39.08s-.29.03-.43.03c-.3 0-.53-.05-.71-.15s-.31-.22-.39-.37-.14-.33-.16-.51-.04-.37-.04-.56V86.78h2.25V85.59h-2.25V82.72l-1.54.96v1.91h-1.45v1.19h1.45v5.14c0 .28.03.54.11.78s.2.45.38.63.43.32.75.42.72.15 1.21.15c.21 0 .41-.01.61-.03s.41-.05.6-.09Zm-13.18 1.13h1.54V90.27c0-.41.05-.81.16-1.2s.25-.75.44-1.07.42-.57.68-.76.55-.29.87-.29c.28 0 .49.05.64.15s.26.25.33.45.11.44.12.73.02.62.02 1v4.44h1.54V88.08c0-.2-.02-.43-.05-.67s-.09-.48-.18-.72-.21-.45-.38-.65-.38-.36-.64-.47-.57-.18-.95-.18c-.41.01-.77.07-1.07.21s-.54.3-.74.5-.36.41-.49.63-.22.41-.28.59h-.03V85.59h-1.54Zm-4-3.64v.46c0 .24-.05.49-.14.74s-.22.48-.38.7-.36.39-.59.52-.47.2-.73.21c-.16 0-.3-.05-.44-.13s-.24-.21-.32-.36-.13-.34-.13-.55c0-.26.07-.49.21-.69s.32-.36.55-.49.49-.24.78-.3.58-.1.89-.1Zm0 3.64h1.54V88.13c0-.15 0-.34-.02-.57s-.07-.46-.15-.71-.22-.48-.4-.7-.45-.4-.79-.54-.77-.21-1.3-.21c-.57 0-1.04.07-1.43.2s-.7.31-.94.53-.41.49-.51.78-.16.6-.16.93h1.62c0-.22.04-.42.13-.61s.23-.34.42-.46.44-.18.74-.18c.2 0 .38.03.55.09s.32.18.44.33.2.36.25.62v1.42c-.42 0-.83.02-1.25.07s-.82.13-1.2.25-.72.28-1.02.48-.53.46-.7.76-.26.67-.26 1.1.09.8.26 1.13.43.59.78.77.77.28 1.27.28c.31 0 .59-.05.82-.13s.44-.18.61-.31.31-.25.42-.39.19-.26.24-.37h.03Zm-18.05 0h1.54V83.95h.03l3.38 9.77h1.62l3.38-9.77h.04v9.77h1.54V81.93H96.29l-3.35 9.65h-.04l-3.35-9.65H87.16Z" fill="#F16D00" stroke="none"/><path clip-path="url(#k)" d="M88.16 104.69c-.65 0-1.2-.2-1.51-.42l-.09-.76c.42.33.99.56 1.63.56.69 0 1.17-.4 1.17-.98s-.34-.91-1.1-1.17c-1.03-.35-1.54-.85-1.54-1.67 0-.76.57-1.5 1.75-1.5.55 0 1.01.17 1.24.33l-.15.6c-.22-.15-.66-.34-1.11-.34-.67 0-1.04.41-1.04.85 0 .47.32.77 1 1.01 1.02.37 1.67.82 1.67 1.82s-.71 1.67-1.91 1.67" stroke="none"/><path clip-path="url(#k)" d="M93.21 102.68l-.89.08c-.55.06-.82.37-.82.74 0 .36.28.64.71.64.51 0 1-.39 1-1Zm.74 2.07c-.28-.06-.6-.31-.66-.69-.17.48-.64.69-1.14.69-.81 0-1.33-.58-1.33-1.25 0-.81.65-1.24 1.35-1.3l1.04-.1v-.33c0-.44-.29-.75-.9-.75-.41 0-.83.13-1.12.32l-.15-.59c.35-.23.81-.35 1.3-.35.91 0 1.57.51 1.57 1.45v1.79c0 .39.22.61.48.66Z" stroke="none"/><path clip-path="url(#k)" d="M97.73 98.91c-.31.36-.69.65-1.09.91l-.37-.17c.35-.27.78-.7 1.04-1.09.05-.07.15-.12.2-.12.1 0 .31.22.31.31 0 .04-.05.1-.1.16m.21 5.74v-.58h-.01c-.16.37-.56.68-1.31.68-.9 0-1.58-.57-1.58-1.48V100.5h.71v2.7c0 .5.34.94 1.05.94.7 0 1.09-.43 1.09-.94v-2.7h.71v4.15Z" stroke="none"/><path clip-path="url(#k)" d="M102.72 101.49c-.17-.18-.54-.45-1.11-.45-.81 0-1.46.63-1.46 1.55s.65 1.55 1.46 1.55c.54 0 .92-.28 1.11-.54Zm.04 3.16v-.46h-.01c-.19.28-.61.56-1.28.56-.98 0-2.03-.78-2.03-2.17 0-1.27.91-2.18 2.11-2.18.49 0 1 .2 1.17.39V98.13h.71v6.52Z" stroke="none"/><path clip-path="url(#k)" d="M106.38 100.98c-.62 0-1.21.52-1.32 1.15h2.37c.01-.04.01-.08.01-.13 0-.49-.38-1.02-1.06-1.02m1.72 1.31l-.39.39h-2.7c0 .68.57 1.47 1.59 1.47.51 0 .9-.15 1.21-.36l-.08.67c-.29.16-.67.28-1.21.28-1.19 0-2.21-.89-2.21-2.17 0-1.36 1.04-2.18 2.02-2.18 1.15 0 1.79.81 1.79 1.59 0 .12-.01.22-.03.3" stroke="none"/><path clip-path="url(#k)" d="M112.93 101.04c-.54 0-.92.27-1.11.54v2.1c.17.18.54.45 1.11.45.81 0 1.46-.63 1.46-1.55s-.65-1.55-1.46-1.55m.06 3.71c-.49 0-1-.2-1.17-.39v2.41h-.71V100.5h.67v.46h.01c.19-.28.61-.56 1.28-.56.98 0 2.03.78 2.03 2.17 0 1.27-.91 2.18-2.11 2.18" stroke="none"/><path clip-path="url(#k)" d="M117.83 100.98c-.62 0-1.21.52-1.32 1.15h2.37c.01-.04.01-.08.01-.13 0-.49-.38-1.02-1.06-1.02m1.72 1.31l-.39.39h-2.7c0 .68.57 1.47 1.59 1.47.51 0 .9-.15 1.21-.36l-.08.67c-.29.16-.67.28-1.21.28-1.19 0-2.21-.89-2.21-2.17 0-1.36 1.04-2.18 2.02-2.18 1.15 0 1.79.81 1.79 1.59 0 .12-.01.22-.03.3" stroke="none"/><path clip-path="url(#k)" d="M122.6 101.2c-.07-.02-.19-.05-.31-.05-.59 0-1.18.36-1.18 1.38v2.1h-.68V100.5h.68v.91h.01c.14-.59.61-.96 1.25-.96.12 0 .3.02.4.05Z" stroke="none"/><path clip-path="url(#k)" d="M124.4 104.7c-.5 0-.87-.13-1.14-.32l-.09-.73c.3.27.76.48 1.25.48.43 0 .75-.23.75-.58s-.26-.54-.69-.7c-.78-.27-1.22-.63-1.22-1.28 0-.67.55-1.12 1.31-1.12.45 0 .87.16 1.03.26l-.15.58c-.18-.14-.48-.28-.9-.28-.38 0-.64.22-.64.53 0 .33.23.47.66.63.8.29 1.26.66 1.26 1.35s-.52 1.18-1.44 1.18" stroke="none"/><path clip-path="url(#k)" d="M128.64 101.04c-.81 0-1.48.63-1.48 1.55s.67 1.54 1.48 1.54 1.47-.62 1.47-1.54-.67-1.55-1.47-1.55m0 3.71c-1.24 0-2.2-.9-2.2-2.17 0-1.28.96-2.18 2.2-2.18s2.19.9 2.19 2.18c0 1.27-.95 2.17-2.19 2.17" stroke="none"/><path clip-path="url(#k)" d="M134.53 104.65v-2.7c0-.5-.34-.93-1.05-.93-.69 0-1.09.43-1.09.93v2.7h-.71V100.5h.65v.58h.01c.16-.37.56-.68 1.31-.68.91 0 1.58.57 1.58 1.48v2.76Z" stroke="none"/><path clip-path="url(#k)" d="M138.47 102.68l-.89.08c-.55.06-.83.37-.83.74 0 .36.28.64.71.64.51 0 1-.39 1-1Zm.74 2.07c-.28-.06-.61-.31-.66-.69-.17.48-.64.69-1.14.69-.81 0-1.33-.58-1.33-1.25 0-.81.65-1.24 1.35-1.3l1.04-.1v-.33c0-.44-.29-.75-.9-.75-.41 0-.83.13-1.12.32l-.15-.59c.35-.23.81-.35 1.3-.35.91 0 1.57.51 1.57 1.45v1.79c0 .39.22.61.48.66Z" stroke="none"/><path clip-path="url(#k)" d="M141.09 104.8c-.3-.08-.77-.37-.77-1.1V98.13h.7v5.48c0 .39.28.65.55.71Z" stroke="none"/><path clip-path="url(#k)" d="M142.39 100.5h.71v4.15h-.71Zm.36-.81c-.15 0-.45-.31-.45-.46s.3-.45.45-.45c.16 0 .46.29.46.45s-.3.46-.46.46" stroke="none"/><path clip-path="url(#k)" d="M144.05 104.65v-.15l1.38-2.27c.22-.36.49-.82.71-1.15l-.01-.02H144.2v-.57h2.95v.15l-1.39 2.27c-.22.37-.46.75-.71 1.15l.01.02h2.25v.57Z" stroke="none"/><path clip-path="url(#k)" d="M150.36 102.68l-.89.08c-.55.06-.83.37-.83.74 0 .36.28.64.71.64.51 0 1-.39 1-1Zm.74 2.07c-.28-.06-.61-.31-.66-.69-.17.48-.64.69-1.14.69-.81 0-1.33-.58-1.33-1.25 0-.81.65-1.24 1.35-1.3l1.04-.1v-.33c0-.44-.29-.75-.9-.75-.41 0-.83.13-1.12.32l-.15-.59c.35-.23.81-.35 1.3-.35.91 0 1.57.51 1.57 1.45v1.79c0 .39.22.61.48.66Z" stroke="none"/><path clip-path="url(#k)" d="M155.2 101.49c-.16-.18-.54-.45-1.11-.45-.82 0-1.46.63-1.46 1.55s.65 1.55 1.46 1.55c.54 0 .92-.28 1.11-.54Zm.04 3.16v-.46h-.01c-.19.28-.61.56-1.28.56-.98 0-2.03-.78-2.03-2.17 0-1.27.91-2.18 2.11-2.18.49 0 1 .2 1.17.39V98.13h.71v6.52Z" stroke="none"/><path clip-path="url(#k)" d="M159.19 102.68l-.89.08c-.55.06-.83.37-.83.74 0 .36.28.64.71.64.51 0 1-.39 1-1Zm.74 2.07c-.28-.06-.61-.31-.66-.69-.17.48-.64.69-1.14.69-.81 0-1.33-.58-1.33-1.25 0-.81.65-1.24 1.35-1.3l1.04-.1v-.33c0-.44-.29-.75-.9-.75-.41 0-.83.13-1.12.32l-.15-.59c.35-.23.81-.35 1.3-.35.91 0 1.57.51 1.57 1.45v1.79c0 .39.22.61.48.66Z" stroke="none"/><path clip-path="url(#l)" d="M17.82 77.35h.74v.74h-.74Z" stroke="none"/><path clip-path="url(#l)" d="M18.56 77.35h.74v.74h-.74Z" stroke="none"/><path clip-path="url(#l)" d="M19.31 77.35h.74v.74h-.74Z" stroke="none"/><path clip-path="url(#l)" d="M20.05 77.35h.74v.74h-.74Z" stroke="none"/><path clip-path="url(#l)" d="M20.8 77.35h.74v.74H20.8Z" stroke="none"/><path clip-path="url(#l)" d="M21.54 77.35h.74v.74h-.74Z" stroke="none"/><path clip-path="url(#l)" d="M22.28 77.35h.74v.74h-.74Z" stroke="none"/><path clip-path="url(#l)" d="M23.77 77.35h.74v.74h-.74Z" stroke="none"/><path clip-path="url(#l)" d="M24.52 77.35h.74v.74h-.74Z" stroke="none"/><path clip-path="url(#l)" d="M25.26 77.35H26v.74h-.74Z" stroke="none"/><path clip-path="url(#l)" d="M26 77.35h.74v.74H26Z" stroke="none"/><path clip-path="url(#l)" d="M27.49 77.35h.74v.74h-.74Z" stroke="none"/><path clip-path="url(#l)" d="M28.24 77.35h.74v.74h-.74Z" stroke="none"/><path clip-path="url(#l)" d="M31.21 77.35h.74v.74h-.74Z" stroke="none"/><path clip-path="url(#l)" d="M31.96 77.35h.74v.74h-.74Z" stroke="none"/><path clip-path="url(#l)" d="M32.7 77.35h.74v.74H32.7Z" stroke="none"/><path clip-path="url(#l)" d="M33.44 77.35h.74v.74h-.74Z" stroke="none"/><path clip-path="url(#l)" d="M34.19 77.35h.74v.74h-.74Z" stroke="none"/><path clip-path="url(#l)" d="M34.93 77.35h.74v.74h-.74Z" stroke="none"/><path clip-path="url(#l)" d="M35.68 77.35h.74v.74h-.74Z" stroke="none"/><path clip-path="url(#l)" d="M17.82 78.09h.74v.74h-.74Z" stroke="none"/><path clip-path="url(#l)" d="M22.28 78.09h.74v.74h-.74Z" stroke="none"/><path clip-path="url(#l)" d="M23.77 78.09h.74v.74h-.74Z" stroke="none"/><path clip-path="url(#l)" d="M26 78.09h.74v.74H26Z" stroke="none"/><path clip-path="url(#l)" d="M28.24 78.09h.74v.74h-.74Z" stroke="none"/><path clip-path="url(#l)" d="M29.73 78.09h.74v.74h-.74Z" stroke="none"/><path clip-path="url(#l)" d="M31.21 78.09h.74v.74h-.74Z" stroke="none"/><path clip-path="url(#l)" d="M35.68 78.09h.74v.74h-.74Z" stroke="none"/><path clip-path="url(#l)" d="M17.82 78.83h.74v.74h-.74Z" stroke="none"/><path clip-path="url(#l)" d="M19.31 78.83h.74v.74h-.74Z" stroke="none"/><path clip-path="url(#l)" d="M20.05 78.83h.74v.74h-.74Z" stroke="none"/><path clip-path="url(#l)" d="M20.8 78.83h.74v.74H20.8Z" stroke="none"/><path clip-path="url(#l)" d="M22.28 78.83h.74v.74h-.74Z" stroke="none"/><path clip-path="url(#l)" d="M24.52 78.83h.74v.74h-.74Z" stroke="none"/><path clip-path="url(#l)" d="M27.49 78.83h.74v.74h-.74Z" stroke="none"/><path clip-path="url(#l)" d="M28.24 78.83h.74v.74h-.74Z" stroke="none"/><path clip-path="url(#l)" d="M31.21 78.83h.74v.74h-.74Z" stroke="none"/><path clip-path="url(#l)" d="M32.7 78.83h.74v.74H32.7Z" stroke="none"/><path clip-path="url(#l)" d="M33.44 78.83h.74v.74h-.74Z" stroke="none"/><path clip-path="url(#l)" d="M34.19 78.83h.74v.74h-.74Z" stroke="none"/><path clip-path="url(#l)" d="M35.68 78.83h.74v.74h-.74Z" stroke="none"/><path clip-path="url(#l)" d="M17.82 79.58h.74v.74h-.74Z" stroke="none"/><path clip-path="url(#l)" d="M19.31 79.58h.74v.74h-.74Z" stroke="none"/><path clip-path="url(#l)" d="M20.05 79.58h.74v.74h-.74Z" stroke="none"/><path clip-path="url(#l)" d="M20.8 79.58h.74v.74H20.8Z" stroke="none"/><path clip-path="url(#l)" d="M22.28 79.58h.74v.74h-.74Z" stroke="none"/><path clip-path="url(#l)" d="M26 79.58h.74v.74H26Z" stroke="none"/><path clip-path="url(#l)" d="M26.75 79.58h.74v.74h-.74Z" stroke="none"/><path clip-path="url(#l)" d="M27.49 79.58h.74v.74h-.74Z" stroke="none"/><path clip-path="url(#l)" d="M28.24 79.58h.74v.74h-.74Z" stroke="none"/><path clip-path="url(#l)" d="M28.98 79.58h.74v.74h-.74Z" stroke="none"/><path clip-path="url(#l)" d="M31.21 79.58h.74v.74h-.74Z" stroke="none"/><path clip-path="url(#l)" d="M32.7 79.58h.74v.74H32.7Z" stroke="none"/><path clip-path="url(#l)" d="M33.44 79.58h.74v.74h-.74Z" stroke="none"/><path clip-path="url(#l)" d="M34.19 79.58h.74v.74h-.74Z" stroke="none"/><path clip-path="url(#l)" d="M35.68 79.58h.74v.74h-.74Z" stroke="none"/><path clip-path="url(#l)" d="M17.82 80.32h.74v.74h-.74Z" stroke="none"/><path clip-path="url(#l)" d="M19.31 80.32h.74v.74h-.74Z" stroke="none"/><path clip-path="url(#l)" d="M20.05 80.32h.74v.74h-.74Z" stroke="none"/><path clip-path="url(#l)" d="M20.8 80.32h.74v.74H20.8Z" stroke="none"/><path clip-path="url(#l)" d="M22.28 80.32h.74v.74h-.74Z" stroke="none"/><path clip-path="url(#l)" d="M23.77 80.32h.74v.74h-.74Z" stroke="none"/><path clip-path="url(#l)" d="M26 80.32h.74v.74H26Z" stroke="none"/><path clip-path="url(#l)" d="M26.75 80.32h.74v.74h-.74Z" stroke="none"/><path clip-path="url(#l)" d="M27.49 80.32h.74v.74h-.74Z" stroke="none"/><path clip-path="url(#l)" d="M28.24 80.32h.74v.74h-.74Z" stroke="none"/><path clip-path="url(#l)" d="M29.73 80.32h.74v.74h-.74Z" stroke="none"/><path clip-path="url(#l)" d="M31.21 80.32h.74v.74h-.74Z" stroke="none"/><path clip-path="url(#l)" d="M32.7 80.32h.74v.74H32.7Z" stroke="none"/><path clip-path="url(#l)" d="M33.44 80.32h.74v.74h-.74Z" stroke="none"/><path clip-path="url(#l)" d="M34.19 80.32h.74v.74h-.74Z" stroke="none"/><path clip-path="url(#l)" d="M35.68 80.32h.74v.74h-.74Z" stroke="none"/><path clip-path="url(#l)" d="M17.82 81.07h.74v.74h-.74Z" stroke="none"/><path clip-path="url(#l)" d="M22.28 81.07h.74v.74h-.74Z" stroke="none"/><path clip-path="url(#l)" d="M23.77 81.07h.74v.74h-.74Z" stroke="none"/><path clip-path="url(#l)" d="M24.52 81.07h.74v.74h-.74Z" stroke="none"/><path clip-path="url(#l)" d="M25.26 81.07H26v.74h-.74Z" stroke="none"/><path clip-path="url(#l)" d="M26.75 81.07h.74v.74h-.74Z" stroke="none"/><path clip-path="url(#l)" d="M27.49 81.07h.74v.74h-.74Z" stroke="none"/><path clip-path="url(#l)" d="M28.24 81.07h.74v.74h-.74Z" stroke="none"/><path clip-path="url(#l)" d="M29.73 81.07h.74v.74h-.74Z" stroke="none"/><path clip-path="url(#l)" d="M31.21 81.07h.74v.74h-.74Z" stroke="none"/><path clip-path="url(#l)" d="M35.68 81.07h.74v.74h-.74Z" stroke="none"/><path clip-path="url(#l)" d="M17.82 81.81h.74v.74h-.74Z" stroke="none"/><path clip-path="url(#l)" d="M18.56 81.81h.74v.74h-.74Z" stroke="none"/><path clip-path="url(#l)" d="M19.31 81.81h.74v.74h-.74Z" stroke="none"/><path clip-path="url(#l)" d="M20.05 81.81h.74v.74h-.74Z" stroke="none"/><path clip-path="url(#l)" d="M20.8 81.81h.74v.74H20.8Z" stroke="none"/><path clip-path="url(#l)" d="M21.54 81.81h.74v.74h-.74Z" stroke="none"/><path clip-path="url(#l)" d="M22.28 81.81h.74v.74h-.74Z" stroke="none"/><path clip-path="url(#l)" d="M23.77 81.81h.74v.74h-.74Z" stroke="none"/><path clip-path="url(#l)" d="M25.26 81.81H26v.74h-.74Z" stroke="none"/><path clip-path="url(#l)" d="M26.75 81.81h.74v.74h-.74Z" stroke="none"/><path clip-path="url(#l)" d="M28.24 81.81h.74v.74h-.74Z" stroke="none"/><path clip-path="url(#l)" d="M29.73 81.81h.74v.74h-.74Z" stroke="none"/><path clip-path="url(#l)" d="M31.21 81.81h.74v.74h-.74Z" stroke="none"/><path clip-path="url(#l)" d="M31.96 81.81h.74v.74h-.74Z" stroke="none"/><path clip-path="url(#l)" d="M32.7 81.81h.74v.74H32.7Z" stroke="none"/><path clip-path="url(#l)" d="M33.44 81.81h.74v.74h-.74Z" stroke="none"/><path clip-path="url(#l)" d="M34.19 81.81h.74v.74h-.74Z" stroke="none"/><path clip-path="url(#l)" d="M34.93 81.81h.74v.74h-.74Z" stroke="none"/><path clip-path="url(#l)" d="M35.68 81.81h.74v.74h-.74Z" stroke="none"/><path clip-path="url(#l)" d="M23.77 82.55h.74v.74h-.74Z" stroke="none"/><path clip-path="url(#l)" d="M24.52 82.55h.74v.74h-.74Z" stroke="none"/><path clip-path="url(#l)" d="M28.98 82.55h.74v.74h-.74Z" stroke="none"/><path clip-path="url(#l)" d="M29.73 82.55h.74v.74h-.74Z" stroke="none"/><path clip-path="url(#l)" d="M17.82 83.3h.74v.74h-.74Z" stroke="none"/><path clip-path="url(#l)" d="M18.56 83.3h.74v.74h-.74Z" stroke="none"/><path clip-path="url(#l)" d="M19.31 83.3h.74v.74h-.74Z" stroke="none"/><path clip-path="url(#l)" d="M21.54 83.3h.74v.74h-.74Z" stroke="none"/><path clip-path="url(#l)" d="M22.28 83.3h.74v.74h-.74Z" stroke="none"/><path clip-path="url(#l)" d="M23.77 83.3h.74v.74h-.74Z" stroke="none"/><path clip-path="url(#l)" d="M24.52 83.3h.74v.74h-.74Z" stroke="none"/><path clip-path="url(#l)" d="M26 83.3h.74v.74H26Z" stroke="none"/><path clip-path="url(#l)" d="M26.75 83.3h.74v.74h-.74Z" stroke="none"/><path clip-path="url(#l)" d="M29.73 83.3h.74v.74h-.74Z" stroke="none"/><path clip-path="url(#l)" d="M30.47 83.3h.74v.74h-.74Z" stroke="none"/><path clip-path="url(#l)" d="M31.21 83.3h.74v.74h-.74Z" stroke="none"/><path clip-path="url(#l)" d="M31.96 83.3h.74v.74h-.74Z" stroke="none"/><path clip-path="url(#l)" d="M32.7 83.3h.74v.74H32.7Z" stroke="none"/><path clip-path="url(#l)" d="M34.93 83.3h.74v.74h-.74Z" stroke="none"/><path clip-path="url(#l)" d="M35.68 83.3h.74v.74h-.74Z" stroke="none"/><path clip-path="url(#l)" d="M18.56 84.04h.74v.74h-.74Z" stroke="none"/><path clip-path="url(#l)" d="M20.8 84.04h.74v.74H20.8Z" stroke="none"/><path clip-path="url(#l)" d="M23.77 84.04h.74v.74h-.74Z" stroke="none"/><path clip-path="url(#l)" d="M26.75 84.04h.74v.74h-.74Z" stroke="none"/><path clip-path="url(#l)" d="M28.24 84.04h.74v.74h-.74Z" stroke="none"/><path clip-path="url(#l)" d="M28.98 84.04h.74v.74h-.74Z" stroke="none"/><path clip-path="url(#l)" d="M29.73 84.04h.74v.74h-.74Z" stroke="none"/><path clip-path="url(#l)" d="M30.47 84.04h.74v.74h-.74Z" stroke="none"/><path clip-path="url(#l)" d="M31.21 84.04h.74v.74h-.74Z" stroke="none"/><path clip-path="url(#l)" d="M31.96 84.04h.74v.74h-.74Z" stroke="none"/><path clip-path="url(#l)" d="M33.44 84.04h.74v.74h-.74Z" stroke="none"/><path clip-path="url(#l)" d="M34.93 84.04h.74v.74h-.74Z" stroke="none"/><path clip-path="url(#l)" d="M35.68 84.04h.74v.74h-.74Z" stroke="none"/><path clip-path="url(#l)" d="M17.82 84.79h.74v.74h-.74Z" stroke="none"/><path clip-path="url(#l)" d="M18.56 84.79h.74v.74h-.74Z" stroke="none"/><path clip-path="url(#l)" d="M19.31 84.79h.74v.74h-.74Z" stroke="none"/><path clip-path="url(#l)" d="M20.05 84.79h.74v.74h-.74Z" stroke="none"/><path clip-path="url(#l)" d="M21.54 84.79h.74v.74h-.74Z" stroke="none"/><path clip-path="url(#l)" d="M22.28 84.79h.74v.74h-.74Z" stroke="none"/><path clip-path="url(#l)" d="M23.03 84.79h.74v.74h-.74Z" stroke="none"/><path clip-path="url(#l)" d="M23.77 84.79h.74v.74h-.74Z" stroke="none"/><path clip-path="url(#l)" d="M24.52 84.79h.74v.74h-.74Z" stroke="none"/><path clip-path="url(#l)" d="M25.26 84.79H26v.74h-.74Z" stroke="none"/><path clip-path="url(#l)" d="M26.75 84.79h.74v.74h-.74Z" stroke="none"/><path clip-path="url(#l)" d="M28.24 84.79h.74v.74h-.74Z" stroke="none"/><path clip-path="url(#l)" d="M28.98 84.79h.74v.74h-.74Z" stroke="none"/><path clip-path="url(#l)" d="M30.47 84.79h.74v.74h-.74Z" stroke="none"/><path clip-path="url(#l)" d="M31.96 84.79h.74v.74h-.74Z" stroke="none"/><path clip-path="url(#l)" d="M32.7 84.79h.74v.74H32.7Z" stroke="none"/><path clip-path="url(#l)" d="M33.44 84.79h.74v.74h-.74Z" stroke="none"/><path clip-path="url(#l)" d="M34.19 84.79h.74v.74h-.74Z" stroke="none"/><path clip-path="url(#l)" d="M35.68 84.79h.74v.74h-.74Z" stroke="none"/><path clip-path="url(#l)" d="M17.82 85.53h.74v.74h-.74Z" stroke="none"/><path clip-path="url(#l)" d="M19.31 85.53h.74v.74h-.74Z" stroke="none"/><path clip-path="url(#l)" d="M20.05 85.53h.74v.74h-.74Z" stroke="none"/><path clip-path="url(#l)" d="M21.54 85.53h.74v.74h-.74Z" stroke="none"/><path clip-path="url(#l)" d="M23.03 85.53h.74v.74h-.74Z" stroke="none"/><path clip-path="url(#l)" d="M25.26 85.53H26v.74h-.74Z" stroke="none"/><path clip-path="url(#l)" d="M26 85.53h.74v.74H26Z" stroke="none"/><path clip-path="url(#l)" d="M26.75 85.53h.74v.74h-.74Z" stroke="none"/><path clip-path="url(#l)" d="M28.24 85.53h.74v.74h-.74Z" stroke="none"/><path clip-path="url(#l)" d="M30.47 85.53h.74v.74h-.74Z" stroke="none"/><path clip-path="url(#l)" d="M32.7 85.53h.74v.74H32.7Z" stroke="none"/><path clip-path="url(#l)" d="M33.44 85.53h.74v.74h-.74Z" stroke="none"/><path clip-path="url(#l)" d="M18.56 86.27h.74v.74h-.74Z" stroke="none"/><path clip-path="url(#l)" d="M19.31 86.27h.74v.74h-.74Z" stroke="none"/><path clip-path="url(#l)" d="M22.28 86.27h.74v.74h-.74Z" stroke="none"/><path clip-path="url(#l)" d="M23.03 86.27h.74v.74h-.74Z" stroke="none"/><path clip-path="url(#l)" d="M24.52 86.27h.74v.74h-.74Z" stroke="none"/><path clip-path="url(#l)" d="M25.26 86.27H26v.74h-.74Z" stroke="none"/><path clip-path="url(#l)" d="M28.24 86.27h.74v.74h-.74Z" stroke="none"/><path clip-path="url(#l)" d="M29.73 86.27h.74v.74h-.74Z" stroke="none"/><path clip-path="url(#l)" d="M31.21 86.27h.74v.74h-.74Z" stroke="none"/><path clip-path="url(#l)" d="M31.96 86.27h.74v.74h-.74Z" stroke="none"/><path clip-path="url(#l)" d="M35.68 86.27h.74v.74h-.74Z" stroke="none"/><path clip-path="url(#l)" d="M18.56 87.02h.74v.74h-.74Z" stroke="none"/><path clip-path="url(#l)" d="M19.31 87.02h.74v.74h-.74Z" stroke="none"/><path clip-path="url(#l)" d="M21.54 87.02h.74v.74h-.74Z" stroke="none"/><path clip-path="url(#l)" d="M23.03 87.02h.74v.74h-.74Z" stroke="none"/><path clip-path="url(#l)" d="M24.52 87.02h.74v.74h-.74Z" stroke="none"/><path clip-path="url(#l)" d="M25.26 87.02H26v.74h-.74Z" stroke="none"/><path clip-path="url(#l)" d="M28.24 87.02h.74v.74h-.74Z" stroke="none"/><path clip-path="url(#l)" d="M28.98 87.02h.74v.74h-.74Z" stroke="none"/><path clip-path="url(#l)" d="M29.73 87.02h.74v.74h-.74Z" stroke="none"/><path clip-path="url(#l)" d="M30.47 87.02h.74v.74h-.74Z" stroke="none"/><path clip-path="url(#l)" d="M31.21 87.02h.74v.74h-.74Z" stroke="none"/><path clip-path="url(#l)" d="M31.96 87.02h.74v.74h-.74Z" stroke="none"/><path clip-path="url(#l)" d="M34.93 87.02h.74v.74h-.74Z" stroke="none"/><path clip-path="url(#l)" d="M35.68 87.02h.74v.74h-.74Z" stroke="none"/><path clip-path="url(#l)" d="M17.82 87.76h.74v.74h-.74Z" stroke="none"/><path clip-path="url(#l)" d="M18.56 87.76h.74v.74h-.74Z" stroke="none"/><path clip-path="url(#l)" d="M19.31 87.76h.74v.74h-.74Z" stroke="none"/><path clip-path="url(#l)" d="M20.05 87.76h.74v.74h-.74Z" stroke="none"/><path clip-path="url(#l)" d="M20.8 87.76h.74v.74H20.8Z" stroke="none"/><path clip-path="url(#l)" d="M21.54 87.76h.74v.74h-.74Z" stroke="none"/><path clip-path="url(#l)" d="M22.28 87.76h.74v.74h-.74Z" stroke="none"/><path clip-path="url(#l)" d="M25.26 87.76H26v.74h-.74Z" stroke="none"/><path clip-path="url(#l)" d="M26 87.76h.74v.74H26Z" stroke="none"/><path clip-path="url(#l)" d="M28.98 87.76h.74v.74h-.74Z" stroke="none"/><path clip-path="url(#l)" d="M29.73 87.76h.74v.74h-.74Z" stroke="none"/><path clip-path="url(#l)" d="M30.47 87.76h.74v.74h-.74Z" stroke="none"/><path clip-path="url(#l)" d="M31.21 87.76h.74v.74h-.74Z" stroke="none"/><path clip-path="url(#l)" d="M33.44 87.76h.74v.74h-.74Z" stroke="none"/><path clip-path="url(#l)" d="M34.19 87.76h.74v.74h-.74Z" stroke="none"/><path clip-path="url(#l)" d="M35.68 87.76h.74v.74h-.74Z" stroke="none"/><path clip-path="url(#l)" d="M19.31 88.51h.74v.74h-.74Z" stroke="none"/><path clip-path="url(#l)" d="M23.03 88.51h.74v.74h-.74Z" stroke="none"/><path clip-path="url(#l)" d="M23.77 88.51h.74v.74h-.74Z" stroke="none"/><path clip-path="url(#l)" d="M25.26 88.51H26v.74h-.74Z" stroke="none"/><path clip-path="url(#l)" d="M28.24 88.51h.74v.74h-.74Z" stroke="none"/><path clip-path="url(#l)" d="M28.98 88.51h.74v.74h-.74Z" stroke="none"/><path clip-path="url(#l)" d="M29.73 88.51h.74v.74h-.74Z" stroke="none"/><path clip-path="url(#l)" d="M31.96 88.51h.74v.74h-.74Z" stroke="none"/><path clip-path="url(#l)" d="M32.7 88.51h.74v.74H32.7Z" stroke="none"/><path clip-path="url(#l)" d="M33.44 88.51h.74v.74h-.74Z" stroke="none"/><path clip-path="url(#l)" d="M17.82 89.25h.74V90h-.74Z" stroke="none"/><path clip-path="url(#l)" d="M18.56 89.25h.74V90h-.74Z" stroke="none"/><path clip-path="url(#l)" d="M22.28 89.25h.74V90h-.74Z" stroke="none"/><path clip-path="url(#l)" d="M23.03 89.25h.74V90h-.74Z" stroke="none"/><path clip-path="url(#l)" d="M23.77 89.25h.74V90h-.74Z" stroke="none"/><path clip-path="url(#l)" d="M24.52 89.25h.74V90h-.74Z" stroke="none"/><path clip-path="url(#l)" d="M26 89.25h.74V90H26Z" stroke="none"/><path clip-path="url(#l)" d="M26.75 89.25h.74V90h-.74Z" stroke="none"/><path clip-path="url(#l)" d="M28.24 89.25h.74V90h-.74Z" stroke="none"/><path clip-path="url(#l)" d="M29.73 89.25h.74V90h-.74Z" stroke="none"/><path clip-path="url(#l)" d="M30.47 89.25h.74V90h-.74Z" stroke="none"/><path clip-path="url(#l)" d="M31.21 89.25h.74V90h-.74Z" stroke="none"/><path clip-path="url(#l)" d="M31.96 89.25h.74V90h-.74Z" stroke="none"/><path clip-path="url(#l)" d="M32.7 89.25h.74V90H32.7Z" stroke="none"/><path clip-path="url(#l)" d="M34.93 89.25h.74V90h-.74Z" stroke="none"/><path clip-path="url(#l)" d="M23.77 90h.74v.74h-.74Z" stroke="none"/><path clip-path="url(#l)" d="M26.75 90h.74v.74h-.74Z" stroke="none"/><path clip-path="url(#l)" d="M27.49 90h.74v.74h-.74Z" stroke="none"/><path clip-path="url(#l)" d="M28.24 90h.74v.74h-.74Z" stroke="none"/><path clip-path="url(#l)" d="M29.73 90h.74v.74h-.74Z" stroke="none"/><path clip-path="url(#l)" d="M32.7 90h.74v.74H32.7Z" stroke="none"/><path clip-path="url(#l)" d="M35.68 90h.74v.74h-.74Z" stroke="none"/><path clip-path="url(#l)" d="M17.82 90.74h.74v.74h-.74Z" stroke="none"/><path clip-path="url(#l)" d="M18.56 90.74h.74v.74h-.74Z" stroke="none"/><path clip-path="url(#l)" d="M19.31 90.74h.74v.74h-.74Z" stroke="none"/><path clip-path="url(#l)" d="M20.05 90.74h.74v.74h-.74Z" stroke="none"/><path clip-path="url(#l)" d="M20.8 90.74h.74v.74H20.8Z" stroke="none"/><path clip-path="url(#l)" d="M21.54 90.74h.74v.74h-.74Z" stroke="none"/><path clip-path="url(#l)" d="M22.28 90.74h.74v.74h-.74Z" stroke="none"/><path clip-path="url(#l)" d="M25.26 90.74H26v.74h-.74Z" stroke="none"/><path clip-path="url(#l)" d="M26.75 90.74h.74v.74h-.74Z" stroke="none"/><path clip-path="url(#l)" d="M27.49 90.74h.74v.74h-.74Z" stroke="none"/><path clip-path="url(#l)" d="M28.24 90.74h.74v.74h-.74Z" stroke="none"/><path clip-path="url(#l)" d="M29.73 90.74h.74v.74h-.74Z" stroke="none"/><path clip-path="url(#l)" d="M31.21 90.74h.74v.74h-.74Z" stroke="none"/><path clip-path="url(#l)" d="M32.7 90.74h.74v.74H32.7Z" stroke="none"/><path clip-path="url(#l)" d="M35.68 90.74h.74v.74h-.74Z" stroke="none"/><path clip-path="url(#l)" d="M17.82 91.48h.74v.74h-.74Z" stroke="none"/><path clip-path="url(#l)" d="M22.28 91.48h.74v.74h-.74Z" stroke="none"/><path clip-path="url(#l)" d="M23.77 91.48h.74v.74h-.74Z" stroke="none"/><path clip-path="url(#l)" d="M26 91.48h.74v.74H26Z" stroke="none"/><path clip-path="url(#l)" d="M26.75 91.48h.74v.74h-.74Z" stroke="none"/><path clip-path="url(#l)" d="M29.73 91.48h.74v.74h-.74Z" stroke="none"/><path clip-path="url(#l)" d="M32.7 91.48h.74v.74H32.7Z" stroke="none"/><path clip-path="url(#l)" d="M17.82 92.23h.74v.74h-.74Z" stroke="none"/><path clip-path="url(#l)" d="M19.31 92.23h.74v.74h-.74Z" stroke="none"/><path clip-path="url(#l)" d="M20.05 92.23h.74v.74h-.74Z" stroke="none"/><path clip-path="url(#l)" d="M20.8 92.23h.74v.74H20.8Z" stroke="none"/><path clip-path="url(#l)" d="M22.28 92.23h.74v.74h-.74Z" stroke="none"/><path clip-path="url(#l)" d="M24.52 92.23h.74v.74h-.74Z" stroke="none"/><path clip-path="url(#l)" d="M25.26 92.23H26v.74h-.74Z" stroke="none"/><path clip-path="url(#l)" d="M26.75 92.23h.74v.74h-.74Z" stroke="none"/><path clip-path="url(#l)" d="M28.24 92.23h.74v.74h-.74Z" stroke="none"/><path clip-path="url(#l)" d="M28.98 92.23h.74v.74h-.74Z" stroke="none"/><path clip-path="url(#l)" d="M29.73 92.23h.74v.74h-.74Z" stroke="none"/><path clip-path="url(#l)" d="M30.47 92.23h.74v.74h-.74Z" stroke="none"/><path clip-path="url(#l)" d="M31.21 92.23h.74v.74h-.74Z" stroke="none"/><path clip-path="url(#l)" d="M31.96 92.23h.74v.74h-.74Z" stroke="none"/><path clip-path="url(#l)" d="M32.7 92.23h.74v.74H32.7Z" stroke="none"/><path clip-path="url(#l)" d="M34.93 92.23h.74v.74h-.74Z" stroke="none"/><path clip-path="url(#l)" d="M17.82 92.97h.74v.74h-.74Z" stroke="none"/><path clip-path="url(#l)" d="M19.31 92.97h.74v.74h-.74Z" stroke="none"/><path clip-path="url(#l)" d="M20.05 92.97h.74v.74h-.74Z" stroke="none"/><path clip-path="url(#l)" d="M20.8 92.97h.74v.74H20.8Z" stroke="none"/><path clip-path="url(#l)" d="M22.28 92.97h.74v.74h-.74Z" stroke="none"/><path clip-path="url(#l)" d="M25.26 92.97H26v.74h-.74Z" stroke="none"/><path clip-path="url(#l)" d="M27.49 92.97h.74v.74h-.74Z" stroke="none"/><path clip-path="url(#l)" d="M28.24 92.97h.74v.74h-.74Z" stroke="none"/><path clip-path="url(#l)" d="M28.98 92.97h.74v.74h-.74Z" stroke="none"/><path clip-path="url(#l)" d="M30.47 92.97h.74v.74h-.74Z" stroke="none"/><path clip-path="url(#l)" d="M32.7 92.97h.74v.74H32.7Z" stroke="none"/><path clip-path="url(#l)" d="M34.19 92.97h.74v.74h-.74Z" stroke="none"/><path clip-path="url(#l)" d="M34.93 92.97h.74v.74h-.74Z" stroke="none"/><path clip-path="url(#l)" d="M17.82 93.72h.74v.74h-.74Z" stroke="none"/><path clip-path="url(#l)" d="M19.31 93.72h.74v.74h-.74Z" stroke="none"/><path clip-path="url(#l)" d="M20.05 93.72h.74v.74h-.74Z" stroke="none"/><path clip-path="url(#l)" d="M20.8 93.72h.74v.74H20.8Z" stroke="none"/><path clip-path="url(#l)" d="M22.28 93.72h.74v.74h-.74Z" stroke="none"/><path clip-path="url(#l)" d="M23.77 93.72h.74v.74h-.74Z" stroke="none"/><path clip-path="url(#l)" d="M25.26 93.72H26v.74h-.74Z" stroke="none"/><path clip-path="url(#l)" d="M26 93.72h.74v.74H26Z" stroke="none"/><path clip-path="url(#l)" d="M27.49 93.72h.74v.74h-.74Z" stroke="none"/><path clip-path="url(#l)" d="M28.24 93.72h.74v.74h-.74Z" stroke="none"/><path clip-path="url(#l)" d="M28.98 93.72h.74v.74h-.74Z" stroke="none"/><path clip-path="url(#l)" d="M29.73 93.72h.74v.74h-.74Z" stroke="none"/><path clip-path="url(#l)" d="M31.96 93.72h.74v.74h-.74Z" stroke="none"/><path clip-path="url(#l)" d="M32.7 93.72h.74v.74H32.7Z" stroke="none"/><path clip-path="url(#l)" d="M33.44 93.72h.74v.74h-.74Z" stroke="none"/><path clip-path="url(#l)" d="M34.93 93.72h.74v.74h-.74Z" stroke="none"/><path clip-path="url(#l)" d="M35.68 93.72h.74v.74h-.74Z" stroke="none"/><path clip-path="url(#l)" d="M17.82 94.46h.74v.74h-.74Z" stroke="none"/><path clip-path="url(#l)" d="M22.28 94.46h.74v.74h-.74Z" stroke="none"/><path clip-path="url(#l)" d="M23.77 94.46h.74v.74h-.74Z" stroke="none"/><path clip-path="url(#l)" d="M25.26 94.46H26v.74h-.74Z" stroke="none"/><path clip-path="url(#l)" d="M26 94.46h.74v.74H26Z" stroke="none"/><path clip-path="url(#l)" d="M26.75 94.46h.74v.74h-.74Z" stroke="none"/><path clip-path="url(#l)" d="M28.24 94.46h.74v.74h-.74Z" stroke="none"/><path clip-path="url(#l)" d="M29.73 94.46h.74v.74h-.74Z" stroke="none"/><path clip-path="url(#l)" d="M31.96 94.46h.74v.74h-.74Z" stroke="none"/><path clip-path="url(#l)" d="M32.7 94.46h.74v.74H32.7Z" stroke="none"/><path clip-path="url(#l)" d="M17.82 95.2h.74v.74h-.74Z" stroke="none"/><path clip-path="url(#l)" d="M18.56 95.2h.74v.74h-.74Z" stroke="none"/><path clip-path="url(#l)" d="M19.31 95.2h.74v.74h-.74Z" stroke="none"/><path clip-path="url(#l)" d="M20.05 95.2h.74v.74h-.74Z" stroke="none"/><path clip-path="url(#l)" d="M20.8 95.2h.74v.74H20.8Z" stroke="none"/><path clip-path="url(#l)" d="M21.54 95.2h.74v.74h-.74Z" stroke="none"/><path clip-path="url(#l)" d="M22.28 95.2h.74v.74h-.74Z" stroke="none"/><path clip-path="url(#l)" d="M23.77 95.2h.74v.74h-.74Z" stroke="none"/><path clip-path="url(#l)" d="M25.26 95.2H26v.74h-.74Z" stroke="none"/><path clip-path="url(#l)" d="M26 95.2h.74v.74H26Z" stroke="none"/><path clip-path="url(#l)" d="M26.75 95.2h.74v.74h-.74Z" stroke="none"/><path clip-path="url(#l)" d="M29.73 95.2h.74v.74h-.74Z" stroke="none"/><path clip-path="url(#l)" d="M30.47 95.2h.74v.74h-.74Z" stroke="none"/><path clip-path="url(#l)" d="M33.44 95.2h.74v.74h-.74Z" stroke="none"/><path clip-path="url(#l)" d="M35.68 95.2h.74v.74h-.74Z" stroke="none"/></g></g></svg>