<?xml version="1.0" encoding="UTF-8"?><svg xmlns="http://www.w3.org/2000/svg" color-interpolation="auto" height="123.39" stroke="#000" stroke-linecap="square" stroke-miterlimit="10" width="153.28"><defs><clipPath id="a"><path d="M5 5V118.39H153.28V5Z"/></clipPath><clipPath clip-path="url(#a)" id="b"><path d="M5 118.39H260.12V5H5Z"/></clipPath><clipPath clip-path="url(#b)" id="h"><path d="M5 5H260.12V118.39H5Z"/></clipPath><clipPath id="c"><path d="M5 5V118.39H153.28V5Z"/></clipPath><clipPath clip-path="url(#c)" id="d"><path d="M5 118.39H260.12V5H5Z"/></clipPath><clipPath clip-path="url(#d)" id="i"><path d="M5 5V118.39H115.35c18.18 0 32.92-14.74 32.92-32.92V5Z"/></clipPath><clipPath id="e"><path d="M5 5V118.39H153.28V5Z"/></clipPath><clipPath clip-path="url(#e)" id="j"><path d="M5 118.39H260.12V5H5Z"/></clipPath><clipPath id="f"><path d="M5 5V118.39H153.28V5Z"/></clipPath><clipPath clip-path="url(#f)" id="g"><path d="M5 118.39H260.12V5H5Z"/></clipPath><clipPath clip-path="url(#g)" id="k"><path d="M5 5H260.12V118.39H5Z"/></clipPath></defs><g><g fill="#611F7F" stroke="#611F7F"><path clip-path="url(#h)" d="M5 5V118.39H115.35c18.18 0 32.92-14.74 32.92-32.92V5Z" stroke="none"/></g><g fill="#fff" stroke="#fff" stroke-linecap="butt" stroke-width=".3"><path clip-path="url(#i)" d="M26.45 16.4V5.69h15.2c5.25 0 9.52-3.35 9.52-8.6s-4.27-9.52-9.52-9.52H26.45V-23.14h15.2c11.16 0 20.23 9.08 20.23 20.23S52.81 16.4 41.65 16.4H26.45Z" fill="none"/><path clip-path="url(#i)" d="M23.1 16.45H19.93c-4.16 0-7.54-3.38-7.54-7.54V-9.07H23.1V16.45Z" fill="none"/><path clip-path="url(#i)" d="M45.26 115.56v-3.17c0-4.16 3.38-7.54 7.54-7.54H70.78v10.71H45.26Z" fill="none"/><path clip-path="url(#i)" d="M74.02 115.51V104.85H84.69v10.66H74.02Z" fill="none"/><path clip-path="url(#i)" d="M95.95-14.43v8.36H84.08c-4.1 0-7.44 2.62-7.44 6.72s3.34 7.44 7.44 7.44H95.95v8.37H84.08c-8.71 0-15.8-7.09-15.8-15.8s7.09-15.08 15.8-15.08H95.95Z" fill="none" stroke="#F16D00"/><path clip-path="url(#i)" d="M98.57-14.47h2.48c3.25 0 5.89 2.64 5.89 5.89V5.45H98.57V-14.47Z" fill="none" stroke="#F16D00"/><path clip-path="url(#i)" d="M98.61 7.98h8.32v8.33H98.61V7.98Z" fill="none" stroke="#F16D00"/><path clip-path="url(#i)" d="M141.97-6.63H135v9.9c0 3.42-2.18 6.2-5.6 6.2s-6.2-2.78-6.2-6.2v-9.9h-6.98v9.9c0 7.27 5.91 13.18 13.18 13.18s12.58-5.91 12.58-13.18v-9.9Z" fill="none"/><path clip-path="url(#i)" d="M126.19 146.4V135.15H110.21c-5.52 0-10.01-3.52-10.01-9.04s4.49-10.01 10.01-10.01h15.97V104.85H110.21c-11.72 0-21.26 9.54-21.26 21.26s9.54 20.29 21.26 20.29h15.97Z" fill="none" stroke="#F16D00"/><path clip-path="url(#i)" d="M129.76 116.24h11.2V105.03h-11.2v11.22Z" fill="none" stroke="#F16D00"/><path clip-path="url(#j)" d="M13.07 74.53h.7v-.7h-.7Z" stroke="none"/><path clip-path="url(#j)" d="M13.76 74.53h.7v-.7h-.7Z" stroke="none"/><path clip-path="url(#j)" d="M14.46 74.53h.7v-.7h-.7Z" stroke="none"/><path clip-path="url(#j)" d="M15.16 74.53h.7v-.7h-.7Z" stroke="none"/><path clip-path="url(#j)" d="M15.85 74.53h.7v-.7h-.7Z" stroke="none"/><path clip-path="url(#j)" d="M16.55 74.53h.7v-.7h-.7Z" stroke="none"/><path clip-path="url(#j)" d="M17.25 74.53h.7v-.7h-.7Z" stroke="none"/><path clip-path="url(#j)" d="M18.64 74.53h.7v-.7h-.7Z" stroke="none"/><path clip-path="url(#j)" d="M19.34 74.53h.7v-.7h-.7Z" stroke="none"/><path clip-path="url(#j)" d="M20.03 74.53h.7v-.7h-.7Z" stroke="none"/><path clip-path="url(#j)" d="M20.73 74.53h.7v-.7h-.7Z" stroke="none"/><path clip-path="url(#j)" d="M22.12 74.53h.7v-.7h-.7Z" stroke="none"/><path clip-path="url(#j)" d="M22.82 74.53h.7v-.7h-.7Z" stroke="none"/><path clip-path="url(#j)" d="M25.6 74.53h.7v-.7h-.7Z" stroke="none"/><path clip-path="url(#j)" d="M26.3 74.53H27v-.7h-.7Z" stroke="none"/><path clip-path="url(#j)" d="M26.99 74.53h.7v-.7h-.7Z" stroke="none"/><path clip-path="url(#j)" d="M27.69 74.53h.7v-.7h-.7Z" stroke="none"/><path clip-path="url(#j)" d="M28.39 74.53h.7v-.7h-.7Z" stroke="none"/><path clip-path="url(#j)" d="M29.08 74.53h.7v-.7h-.7Z" stroke="none"/><path clip-path="url(#j)" d="M29.78 74.53h.7v-.7h-.7Z" stroke="none"/><path clip-path="url(#j)" d="M13.07 75.22h.7v-.7h-.7Z" stroke="none"/><path clip-path="url(#j)" d="M17.25 75.22h.7v-.7h-.7Z" stroke="none"/><path clip-path="url(#j)" d="M18.64 75.22h.7v-.7h-.7Z" stroke="none"/><path clip-path="url(#j)" d="M20.73 75.22h.7v-.7h-.7Z" stroke="none"/><path clip-path="url(#j)" d="M22.82 75.22h.7v-.7h-.7Z" stroke="none"/><path clip-path="url(#j)" d="M24.21 75.22h.7v-.7h-.7Z" stroke="none"/><path clip-path="url(#j)" d="M25.6 75.22h.7v-.7h-.7Z" stroke="none"/><path clip-path="url(#j)" d="M29.78 75.22h.7v-.7h-.7Z" stroke="none"/><path clip-path="url(#j)" d="M13.07 75.92h.7v-.7h-.7Z" stroke="none"/><path clip-path="url(#j)" d="M14.46 75.92h.7v-.7h-.7Z" stroke="none"/><path clip-path="url(#j)" d="M15.16 75.92h.7v-.7h-.7Z" stroke="none"/><path clip-path="url(#j)" d="M15.85 75.92h.7v-.7h-.7Z" stroke="none"/><path clip-path="url(#j)" d="M17.25 75.92h.7v-.7h-.7Z" stroke="none"/><path clip-path="url(#j)" d="M19.34 75.92h.7v-.7h-.7Z" stroke="none"/><path clip-path="url(#j)" d="M22.12 75.92h.7v-.7h-.7Z" stroke="none"/><path clip-path="url(#j)" d="M22.82 75.92h.7v-.7h-.7Z" stroke="none"/><path clip-path="url(#j)" d="M25.6 75.92h.7v-.7h-.7Z" stroke="none"/><path clip-path="url(#j)" d="M26.99 75.92h.7v-.7h-.7Z" stroke="none"/><path clip-path="url(#j)" d="M27.69 75.92h.7v-.7h-.7Z" stroke="none"/><path clip-path="url(#j)" d="M28.39 75.92h.7v-.7h-.7Z" stroke="none"/><path clip-path="url(#j)" d="M29.78 75.92h.7v-.7h-.7Z" stroke="none"/><path clip-path="url(#j)" d="M13.07 76.61h.7v-.7h-.7Z" stroke="none"/><path clip-path="url(#j)" d="M14.46 76.61h.7v-.7h-.7Z" stroke="none"/><path clip-path="url(#j)" d="M15.16 76.61h.7v-.7h-.7Z" stroke="none"/><path clip-path="url(#j)" d="M15.85 76.61h.7v-.7h-.7Z" stroke="none"/><path clip-path="url(#j)" d="M17.25 76.61h.7v-.7h-.7Z" stroke="none"/><path clip-path="url(#j)" d="M20.73 76.61h.7v-.7h-.7Z" stroke="none"/><path clip-path="url(#j)" d="M21.42 76.61h.7v-.7h-.7Z" stroke="none"/><path clip-path="url(#j)" d="M22.12 76.61h.7v-.7h-.7Z" stroke="none"/><path clip-path="url(#j)" d="M22.82 76.61h.7v-.7h-.7Z" stroke="none"/><path clip-path="url(#j)" d="M23.51 76.61h.7v-.7h-.7Z" stroke="none"/><path clip-path="url(#j)" d="M25.6 76.61h.7v-.7h-.7Z" stroke="none"/><path clip-path="url(#j)" d="M26.99 76.61h.7v-.7h-.7Z" stroke="none"/><path clip-path="url(#j)" d="M27.69 76.61h.7v-.7h-.7Z" stroke="none"/><path clip-path="url(#j)" d="M28.39 76.61h.7v-.7h-.7Z" stroke="none"/><path clip-path="url(#j)" d="M29.78 76.61h.7v-.7h-.7Z" stroke="none"/><path clip-path="url(#j)" d="M13.07 77.31h.7v-.7h-.7Z" stroke="none"/><path clip-path="url(#j)" d="M14.46 77.31h.7v-.7h-.7Z" stroke="none"/><path clip-path="url(#j)" d="M15.16 77.31h.7v-.7h-.7Z" stroke="none"/><path clip-path="url(#j)" d="M15.85 77.31h.7v-.7h-.7Z" stroke="none"/><path clip-path="url(#j)" d="M17.25 77.31h.7v-.7h-.7Z" stroke="none"/><path clip-path="url(#j)" d="M18.64 77.31h.7v-.7h-.7Z" stroke="none"/><path clip-path="url(#j)" d="M20.73 77.31h.7v-.7h-.7Z" stroke="none"/><path clip-path="url(#j)" d="M21.42 77.31h.7v-.7h-.7Z" stroke="none"/><path clip-path="url(#j)" d="M22.12 77.31h.7v-.7h-.7Z" stroke="none"/><path clip-path="url(#j)" d="M22.82 77.31h.7v-.7h-.7Z" stroke="none"/><path clip-path="url(#j)" d="M24.21 77.31h.7v-.7h-.7Z" stroke="none"/><path clip-path="url(#j)" d="M25.6 77.31h.7v-.7h-.7Z" stroke="none"/><path clip-path="url(#j)" d="M26.99 77.31h.7v-.7h-.7Z" stroke="none"/><path clip-path="url(#j)" d="M27.69 77.31h.7v-.7h-.7Z" stroke="none"/><path clip-path="url(#j)" d="M28.39 77.31h.7v-.7h-.7Z" stroke="none"/><path clip-path="url(#j)" d="M29.78 77.31h.7v-.7h-.7Z" stroke="none"/><path clip-path="url(#j)" d="M13.07 78.01h.7v-.7h-.7Z" stroke="none"/><path clip-path="url(#j)" d="M17.25 78.01h.7v-.7h-.7Z" stroke="none"/><path clip-path="url(#j)" d="M18.64 78.01h.7v-.7h-.7Z" stroke="none"/><path clip-path="url(#j)" d="M19.34 78.01h.7v-.7h-.7Z" stroke="none"/><path clip-path="url(#j)" d="M20.03 78.01h.7v-.7h-.7Z" stroke="none"/><path clip-path="url(#j)" d="M21.42 78.01h.7v-.7h-.7Z" stroke="none"/><path clip-path="url(#j)" d="M22.12 78.01h.7v-.7h-.7Z" stroke="none"/><path clip-path="url(#j)" d="M22.82 78.01h.7v-.7h-.7Z" stroke="none"/><path clip-path="url(#j)" d="M24.21 78.01h.7v-.7h-.7Z" stroke="none"/><path clip-path="url(#j)" d="M25.6 78.01h.7v-.7h-.7Z" stroke="none"/><path clip-path="url(#j)" d="M29.78 78.01h.7v-.7h-.7Z" stroke="none"/><path clip-path="url(#j)" d="M13.07 78.7h.7v-.7h-.7Z" stroke="none"/><path clip-path="url(#j)" d="M13.76 78.7h.7v-.7h-.7Z" stroke="none"/><path clip-path="url(#j)" d="M14.46 78.7h.7v-.7h-.7Z" stroke="none"/><path clip-path="url(#j)" d="M15.16 78.7h.7v-.7h-.7Z" stroke="none"/><path clip-path="url(#j)" d="M15.85 78.7h.7v-.7h-.7Z" stroke="none"/><path clip-path="url(#j)" d="M16.55 78.7h.7v-.7h-.7Z" stroke="none"/><path clip-path="url(#j)" d="M17.25 78.7h.7v-.7h-.7Z" stroke="none"/><path clip-path="url(#j)" d="M18.64 78.7h.7v-.7h-.7Z" stroke="none"/><path clip-path="url(#j)" d="M20.03 78.7h.7v-.7h-.7Z" stroke="none"/><path clip-path="url(#j)" d="M21.42 78.7h.7v-.7h-.7Z" stroke="none"/><path clip-path="url(#j)" d="M22.82 78.7h.7v-.7h-.7Z" stroke="none"/><path clip-path="url(#j)" d="M24.21 78.7h.7v-.7h-.7Z" stroke="none"/><path clip-path="url(#j)" d="M25.6 78.7h.7v-.7h-.7Z" stroke="none"/><path clip-path="url(#j)" d="M26.3 78.7H27v-.7h-.7Z" stroke="none"/><path clip-path="url(#j)" d="M26.99 78.7h.7v-.7h-.7Z" stroke="none"/><path clip-path="url(#j)" d="M27.69 78.7h.7v-.7h-.7Z" stroke="none"/><path clip-path="url(#j)" d="M28.39 78.7h.7v-.7h-.7Z" stroke="none"/><path clip-path="url(#j)" d="M29.08 78.7h.7v-.7h-.7Z" stroke="none"/><path clip-path="url(#j)" d="M29.78 78.7h.7v-.7h-.7Z" stroke="none"/><path clip-path="url(#j)" d="M18.64 79.4h.7v-.7h-.7Z" stroke="none"/><path clip-path="url(#j)" d="M19.34 79.4h.7v-.7h-.7Z" stroke="none"/><path clip-path="url(#j)" d="M23.51 79.4h.7v-.7h-.7Z" stroke="none"/><path clip-path="url(#j)" d="M24.21 79.4h.7v-.7h-.7Z" stroke="none"/><path clip-path="url(#j)" d="M13.07 80.1h.7v-.7h-.7Z" stroke="none"/><path clip-path="url(#j)" d="M13.76 80.1h.7v-.7h-.7Z" stroke="none"/><path clip-path="url(#j)" d="M14.46 80.1h.7v-.7h-.7Z" stroke="none"/><path clip-path="url(#j)" d="M16.55 80.1h.7v-.7h-.7Z" stroke="none"/><path clip-path="url(#j)" d="M17.25 80.1h.7v-.7h-.7Z" stroke="none"/><path clip-path="url(#j)" d="M18.64 80.1h.7v-.7h-.7Z" stroke="none"/><path clip-path="url(#j)" d="M19.34 80.1h.7v-.7h-.7Z" stroke="none"/><path clip-path="url(#j)" d="M20.73 80.1h.7v-.7h-.7Z" stroke="none"/><path clip-path="url(#j)" d="M21.42 80.1h.7v-.7h-.7Z" stroke="none"/><path clip-path="url(#j)" d="M24.21 80.1h.7v-.7h-.7Z" stroke="none"/><path clip-path="url(#j)" d="M24.91 80.1h.7v-.7h-.7Z" stroke="none"/><path clip-path="url(#j)" d="M25.6 80.1h.7v-.7h-.7Z" stroke="none"/><path clip-path="url(#j)" d="M26.3 80.1H27v-.7h-.7Z" stroke="none"/><path clip-path="url(#j)" d="M26.99 80.1h.7v-.7h-.7Z" stroke="none"/><path clip-path="url(#j)" d="M29.08 80.1h.7v-.7h-.7Z" stroke="none"/><path clip-path="url(#j)" d="M29.78 80.1h.7v-.7h-.7Z" stroke="none"/><path clip-path="url(#j)" d="M13.76 80.79h.7v-.7h-.7Z" stroke="none"/><path clip-path="url(#j)" d="M15.85 80.79h.7v-.7h-.7Z" stroke="none"/><path clip-path="url(#j)" d="M18.64 80.79h.7v-.7h-.7Z" stroke="none"/><path clip-path="url(#j)" d="M21.42 80.79h.7v-.7h-.7Z" stroke="none"/><path clip-path="url(#j)" d="M22.82 80.79h.7v-.7h-.7Z" stroke="none"/><path clip-path="url(#j)" d="M23.51 80.79h.7v-.7h-.7Z" stroke="none"/><path clip-path="url(#j)" d="M24.21 80.79h.7v-.7h-.7Z" stroke="none"/><path clip-path="url(#j)" d="M24.91 80.79h.7v-.7h-.7Z" stroke="none"/><path clip-path="url(#j)" d="M25.6 80.79h.7v-.7h-.7Z" stroke="none"/><path clip-path="url(#j)" d="M26.3 80.79H27v-.7h-.7Z" stroke="none"/><path clip-path="url(#j)" d="M27.69 80.79h.7v-.7h-.7Z" stroke="none"/><path clip-path="url(#j)" d="M29.08 80.79h.7v-.7h-.7Z" stroke="none"/><path clip-path="url(#j)" d="M29.78 80.79h.7v-.7h-.7Z" stroke="none"/><path clip-path="url(#j)" d="M13.07 81.49h.7v-.7h-.7Z" stroke="none"/><path clip-path="url(#j)" d="M13.76 81.49h.7v-.7h-.7Z" stroke="none"/><path clip-path="url(#j)" d="M14.46 81.49h.7v-.7h-.7Z" stroke="none"/><path clip-path="url(#j)" d="M15.16 81.49h.7v-.7h-.7Z" stroke="none"/><path clip-path="url(#j)" d="M16.55 81.49h.7v-.7h-.7Z" stroke="none"/><path clip-path="url(#j)" d="M17.25 81.49h.7v-.7h-.7Z" stroke="none"/><path clip-path="url(#j)" d="M17.94 81.49h.7v-.7h-.7Z" stroke="none"/><path clip-path="url(#j)" d="M18.64 81.49h.7v-.7h-.7Z" stroke="none"/><path clip-path="url(#j)" d="M19.34 81.49h.7v-.7h-.7Z" stroke="none"/><path clip-path="url(#j)" d="M20.03 81.49h.7v-.7h-.7Z" stroke="none"/><path clip-path="url(#j)" d="M21.42 81.49h.7v-.7h-.7Z" stroke="none"/><path clip-path="url(#j)" d="M22.82 81.49h.7v-.7h-.7Z" stroke="none"/><path clip-path="url(#j)" d="M23.51 81.49h.7v-.7h-.7Z" stroke="none"/><path clip-path="url(#j)" d="M24.91 81.49h.7v-.7h-.7Z" stroke="none"/><path clip-path="url(#j)" d="M26.3 81.49H27v-.7h-.7Z" stroke="none"/><path clip-path="url(#j)" d="M26.99 81.49h.7v-.7h-.7Z" stroke="none"/><path clip-path="url(#j)" d="M27.69 81.49h.7v-.7h-.7Z" stroke="none"/><path clip-path="url(#j)" d="M28.39 81.49h.7v-.7h-.7Z" stroke="none"/><path clip-path="url(#j)" d="M29.78 81.49h.7v-.7h-.7Z" stroke="none"/><path clip-path="url(#j)" d="M13.07 82.18h.7v-.7h-.7Z" stroke="none"/><path clip-path="url(#j)" d="M14.46 82.18h.7v-.7h-.7Z" stroke="none"/><path clip-path="url(#j)" d="M15.16 82.18h.7v-.7h-.7Z" stroke="none"/><path clip-path="url(#j)" d="M16.55 82.18h.7v-.7h-.7Z" stroke="none"/><path clip-path="url(#j)" d="M17.94 82.18h.7v-.7h-.7Z" stroke="none"/><path clip-path="url(#j)" d="M20.03 82.18h.7v-.7h-.7Z" stroke="none"/><path clip-path="url(#j)" d="M20.73 82.18h.7v-.7h-.7Z" stroke="none"/><path clip-path="url(#j)" d="M21.42 82.18h.7v-.7h-.7Z" stroke="none"/><path clip-path="url(#j)" d="M22.82 82.18h.7v-.7h-.7Z" stroke="none"/><path clip-path="url(#j)" d="M24.91 82.18h.7v-.7h-.7Z" stroke="none"/><path clip-path="url(#j)" d="M26.99 82.18h.7v-.7h-.7Z" stroke="none"/><path clip-path="url(#j)" d="M27.69 82.18h.7v-.7h-.7Z" stroke="none"/><path clip-path="url(#j)" d="M13.76 82.88h.7v-.7h-.7Z" stroke="none"/><path clip-path="url(#j)" d="M14.46 82.88h.7v-.7h-.7Z" stroke="none"/><path clip-path="url(#j)" d="M17.25 82.88h.7v-.7h-.7Z" stroke="none"/><path clip-path="url(#j)" d="M17.94 82.88h.7v-.7h-.7Z" stroke="none"/><path clip-path="url(#j)" d="M19.34 82.88h.7v-.7h-.7Z" stroke="none"/><path clip-path="url(#j)" d="M20.03 82.88h.7v-.7h-.7Z" stroke="none"/><path clip-path="url(#j)" d="M22.82 82.88h.7v-.7h-.7Z" stroke="none"/><path clip-path="url(#j)" d="M24.21 82.88h.7v-.7h-.7Z" stroke="none"/><path clip-path="url(#j)" d="M25.6 82.88h.7v-.7h-.7Z" stroke="none"/><path clip-path="url(#j)" d="M26.3 82.88H27v-.7h-.7Z" stroke="none"/><path clip-path="url(#j)" d="M29.78 82.88h.7v-.7h-.7Z" stroke="none"/><path clip-path="url(#j)" d="M13.76 83.58h.7v-.7h-.7Z" stroke="none"/><path clip-path="url(#j)" d="M14.46 83.58h.7v-.7h-.7Z" stroke="none"/><path clip-path="url(#j)" d="M16.55 83.58h.7v-.7h-.7Z" stroke="none"/><path clip-path="url(#j)" d="M17.94 83.58h.7v-.7h-.7Z" stroke="none"/><path clip-path="url(#j)" d="M19.34 83.58h.7v-.7h-.7Z" stroke="none"/><path clip-path="url(#j)" d="M20.03 83.58h.7v-.7h-.7Z" stroke="none"/><path clip-path="url(#j)" d="M22.82 83.58h.7v-.7h-.7Z" stroke="none"/><path clip-path="url(#j)" d="M23.51 83.58h.7v-.7h-.7Z" stroke="none"/><path clip-path="url(#j)" d="M24.21 83.58h.7v-.7h-.7Z" stroke="none"/><path clip-path="url(#j)" d="M24.91 83.58h.7v-.7h-.7Z" stroke="none"/><path clip-path="url(#j)" d="M25.6 83.58h.7v-.7h-.7Z" stroke="none"/><path clip-path="url(#j)" d="M26.3 83.58H27v-.7h-.7Z" stroke="none"/><path clip-path="url(#j)" d="M29.08 83.58h.7v-.7h-.7Z" stroke="none"/><path clip-path="url(#j)" d="M29.78 83.58h.7v-.7h-.7Z" stroke="none"/><path clip-path="url(#j)" d="M13.07 84.27h.7v-.7h-.7Z" stroke="none"/><path clip-path="url(#j)" d="M13.76 84.27h.7v-.7h-.7Z" stroke="none"/><path clip-path="url(#j)" d="M14.46 84.27h.7v-.7h-.7Z" stroke="none"/><path clip-path="url(#j)" d="M15.16 84.27h.7v-.7h-.7Z" stroke="none"/><path clip-path="url(#j)" d="M15.85 84.27h.7v-.7h-.7Z" stroke="none"/><path clip-path="url(#j)" d="M16.55 84.27h.7v-.7h-.7Z" stroke="none"/><path clip-path="url(#j)" d="M17.25 84.27h.7v-.7h-.7Z" stroke="none"/><path clip-path="url(#j)" d="M20.03 84.27h.7v-.7h-.7Z" stroke="none"/><path clip-path="url(#j)" d="M20.73 84.27h.7v-.7h-.7Z" stroke="none"/><path clip-path="url(#j)" d="M23.51 84.27h.7v-.7h-.7Z" stroke="none"/><path clip-path="url(#j)" d="M24.21 84.27h.7v-.7h-.7Z" stroke="none"/><path clip-path="url(#j)" d="M24.91 84.27h.7v-.7h-.7Z" stroke="none"/><path clip-path="url(#j)" d="M25.6 84.27h.7v-.7h-.7Z" stroke="none"/><path clip-path="url(#j)" d="M27.69 84.27h.7v-.7h-.7Z" stroke="none"/><path clip-path="url(#j)" d="M28.39 84.27h.7v-.7h-.7Z" stroke="none"/><path clip-path="url(#j)" d="M29.78 84.27h.7v-.7h-.7Z" stroke="none"/><path clip-path="url(#j)" d="M14.46 84.97h.7v-.7h-.7Z" stroke="none"/><path clip-path="url(#j)" d="M17.94 84.97h.7v-.7h-.7Z" stroke="none"/><path clip-path="url(#j)" d="M18.64 84.97h.7v-.7h-.7Z" stroke="none"/><path clip-path="url(#j)" d="M20.03 84.97h.7v-.7h-.7Z" stroke="none"/><path clip-path="url(#j)" d="M22.82 84.97h.7v-.7h-.7Z" stroke="none"/><path clip-path="url(#j)" d="M23.51 84.97h.7v-.7h-.7Z" stroke="none"/><path clip-path="url(#j)" d="M24.21 84.97h.7v-.7h-.7Z" stroke="none"/><path clip-path="url(#j)" d="M26.3 84.97H27v-.7h-.7Z" stroke="none"/><path clip-path="url(#j)" d="M26.99 84.97h.7v-.7h-.7Z" stroke="none"/><path clip-path="url(#j)" d="M27.69 84.97h.7v-.7h-.7Z" stroke="none"/><path clip-path="url(#j)" d="M13.07 85.67h.7v-.7h-.7Z" stroke="none"/><path clip-path="url(#j)" d="M13.76 85.67h.7v-.7h-.7Z" stroke="none"/><path clip-path="url(#j)" d="M17.25 85.67h.7v-.7h-.7Z" stroke="none"/><path clip-path="url(#j)" d="M17.94 85.67h.7v-.7h-.7Z" stroke="none"/><path clip-path="url(#j)" d="M18.64 85.67h.7v-.7h-.7Z" stroke="none"/><path clip-path="url(#j)" d="M19.34 85.67h.7v-.7h-.7Z" stroke="none"/><path clip-path="url(#j)" d="M20.73 85.67h.7v-.7h-.7Z" stroke="none"/><path clip-path="url(#j)" d="M21.42 85.67h.7v-.7h-.7Z" stroke="none"/><path clip-path="url(#j)" d="M22.82 85.67h.7v-.7h-.7Z" stroke="none"/><path clip-path="url(#j)" d="M24.21 85.67h.7v-.7h-.7Z" stroke="none"/><path clip-path="url(#j)" d="M24.91 85.67h.7v-.7h-.7Z" stroke="none"/><path clip-path="url(#j)" d="M25.6 85.67h.7v-.7h-.7Z" stroke="none"/><path clip-path="url(#j)" d="M26.3 85.67H27v-.7h-.7Z" stroke="none"/><path clip-path="url(#j)" d="M26.99 85.67h.7v-.7h-.7Z" stroke="none"/><path clip-path="url(#j)" d="M29.08 85.67h.7v-.7h-.7Z" stroke="none"/><path clip-path="url(#j)" d="M18.64 86.36h.7v-.7h-.7Z" stroke="none"/><path clip-path="url(#j)" d="M21.42 86.36h.7v-.7h-.7Z" stroke="none"/><path clip-path="url(#j)" d="M22.12 86.36h.7v-.7h-.7Z" stroke="none"/><path clip-path="url(#j)" d="M22.82 86.36h.7v-.7h-.7Z" stroke="none"/><path clip-path="url(#j)" d="M24.21 86.36h.7v-.7h-.7Z" stroke="none"/><path clip-path="url(#j)" d="M26.99 86.36h.7v-.7h-.7Z" stroke="none"/><path clip-path="url(#j)" d="M29.78 86.36h.7v-.7h-.7Z" stroke="none"/><path clip-path="url(#j)" d="M13.07 87.06h.7v-.7h-.7Z" stroke="none"/><path clip-path="url(#j)" d="M13.76 87.06h.7v-.7h-.7Z" stroke="none"/><path clip-path="url(#j)" d="M14.46 87.06h.7v-.7h-.7Z" stroke="none"/><path clip-path="url(#j)" d="M15.16 87.06h.7v-.7h-.7Z" stroke="none"/><path clip-path="url(#j)" d="M15.85 87.06h.7v-.7h-.7Z" stroke="none"/><path clip-path="url(#j)" d="M16.55 87.06h.7v-.7h-.7Z" stroke="none"/><path clip-path="url(#j)" d="M17.25 87.06h.7v-.7h-.7Z" stroke="none"/><path clip-path="url(#j)" d="M20.03 87.06h.7v-.7h-.7Z" stroke="none"/><path clip-path="url(#j)" d="M21.42 87.06h.7v-.7h-.7Z" stroke="none"/><path clip-path="url(#j)" d="M22.12 87.06h.7v-.7h-.7Z" stroke="none"/><path clip-path="url(#j)" d="M22.82 87.06h.7v-.7h-.7Z" stroke="none"/><path clip-path="url(#j)" d="M24.21 87.06h.7v-.7h-.7Z" stroke="none"/><path clip-path="url(#j)" d="M25.6 87.06h.7v-.7h-.7Z" stroke="none"/><path clip-path="url(#j)" d="M26.99 87.06h.7v-.7h-.7Z" stroke="none"/><path clip-path="url(#j)" d="M29.78 87.06h.7v-.7h-.7Z" stroke="none"/><path clip-path="url(#j)" d="M13.07 87.75h.7v-.7h-.7Z" stroke="none"/><path clip-path="url(#j)" d="M17.25 87.75h.7v-.7h-.7Z" stroke="none"/><path clip-path="url(#j)" d="M18.64 87.75h.7v-.7h-.7Z" stroke="none"/><path clip-path="url(#j)" d="M20.73 87.75h.7v-.7h-.7Z" stroke="none"/><path clip-path="url(#j)" d="M21.42 87.75h.7v-.7h-.7Z" stroke="none"/><path clip-path="url(#j)" d="M24.21 87.75h.7v-.7h-.7Z" stroke="none"/><path clip-path="url(#j)" d="M26.99 87.75h.7v-.7h-.7Z" stroke="none"/><path clip-path="url(#j)" d="M13.07 88.45h.7v-.7h-.7Z" stroke="none"/><path clip-path="url(#j)" d="M14.46 88.45h.7v-.7h-.7Z" stroke="none"/><path clip-path="url(#j)" d="M15.16 88.45h.7v-.7h-.7Z" stroke="none"/><path clip-path="url(#j)" d="M15.85 88.45h.7v-.7h-.7Z" stroke="none"/><path clip-path="url(#j)" d="M17.25 88.45h.7v-.7h-.7Z" stroke="none"/><path clip-path="url(#j)" d="M19.34 88.45h.7v-.7h-.7Z" stroke="none"/><path clip-path="url(#j)" d="M20.03 88.45h.7v-.7h-.7Z" stroke="none"/><path clip-path="url(#j)" d="M21.42 88.45h.7v-.7h-.7Z" stroke="none"/><path clip-path="url(#j)" d="M22.82 88.45h.7v-.7h-.7Z" stroke="none"/><path clip-path="url(#j)" d="M23.51 88.45h.7v-.7h-.7Z" stroke="none"/><path clip-path="url(#j)" d="M24.21 88.45h.7v-.7h-.7Z" stroke="none"/><path clip-path="url(#j)" d="M24.91 88.45h.7v-.7h-.7Z" stroke="none"/><path clip-path="url(#j)" d="M25.6 88.45h.7v-.7h-.7Z" stroke="none"/><path clip-path="url(#j)" d="M26.3 88.45H27v-.7h-.7Z" stroke="none"/><path clip-path="url(#j)" d="M26.99 88.45h.7v-.7h-.7Z" stroke="none"/><path clip-path="url(#j)" d="M29.08 88.45h.7v-.7h-.7Z" stroke="none"/><path clip-path="url(#j)" d="M13.07 89.15h.7v-.7h-.7Z" stroke="none"/><path clip-path="url(#j)" d="M14.46 89.15h.7v-.7h-.7Z" stroke="none"/><path clip-path="url(#j)" d="M15.16 89.15h.7v-.7h-.7Z" stroke="none"/><path clip-path="url(#j)" d="M15.85 89.15h.7v-.7h-.7Z" stroke="none"/><path clip-path="url(#j)" d="M17.25 89.15h.7v-.7h-.7Z" stroke="none"/><path clip-path="url(#j)" d="M20.03 89.15h.7v-.7h-.7Z" stroke="none"/><path clip-path="url(#j)" d="M22.12 89.15h.7v-.7h-.7Z" stroke="none"/><path clip-path="url(#j)" d="M22.82 89.15h.7v-.7h-.7Z" stroke="none"/><path clip-path="url(#j)" d="M23.51 89.15h.7v-.7h-.7Z" stroke="none"/><path clip-path="url(#j)" d="M24.91 89.15h.7v-.7h-.7Z" stroke="none"/><path clip-path="url(#j)" d="M26.99 89.15h.7v-.7h-.7Z" stroke="none"/><path clip-path="url(#j)" d="M28.39 89.15h.7v-.7h-.7Z" stroke="none"/><path clip-path="url(#j)" d="M29.08 89.15h.7v-.7h-.7Z" stroke="none"/><path clip-path="url(#j)" d="M13.07 89.84h.7v-.7h-.7Z" stroke="none"/><path clip-path="url(#j)" d="M14.46 89.84h.7v-.7h-.7Z" stroke="none"/><path clip-path="url(#j)" d="M15.16 89.84h.7v-.7h-.7Z" stroke="none"/><path clip-path="url(#j)" d="M15.85 89.84h.7v-.7h-.7Z" stroke="none"/><path clip-path="url(#j)" d="M17.25 89.84h.7v-.7h-.7Z" stroke="none"/><path clip-path="url(#j)" d="M18.64 89.84h.7v-.7h-.7Z" stroke="none"/><path clip-path="url(#j)" d="M20.03 89.84h.7v-.7h-.7Z" stroke="none"/><path clip-path="url(#j)" d="M20.73 89.84h.7v-.7h-.7Z" stroke="none"/><path clip-path="url(#j)" d="M22.12 89.84h.7v-.7h-.7Z" stroke="none"/><path clip-path="url(#j)" d="M22.82 89.84h.7v-.7h-.7Z" stroke="none"/><path clip-path="url(#j)" d="M23.51 89.84h.7v-.7h-.7Z" stroke="none"/><path clip-path="url(#j)" d="M24.21 89.84h.7v-.7h-.7Z" stroke="none"/><path clip-path="url(#j)" d="M26.3 89.84H27v-.7h-.7Z" stroke="none"/><path clip-path="url(#j)" d="M26.99 89.84h.7v-.7h-.7Z" stroke="none"/><path clip-path="url(#j)" d="M27.69 89.84h.7v-.7h-.7Z" stroke="none"/><path clip-path="url(#j)" d="M29.08 89.84h.7v-.7h-.7Z" stroke="none"/><path clip-path="url(#j)" d="M29.78 89.84h.7v-.7h-.7Z" stroke="none"/><path clip-path="url(#j)" d="M13.07 90.54h.7v-.7h-.7Z" stroke="none"/><path clip-path="url(#j)" d="M17.25 90.54h.7v-.7h-.7Z" stroke="none"/><path clip-path="url(#j)" d="M18.64 90.54h.7v-.7h-.7Z" stroke="none"/><path clip-path="url(#j)" d="M20.03 90.54h.7v-.7h-.7Z" stroke="none"/><path clip-path="url(#j)" d="M20.73 90.54h.7v-.7h-.7Z" stroke="none"/><path clip-path="url(#j)" d="M21.42 90.54h.7v-.7h-.7Z" stroke="none"/><path clip-path="url(#j)" d="M22.82 90.54h.7v-.7h-.7Z" stroke="none"/><path clip-path="url(#j)" d="M24.21 90.54h.7v-.7h-.7Z" stroke="none"/><path clip-path="url(#j)" d="M26.3 90.54H27v-.7h-.7Z" stroke="none"/><path clip-path="url(#j)" d="M26.99 90.54h.7v-.7h-.7Z" stroke="none"/><path clip-path="url(#j)" d="M13.07 91.24h.7v-.7h-.7Z" stroke="none"/><path clip-path="url(#j)" d="M13.76 91.24h.7v-.7h-.7Z" stroke="none"/><path clip-path="url(#j)" d="M14.46 91.24h.7v-.7h-.7Z" stroke="none"/><path clip-path="url(#j)" d="M15.16 91.24h.7v-.7h-.7Z" stroke="none"/><path clip-path="url(#j)" d="M15.85 91.24h.7v-.7h-.7Z" stroke="none"/><path clip-path="url(#j)" d="M16.55 91.24h.7v-.7h-.7Z" stroke="none"/><path clip-path="url(#j)" d="M17.25 91.24h.7v-.7h-.7Z" stroke="none"/><path clip-path="url(#j)" d="M18.64 91.24h.7v-.7h-.7Z" stroke="none"/><path clip-path="url(#j)" d="M20.03 91.24h.7v-.7h-.7Z" stroke="none"/><path clip-path="url(#j)" d="M20.73 91.24h.7v-.7h-.7Z" stroke="none"/><path clip-path="url(#j)" d="M21.42 91.24h.7v-.7h-.7Z" stroke="none"/><path clip-path="url(#j)" d="M24.21 91.24h.7v-.7h-.7Z" stroke="none"/><path clip-path="url(#j)" d="M24.91 91.24h.7v-.7h-.7Z" stroke="none"/><path clip-path="url(#j)" d="M27.69 91.24h.7v-.7h-.7Z" stroke="none"/><path clip-path="url(#j)" d="M29.78 91.24h.7v-.7h-.7Z" stroke="none"/><path clip-path="url(#k)" d="M94 71.19V58.33h18.25c6.3 0 11.43-4.02 11.43-10.32s-5.13-11.43-11.43-11.43H94V23.71h18.25c13.4 0 24.29 10.9 24.29 24.29s-10.9 23.18-24.29 23.18Z" stroke="none"/><path clip-path="url(#k)" d="M89.4 71.05H85.59c-5 0-9.06-4.05-9.06-9.06V40.41H89.4Z" stroke="none"/><path clip-path="url(#k)" d="M89.33 36.53H76.54V23.71H89.33Z" fill="#F16D00" stroke="none"/><path clip-path="url(#k)" d="M135.93 82.58c0-.27.02-.55.06-.84s.1-.56.19-.83.2-.5.34-.72.3-.38.49-.5.41-.19.66-.19c.29 0 .53.07.73.2s.35.31.47.52.21.46.27.73.1.54.12.82.03.54.03.79c0 .43-.03.83-.08 1.2s-.14.69-.26.97-.29.49-.49.65-.45.23-.75.24c-.34-.01-.62-.1-.85-.27s-.41-.41-.55-.71-.23-.62-.29-.98-.09-.72-.09-1.08M134.4 88.7h1.54V85.52h.04c.05.12.13.25.24.4s.25.29.42.42.38.25.63.34.54.14.88.14c.62 0 1.14-.18 1.56-.54s.75-.85.97-1.51.33-1.44.33-2.35c0-.58-.05-1.12-.16-1.62s-.27-.93-.49-1.31-.51-.66-.87-.87-.77-.31-1.26-.32c-.33 0-.63.06-.89.16s-.48.23-.67.38-.34.31-.45.47-.2.3-.24.42h-.04V78.5H134.4Zm-5.69-2.07h1.54V83.18c0-.62.07-1.14.2-1.55s.32-.74.55-.98.5-.41.81-.51.63-.15.98-.15V78.31c-.4.01-.75.07-1.04.19s-.54.28-.73.47-.36.39-.48.6-.2.39-.26.56h-.03V78.5h-1.54Zm-7.41-4.07c0-.26.01-.54.03-.82s.07-.56.14-.82.18-.51.32-.72.32-.38.55-.51.51-.19.85-.19.61.07.83.19.41.29.55.51.25.45.32.72.12.54.15.82.04.56.04.82-.01.54-.04.82-.07.56-.15.82-.18.5-.32.72-.32.38-.55.51-.5.19-.83.19-.62-.07-.85-.19-.41-.3-.55-.51-.25-.45-.32-.72-.12-.54-.14-.82-.04-.56-.03-.82m1.9 4.25c.61 0 1.14-.1 1.59-.31s.82-.49 1.12-.86.52-.82.66-1.34.22-1.1.22-1.75c0-.87-.13-1.62-.39-2.26s-.65-1.12-1.18-1.47-1.2-.52-2.01-.53c-.82.01-1.49.18-2.03.53s-.93.83-1.19 1.47-.39 1.39-.39 2.26c0 .64.07 1.23.22 1.75s.37.97.66 1.34.67.66 1.13.86.98.3 1.6.31m-4.66-1.37c-.22.07-.44.11-.65.14s-.43.04-.64.03c-.51 0-.95-.08-1.32-.23s-.68-.34-.92-.59-.44-.53-.59-.85-.25-.64-.31-.98-.09-.67-.09-.99c0-.5.07-.94.21-1.31s.33-.66.57-.86.54-.3.88-.31c.28 0 .5.06.67.17s.29.25.38.42.14.35.16.53.04.36.04.52h1.76c0-.34-.04-.67-.13-1.01s-.24-.64-.46-.91-.51-.5-.89-.66-.85-.25-1.43-.26c-.61 0-1.13.1-1.57.3s-.8.48-1.08.83-.49.77-.62 1.26-.2 1-.2 1.58c0 .41.04.82.12 1.25s.21.83.39 1.22.42.74.73 1.05.69.56 1.14.74.99.28 1.61.28c.47 0 .9-.03 1.26-.08s.7-.13.99-.23Zm-12.19-4.51c0-.1.02-.22.08-.38s.14-.32.26-.48.29-.3.5-.41.47-.17.79-.17c.29 0 .53.05.73.15s.34.22.46.37.19.31.24.47.07.31.07.44Zm4.46 4.39c-.18.06-.39.13-.64.19s-.55.09-.9.1c-.44 0-.83-.08-1.17-.23s-.61-.36-.85-.61-.42-.55-.56-.86-.25-.65-.32-.98-.1-.66-.1-.97h4.71v-.39c0-.48-.06-.92-.18-1.32s-.3-.74-.55-1.03-.55-.51-.92-.67-.8-.24-1.3-.24c-.21 0-.46.02-.75.07s-.57.15-.87.29-.57.36-.83.64-.46.66-.62 1.12-.24 1.04-.25 1.74c.01 1.06.17 1.94.5 2.62s.79 1.19 1.39 1.53 1.32.5 2.14.5c.29 0 .55-.01.77-.04s.43-.06.63-.1.41-.09.63-.14Zm-7.17.17c-.11.03-.24.06-.39.08s-.29.03-.43.03c-.3 0-.53-.05-.71-.15s-.31-.22-.39-.37-.14-.33-.16-.51-.04-.37-.04-.56V79.7h2.25V78.5H101.5V75.63l-1.54.96V78.5H98.51V79.7h1.45v5.14c0 .28.03.54.11.78s.2.45.38.63.43.32.75.42.72.15 1.21.15c.21 0 .41-.01.61-.03s.41-.05.6-.09ZM90.43 86.63h1.54V83.18c0-.41.05-.81.16-1.2s.25-.75.44-1.07.42-.57.68-.76.55-.29.87-.29c.28 0 .49.05.64.15s.26.25.33.45.11.44.12.73.02.62.02 1v4.44h1.54V81c0-.2-.02-.43-.05-.67s-.09-.48-.18-.72-.21-.45-.38-.65-.38-.36-.64-.47-.57-.18-.95-.18c-.41.01-.77.07-1.07.21s-.54.3-.74.5-.36.41-.49.63-.22.41-.28.59h-.03V78.5H90.43Zm-4-3.64v.46c0 .24-.05.49-.14.74s-.22.48-.38.7-.36.39-.59.52-.47.2-.73.21c-.16 0-.3-.05-.44-.13s-.24-.21-.32-.36-.13-.34-.13-.55c0-.26.07-.49.21-.69s.32-.36.55-.49.49-.24.78-.3.58-.1.89-.1Zm0 3.64h1.54V81.05c0-.15 0-.34-.02-.57s-.07-.46-.15-.71-.22-.48-.4-.7-.45-.4-.79-.54-.77-.21-1.3-.21c-.57 0-1.04.07-1.43.2s-.7.31-.94.53-.41.49-.51.78-.16.6-.16.93h1.62c0-.22.04-.42.13-.61s.23-.34.42-.46.44-.18.74-.18c.2 0 .38.03.55.09s.32.18.44.33.2.36.25.62v1.42c-.42 0-.83.02-1.25.07s-.82.13-1.2.25-.72.28-1.02.48-.53.46-.7.76-.26.67-.26 1.1.09.8.26 1.13.43.59.78.77.77.28 1.27.28c.31 0 .59-.05.82-.13s.44-.18.61-.31.31-.25.42-.39.19-.26.24-.37h.03Zm-18.05 0h1.54V76.86h.03l3.38 9.77h1.62l3.38-9.77h.04v9.77h1.54V74.85H77.52L74.17 84.5h-.04l-3.35-9.65H68.38Z" fill="#F16D00" stroke="none"/><path clip-path="url(#k)" d="M69.38 97.6c-.65 0-1.2-.2-1.51-.42l-.09-.76c.42.33.99.56 1.63.56.69 0 1.17-.4 1.17-.98s-.34-.91-1.1-1.17c-1.03-.35-1.54-.85-1.54-1.67 0-.76.57-1.5 1.75-1.5.55 0 1.01.17 1.24.33l-.15.6c-.22-.15-.66-.34-1.11-.34-.67 0-1.04.41-1.04.85 0 .47.32.77 1 1.01 1.02.37 1.67.82 1.67 1.82s-.71 1.67-1.91 1.67" stroke="none"/><path clip-path="url(#k)" d="M74.44 95.59l-.89.08c-.55.06-.82.37-.82.74 0 .36.28.64.71.64.51 0 1-.39 1-1Zm.74 2.07c-.28-.06-.6-.31-.66-.69-.17.48-.64.69-1.14.69-.81 0-1.33-.58-1.33-1.25 0-.81.65-1.24 1.35-1.3l1.04-.1v-.33c0-.44-.29-.75-.9-.75-.41 0-.83.13-1.12.32l-.15-.59c.35-.23.81-.35 1.3-.35.91 0 1.57.51 1.57 1.44v1.79c0 .39.22.61.48.66Z" stroke="none"/><path clip-path="url(#k)" d="M78.96 91.82c-.31.36-.69.65-1.09.91l-.37-.16c.35-.27.78-.7 1.04-1.09.05-.07.15-.12.2-.12.1 0 .31.22.31.31 0 .04-.05.1-.1.16m.21 5.74v-.58h-.01c-.16.37-.56.68-1.31.68-.9 0-1.58-.57-1.58-1.48V93.41h.71v2.7c0 .5.34.94 1.05.94.7 0 1.09-.43 1.09-.94v-2.7h.71v4.15Z" stroke="none"/><path clip-path="url(#k)" d="M83.94 94.4c-.17-.18-.54-.45-1.11-.45-.81 0-1.46.63-1.46 1.55s.65 1.55 1.46 1.55c.54 0 .93-.28 1.11-.54Zm.04 3.16V97.1h-.01c-.19.28-.61.56-1.28.56-.98 0-2.03-.78-2.03-2.17 0-1.27.91-2.18 2.11-2.18.49 0 1 .2 1.17.39V91.04h.71v6.52Z" stroke="none"/><path clip-path="url(#k)" d="M87.61 93.9c-.62 0-1.21.52-1.32 1.15h2.37c.01-.04.01-.08.01-.13 0-.49-.38-1.02-1.06-1.02m1.72 1.31l-.39.39h-2.7c0 .68.57 1.47 1.59 1.47.51 0 .9-.15 1.21-.36l-.08.67c-.29.17-.67.28-1.21.28-1.19 0-2.21-.89-2.21-2.17 0-1.36 1.04-2.18 2.02-2.18 1.15 0 1.79.81 1.79 1.59 0 .12-.01.22-.03.3" stroke="none"/><path clip-path="url(#k)" d="M94.16 93.95c-.54 0-.92.27-1.11.54v2.1c.17.18.54.45 1.11.45.81 0 1.46-.63 1.46-1.55s-.65-1.55-1.46-1.55m.06 3.71c-.49 0-1-.2-1.17-.39v2.41h-.71V93.41h.67v.46h.01c.19-.28.61-.56 1.28-.56.98 0 2.03.78 2.03 2.17 0 1.27-.91 2.18-2.11 2.18" stroke="none"/><path clip-path="url(#k)" d="M99.05 93.9c-.62 0-1.21.52-1.32 1.15h2.37c.01-.04.01-.08.01-.13 0-.49-.38-1.02-1.06-1.02m1.72 1.31l-.39.39h-2.7c0 .68.57 1.47 1.59 1.47.51 0 .9-.15 1.21-.36l-.08.67c-.29.17-.67.28-1.21.28-1.19 0-2.21-.89-2.21-2.17 0-1.36 1.04-2.18 2.02-2.18 1.15 0 1.79.81 1.79 1.59 0 .12-.01.22-.03.3" stroke="none"/><path clip-path="url(#k)" d="M103.82 94.12c-.07-.02-.19-.05-.31-.05-.59 0-1.18.36-1.18 1.38v2.1h-.68V93.41h.68v.91h.01c.14-.59.61-.96 1.25-.96.12 0 .3.02.4.05Z" stroke="none"/><path clip-path="url(#k)" d="M105.63 97.61c-.5 0-.87-.13-1.14-.32l-.09-.73c.3.27.76.48 1.25.48.43 0 .75-.23.75-.58s-.26-.54-.69-.7c-.78-.27-1.22-.63-1.22-1.28 0-.67.55-1.12 1.31-1.12.45 0 .87.16 1.03.26l-.15.58c-.18-.14-.48-.28-.9-.28-.38 0-.64.22-.64.53 0 .33.23.47.66.63.8.29 1.26.66 1.26 1.35s-.52 1.18-1.44 1.18" stroke="none"/><path clip-path="url(#k)" d="M109.86 93.95c-.81 0-1.48.63-1.48 1.55s.67 1.54 1.48 1.54 1.47-.62 1.47-1.54-.67-1.55-1.47-1.55m0 3.71c-1.24 0-2.2-.9-2.2-2.17 0-1.28.96-2.18 2.2-2.18s2.19.9 2.19 2.18c0 1.27-.95 2.17-2.19 2.17" stroke="none"/><path clip-path="url(#k)" d="M115.75 97.56v-2.7c0-.5-.34-.93-1.05-.93-.69 0-1.09.43-1.09.93v2.7h-.71V93.41h.65v.58h.01c.16-.37.56-.68 1.31-.68.91 0 1.58.57 1.58 1.48v2.76Z" stroke="none"/><path clip-path="url(#k)" d="M119.69 95.59l-.89.08c-.55.06-.82.37-.82.74 0 .36.28.64.71.64.51 0 1-.39 1-1Zm.74 2.07c-.28-.06-.6-.31-.66-.69-.17.48-.64.69-1.14.69-.81 0-1.33-.58-1.33-1.25 0-.81.65-1.24 1.35-1.3l1.04-.1v-.33c0-.44-.29-.75-.9-.75-.41 0-.83.13-1.12.32l-.15-.59c.35-.23.81-.35 1.3-.35.91 0 1.57.51 1.57 1.44v1.79c0 .39.22.61.48.66Z" stroke="none"/><path clip-path="url(#k)" d="M122.31 97.72c-.3-.08-.77-.37-.77-1.1V91.04h.7v5.48c0 .39.28.65.55.71Z" stroke="none"/><path clip-path="url(#k)" d="M123.61 93.41h.71v4.15h-.71Zm.36-.82c-.15 0-.45-.31-.45-.46s.3-.45.45-.45.46.29.46.45-.3.46-.46.46" stroke="none"/><path clip-path="url(#k)" d="M125.28 97.56v-.15l1.38-2.27c.22-.36.49-.82.71-1.15l-.01-.02h-1.93v-.57h2.95v.15l-1.39 2.27c-.22.36-.46.75-.71 1.14l.01.02h2.25v.57Z" stroke="none"/><path clip-path="url(#k)" d="M131.58 95.59l-.89.08c-.55.06-.82.37-.82.74 0 .36.28.64.71.64.51 0 1-.39 1-1Zm.74 2.07c-.28-.06-.6-.31-.66-.69-.17.48-.64.69-1.14.69-.81 0-1.33-.58-1.33-1.25 0-.81.65-1.24 1.35-1.3l1.04-.1v-.33c0-.44-.29-.75-.9-.75-.41 0-.83.13-1.12.32l-.15-.59c.35-.23.81-.35 1.3-.35.91 0 1.57.51 1.57 1.44v1.79c0 .39.22.61.48.66Z" stroke="none"/><path clip-path="url(#k)" d="M136.42 94.4c-.16-.18-.54-.45-1.11-.45-.82 0-1.46.63-1.46 1.55s.65 1.55 1.46 1.55c.54 0 .92-.28 1.11-.54Zm.04 3.16V97.1h-.01c-.19.28-.61.56-1.28.56-.98 0-2.03-.78-2.03-2.17 0-1.27.91-2.18 2.11-2.18.49 0 1 .2 1.17.39V91.04h.71v6.52Z" stroke="none"/><path clip-path="url(#k)" d="M140.42 95.59l-.89.08c-.55.06-.83.37-.83.74 0 .36.28.64.71.64.51 0 1-.39 1-1Zm.74 2.07c-.28-.06-.61-.31-.66-.69-.17.48-.64.69-1.14.69-.81 0-1.33-.58-1.33-1.25 0-.81.65-1.24 1.35-1.3l1.04-.1v-.33c0-.44-.29-.75-.9-.75-.41 0-.83.13-1.12.32l-.15-.59c.35-.23.81-.35 1.3-.35.91 0 1.57.51 1.57 1.44v1.79c0 .39.22.61.48.66Z" stroke="none"/></g></g></svg>